<?xml version="1.0" encoding="UTF-8" standalone="no"?>
<svg
   xmlns:dc="http://purl.org/dc/elements/1.1/"
   xmlns:cc="http://creativecommons.org/ns#"
   xmlns:rdf="http://www.w3.org/1999/02/22-rdf-syntax-ns#"
   xmlns:svg="http://www.w3.org/2000/svg"
   xmlns="http://www.w3.org/2000/svg"
   xmlns:xlink="http://www.w3.org/1999/xlink"
   xmlns:sodipodi="http://sodipodi.sourceforge.net/DTD/sodipodi-0.dtd"
   xmlns:inkscape="http://www.inkscape.org/namespaces/inkscape"
   width="600"
   height="480"
   viewBox="0 0 600 480"
   id="svg3109"
   version="1.1"
   sodipodi:docname="derivative-of-a-polynomial.svg">
  <metadata
     id="metadata3239">
    <rdf:RDF>
      <cc:Work
         rdf:about="">
        <dc:format>image/svg+xml</dc:format>
        <dc:type
           rdf:resource="http://purl.org/dc/dcmitype/StillImage" />
        <dc:title>Gnuplot</dc:title>
      </cc:Work>
    </rdf:RDF>
  </metadata>
  <defs
     id="defs3237">
    <defs
       id="defs11">
      <circle
         r="0.5"
         id="gpDot-8"
         cx="0"
         cy="0"
         sodipodi:cx="0"
         sodipodi:cy="0"
         sodipodi:rx="0.5"
         sodipodi:ry="0.5"
         style="stroke-width:0.5" />
      <path
         d="M -1,0 H 1 M 0,-1 v 2"
         id="gpPt0-9"
         inkscape:connector-curvature="0"
         style="stroke:currentColor;stroke-width:0.222" />
      <path
         d="M -1,-1 1,1 M 1,-1 -1,1"
         id="gpPt1-1"
         inkscape:connector-curvature="0"
         style="stroke:currentColor;stroke-width:0.222" />
      <path
         d="M -1,0 1,0 M 0,-1 0,1 m -1,-2 2,2 m -2,0 2,-2"
         id="gpPt2-7"
         inkscape:connector-curvature="0"
         style="stroke:currentColor;stroke-width:0.222" />
      <rect
         height="2"
         width="2"
         y="-1"
         x="-1"
         id="gpPt3-7"
         style="stroke:currentColor;stroke-width:0.222" />
      <rect
         height="2"
         width="2"
         y="-1"
         x="-1"
         id="gpPt4-2"
         style="fill:currentColor;stroke:currentColor;stroke-width:0.222" />
      <circle
         r="1"
         cy="0"
         cx="0"
         id="gpPt5-1"
         sodipodi:cx="0"
         sodipodi:cy="0"
         sodipodi:rx="1"
         sodipodi:ry="1"
         style="stroke:currentColor;stroke-width:0.222" />
      <use
         id="gpPt6-0"
         xlink:href="#gpPt5-1"
         style="fill:currentColor;stroke:none"
         x="0"
         y="0"
         width="744.09448"
         height="1052.3622" />
      <path
         d="m 0,-1.33 -1.33,2 2.66,0 z"
         id="gpPt7-5"
         inkscape:connector-curvature="0"
         style="stroke:currentColor;stroke-width:0.222" />
      <use
         id="gpPt8-5"
         xlink:href="#gpPt7-5"
         style="fill:currentColor;stroke:none"
         x="0"
         y="0"
         width="744.09448"
         height="1052.3622" />
      <use
         transform="scale(-1,-1)"
         id="gpPt9-5"
         xlink:href="#gpPt7-5"
         style="stroke:currentColor"
         x="0"
         y="0"
         width="744.09448"
         height="1052.3622" />
      <use
         id="gpPt10-4"
         xlink:href="#gpPt9-5"
         style="fill:currentColor;stroke:none"
         x="0"
         y="0"
         width="744.09448"
         height="1052.3622" />
      <use
         transform="matrix(0.70710678,0.70710678,-0.70710678,0.70710678,0,0)"
         id="gpPt11-1"
         xlink:href="#gpPt3-7"
         style="stroke:currentColor"
         x="0"
         y="0"
         width="744.09448"
         height="1052.3622" />
      <use
         id="gpPt12-6"
         xlink:href="#gpPt11-1"
         style="fill:currentColor;stroke:none"
         x="0"
         y="0"
         width="744.09448"
         height="1052.3622" />
    </defs>
    <defs
       id="defs3118">
      <circle
         stroke-width="0.5"
         r="0.5"
         id="gpDot" />
      <path
         d="M-1,0 h2 M0,-1 v2"
         stroke="currentColor"
         stroke-width="0.222"
         id="gpPt0" />
      <path
         d="M-1,-1 L1,1 M1,-1 L-1,1"
         stroke="currentColor"
         stroke-width="0.222"
         id="gpPt1" />
      <path
         d="M-1,0 L1,0 M0,-1 L0,1 M-1,-1 L1,1 M-1,1 L1,-1"
         stroke="currentColor"
         stroke-width="0.222"
         id="gpPt2" />
      <rect
         height="2"
         width="2"
         y="-1"
         x="-1"
         stroke="currentColor"
         stroke-width="0.222"
         id="gpPt3" />
      <rect
         height="2"
         width="2"
         y="-1"
         x="-1"
         fill="currentColor"
         stroke="currentColor"
         stroke-width="0.222"
         id="gpPt4" />
      <circle
         r="1"
         cy="0"
         cx="0"
         stroke="currentColor"
         stroke-width="0.222"
         id="gpPt5" />
      <use
         stroke="none"
         fill="currentColor"
         id="gpPt6"
         xlink:href="#gpPt5" />
      <path
         d="M0,-1.33 L-1.33,0.67 L1.33,0.67 z"
         stroke="currentColor"
         stroke-width="0.222"
         id="gpPt7" />
      <use
         stroke="none"
         fill="currentColor"
         id="gpPt8"
         xlink:href="#gpPt7" />
      <use
         transform="rotate(180)"
         stroke="currentColor"
         id="gpPt9"
         xlink:href="#gpPt7" />
      <use
         stroke="none"
         fill="currentColor"
         id="gpPt10"
         xlink:href="#gpPt9" />
      <use
         transform="rotate(45)"
         stroke="currentColor"
         id="gpPt11"
         xlink:href="#gpPt3" />
      <use
         stroke="none"
         fill="currentColor"
         id="gpPt12"
         xlink:href="#gpPt11" />
    </defs>
  </defs>
  <sodipodi:namedview
     pagecolor="#ffffff"
     bordercolor="#666666"
     borderopacity="1"
     objecttolerance="10"
     gridtolerance="10"
     guidetolerance="10"
     inkscape:pageopacity="0"
     inkscape:pageshadow="2"
     inkscape:window-width="1280"
     inkscape:window-height="996"
     id="namedview3235"
     showgrid="false"
     inkscape:zoom="1.8867406"
     inkscape:cx="-224.77709"
     inkscape:cy="51.864407"
     inkscape:window-x="0"
     inkscape:window-y="0"
     inkscape:window-maximized="1"
     inkscape:current-layer="svg3109" />
  <title
     id="title3111">Gnuplot</title>
  <desc
     id="desc3113">Produced by GNUPLOT 4.6 patchlevel 1 </desc>
  <rect
     style="fill:#dedede;fill-opacity:1;stroke:none"
     id="rect3683-9"
     width="184.25197"
     height="171.72472"
     x="-220.38953"
     y="410.03812" />
  <rect
     style="fill:#dedede;fill-opacity:1;stroke:none"
     id="rect3683"
     width="184.25197"
     height="171.72472"
     x="-220.48607"
     y="229.83313" />
  <g
     id="g3134"
     style="color:#ffffff;fill:none;stroke:currentColor;stroke-width:1;stroke-linecap:butt;stroke-linejoin:miter" />
  <g
     id="g3136"
     style="color:#ffffff;fill:none;stroke:currentColor;stroke-width:0.5;stroke-linecap:butt;stroke-linejoin:miter" />
  <path
     style="color:#000000;fill:none;stroke:currentColor;stroke-width:0.5;stroke-linecap:butt;stroke-linejoin:miter"
     d="m -133.0322,379.22034 -9,0 m 9,0 9,0 h 0.01"
     id="path3140"
     inkscape:connector-curvature="0" />
  <g
     transform="translate(-141.3322,383.72034)"
     style="font-size:15px;text-anchor:end;color:#000000;fill:#000000;stroke:none;font-family:Arial"
     id="g3142">
    <text
       id="text3144">-10</text>
  </g>
  <path
     style="color:#000000;fill:none;stroke:currentColor;stroke-width:0.5;stroke-linecap:butt;stroke-linejoin:miter"
     d="m -133.0322,350.72034 -9,0 m 9,0 9,0 h 0.01"
     id="path3146"
     inkscape:connector-curvature="0" />
  <path
     style="color:#000000;fill:none;stroke:currentColor;stroke-width:0.5;stroke-linecap:butt;stroke-linejoin:miter"
     d="m -133.0322,293.72034 -9,0 m 9,0 9,0 h 0.01"
     id="path3152"
     inkscape:connector-curvature="0" />
  <path
     style="color:#000000;fill:none;stroke:currentColor;stroke-width:0.5;stroke-linecap:butt;stroke-linejoin:miter"
     d="m -133.0322,265.22034 -9,0 m 9,0 9,0 h 0.01"
     id="path3158"
     inkscape:connector-curvature="0" />
  <g
     transform="translate(-141.3322,269.72034)"
     style="font-size:15px;text-anchor:end;color:#000000;fill:#000000;stroke:none;font-family:Arial"
     id="g3160">
    <text
       id="text3162">10</text>
  </g>
  <path
     style="color:#000000;fill:none;stroke:currentColor;stroke-width:0.5;stroke-linecap:butt;stroke-linejoin:miter"
     d="m -190.1322,322.22034 0,9 m 0,-9 0,-9 h 0.01"
     id="path3164"
     inkscape:connector-curvature="0" />
  <path
     style="color:#000000;fill:none;stroke:currentColor;stroke-width:0.5;stroke-linecap:butt;stroke-linejoin:miter"
     d="m -171.1322,322.22034 0,9 m 0,-9 0,-9 h 0.01"
     id="path3170"
     inkscape:connector-curvature="0" />
  <path
     style="color:#000000;fill:none;stroke:currentColor;stroke-width:0.5;stroke-linecap:butt;stroke-linejoin:miter"
     d="m -152.1322,322.22034 0,9 m 0,-9 0,-9 h 0.01"
     id="path3176"
     inkscape:connector-curvature="0" />
  <path
     style="color:#000000;fill:none;stroke:currentColor;stroke-width:0.5;stroke-linecap:butt;stroke-linejoin:miter"
     d="m -114.0322,322.22034 0,9 m 0,-9 0,-9 h 0.01"
     id="path3182"
     inkscape:connector-curvature="0" />
  <path
     style="color:#000000;fill:none;stroke:currentColor;stroke-width:0.5;stroke-linecap:butt;stroke-linejoin:miter"
     d="m -95.0322,322.22034 0,9 m 0,-9 0,-9 h 0.01"
     id="path3188"
     inkscape:connector-curvature="0" />
  <path
     style="color:#000000;fill:none;stroke:currentColor;stroke-width:0.5;stroke-linecap:butt;stroke-linejoin:miter"
     d="m -76.0322,322.22034 0,9 m 0,-9 0,-9 h 0.01"
     id="path3194"
     inkscape:connector-curvature="0" />
  <path
     style="color:#000000;fill:none;stroke:currentColor;stroke-width:0.5;stroke-linecap:butt;stroke-linejoin:miter"
     d="m -190.1322,322.22034 114.1,0 m -57,57 0,-114 h 0.01"
     id="path3200"
     inkscape:connector-curvature="0" />
  <g
     transform="translate(-70.3322,326.72034)"
     style="font-size:15px;text-anchor:start;color:#000000;fill:#000000;stroke:none;font-family:Arial"
     id="g3202">
    <text
       id="text3204">x</text>
  </g>
  <g
     transform="translate(-133.0322,252.62034)"
     style="font-size:15px;text-anchor:start;color:#000000;fill:#000000;stroke:none;font-family:Arial"
     id="g3206">
    <text
       id="text3208">y</text>
  </g>
  <g
     style="color:#000000;fill:none;stroke:none"
     id="g3210"
     transform="translate(-235.9322,-46.779661)">
    <polygon
       points="152.2,369 152.2,365.6 161.6,369 152.2,372.4 152.2,369 "
       id="polygon3212"
       style="fill:currentColor" />
  </g>
  <path
     style="color:#000000;fill:none;stroke:currentColor;stroke-width:0.5;stroke-linecap:butt;stroke-linejoin:miter"
     d="m -83.7322,322.22034 0,-3.4 9.4,3.4 -9.4,3.4 0,-3.4 m -106.4,0 106.4,0 h 0.01"
     id="path3214"
     inkscape:connector-curvature="0" />
  <g
     style="color:#000000;fill:none;stroke:none"
     id="g3216"
     transform="translate(-235.9322,-46.779661)">
    <polygon
       points="102.9,315.7 99.5,315.7 102.9,306.3 106.3,315.7 102.9,315.7 "
       id="polygon3218"
       style="fill:currentColor" />
  </g>
  <path
     style="color:#000000;fill:none;stroke:currentColor;stroke-width:0.5;stroke-linecap:butt;stroke-linejoin:miter"
     d="m -133.0322,268.92034 -3.4,0 3.4,-9.4 3.4,9.4 -3.4,0 m 0,110.3 0,-110.3 h 0.01"
     id="path3220"
     inkscape:connector-curvature="0" />
  <g
     style="color:#ffffff;fill:none;stroke:currentColor;stroke-width:1.5;stroke-linecap:butt;stroke-linejoin:miter"
     id="g3225"
     transform="translate(-235.9322,-46.779661)" />
  <g
     style="color:#000000;fill:none;stroke:currentColor;stroke-width:1.5;stroke-linecap:butt;stroke-linejoin:miter"
     id="g3227"
     transform="translate(-235.9322,-46.779661)">
    <path
       d="m 45.8,397.5 0.4,-2.3 0.4,-2.2 0.3,-2.2 0.4,-2.1 0.4,-2.1 0.4,-2.1 0.4,-2 0.4,-2 0.3,-1.9 0.4,-2 0.4,-1.8 0.4,-1.9 0.4,-1.7 0.3,-1.8 0.4,-1.7 0.4,-1.7 0.4,-1.6 0.4,-1.7 0.4,-1.5 0.3,-1.6 0.4,-1.5 0.4,-1.4 0.4,-1.4 0.4,-1.4 0.3,-1.4 0.4,-1.3 0.4,-1.3 0.4,-1.3 0.4,-1.2 0.3,-1.2 0.4,-1.1 0.4,-1.2 0.4,-1.1 0.4,-1 0.4,-1 0.3,-1 0.4,-1 0.4,-0.9 0.4,-0.9 0.4,-0.9 0.3,-0.8 0.4,-0.9 0.4,-0.7 0.4,-0.8 0.4,-0.7 0.4,-0.7 0.3,-0.7 0.4,-0.6 0.4,-0.6 0.4,-0.6 0.4,-0.5 0.3,-0.6 0.4,-0.5 0.4,-0.4 0.4,-0.5 0.4,-0.4 0.4,-0.4 0.3,-0.4 0.4,-0.3 0.4,-0.3 0.4,-0.3 0.4,-0.3 0.3,-0.2 0.4,-0.3 0.4,-0.2 0.4,-0.1 0.4,-0.2 0.3,-0.1 0.4,-0.1 0.4,-0.1 0.4,-0.1 0.4,0 0.4,0 0.3,0 0.4,0 0.4,0 0.4,0.1 0.4,0.1 0.3,0.1 0.4,0.1 0.4,0.2 0.4,0.1 0.4,0.2 0.4,0.2 0.3,0.2 0.4,0.3 0.4,0.2 0.4,0.3 0.4,0.3 0.3,0.3 0.4,0.3 0.4,0.3 0.4,0.4 0.4,0.3 0.4,0.4 0.3,0.4 0.4,0.4 0.4,0.5 0.4,0.4 0.4,0.5 0.3,0.4 0.4,0.5 0.4,0.5 0.4,0.5 0.4,0.5 0.4,0.6 0.3,0.5 0.4,0.6 0.4,0.5 0.4,0.6 0.4,0.6 0.3,0.6 0.4,0.6 0.4,0.6 0.4,0.7 0.4,0.6 0.3,0.7 0.4,0.6 0.4,0.7 0.4,0.7 0.4,0.6 0.4,0.7 0.3,0.7 0.4,0.7 0.4,0.8 0.4,0.7 0.4,0.7 0.3,0.7 0.4,0.8 0.4,0.7 0.4,0.8 0.4,0.7 0.4,0.8 0.3,0.8 0.4,0.7 0.4,0.8 0.4,0.8 0.4,0.8 0.3,0.7 0.4,0.8 0.4,0.8 0.4,0.8 0.4,0.8 0.4,0.8 0.3,0.8 0.4,0.8 0.4,0.8 0.4,0.8 0.4,0.8 0.3,0.8 0.4,0.8 0.4,0.8 0.4,0.8 0.4,0.8 0.3,0.8 0.4,0.8 0.4,0.8 0.4,0.8 0.4,0.8 0.4,0.8 0.3,0.7 0.4,0.8 0.4,0.8 0.4,0.8 0.4,0.7 0.3,0.8 0.4,0.8 0.4,0.7 0.4,0.8 0.4,0.7 0.4,0.8 0.3,0.7 0.4,0.7 0.4,0.7 0.4,0.8 0.4,0.7 0.3,0.7 0.4,0.7 0.4,0.6 0.4,0.7 0.4,0.7 0.4,0.6 0.3,0.7 0.4,0.6 0.4,0.7 0.4,0.6 0.4,0.6 0.3,0.6 0.4,0.6 0.4,0.6 0.4,0.5 0.4,0.6 0.3,0.5 0.4,0.6 0.4,0.5 0.4,0.5 0.4,0.5 0.4,0.5 0.3,0.4 0.4,0.5 0.4,0.4 0.4,0.5 0.4,0.4 0.3,0.4 0.4,0.4 0.4,0.3 0.4,0.4 0.4,0.3 0.4,0.3 0.3,0.3 0.4,0.3 0.4,0.3 0.4,0.2 0.4,0.3 0.3,0.2 0.4,0.2 0.4,0.2 0.4,0.1 0.4,0.2 0.4,0.1 0.3,0.1 0.4,0.1 0.4,0.1 0.4,0 0.4,0 0.3,0 0.4,0 0.4,0 0.4,-0.1 0.4,-0.1 0.4,-0.1 0.3,-0.1 0.4,-0.2 0.4,-0.1 0.4,-0.2 0.4,-0.3 0.3,-0.2 0.4,-0.3 0.4,-0.3 0.4,-0.3 0.4,-0.3 0.3,-0.4 0.4,-0.4 0.4,-0.4 0.4,-0.5 0.4,-0.4 0.4,-0.5 0.3,-0.6 0.4,-0.5 0.4,-0.6 0.4,-0.6 0.4,-0.6 0.3,-0.7 0.4,-0.7 0.4,-0.7 0.4,-0.8 0.4,-0.7 0.4,-0.9 0.3,-0.8 0.4,-0.9 0.4,-0.9 0.4,-0.9 0.4,-1 0.3,-1 0.4,-1 0.4,-1 0.4,-1.1 0.4,-1.2 0.4,-1.1 0.3,-1.2 0.4,-1.2 0.4,-1.3 0.4,-1.3 0.4,-1.3 0.3,-1.4 0.4,-1.4 0.4,-1.4 0.4,-1.4 0.4,-1.5 0.3,-1.6 0.4,-1.5 0.4,-1.7 0.4,-1.6 0.4,-1.7 0.4,-1.7 0.3,-1.8 0.4,-1.7 0.4,-1.9 0.4,-1.8 0.4,-2 0.3,-1.9 0.4,-2 0.4,-2 0.4,-2.1 0.4,-2.1 0.4,-2.1 0.3,-2.2 0.4,-2.2 0.4,-2.3 h 0.01"
       id="path3229"
       inkscape:connector-curvature="0" />
  </g>
  <g
     id="g3231"
     style="color:#ffffff;fill:none;stroke:currentColor;stroke-width:0.5;stroke-linecap:butt;stroke-linejoin:miter" />
  <g
     id="g3233"
     style="color:#000000;fill:none;stroke:currentColor;stroke-width:0.5;stroke-linecap:butt;stroke-linejoin:miter" />
  <g
     id="g27"
     style="color:#ffffff;fill:none;stroke:currentColor;stroke-width:1;stroke-linecap:butt;stroke-linejoin:miter"
     transform="translate(-1.0169473,504.40678)" />
  <g
     id="g29"
     style="color:#ffffff;fill:none;stroke:currentColor;stroke-width:0.5;stroke-linecap:butt;stroke-linejoin:miter"
     transform="translate(-1.0169473,504.40678)" />
  <path
     style="color:#000000;fill:none;stroke:currentColor;stroke-width:0.5;stroke-linecap:butt;stroke-linejoin:miter"
     inkscape:connector-curvature="0"
     d="m -132.93438,563.78282 -9,0 m 9,0 9,0 h 0.01"
     id="path33" />
  <g
     transform="translate(-141.23438,568.28282)"
     style="font-size:15px;text-anchor:end;color:#000000;fill:#000000;stroke:none;font-family:Arial"
     id="g35">
    <text
       id="text37">-10</text>
  </g>
  <path
     style="color:#000000;fill:none;stroke:currentColor;stroke-width:0.5;stroke-linecap:butt;stroke-linejoin:miter"
     inkscape:connector-curvature="0"
     d="m -132.93438,478.28282 -9,0 m 9,0 9,0 h 0.01"
     id="path45" />
  <path
     style="color:#000000;fill:none;stroke:currentColor;stroke-width:0.5;stroke-linecap:butt;stroke-linejoin:miter"
     inkscape:connector-curvature="0"
     d="m -132.93438,449.78282 -9,0 m 9,0 9,0 h 0.01"
     id="path51" />
  <g
     transform="translate(-141.23438,454.28282)"
     style="font-size:15px;text-anchor:end;color:#000000;fill:#000000;stroke:none;font-family:Arial"
     id="g53">
    <text
       id="text55">10</text>
  </g>
  <path
     style="color:#000000;fill:none;stroke:currentColor;stroke-width:0.5;stroke-linecap:butt;stroke-linejoin:miter"
     inkscape:connector-curvature="0"
     d="m -190.03438,506.78282 0,9 m 0,-9 0,-9 h 0.01"
     id="path57" />
  <path
     style="color:#000000;fill:none;stroke:currentColor;stroke-width:0.5;stroke-linecap:butt;stroke-linejoin:miter"
     inkscape:connector-curvature="0"
     d="m -171.03438,506.78282 0,9 m 0,-9 0,-9 h 0.01"
     id="path63" />
  <path
     style="color:#000000;fill:none;stroke:currentColor;stroke-width:0.5;stroke-linecap:butt;stroke-linejoin:miter"
     inkscape:connector-curvature="0"
     d="m -152.03438,506.78282 0,9 m 0,-9 0,-9 h 0.01"
     id="path69" />
  <path
     style="color:#000000;fill:none;stroke:currentColor;stroke-width:0.5;stroke-linecap:butt;stroke-linejoin:miter"
     inkscape:connector-curvature="0"
     d="m -113.93438,506.78282 0,9 m 0,-9 0,-9 h 0.01"
     id="path75" />
  <path
     style="color:#000000;fill:none;stroke:currentColor;stroke-width:0.5;stroke-linecap:butt;stroke-linejoin:miter"
     inkscape:connector-curvature="0"
     d="m -94.934376,506.78282 0,9 m 0,-9 0,-9 h 0.01"
     id="path81" />
  <path
     style="color:#000000;fill:none;stroke:currentColor;stroke-width:0.5;stroke-linecap:butt;stroke-linejoin:miter"
     inkscape:connector-curvature="0"
     d="m -75.934376,506.78282 0,9 m 0,-9 0,-9 h 0.01"
     id="path87" />
  <path
     style="color:#000000;fill:none;stroke:currentColor;stroke-width:0.5;stroke-linecap:butt;stroke-linejoin:miter"
     inkscape:connector-curvature="0"
     d="m -190.03438,506.78282 114.100004,0 m -57.000004,57 0,-114 h 0.01"
     id="path93" />
  <g
     transform="translate(-70.234376,511.28282)"
     style="font-size:15px;text-anchor:start;color:#000000;fill:#000000;stroke:none;font-family:Arial"
     id="g95">
    <text
       id="text97">x</text>
  </g>
  <g
     transform="translate(-136.11447,437.18282)"
     style="font-size:15px;text-anchor:start;color:#000000;fill:#000000;stroke:none;font-family:Arial"
     id="g99">
    <text
       id="text101">y'</text>
  </g>
  <g
     style="color:#000000;fill:none;stroke:none"
     id="g103"
     transform="translate(-235.83438,137.78282)">
    <polygon
       style="fill:currentColor"
       points="152.2,365.6 161.6,369 152.2,372.4 152.2,369 152.2,369 "
       id="polygon105" />
  </g>
  <path
     style="color:#000000;fill:none;stroke:currentColor;stroke-width:0.5;stroke-linecap:butt;stroke-linejoin:miter"
     inkscape:connector-curvature="0"
     d="m -83.634376,506.78282 0,-3.4 9.4,3.4 -9.4,3.4 0,-3.4 m -106.400004,0 106.400004,0 h 0.01"
     id="path107" />
  <g
     style="color:#000000;fill:none;stroke:none"
     id="g109"
     transform="translate(-235.83438,137.78282)">
    <polygon
       style="fill:currentColor"
       points="99.5,315.7 102.9,306.3 106.3,315.7 102.9,315.7 102.9,315.7 "
       id="polygon111" />
  </g>
  <path
     style="color:#000000;fill:none;stroke:currentColor;stroke-width:0.5;stroke-linecap:butt;stroke-linejoin:miter"
     inkscape:connector-curvature="0"
     d="m -132.93438,453.48282 -3.4,0 3.4,-9.4 3.4,9.4 -3.4,0 m 0,110.3 0,-110.3 h 0.01"
     id="path113" />
  <g
     id="gnuplot_plot_1-2"
     transform="translate(-235.83438,137.78282)">
    <title
       id="title116">gnuplot_plot_1</title>
    <g
       id="g118"
       style="color:#ffffff;fill:none;stroke:currentColor;stroke-width:1.5;stroke-linecap:butt;stroke-linejoin:miter" />
    <g
       id="g120"
       style="color:#000000;fill:none;stroke:currentColor;stroke-width:1.5;stroke-linecap:butt;stroke-linejoin:miter">
      <path
         id="path122"
         d="m 57.6,312 0,0.2 0.4,1.6 0.4,1.6 0.4,1.6 0.4,1.6 0.3,1.6 0.4,1.6 0.4,1.5 0.4,1.5 0.4,1.5 0.3,1.5 0.4,1.5 0.4,1.5 0.4,1.5 0.4,1.4 0.4,1.4 0.3,1.5 0.4,1.4 0.4,1.4 0.4,1.3 0.4,1.4 0.3,1.3 0.4,1.4 0.4,1.3 0.4,1.3 0.4,1.3 0.4,1.3 0.3,1.3 0.4,1.2 0.4,1.2 0.4,1.3 0.4,1.2 0.3,1.2 0.4,1.2 0.4,1.1 0.4,1.2 0.4,1.1 0.3,1.2 0.4,1.1 0.4,1.1 0.4,1.1 0.4,1 0.4,1.1 0.3,1 0.4,1.1 0.4,1 0.4,1 0.4,1 0.3,1 0.4,0.9 0.4,1 0.4,0.9 0.4,0.9 0.4,1 0.3,0.9 0.4,0.8 0.4,0.9 0.4,0.9 0.4,0.8 0.3,0.8 0.4,0.8 0.4,0.8 0.4,0.8 0.4,0.8 0.4,0.7 0.3,0.8 0.4,0.7 0.4,0.7 0.4,0.7 0.4,0.7 0.3,0.7 0.4,0.7 0.4,0.6 0.4,0.6 0.4,0.7 0.4,0.6 0.3,0.6 0.4,0.5 0.4,0.6 0.4,0.6 0.4,0.5 0.3,0.5 0.4,0.5 0.4,0.5 0.4,0.5 0.4,0.5 0.3,0.4 0.4,0.5 0.4,0.4 0.4,0.4 0.4,0.4 0.4,0.4 0.3,0.4 0.4,0.3 0.4,0.4 0.4,0.3 0.4,0.3 0.3,0.3 0.4,0.3 0.4,0.3 0.4,0.2 0.4,0.3 0.4,0.2 0.3,0.2 0.4,0.3 0.4,0.1 0.4,0.2 0.4,0.2 0.3,0.1 0.4,0.2 0.4,0.1 0.4,0.1 0.4,0.1 0.4,0.1 0.3,0.1 0.4,0 0.4,0.1 0.4,0 0.4,0 0.3,0 0.4,0 0.4,0 0.4,-0.1 0.4,0 0.3,-0.1 0.4,-0.1 0.4,-0.1 0.4,-0.1 0.4,-0.1 0.4,-0.2 0.3,-0.1 0.4,-0.2 0.4,-0.2 0.4,-0.1 0.4,-0.3 0.3,-0.2 0.4,-0.2 0.4,-0.3 0.4,-0.2 0.4,-0.3 0.4,-0.3 0.3,-0.3 0.4,-0.3 0.4,-0.3 0.4,-0.4 0.4,-0.3 0.3,-0.4 0.4,-0.4 0.4,-0.4 0.4,-0.4 0.4,-0.4 0.4,-0.5 0.3,-0.4 0.4,-0.5 0.4,-0.5 0.4,-0.5 0.4,-0.5 0.3,-0.5 0.4,-0.5 0.4,-0.6 0.4,-0.6 0.4,-0.5 0.3,-0.6 0.4,-0.6 0.4,-0.7 0.4,-0.6 0.4,-0.6 0.4,-0.7 0.3,-0.7 0.4,-0.7 0.4,-0.7 0.4,-0.7 0.4,-0.7 0.3,-0.8 0.4,-0.7 0.4,-0.8 0.4,-0.8 0.4,-0.8 0.4,-0.8 0.3,-0.8 0.4,-0.8 0.4,-0.9 0.4,-0.9 0.4,-0.8 0.3,-0.9 0.4,-1 0.4,-0.9 0.4,-0.9 0.4,-1 0.4,-0.9 0.3,-1 0.4,-1 0.4,-1 0.4,-1 0.4,-1.1 0.3,-1 0.4,-1.1 0.4,-1 0.4,-1.1 0.4,-1.1 0.4,-1.1 0.3,-1.2 0.4,-1.1 0.4,-1.2 0.4,-1.1 0.4,-1.2 0.3,-1.2 0.4,-1.2 0.4,-1.3 0.4,-1.2 0.4,-1.2 0.3,-1.3 0.4,-1.3 0.4,-1.3 0.4,-1.3 0.4,-1.3 0.4,-1.4 0.3,-1.3 0.4,-1.4 0.4,-1.3 0.4,-1.4 0.4,-1.4 0.3,-1.5 0.4,-1.4 0.4,-1.4 0.4,-1.5 0.4,-1.5 0.4,-1.5 0.3,-1.5 0.4,-1.5 0.4,-1.5 0.4,-1.5 0.4,-1.6 0.3,-1.6 0.4,-1.6 0.4,-1.6 0.4,-1.6 0.4,-1.6 0,-0.2 h 0.01"
         inkscape:connector-curvature="0" />
    </g>
  </g>
  <g
     id="g124"
     style="color:#ffffff;fill:none;stroke:currentColor;stroke-width:0.5;stroke-linecap:butt;stroke-linejoin:miter"
     transform="translate(-1.0169473,504.40678)" />
  <g
     id="g126"
     style="color:#000000;fill:none;stroke:currentColor;stroke-width:0.5;stroke-linecap:butt;stroke-linejoin:miter"
     transform="translate(-1.0169473,504.40678)" />
  <path
     sodipodi:type="arc"
     style="fill:#000000;fill-opacity:1;stroke:none"
     id="path4490"
     sodipodi:cx="-244.60173"
     sodipodi:cy="323.91071"
     sodipodi:rx="3.4450948"
     sodipodi:ry="3.4450948"
     d="m -241.15664,323.91071 a 3.4450948,3.4450948 0 1 1 -6.89019,0 3.4450948,3.4450948 0 1 1 6.89019,0 z"
     transform="translate(64.131764,-18.020496)" />
  <path
     sodipodi:type="arc"
     style="fill:#000000;fill-opacity:1;stroke:none"
     id="path4490-2"
     sodipodi:cx="-244.60173"
     sodipodi:cy="323.91071"
     sodipodi:rx="3.4450948"
     sodipodi:ry="3.4450948"
     d="m -241.15664,323.91071 a 3.4450948,3.4450948 0 1 1 -6.89019,0 3.4450948,3.4450948 0 1 1 6.89019,0 z"
     transform="translate(82.947284,-47.966318)" />
  <path
     sodipodi:type="arc"
     style="fill:#000000;fill-opacity:1;stroke:none"
     id="path4490-4"
     sodipodi:cx="-244.60173"
     sodipodi:cy="323.91071"
     sodipodi:rx="3.4450948"
     sodipodi:ry="3.4450948"
     d="m -241.15664,323.91071 a 3.4450948,3.4450948 0 1 1 -6.89019,0 3.4450948,3.4450948 0 1 1 6.89019,0 z"
     transform="translate(125.34845,19.875548)" />
  <path
     sodipodi:type="arc"
     style="fill:#000000;fill-opacity:1;stroke:none"
     id="path4490-1"
     sodipodi:cx="-244.60173"
     sodipodi:cy="323.91071"
     sodipodi:rx="3.4450948"
     sodipodi:ry="3.4450948"
     d="m -241.15664,323.91071 a 3.4450948,3.4450948 0 1 1 -6.89019,0 3.4450948,3.4450948 0 1 1 6.89019,0 z"
     transform="translate(141.24889,33.125912)" />
  <path
     sodipodi:type="arc"
     style="fill:#000000;fill-opacity:1;stroke:none"
     id="path4490-24"
     sodipodi:cx="-244.60173"
     sodipodi:cy="323.91071"
     sodipodi:rx="3.4450948"
     sodipodi:ry="3.4450948"
     d="m -241.15664,323.91071 a 3.4450948,3.4450948 0 1 1 -6.89019,0 3.4450948,3.4450948 0 1 1 6.89019,0 z"
     transform="translate(155.55929,14.045388)" />
  <path
     style="color:#000000;fill:none;stroke:#000000;stroke-width:0.625;stroke-linecap:butt;stroke-linejoin:miter;stroke-miterlimit:4;stroke-opacity:1;stroke-dasharray:3.75, 3.75;stroke-dashoffset:0;marker:none;visibility:visible;display:inline;overflow:visible;enable-background:accumulate"
     d="m -179.67494,311.45536 0,133.03366"
     id="path4533"
     inkscape:connector-curvature="0" />
  <path
     style="color:#000000;fill:none;stroke:#000000;stroke-width:0.625;stroke-linecap:butt;stroke-linejoin:miter;stroke-miterlimit:4;stroke-opacity:1;stroke-dasharray:3.75, 3.75;stroke-dashoffset:0;marker:none;visibility:visible;display:inline;overflow:visible;enable-background:accumulate"
     d="m -162.18446,282.03956 0,217.83599"
     id="path4533-2"
     inkscape:connector-curvature="0"
     sodipodi:nodetypes="cc" />
  <path
     style="color:#000000;fill:none;stroke:#000000;stroke-width:0.625;stroke-linecap:butt;stroke-linejoin:miter;stroke-miterlimit:4;stroke-opacity:1;stroke-dasharray:3.75, 3.75;stroke-dashoffset:0;marker:none;visibility:visible;display:inline;overflow:visible;enable-background:accumulate"
     d="m -119.78329,349.88142 0,181.26499"
     id="path4533-3"
     inkscape:connector-curvature="0"
     sodipodi:nodetypes="cc" />
  <path
     style="color:#000000;fill:none;stroke:#000000;stroke-width:0.625;stroke-linecap:butt;stroke-linejoin:miter;stroke-miterlimit:4;stroke-opacity:1;stroke-dasharray:3.75, 3.75;stroke-dashoffset:0;marker:none;visibility:visible;display:inline;overflow:visible;enable-background:accumulate"
     d="m -103.88286,364.19181 0,133.03366"
     id="path4533-1"
     inkscape:connector-curvature="0" />
  <path
     style="color:#000000;fill:none;stroke:#000000;stroke-width:0.625;stroke-linecap:butt;stroke-linejoin:miter;stroke-miterlimit:4;stroke-opacity:1;stroke-dasharray:3.75, 3.75;stroke-dashoffset:0;marker:none;visibility:visible;display:inline;overflow:visible;enable-background:accumulate"
     d="m -88.512435,342.99123 0,102.29281"
     id="path4533-6"
     inkscape:connector-curvature="0"
     sodipodi:nodetypes="cc" />
  <path
     sodipodi:type="arc"
     style="fill:#000000;fill-opacity:1;stroke:none"
     id="path4490-3"
     sodipodi:cx="-244.60173"
     sodipodi:cy="323.91071"
     sodipodi:rx="3.4450948"
     sodipodi:ry="3.4450948"
     d="m -241.15664,323.91071 a 3.4450948,3.4450948 0 1 1 -6.89019,0 3.4450948,3.4450948 0 1 1 6.89019,0 z"
     transform="translate(64.926789,125.34845)" />
  <path
     sodipodi:type="arc"
     style="fill:#000000;fill-opacity:1;stroke:none"
     id="path4490-5"
     sodipodi:cx="-244.60173"
     sodipodi:cy="323.91071"
     sodipodi:rx="3.4450948"
     sodipodi:ry="3.4450948"
     d="m -241.15664,323.91071 a 3.4450948,3.4450948 0 1 1 -6.89019,0 3.4450948,3.4450948 0 1 1 6.89019,0 z"
     transform="translate(82.41727,182.59002)" />
  <path
     sodipodi:type="arc"
     style="fill:#000000;fill-opacity:1;stroke:none"
     id="path4490-13"
     sodipodi:cx="-244.60173"
     sodipodi:cy="323.91071"
     sodipodi:rx="3.4450948"
     sodipodi:ry="3.4450948"
     d="m -241.15664,323.91071 a 3.4450948,3.4450948 0 1 1 -6.89019,0 3.4450948,3.4450948 0 1 1 6.89019,0 z"
     transform="translate(125.34845,213.86088)" />
  <path
     sodipodi:type="arc"
     style="fill:#000000;fill-opacity:1;stroke:none"
     id="path4490-7"
     sodipodi:cx="-244.60173"
     sodipodi:cy="323.91071"
     sodipodi:rx="3.4450948"
     sodipodi:ry="3.4450948"
     d="m -241.15664,323.91071 a 3.4450948,3.4450948 0 1 1 -6.89019,0 3.4450948,3.4450948 0 1 1 6.89019,0 z"
     transform="translate(141.24889,183.12004)" />
  <path
     sodipodi:type="arc"
     style="fill:#000000;fill-opacity:1;stroke:none"
     id="path4490-43"
     sodipodi:cx="-244.60173"
     sodipodi:cy="323.91071"
     sodipodi:rx="3.4450948"
     sodipodi:ry="3.4450948"
     d="m -241.15664,323.91071 a 3.4450948,3.4450948 0 1 1 -6.89019,0 3.4450948,3.4450948 0 1 1 6.89019,0 z"
     transform="translate(156.61931,126.40847)" />
</svg>
