<?xml version="1.0" encoding="UTF-8" standalone="no"?>
<!-- Created with Inkscape (http://www.inkscape.org/) -->

<svg
   xmlns:dc="http://purl.org/dc/elements/1.1/"
   xmlns:cc="http://creativecommons.org/ns#"
   xmlns:rdf="http://www.w3.org/1999/02/22-rdf-syntax-ns#"
   xmlns:svg="http://www.w3.org/2000/svg"
   xmlns="http://www.w3.org/2000/svg"
   xmlns:sodipodi="http://sodipodi.sourceforge.net/DTD/sodipodi-0.dtd"
   xmlns:inkscape="http://www.inkscape.org/namespaces/inkscape"
   width="744.09448819"
   height="1052.3622047"
   id="svg2"
   version="1.1"
   sodipodi:docname="dq-lead-fall.svg">
  <defs
     id="defs4">
    <marker
       inkscape:stockid="Arrow2Mend"
       orient="auto"
       refY="0.0"
       refX="0.0"
       id="Arrow2Mend"
       style="overflow:visible;">
      <path
         id="path4325"
         style="fill-rule:evenodd;stroke-width:0.62500000;stroke-linejoin:round;"
         d="M 8.7185878,4.0337352 L -2.2072895,0.016013256 L 8.7185884,-4.0017078 C 6.9730900,-1.6296469 6.9831476,1.6157441 8.7185878,4.0337352 z "
         transform="scale(0.6) rotate(180) translate(0,0)" />
    </marker>
  </defs>
  <sodipodi:namedview
     id="base"
     pagecolor="#ffffff"
     bordercolor="#666666"
     borderopacity="1.0"
     inkscape:pageopacity="0.0"
     inkscape:pageshadow="2"
     inkscape:zoom="2.1574682"
     inkscape:cx="275.59045"
     inkscape:cy="302.2605"
     inkscape:document-units="px"
     inkscape:current-layer="layer1"
     showgrid="false"
     inkscape:window-width="1280"
     inkscape:window-height="996"
     inkscape:window-x="0"
     inkscape:window-y="0"
     inkscape:window-maximized="1" />
  <metadata
     id="metadata7">
    <rdf:RDF>
      <cc:Work
         rdf:about="">
        <dc:format>image/svg+xml</dc:format>
        <dc:type
           rdf:resource="http://purl.org/dc/dcmitype/StillImage" />
        <dc:title />
      </cc:Work>
    </rdf:RDF>
  </metadata>
  <g
     inkscape:label="Layer 1"
     inkscape:groupmode="layer"
     id="layer1">
    <rect
       style="fill:#dedede;fill-opacity:1;stroke:none"
       id="rect3822"
       width="184.25197"
       height="178.03282"
       x="120.26257"
       y="690.07739" />
    <path
       style="color:#000000;fill:none;stroke:#000000;stroke-width:1.45099998;stroke-linecap:butt;stroke-linejoin:round;stroke-miterlimit:4;stroke-opacity:1;stroke-dasharray:none;stroke-dashoffset:0;marker:none;visibility:visible;display:inline;overflow:visible;enable-background:accumulate"
       d="m 281.69223,782.86544 1.52097,-10.32167 0.76048,7.22517 1.71109,-8.25734 m -139.10772,69.39488 0.69958,-11.59347 1.52097,-6.193 c 0,0 17.20603,-3.29011 51.71293,-30.96505 50.19197,-40.25455 74.9077,-80.50911 74.9077,-80.50911 l 0,12.90154 m 0.57036,-0.51553 1.33085,-4.12868 0.76049,3.09651 1.14073,-5.16084 0,44.38324 m 0,0 1.71109,-10.32169 0.19012,9.28952 0.76048,-2.06434 -0.19012,23.73986"
       id="path3050"
       inkscape:connector-curvature="0"
       sodipodi:nodetypes="cccsccccccccccccc" />
    <path
       style="color:#000000;fill:none;stroke:#000000;stroke-width:0.78106081;stroke-linecap:butt;stroke-linejoin:miter;stroke-miterlimit:4;stroke-opacity:1;stroke-dasharray:none;stroke-dashoffset:0;marker:none;visibility:visible;display:inline;overflow:visible;enable-background:accumulate"
       d="m 146.51614,700.57782 0,140.08904 148.72723,0"
       id="path3052"
       inkscape:connector-curvature="0"
       sodipodi:nodetypes="ccc" />
    <text
       xml:space="preserve"
       style="font-size:10px;font-style:normal;font-variant:normal;font-weight:normal;font-stretch:normal;text-indent:0;text-align:start;text-decoration:none;line-height:125%;letter-spacing:0px;word-spacing:0px;text-transform:none;direction:ltr;block-progression:tb;writing-mode:lr-tb;text-anchor:start;baseline-shift:baseline;color:#000000;fill:#000000;fill-opacity:1;fill-rule:nonzero;stroke:none;stroke-width:1.24999988px;marker:none;visibility:visible;display:inline;overflow:visible;enable-background:accumulate;font-family:Liberation Sans;-inkscape-font-specification:Liberation Sans"
       x="203.29807"
       y="856.93555"
       id="text3824"
       sodipodi:linespacing="125%"><tspan
         sodipodi:role="line"
         id="tspan3826"
         x="203.29807"
         y="856.93555">stretch</tspan></text>
    <text
       xml:space="preserve"
       style="font-size:10px;font-style:normal;font-variant:normal;font-weight:normal;font-stretch:normal;text-indent:0;text-align:start;text-decoration:none;line-height:125%;letter-spacing:0px;word-spacing:0px;text-transform:none;direction:ltr;block-progression:tb;writing-mode:lr-tb;text-anchor:start;baseline-shift:baseline;color:#000000;fill:#000000;fill-opacity:1;fill-rule:nonzero;stroke:none;stroke-width:1.24999988px;marker:none;visibility:visible;display:inline;overflow:visible;enable-background:accumulate;font-family:Liberation Sans;-inkscape-font-specification:Liberation Sans"
       x="-789.23138"
       y="137.4054"
       id="text3828"
       sodipodi:linespacing="125%"
       transform="matrix(0,-1,1,0,0,0)"><tspan
         sodipodi:role="line"
         id="tspan3830"
         x="-789.23138"
         y="137.4054">tension</tspan></text>
    <rect
       style="fill:#dedede;fill-opacity:1;stroke:none"
       id="rect5234"
       width="184.25197"
       height="245.84026"
       x="122.12904"
       y="433.68756" />
    <path
       style="fill:#989898;fill-opacity:1;stroke:none"
       d="m 122.12903,434.52781 0,245 24.625,0 8.4375,-2.34375 5.9375,-47.28125 -5.9375,-15.34375 -7.0625,-12.96875 -5.90625,-15.375 16.53125,-18.90625 -5.90625,-39 -8.28125,-21.25 3.5625,-30.71875 -4.75,-28.34375 4.71875,-13.46875 -25.96875,0 z"
       id="rect5234-7"
       inkscape:connector-curvature="0" />
    <path
       style="color:#000000;fill:none;stroke:#000000;stroke-width:0.875;stroke-linecap:butt;stroke-linejoin:miter;stroke-miterlimit:4;stroke-opacity:1;stroke-dasharray:none;stroke-dashoffset:0;marker:none;visibility:visible;display:inline;overflow:visible;enable-background:accumulate"
       d="m 136.82944,533.61924 12.46058,-61.21996"
       id="path4061-9"
       inkscape:connector-curvature="0"
       sodipodi:nodetypes="cc" />
    <path
       style="color:#000000;fill:none;stroke:#000000;stroke-width:0.875;stroke-linecap:butt;stroke-linejoin:miter;stroke-miterlimit:4;stroke-opacity:1;stroke-dasharray:none;stroke-dashoffset:0;marker:none;visibility:visible;display:inline;overflow:visible;enable-background:accumulate"
       d="m 136.61446,536.62892 0,3.00966 -0.21497,48.69221 0.0505,84.44012"
       id="path4053-2"
       inkscape:connector-curvature="0"
       sodipodi:nodetypes="cccc" />
    <path
       style="color:#000000;fill:none;stroke:#000000;stroke-width:0.875;stroke-linecap:butt;stroke-linejoin:miter;stroke-miterlimit:4;stroke-opacity:1;stroke-dasharray:none;stroke-dashoffset:0;marker:none;visibility:visible;display:inline;overflow:visible;enable-background:accumulate"
       d="m 133.16247,531.65857 c 0.0359,1.4376 1.29384,2.5158 1.29384,2.5158 l 2.40797,1.83294 c 0,0 1.2579,0.0719 1.4376,-0.39534 0.1797,-0.46722 -0.46722,-1.83294 -0.46722,-1.83294"
       id="path4099-3"
       inkscape:connector-curvature="0" />
    <path
       style="color:#000000;fill:none;stroke:#000000;stroke-width:0.875;stroke-linecap:butt;stroke-linejoin:miter;stroke-miterlimit:4;stroke-opacity:1;stroke-dasharray:none;stroke-dashoffset:0;marker:none;visibility:visible;display:inline;overflow:visible;enable-background:accumulate"
       d="m 136.00173,532.19767 c 0,0 -0.86256,-0.57504 -1.36572,-0.79068 -0.50316,-0.21564 -1.4376,0.25158 -1.4376,0.25158"
       id="path4101-5"
       inkscape:connector-curvature="0" />
    <g
       id="g4237"
       transform="matrix(0.70710678,-0.70710678,0.70710678,0.70710678,-369.96187,289.84238)">
      <path
         inkscape:connector-curvature="0"
         id="path4217"
         d="m 81.285036,629.04343 10.772715,0"
         style="color:#000000;fill:none;stroke:#000000;stroke-width:0.875;stroke-linecap:butt;stroke-linejoin:miter;stroke-miterlimit:4;stroke-opacity:1;stroke-dasharray:none;stroke-dashoffset:0;marker:none;visibility:visible;display:inline;overflow:visible;enable-background:accumulate" />
      <path
         inkscape:connector-curvature="0"
         id="path4217-0"
         d="m 86.671394,634.42979 0,-10.77272"
         style="color:#000000;fill:none;stroke:#000000;stroke-width:0.875;stroke-linecap:butt;stroke-linejoin:miter;stroke-miterlimit:4;stroke-opacity:1;stroke-dasharray:none;stroke-dashoffset:0;marker:none;visibility:visible;display:inline;overflow:visible;enable-background:accumulate" />
    </g>
    <g
       id="g4685"
       transform="translate(165.75703,5.0088046)">
      <path
         inkscape:connector-curvature="0"
         id="path3052-7-18"
         d="m -9.82458,444.45935 -1.40625,1.3125 -0.875,-0.21875 c 0,0 -1.6991,0.5551 -3.03125,1.40625 l -0.75,0.28125 -0.0625,0.125 -0.78125,0.875 -0.0625,0.34375 -0.34375,0.71875 -0.0625,1.03125 0,0.0312 -6.75,-3.84375 c 0,0 -3.13767,-2.11248 -3.8125,-2 -0.67483,0.11247 -1.125,1.4375 -1.125,1.4375 l 1.125,0.25 1,1.34375 0,1.125 1.125,-1.25 1.6875,1.25 4.5,3.8125 1.71875,1 0,0.15625 0.75,0.3125 c -0.99227,1.672 -1.78125,3.59375 -1.78125,3.59375 l -1.375,2.125 -5.0625,-1.4375 -2.25,-2.03125 -3.46875,-1 -0.46875,0.5625 0.6875,0.4375 -0.90625,0.4375 0.34375,0.6875 1,0 -0.0937,0.6875 0.21875,0.5625 0.6875,0.21875 1.90625,-0.34375 c 0,0 1.78167,2.12528 3.46875,3.25 1.68707,1.12472 3.625,2.03125 3.625,2.03125 0,0 1.98805,-1.26091 3.125,-2.03125 l -2.34375,4.40625 c 0,0 -6.29434,-2.13767 -8.65625,-2.8125 -2.3619,-0.67483 -7.43765,-2.92455 -8,-1.125 -0.56236,1.79954 -0.34375,2.5625 -0.34375,2.5625 0,0 1.91287,3.16948 3.375,6.09375 1.46213,2.92426 2.375,6.84375 2.375,6.84375 l -5.1875,1.59375 -1,1.125 6.28125,1.21875 2.71875,0.8125 1.46875,-0.6875 -0.5625,-3.25 -1.6875,-4.5 -0.53125,-4.84375 7.28125,5.15625 1.90625,2.9375 -0.78125,2.03125 -2.375,7.3125 c 0,0 -0.66258,1.55659 -1,2.90625 -0.33741,1.34966 1.03125,3.53125 1.03125,3.53125 l -0.0312,2.09375 c 0,0 0.33136,5.19412 0.78125,6.65625 0.44989,1.46213 0.34375,4.8125 0.34375,4.8125 l -1.25,1.8125 -3.59375,1.5625 -0.90625,1.8125 1.46875,0.21875 4.71875,0.125 2.15625,-0.8125 -0.5625,-2.90625 0.21875,-3.25 c 0,0 0.90005,-2.94412 1.125,-4.40625 0.22494,-1.46213 -0.5625,-6.1875 -0.5625,-6.1875 l 0.5625,-0.5625 -0.5625,-3.59375 c 0,0 2.35656,-4.95693 3.59375,-7.65625 1.23719,-2.69932 2.72522,-3.44412 3.625,-4.90625 0.89977,-1.46213 0.65625,-3.75 0.65625,-3.75 l 1.25,-3.25 c 0,0 1.79406,-2.04462 3.03125,-5.53125 1.23719,-3.48662 1.89992,-6.71918 1.5625,-8.40625 -0.33741,-1.68708 -2.125,-3.0625 -2.125,-3.0625 0,0 -0.5281,-0.26356 -1.21875,-0.59375 9.4e-4,-9.3e-4 0.0312,-0.0312 0.0312,-0.0312 l 0.53125,-3.34375 0.71875,0.3125 1.5,2.90625 0.875,-3.46875 -1.53125,-3 -1.8125,-0.4375 -1.0625,-1.71875 z m 1.15625,6.5625 -0.1875,1.40625 0.1875,-1.40625 z"
         style="color:#000000;fill:#ffffff;fill-opacity:1;stroke:none;stroke-width:0.875;marker:none;visibility:visible;display:inline;overflow:visible;enable-background:accumulate" />
      <path
         sodipodi:nodetypes="csscscccccccccccccsccscccccccccscccssccsscsccccccccccccccscssc"
         inkscape:connector-curvature="0"
         id="path3052-28"
         d="m -19.66817,466.1037 c 0,0 -6.29841,-2.13697 -8.66032,-2.8118 -2.3619,-0.67483 -7.42313,-2.92426 -7.98548,-1.12471 -0.56236,1.79954 -0.33742,2.58685 -0.33742,2.58685 0,0 1.91202,3.1492 3.37415,6.07347 1.46213,2.92426 2.36191,6.86077 2.36191,6.86077 l -5.1737,1.5746 -1.01225,1.12472 6.29842,1.23719 2.69932,0.7873 1.46213,-0.67483 -0.56236,-3.26168 -1.68707,-4.49887 -0.52748,-4.83413 7.27578,5.17155 1.91202,2.92426 -0.78731,2.02449 -2.3619,7.31066 c 0,0 -0.67483,1.5746 -1.01225,2.92426 -0.33741,1.34966 1.03004,3.53148 1.03004,3.53148 l -0.0178,2.09211 c 0,0 0.33741,5.1737 0.7873,6.63583 0.44989,1.46213 0.33741,4.83628 0.33741,4.83628 l -1.23718,1.79955 -3.5991,1.5746 -0.89977,1.79955 1.46213,0.22494 4.72381,0.11247 2.13696,-0.7873 -0.56235,-2.92426 0.22494,-3.26168 c 0,0 0.89977,-2.92427 1.12472,-4.3864 0.22494,-1.46213 -0.56236,-6.18594 -0.56236,-6.18594 l 0.56236,-0.56236 -0.56236,-3.59909 c 0,0 2.3619,-4.94876 3.59909,-7.64808 1.23719,-2.69932 2.70928,-3.45672 3.60906,-4.91885 0.89977,-1.46213 0.66486,-3.74146 0.66486,-3.74146 l 1.23719,-3.26168 c 0,0 1.79955,-2.02449 3.03674,-5.51112 1.23719,-3.48662 1.91202,-6.7483 1.5746,-8.43537 -0.33741,-1.68708 -2.13696,-3.03674 -2.13696,-3.03674 0,0 -5.51111,-2.92426 -7.08572,-2.24943 -1.5746,0.67483 -3.82403,5.961 -3.82403,5.961 l -1.34966,2.13696 -5.06123,-1.46213 -2.24943,-2.02449 -3.48662,-1.01225 -0.44989,0.56236 0.67483,0.44989 -0.89977,0.44989 0.33741,0.67483 1.01225,0 -0.11248,0.67483 0.22495,0.56235 0.67483,0.22495 1.91202,-0.33742 c 0,0 1.79954,2.13696 3.48662,3.26168 1.68707,1.12472 3.59909,2.02449 3.59909,2.02449 0,0 3.37415,-2.13696 3.93651,-2.58685 0.56236,-0.44988 2.02449,-2.58685 2.13696,-3.59909 0.11247,-1.01225 0.44989,-2.24943 0.44989,-2.24943"
         style="color:#000000;fill:none;stroke:#000000;stroke-width:0.875;stroke-linecap:butt;stroke-linejoin:miter;stroke-miterlimit:4;stroke-opacity:1;stroke-dasharray:none;stroke-dashoffset:0;marker:none;visibility:visible;display:inline;overflow:visible;enable-background:accumulate" />
      <path
         inkscape:connector-curvature="0"
         id="path3054-6"
         d="m -19.10581,465.99122 2.69932,-4.27392"
         style="color:#000000;fill:none;stroke:#000000;stroke-width:0.875;stroke-linecap:butt;stroke-linejoin:miter;stroke-miterlimit:4;stroke-opacity:1;stroke-dasharray:none;stroke-dashoffset:0;marker:none;visibility:visible;display:inline;overflow:visible;enable-background:accumulate" />
      <path
         inkscape:connector-curvature="0"
         id="path3056-1"
         d="m -17.19379,450.35766 -6.7483,-3.82403 c 0,0 -3.14921,-2.13697 -3.82404,-2.02449 -0.67483,0.11247 -1.12471,1.46213 -1.12471,1.46213 l 1.12471,0.22494 1.01225,1.34966 0,1.12472 1.12471,-1.23719 1.68708,1.23719 4.49887,3.82403 2.13696,1.23719"
         style="color:#000000;fill:none;stroke:#000000;stroke-width:0.875;stroke-linecap:butt;stroke-linejoin:miter;stroke-miterlimit:4;stroke-opacity:1;stroke-dasharray:none;stroke-dashoffset:0;marker:none;visibility:visible;display:inline;overflow:visible;enable-background:accumulate" />
      <path
         sodipodi:nodetypes="ccccc"
         inkscape:connector-curvature="0"
         id="path3058-3"
         d="m -16.184,447.61875 -0.42345,1.8657 -0.46186,1.22606 0.48665,0.60713 0.30356,0.78432"
         style="color:#000000;fill:none;stroke:#000000;stroke-width:0.875;stroke-linecap:butt;stroke-linejoin:miter;stroke-miterlimit:4;stroke-opacity:1;stroke-dasharray:none;stroke-dashoffset:0;marker:none;visibility:visible;display:inline;overflow:visible;enable-background:accumulate" />
      <path
         inkscape:connector-curvature="0"
         id="path3060-7"
         d="m -16.19051,449.98999 0.64493,-0.10748"
         style="color:#000000;fill:none;stroke:#000000;stroke-width:0.5;stroke-linecap:butt;stroke-linejoin:miter;stroke-miterlimit:4;stroke-opacity:1;stroke-dasharray:none;stroke-dashoffset:0;marker:none;visibility:visible;display:inline;overflow:visible;enable-background:accumulate" />
      <path
         inkscape:connector-curvature="0"
         id="path3062-4"
         d="m -15.95663,447.58746 c 1.28986,-1.18238 3.86958,-2.04228 3.86958,-2.04228 l 0.8599,0.21497 1.39735,-1.28986 1.07488,1.71982 1.82731,0.42995 1.50483,3.00967 -0.8599,3.43963 -1.50484,-2.90219 -1.07488,-0.42995 -0.21498,-2.47223 -1.28986,-0.75242"
         style="color:#000000;fill:none;stroke:#000000;stroke-width:0.875;stroke-linecap:butt;stroke-linejoin:miter;stroke-miterlimit:4;stroke-opacity:1;stroke-dasharray:none;stroke-dashoffset:0;marker:none;visibility:visible;display:inline;overflow:visible;enable-background:accumulate" />
      <path
         inkscape:connector-curvature="0"
         id="path3064-7"
         d="m -8.64743,451.02708 -0.21497,1.39735"
         style="color:#000000;fill:none;stroke:#000000;stroke-width:0.875;stroke-linecap:butt;stroke-linejoin:miter;stroke-miterlimit:4;stroke-opacity:1;stroke-dasharray:none;stroke-dashoffset:0;marker:none;visibility:visible;display:inline;overflow:visible;enable-background:accumulate" />
      <path
         inkscape:connector-curvature="0"
         id="path3066-1"
         d="m -8.8624,455.32661 0.21497,2.90219 -2.47223,0.42995"
         style="color:#000000;fill:none;stroke:#000000;stroke-width:0.5;stroke-linecap:butt;stroke-linejoin:miter;stroke-miterlimit:4;stroke-opacity:1;stroke-dasharray:none;stroke-dashoffset:0;marker:none;visibility:visible;display:inline;overflow:visible;enable-background:accumulate" />
      <path
         inkscape:connector-curvature="0"
         id="path4016-9"
         d="m -9.72231,461.02349 c 0.32246,2.57972 -1.8273,6.77176 -1.8273,6.77176"
         style="color:#000000;fill:none;stroke:#000000;stroke-width:0.5;stroke-linecap:butt;stroke-linejoin:miter;stroke-miterlimit:4;stroke-opacity:1;stroke-dasharray:none;stroke-dashoffset:0;marker:none;visibility:visible;display:inline;overflow:visible;enable-background:accumulate" />
      <path
         inkscape:connector-curvature="0"
         id="path4018-9"
         d="m -23.80328,460.27107 3.11716,1.07489"
         style="color:#000000;fill:none;stroke:#000000;stroke-width:0.5;stroke-linecap:butt;stroke-linejoin:miter;stroke-miterlimit:4;stroke-opacity:1;stroke-dasharray:none;stroke-dashoffset:0;marker:none;visibility:visible;display:inline;overflow:visible;enable-background:accumulate" />
      <path
         inkscape:connector-curvature="0"
         id="path4020-2"
         d="m -21.54602,500.25672 c 0.64493,1.39735 1.28986,1.61232 1.28986,1.61232"
         style="color:#000000;fill:none;stroke:#000000;stroke-width:0.5;stroke-linecap:butt;stroke-linejoin:miter;stroke-miterlimit:4;stroke-opacity:1;stroke-dasharray:none;stroke-dashoffset:0;marker:none;visibility:visible;display:inline;overflow:visible;enable-background:accumulate" />
      <path
         inkscape:connector-curvature="0"
         id="path4022-4"
         d="m -20.57863,466.39791 c 0.32247,2.25725 0.10749,5.05195 0.10749,5.05195 l -1.61232,2.79469"
         style="color:#000000;fill:none;stroke:#000000;stroke-width:0.875;stroke-linecap:butt;stroke-linejoin:miter;stroke-miterlimit:4;stroke-opacity:1;stroke-dasharray:none;stroke-dashoffset:0;marker:none;visibility:visible;display:inline;overflow:visible;enable-background:accumulate" />
      <path
         inkscape:connector-curvature="0"
         id="path4024-8"
         d="m -19.28877,466.82786 c 1.07488,2.68721 1.07488,5.37441 1.07488,5.37441 l -2.47223,3.54712"
         style="color:#000000;fill:none;stroke:#000000;stroke-width:0.875;stroke-linecap:butt;stroke-linejoin:miter;stroke-miterlimit:4;stroke-opacity:1;stroke-dasharray:none;stroke-dashoffset:0;marker:none;visibility:visible;display:inline;overflow:visible;enable-background:accumulate" />
      <path
         inkscape:connector-curvature="0"
         id="path4026-80"
         d="m -20.14867,477.89915 c 2.14976,0.9674 5.58939,2.25726 5.58939,2.25726"
         style="color:#000000;fill:none;stroke:#000000;stroke-width:0.875;stroke-linecap:butt;stroke-linejoin:miter;stroke-miterlimit:4;stroke-opacity:1;stroke-dasharray:none;stroke-dashoffset:0;marker:none;visibility:visible;display:inline;overflow:visible;enable-background:accumulate" />
      <path
         inkscape:connector-curvature="0"
         id="path4028-4"
         d="m -20.47114,479.83394 c 1.07488,0.75242 4.83697,1.93479 4.83697,1.93479"
         style="color:#000000;fill:none;stroke:#000000;stroke-width:0.875;stroke-linecap:butt;stroke-linejoin:miter;stroke-miterlimit:4;stroke-opacity:1;stroke-dasharray:none;stroke-dashoffset:0;marker:none;visibility:visible;display:inline;overflow:visible;enable-background:accumulate" />
      <path
         inkscape:connector-curvature="0"
         id="path4030-39"
         d="m -18.53635,466.82786 c 3.86958,1.39735 4.622,2.57972 4.622,2.57972 l 2.04227,3.33214"
         style="color:#000000;fill:none;stroke:#000000;stroke-width:0.875;stroke-linecap:butt;stroke-linejoin:miter;stroke-miterlimit:4;stroke-opacity:1;stroke-dasharray:none;stroke-dashoffset:0;marker:none;visibility:visible;display:inline;overflow:visible;enable-background:accumulate" />
      <path
         inkscape:connector-curvature="0"
         id="path4032-2"
         d="m -17.67644,465.43051 c 2.36474,0.9674 3.6546,1.93479 4.5145,2.57972 0.85991,0.64493 2.04228,2.90219 2.04228,2.90219"
         style="color:#000000;fill:none;stroke:#000000;stroke-width:0.875;stroke-linecap:butt;stroke-linejoin:miter;stroke-miterlimit:4;stroke-opacity:1;stroke-dasharray:none;stroke-dashoffset:0;marker:none;visibility:visible;display:inline;overflow:visible;enable-background:accumulate" />
    </g>
    <g
       id="g4109"
       transform="translate(-231.80743,-172.66315)">
      <path
         id="path4875-2"
         d="m 392.12617,657.90266 c 10.969,2.26401 1.688,22.63802 7.594,24.05339"
         style="fill:none;stroke:#000000;stroke-width:1.25;stroke-miterlimit:4;stroke-dasharray:none"
         inkscape:connector-curvature="0" />
      <path
         id="path4877-3"
         d="m 392.12617,706.00944 c 10.969,-2.26402 1.688,-22.63874 7.594,-24.05339"
         style="fill:none;stroke:#000000;stroke-width:1.25;stroke-miterlimit:4;stroke-dasharray:none"
         inkscape:connector-curvature="0" />
    </g>
    <text
       xml:space="preserve"
       style="font-size:10px;font-style:normal;font-variant:normal;font-weight:normal;font-stretch:normal;text-indent:0;text-align:start;text-decoration:none;line-height:125%;letter-spacing:0px;word-spacing:0px;text-transform:none;direction:ltr;block-progression:tb;writing-mode:lr-tb;text-anchor:start;baseline-shift:baseline;color:#000000;fill:#000000;fill-opacity:1;fill-rule:nonzero;stroke:none;stroke-width:1.24999988px;marker:none;visibility:visible;display:inline;overflow:visible;enable-background:accumulate;font-family:Liberation Sans;-inkscape-font-specification:Liberation Sans"
       x="170.86249"
       y="505.66803"
       id="text4071"
       sodipodi:linespacing="125%"><tspan
         sodipodi:role="line"
         id="tspan4073"
         x="170.86249"
         y="505.66803"><tspan
   style="font-style:italic;-inkscape-font-specification:Liberation Sans Italic"
   id="tspan4125">h</tspan>=height</tspan><tspan
         sodipodi:role="line"
         x="170.86249"
         y="518.16803"
         id="tspan4075">    above</tspan><tspan
         sodipodi:role="line"
         x="170.86249"
         y="530.66803"
         id="tspan4077">    protection</tspan></text>
    <g
       id="g4115"
       transform="translate(-284.08408,-173.00041)">
      <path
         id="path4875-2-4"
         d="m 511.88689,657.48537 c 10.969,4.52802 1.688,45.27604 7.594,48.10678"
         style="fill:none;stroke:#000000;stroke-width:1.25;stroke-miterlimit:4;stroke-dasharray:none"
         inkscape:connector-curvature="0" />
      <path
         id="path4877-3-5"
         d="m 511.88689,753.69893 c 10.969,-4.52804 1.688,-45.27748 7.594,-48.10678"
         style="fill:none;stroke:#000000;stroke-width:1.25;stroke-miterlimit:4;stroke-dasharray:none"
         inkscape:connector-curvature="0" />
    </g>
    <text
       xml:space="preserve"
       style="font-size:10px;font-style:normal;font-variant:normal;font-weight:normal;font-stretch:normal;text-indent:0;text-align:start;text-decoration:none;line-height:125%;letter-spacing:0px;word-spacing:0px;text-transform:none;direction:ltr;block-progression:tb;writing-mode:lr-tb;text-anchor:start;baseline-shift:baseline;color:#000000;fill:#000000;fill-opacity:1;fill-rule:nonzero;stroke:none;stroke-width:1.24999988px;marker:none;visibility:visible;display:inline;overflow:visible;enable-background:accumulate;font-family:Liberation Sans;-inkscape-font-specification:Liberation Sans"
       x="238.48499"
       y="536.28058"
       id="text4119"
       sodipodi:linespacing="125%"><tspan
         sodipodi:role="line"
         id="tspan4121"
         x="238.48499"
         y="536.28058">2<tspan
   style="font-style:italic;-inkscape-font-specification:Liberation Sans Italic"
   id="tspan4123">h</tspan></tspan></text>
    <g
       id="g4153"
       transform="translate(-240.39289,-172.66315)">
      <path
         id="path4875-2-4-0"
         d="m 493.20575,657.32709 c 10.96901,6.74395 1.688,67.43336 7.59401,71.64941"
         style="fill:none;stroke:#000000;stroke-width:1.25;stroke-miterlimit:4;stroke-dasharray:none"
         inkscape:connector-curvature="0" />
      <path
         id="path4877-3-5-5"
         d="m 493.20575,800.62592 c 10.96901,-6.74399 1.688,-67.43551 7.59401,-71.64942"
         style="fill:none;stroke:#000000;stroke-width:1.25;stroke-miterlimit:4;stroke-dasharray:none"
         inkscape:connector-curvature="0" />
    </g>
    <text
       xml:space="preserve"
       style="font-size:10px;font-style:normal;font-variant:normal;font-weight:normal;font-stretch:normal;text-indent:0;text-align:start;text-decoration:none;line-height:125%;letter-spacing:0px;word-spacing:0px;text-transform:none;direction:ltr;block-progression:tb;writing-mode:lr-tb;text-anchor:start;baseline-shift:baseline;color:#000000;fill:#000000;fill-opacity:1;fill-rule:nonzero;stroke:none;stroke-width:1.24999988px;marker:none;visibility:visible;display:inline;overflow:visible;enable-background:accumulate;font-family:Liberation Sans;-inkscape-font-specification:Liberation Sans"
       x="264.24139"
       y="526.74121"
       id="text4157"
       sodipodi:linespacing="125%"><tspan
         sodipodi:role="line"
         x="264.24139"
         y="526.74121"
         id="tspan4161">Actual</tspan><tspan
         sodipodi:role="line"
         x="264.24139"
         y="539.24121"
         id="tspan4165">fall is</tspan><tspan
         sodipodi:role="line"
         x="264.24139"
         y="551.74121"
         id="tspan4167">greater</tspan><tspan
         sodipodi:role="line"
         x="264.24139"
         y="564.24121"
         id="tspan4169">than 2<tspan
   style="font-style:italic;-inkscape-font-specification:Liberation Sans Italic"
   id="tspan4171">h</tspan>,</tspan><tspan
         id="tspan4226"
         sodipodi:role="line"
         x="264.24139"
         y="576.74121">due to</tspan><tspan
         id="tspan4228"
         sodipodi:role="line"
         x="264.24139"
         y="589.24121">rope</tspan><tspan
         id="tspan4230"
         sodipodi:role="line"
         x="264.24139"
         y="601.74121">stretch.</tspan></text>
    <text
       xml:space="preserve"
       style="font-size:10px;font-style:normal;font-variant:normal;font-weight:normal;font-stretch:normal;text-indent:0;text-align:start;text-decoration:none;line-height:125%;letter-spacing:0px;word-spacing:0px;text-transform:none;direction:ltr;block-progression:tb;writing-mode:lr-tb;text-anchor:start;baseline-shift:baseline;color:#000000;fill:#000000;fill-opacity:1;fill-rule:nonzero;stroke:none;stroke-width:1.24999988px;marker:none;visibility:visible;display:inline;overflow:visible;enable-background:accumulate;font-family:Liberation Sans;-inkscape-font-specification:Liberation Sans"
       x="243.10628"
       y="705.98297"
       id="text4288"
       sodipodi:linespacing="125%"><tspan
         sodipodi:role="line"
         id="tspan4290"
         x="243.10628"
         y="705.98297">P</tspan></text>
    <path
       style="color:#000000;fill:none;stroke:#000000;stroke-width:1;stroke-linecap:butt;stroke-linejoin:miter;stroke-miterlimit:4;stroke-opacity:1;stroke-dasharray:none;stroke-dashoffset:0;marker:none;marker-end:url(#Arrow2Mend);visibility:visible;display:inline;overflow:visible;enable-background:accumulate"
       d="m 250.34941,705.20211 c 18.47079,0.19209 0.80119,8.36876 7.18053,7.94547 6.24683,-0.4145 15.13609,-1.72721 15.13609,-1.72721"
       id="path4292"
       inkscape:connector-curvature="0"
       sodipodi:nodetypes="csc" />
  </g>
</svg>
