<?xml version="1.0" encoding="UTF-8" standalone="no"?>
<svg
   xmlns:dc="http://purl.org/dc/elements/1.1/"
   xmlns:cc="http://creativecommons.org/ns#"
   xmlns:rdf="http://www.w3.org/1999/02/22-rdf-syntax-ns#"
   xmlns:svg="http://www.w3.org/2000/svg"
   xmlns="http://www.w3.org/2000/svg"
   xmlns:xlink="http://www.w3.org/1999/xlink"
   xmlns:sodipodi="http://sodipodi.sourceforge.net/DTD/sodipodi-0.dtd"
   xmlns:inkscape="http://www.inkscape.org/namespaces/inkscape"
   width="600"
   height="480"
   viewBox="0 0 600 480"
   id="svg2"
   version="1.1"
   inkscape:version="0.48.3.1 r9886"
   sodipodi:docname="tram-fare.svg">
  <metadata
     id="metadata106">
    <rdf:RDF>
      <cc:Work
         rdf:about="">
        <dc:format>image/svg+xml</dc:format>
        <dc:type
           rdf:resource="http://purl.org/dc/dcmitype/StillImage" />
      </cc:Work>
    </rdf:RDF>
  </metadata>
  <sodipodi:namedview
     pagecolor="#ffffff"
     bordercolor="#666666"
     borderopacity="1"
     objecttolerance="10"
     gridtolerance="10"
     guidetolerance="10"
     inkscape:pageopacity="0"
     inkscape:pageshadow="2"
     inkscape:window-width="1440"
     inkscape:window-height="872"
     id="namedview104"
     showgrid="false"
     inkscape:zoom="1.1158257"
     inkscape:cx="80.127747"
     inkscape:cy="107.25041"
     inkscape:window-x="0"
     inkscape:window-y="0"
     inkscape:window-maximized="1"
     inkscape:current-layer="svg2" />
  <desc
     id="desc4">Produced by GNUPLOT 4.4 patchlevel 3 </desc>
  <defs
     id="defs6">
    <circle
       id="gpDot"
       r="0.5"
       stroke-width="0.5" />
    <path
       id="gpPt0"
       stroke-width="0.222"
       stroke="currentColor"
       d="M-1,0 h2 M0,-1 v2" />
    <path
       id="gpPt1"
       stroke-width="0.222"
       stroke="currentColor"
       d="M-1,-1 L1,1 M1,-1 L-1,1" />
    <path
       id="gpPt2"
       stroke-width="0.222"
       stroke="currentColor"
       d="M-1,0 L1,0 M0,-1 L0,1 M-1,-1 L1,1 M-1,1 L1,-1" />
    <rect
       id="gpPt3"
       stroke-width="0.222"
       stroke="currentColor"
       x="-1"
       y="-1"
       width="2"
       height="2" />
    <rect
       id="gpPt4"
       stroke-width="0.222"
       stroke="currentColor"
       fill="currentColor"
       x="-1"
       y="-1"
       width="2"
       height="2" />
    <circle
       id="gpPt5"
       stroke-width="0.222"
       stroke="currentColor"
       cx="0"
       cy="0"
       r="1" />
    <use
       xlink:href="#gpPt5"
       id="gpPt6"
       fill="currentColor"
       stroke="none" />
    <path
       id="gpPt7"
       stroke-width="0.222"
       stroke="currentColor"
       d="M0,-1.33 L-1.33,0.67 L1.33,0.67 z" />
    <use
       xlink:href="#gpPt7"
       id="gpPt8"
       fill="currentColor"
       stroke="none" />
    <use
       xlink:href="#gpPt7"
       id="gpPt9"
       stroke="currentColor"
       transform="rotate(180)" />
    <use
       xlink:href="#gpPt9"
       id="gpPt10"
       fill="currentColor"
       stroke="none" />
    <use
       xlink:href="#gpPt3"
       id="gpPt11"
       stroke="currentColor"
       transform="rotate(45)" />
    <use
       xlink:href="#gpPt11"
       id="gpPt12"
       fill="currentColor"
       stroke="none" />
  </defs>
  <g
     style="fill:none; color:white; stroke:currentColor; stroke-width:1.00; stroke-linecap:butt; stroke-linejoin:miter"
     id="g22" />
  <g
     style="fill:none; color:white; stroke:currentColor; stroke-width:0.50; stroke-linecap:butt; stroke-linejoin:miter"
     id="g24" />
  <path
     style="color:#000000;fill:none;stroke:currentColor;stroke-width:0.5;stroke-linecap:butt;stroke-linejoin:miter"
     inkscape:connector-curvature="0"
     id="path28"
     d="m 66.6,380.4 -9,0 m 9,0 9,0" />
  <path
     style="color:#000000;fill:none;stroke:currentColor;stroke-width:0.5;stroke-linecap:butt;stroke-linejoin:miter"
     inkscape:connector-curvature="0"
     id="path34"
     d="m 66.6,334.8 -9,0 m 9,0 9,0" />
  <path
     style="color:#000000;fill:none;stroke:currentColor;stroke-width:0.5;stroke-linecap:butt;stroke-linejoin:miter"
     inkscape:connector-curvature="0"
     id="path46"
     d="m 123.92358,426 0,9 m 0,-9 0,-9" />
  <path
     style="color:#000000;fill:none;stroke:currentColor;stroke-width:0.5;stroke-linecap:butt;stroke-linejoin:miter"
     inkscape:connector-curvature="0"
     id="path64"
     d="m 180.6,426 0,9 m 0,-9 0,-9" />
  <path
     style="color:#000000;fill:none;stroke:currentColor;stroke-width:0.5;stroke-linecap:butt;stroke-linejoin:miter"
     inkscape:connector-curvature="0"
     id="path70"
     d="m 66.6,426 114,0 m -114,0 0,-114" />
  <g
     id="g80"
     style="color:#000000;fill:none;stroke:none">
    <polygon
       style="fill:currentColor"
       id="polygon82"
       points="184,426 174.5,429.4 174.5,426 174.5,426 174.5,422.6 " />
  </g>
  <path
     style="color:#000000;fill:none;stroke:currentColor;stroke-width:0.5;stroke-linecap:butt;stroke-linejoin:miter"
     inkscape:connector-curvature="0"
     id="path84"
     d="m 174.5,426 0,-3.4 9.5,3.4 -9.5,3.4 0,-3.4 m -107.9,0 107.9,0" />
  <g
     id="g86"
     style="color:#000000;fill:none;stroke:none">
    <polygon
       style="fill:currentColor"
       id="polygon88"
       points="66.6,300.6 70,310.1 66.6,310.1 66.6,310.1 63.2,310.1 " />
  </g>
  <path
     style="color:#000000;fill:none;stroke:currentColor;stroke-width:0.5;stroke-linecap:butt;stroke-linejoin:miter"
     inkscape:connector-curvature="0"
     id="path90"
     d="m 66.6,310.1 -3.4,0 3.4,-9.5 3.4,9.5 -3.4,0 m 0,115.9 0,-115.9" />
  <a
     xlink:title="Plot #1"
     id="a92">
    <g
       style="fill:none; color:white; stroke:currentColor; stroke-width:1.50; stroke-linecap:butt; stroke-linejoin:miter"
       id="g94" />
    <g
       style="fill:none; color:black; stroke:currentColor; stroke-width:1.50; stroke-linecap:butt; stroke-linejoin:miter"
       id="g96">
      <path
         d="M66.6,426.0 L67.0,424.5 L67.4,423.0 L67.7,421.5 L68.1,420.0 L68.5,418.5 L68.9,417.0 L69.3,415.6    L69.7,414.1 L70.0,412.7 L70.4,411.3 L70.8,409.8 L71.2,408.4 L71.6,407.0 L71.9,405.6 L72.3,404.3    L72.7,402.9 L73.1,401.5 L73.5,400.2 L73.8,398.9 L74.2,397.5 L74.6,396.2 L75.0,394.9 L75.4,393.6    L75.8,392.3 L76.1,391.1 L76.5,389.8 L76.9,388.5 L77.3,387.3 L77.7,386.1 L78.0,384.8 L78.4,383.6    L78.8,382.4 L79.2,381.2 L79.6,380.0 L79.9,378.9 L80.3,377.7 L80.7,376.6 L81.1,375.4 L81.5,374.3    L81.9,373.2 L82.2,372.0 L82.6,370.9 L83.0,369.9 L83.4,368.8 L83.8,367.7 L84.1,366.6 L84.5,365.6    L84.9,364.5 L85.3,363.5 L85.7,362.5 L86.0,361.5 L86.4,360.5 L86.8,359.5 L87.2,358.5 L87.6,357.5    L88.0,356.6 L88.3,355.6 L88.7,354.7 L89.1,353.8 L89.5,352.9 L89.9,351.9 L90.2,351.1 L90.6,350.2    L91.0,349.3 L91.4,348.4 L91.8,347.6 L92.1,346.7 L92.5,345.9 L92.9,345.1 L93.3,344.2 L93.7,343.4    L94.1,342.6 L94.4,341.9 L94.8,341.1 L95.2,340.3 L95.6,339.6 L96.0,338.8 L96.3,338.1 L96.7,337.4    L97.1,336.6 L97.5,335.9 L97.9,335.2 L98.2,334.6 L98.6,333.9 L99.0,333.2 L99.4,332.6 L99.8,331.9    L100.2,331.3 L100.5,330.7 L100.9,330.1 L101.3,329.5 L101.7,328.9 L102.1,328.3 L102.4,327.7 L102.8,327.2    L103.2,326.6 L103.6,326.1 L104.0,325.5 L104.3,325.0 L104.7,324.5 L105.1,324.0 L105.5,323.5 L105.9,323.0    L106.3,322.6 L106.6,322.1 L107.0,321.7 L107.4,321.2 L107.8,320.8 L108.2,320.4 L108.5,320.0 L108.9,319.6    L109.3,319.2 L109.7,318.8 L110.1,318.4 L110.4,318.1 L110.8,317.7 L111.2,317.4 L111.6,317.1 L112.0,316.7    L112.4,316.4 L112.7,316.1 L113.1,315.9 L113.5,315.6 L113.9,315.3 L114.3,315.1 L114.6,314.8 L115.0,314.6    L115.4,314.4 L115.8,314.1 L116.2,313.9 L116.5,313.7 L116.9,313.6 L117.3,313.4 L117.7,313.2 L118.1,313.1    L118.5,312.9 L118.8,312.8 L119.2,312.7 L119.6,312.6 L120.0,312.5 L120.4,312.4 L120.7,312.3 L121.1,312.2    L121.5,312.2 L121.9,312.1 L122.3,312.1 L122.6,312.0 L123.0,312.0 L123.4,312.0 L123.8,312.0 L124.2,312.0    L124.6,312.0 L124.9,312.1 L125.3,312.1 L125.7,312.2 L126.1,312.2 L126.5,312.3 L126.8,312.4 L127.2,312.5    L127.6,312.6 L128.0,312.7 L128.4,312.8 L128.7,312.9 L129.1,313.1 L129.5,313.2 L129.9,313.4 L130.3,313.6    L130.7,313.7 L131.0,313.9 L131.4,314.1 L131.8,314.4 L132.2,314.6 L132.6,314.8 L132.9,315.1 L133.3,315.3    L133.7,315.6 L134.1,315.9 L134.5,316.1 L134.8,316.4 L135.2,316.7 L135.6,317.1 L136.0,317.4 L136.4,317.7    L136.8,318.1 L137.1,318.4 L137.5,318.8 L137.9,319.2 L138.3,319.6 L138.7,320.0 L139.0,320.4 L139.4,320.8    L139.8,321.2 L140.2,321.7 L140.6,322.1 L140.9,322.6 L141.3,323.0 L141.7,323.5 L142.1,324.0 L142.5,324.5    L142.9,325.0 L143.2,325.5 L143.6,326.1 L144.0,326.6 L144.4,327.2 L144.8,327.7 L145.1,328.3 L145.5,328.9    L145.9,329.5 L146.3,330.1 L146.7,330.7 L147.0,331.3 L147.4,331.9 L147.8,332.6 L148.2,333.2 L148.6,333.9    L149.0,334.6 L149.3,335.2 L149.7,335.9 L150.1,336.6 L150.5,337.4 L150.9,338.1 L151.2,338.8 L151.6,339.6    L152.0,340.3 L152.4,341.1 L152.8,341.9 L153.1,342.6 L153.5,343.4 L153.9,344.2 L154.3,345.1 L154.7,345.9    L155.1,346.7 L155.4,347.6 L155.8,348.4 L156.2,349.3 L156.6,350.2 L157.0,351.1 L157.3,351.9 L157.7,352.9    L158.1,353.8 L158.5,354.7 L158.9,355.6 L159.2,356.6 L159.6,357.5 L160.0,358.5 L160.4,359.5 L160.8,360.5    L161.2,361.5 L161.5,362.5 L161.9,363.5 L162.3,364.5 L162.7,365.6 L163.1,366.6 L163.4,367.7 L163.8,368.8    L164.2,369.9 L164.6,370.9 L165.0,372.0 L165.3,373.2 L165.7,374.3 L166.1,375.4 L166.5,376.6 L166.9,377.7    L167.3,378.9 L167.6,380.0 L168.0,381.2 L168.4,382.4 L168.8,383.6 L169.2,384.8 L169.5,386.1 L169.9,387.3    L170.3,388.5 L170.7,389.8 L171.1,391.1 L171.4,392.3 L171.8,393.6 L172.2,394.9 L172.6,396.2 L173.0,397.5    L173.4,398.9 L173.7,400.2 L174.1,401.5 L174.5,402.9 L174.9,404.3 L175.3,405.6 L175.6,407.0 L176.0,408.4    L176.4,409.8 L176.8,411.3 L177.2,412.7 L177.5,414.1 L177.9,415.6 L178.3,417.0 L178.7,418.5 L179.1,420.0    L179.5,421.5 L179.8,423.0 L180.2,424.5 L180.6,426.0 "
         id="path98" />
    </g>
  </a>
  <g
     style="fill:none; color:white; stroke:currentColor; stroke-width:0.50; stroke-linecap:butt; stroke-linejoin:miter"
     id="g100" />
  <g
     style="fill:none; color:black; stroke:currentColor; stroke-width:0.50; stroke-linecap:butt; stroke-linejoin:miter"
     id="g102" />
  <text
     xml:space="preserve"
     style="font-size:10px;font-style:normal;font-weight:normal;line-height:125%;letter-spacing:0px;word-spacing:0px;fill:#000000;fill-opacity:1;stroke:none;font-family:Sans"
     x="-406.09174"
     y="9.1277847"
     id="text3117"
     sodipodi:linespacing="125%"
     transform="matrix(0,-1,1,0,0,0)"><tspan
       sodipodi:role="line"
       id="tspan3119"
       x="-406.09174"
       y="9.1277847">revenue, <tspan
   style="font-style:italic;-inkscape-font-specification:Sans Italic"
   id="tspan3123">r</tspan></tspan><tspan
       sodipodi:role="line"
       x="-406.09174"
       y="21.627785"
       id="tspan3121">(Swiss francs)</tspan></text>
  <text
     xml:space="preserve"
     style="font-size:10px;font-style:normal;font-weight:normal;line-height:125%;letter-spacing:0px;word-spacing:0px;fill:#000000;fill-opacity:1;stroke:none;font-family:Sans"
     x="101.07629"
     y="456.23599"
     id="text3125"
     sodipodi:linespacing="125%"><tspan
       sodipodi:role="line"
       id="tspan3127"
       x="101.07629"
       y="456.23599">fare, f</tspan><tspan
       sodipodi:role="line"
       x="101.07629"
       y="468.73599"
       id="tspan3129">(Swiss francs)</tspan></text>
  <text
     xml:space="preserve"
     style="font-size:10px;font-style:normal;font-weight:normal;line-height:125%;letter-spacing:0px;word-spacing:0px;fill:#000000;fill-opacity:1;stroke:none;font-family:Sans"
     x="171.4178"
     y="445.30453"
     id="text3131"
     sodipodi:linespacing="125%"><tspan
       sodipodi:role="line"
       id="tspan3133"
       x="171.4178"
       y="445.30453">100</tspan></text>
  <text
     xml:space="preserve"
     style="font-size:10px;font-style:normal;font-weight:normal;line-height:125%;letter-spacing:0px;word-spacing:0px;fill:#000000;fill-opacity:1;stroke:none;font-family:Sans"
     x="117.86954"
     y="445.30453"
     id="text3135"
     sodipodi:linespacing="125%"><tspan
       sodipodi:role="line"
       id="tspan3137"
       x="117.86954"
       y="445.30453">50</tspan></text>
  <text
     xml:space="preserve"
     style="font-size:10px;font-style:normal;font-weight:normal;line-height:125%;letter-spacing:0px;word-spacing:0px;fill:#000000;fill-opacity:1;stroke:none;font-family:Sans"
     x="29.15053"
     y="338.68329"
     id="text3139"
     sodipodi:linespacing="125%"><tspan
       sodipodi:role="line"
       id="tspan3141"
       x="29.15053"
       y="338.68329">2000</tspan></text>
  <text
     xml:space="preserve"
     style="font-size:10px;font-style:normal;font-weight:normal;line-height:125%;letter-spacing:0px;word-spacing:0px;fill:#000000;fill-opacity:1;stroke:none;font-family:Sans"
     x="29.150532"
     y="383.35965"
     id="text3143"
     sodipodi:linespacing="125%"><tspan
       sodipodi:role="line"
       id="tspan3145"
       x="29.150532"
       y="383.35965">1000</tspan></text>
</svg>
