<?xml version="1.0" encoding="UTF-8" standalone="no"?>
<!-- Generator: Adobe Illustrator 11 Build 196, SVG Export Plug-In . SVG Version: 6.0.0 Build 78)  -->

<svg
   xmlns:dc="http://purl.org/dc/elements/1.1/"
   xmlns:cc="http://creativecommons.org/ns#"
   xmlns:rdf="http://www.w3.org/1999/02/22-rdf-syntax-ns#"
   xmlns:svg="http://www.w3.org/2000/svg"
   xmlns="http://www.w3.org/2000/svg"
   xmlns:xlink="http://www.w3.org/1999/xlink"
   xmlns:sodipodi="http://sodipodi.sourceforge.net/DTD/sodipodi-0.dtd"
   xmlns:inkscape="http://www.inkscape.org/namespaces/inkscape"
   width="149.819"
   height="338.825"
   viewBox="0 0 149.819 338.825"
   style="overflow:visible;enable-background:new 0 0 149.819 338.825"
   xml:space="preserve"
   id="svg2"
   version="1.1"
   inkscape:version="0.48.4 r9939"
   sodipodi:docname="dq-ball-at-top.svg"><metadata
     id="metadata269"><rdf:RDF><cc:Work
         rdf:about=""><dc:format>image/svg+xml</dc:format><dc:type
           rdf:resource="http://purl.org/dc/dcmitype/StillImage" /></cc:Work></rdf:RDF></metadata><defs
     id="defs267"><linearGradient
       gradientTransform="matrix(-0.9,0,0,-0.9,324.5818,106.6177)"
       y2="51.2537"
       x2="214.1028"
       y1="61.8787"
       x1="214.1028"
       gradientUnits="userSpaceOnUse"
       id="XMLID_3_"><stop
         id="stop100"
         style="stop-color:#E4E4E4"
         offset="0" /><stop
         id="stop102"
         style="stop-color:#E2E2E2"
         offset="0.0181" /><stop
         id="stop104"
         style="stop-color:#CCCCCC"
         offset="0.309" /><stop
         id="stop106"
         style="stop-color:#BABABA"
         offset="0.579" /><stop
         id="stop108"
         style="stop-color:#AFAFAF"
         offset="0.8176" /><stop
         id="stop110"
         style="stop-color:#ABABAB"
         offset="1" /><midPointStop
         id="midPointStop112"
         style="stop-color:#E4E4E4"
         offset="0" /><midPointStop
         id="midPointStop114"
         style="stop-color:#E4E4E4"
         offset="0.35" /><midPointStop
         id="midPointStop116"
         style="stop-color:#ABABAB"
         offset="1" /></linearGradient><linearGradient
       gradientTransform="matrix(0.9,0,0,0.9,-144.9888,14.9999)"
       y2="51.2537"
       x2="214.1023"
       y1="61.8787"
       x1="214.1023"
       gradientUnits="userSpaceOnUse"
       id="XMLID_4_"><stop
         id="stop121"
         style="stop-color:#E4E4E4"
         offset="0" /><stop
         id="stop123"
         style="stop-color:#E2E2E2"
         offset="0.0181" /><stop
         id="stop125"
         style="stop-color:#CCCCCC"
         offset="0.309" /><stop
         id="stop127"
         style="stop-color:#BABABA"
         offset="0.579" /><stop
         id="stop129"
         style="stop-color:#AFAFAF"
         offset="0.8176" /><stop
         id="stop131"
         style="stop-color:#ABABAB"
         offset="1" /><midPointStop
         id="midPointStop133"
         style="stop-color:#E4E4E4"
         offset="0" /><midPointStop
         id="midPointStop135"
         style="stop-color:#E4E4E4"
         offset="0.35" /><midPointStop
         id="midPointStop137"
         style="stop-color:#ABABAB"
         offset="1" /></linearGradient><linearGradient
       inkscape:collect="always"
       xlink:href="#XMLID_4_"
       id="linearGradient3329"
       gradientUnits="userSpaceOnUse"
       gradientTransform="matrix(0.9,0,0,0.9,-144.9888,14.9999)"
       x1="214.1023"
       y1="61.8787"
       x2="214.1023"
       y2="51.2537" /><linearGradient
       inkscape:collect="always"
       xlink:href="#XMLID_3_"
       id="linearGradient3332"
       gradientUnits="userSpaceOnUse"
       gradientTransform="matrix(-0.9,0,0,-0.9,324.5818,106.6177)"
       x1="214.1028"
       y1="61.8787"
       x2="214.1028"
       y2="51.2537" /></defs><sodipodi:namedview
     pagecolor="#ffffff"
     bordercolor="#666666"
     borderopacity="1"
     objecttolerance="10"
     gridtolerance="10"
     guidetolerance="10"
     inkscape:pageopacity="0"
     inkscape:pageshadow="2"
     inkscape:window-width="1280"
     inkscape:window-height="996"
     id="namedview265"
     showgrid="false"
     inkscape:zoom="2.0788995"
     inkscape:cx="-3.3100331"
     inkscape:cy="165.82326"
     inkscape:window-x="0"
     inkscape:window-y="0"
     inkscape:window-maximized="1"
     inkscape:current-layer="svg2" /><style
     type="text/css"
     id="style4" /><rect
     style="fill:#dedede;fill-opacity:1;stroke:none"
     id="rect3380"
     width="184.25197"
     height="341.04584"
     x="-10.582522"
     y="4.9945321" /><line
     id="line7"
     y2="282.08301"
     x2="36.93"
     y1="282.08301"
     x1="33.130001"
     style="fill:none;stroke:#000000;stroke-linecap:square;stroke-miterlimit:1" /><line
     id="line9"
     y2="257.384"
     x2="36.93"
     y1="257.384"
     x1="33.130001"
     style="fill:none;stroke:#000000;stroke-linecap:square;stroke-miterlimit:1" /><line
     id="line11"
     y2="232.683"
     x2="36.93"
     y1="232.683"
     x1="33.130001"
     style="fill:none;stroke:#000000;stroke-linecap:square;stroke-miterlimit:1" /><line
     id="line13"
     y2="311.53299"
     x2="54.98"
     y1="307.733"
     x1="54.98"
     style="fill:none;stroke:#000000;stroke-linecap:square;stroke-miterlimit:1" /><line
     id="line15"
     y2="311.53299"
     x2="95.830002"
     y1="307.733"
     x1="95.830002"
     style="fill:none;stroke:#000000;stroke-linecap:square;stroke-miterlimit:1" /><line
     id="line17"
     y2="311.53299"
     x2="137.63"
     y1="307.733"
     x1="137.63"
     style="fill:none;stroke:#000000;stroke-linecap:square;stroke-miterlimit:1" /><g
     id="g19"><text
       id="text21"
       transform="translate(19.3552,285.4084)"><tspan
         id="tspan23"
         style="font-size:7.6500001px;font-family:Bitstream Vera Sans"
         y="0"
         x="0">-5</tspan></text>
</g><g
     id="g25"><text
       id="text27"
       transform="translate(24.1052,260.7083)"><tspan
         id="tspan29"
         style="font-size:7.6500001px;font-family:Bitstream Vera Sans"
         y="0"
         x="0">0</tspan></text>
</g><g
     id="g31"><text
       id="text33"
       transform="translate(24.1052,236.0085)"><tspan
         id="tspan35"
         style="font-size:7.6500001px;font-family:Bitstream Vera Sans"
         y="0"
         x="0">5</tspan></text>
</g><g
     id="g37"><text
       id="text39"
       transform="translate(46.905,323.4084)"><tspan
         id="tspan41"
         style="font-size:7.6500001px;font-family:Bitstream Vera Sans"
         y="0"
         x="0">0.5</tspan></text>
</g><g
     id="g43"><text
       id="text45"
       transform="translate(92.5051,323.4084)"><tspan
         id="tspan47"
         style="font-size:7.6500001px;font-family:Bitstream Vera Sans"
         y="0"
         x="0">1</tspan></text>
</g><g
     id="g49"><text
       id="text51"
       transform="translate(129.5549,323.4084)"><tspan
         id="tspan53"
         style="font-size:7.6500001px;font-family:Bitstream Vera Sans"
         y="0"
         x="0">1.5</tspan></text>
</g><g
     id="g55"><text
       id="text57"
       transform="translate(78.2551,334.8083)"><tspan
         id="tspan59"
         style="font-size:7.6500001px;font-family:Bitstream Vera Sans"
         y="0"
         x="0">t (s)</tspan></text>
</g><g
     id="g61"><text
       id="text63"
       transform="matrix(0,-1,1,0,9.0002,275.3201)"><tspan
         id="tspan65"
         style="font-size:7.6500001px;font-family:Bitstream Vera Sans"
         y="0"
         x="0">v (m/s)</tspan></text>
</g><line
     id="line67"
     y2="285.40799"
     x2="137.78799"
     y1="229.04201"
     x1="38.355"
     style="fill:none;stroke:#000000;stroke-miterlimit:1" /><line
     id="line69"
     y2="168.86301"
     x2="37.255001"
     y1="168.86301"
     x1="33.455002"
     style="fill:none;stroke:#000000;stroke-linecap:square;stroke-miterlimit:1" /><line
     id="line71"
     y2="128.963"
     x2="37.255001"
     y1="128.963"
     x1="33.455002"
     style="fill:none;stroke:#000000;stroke-linecap:square;stroke-miterlimit:1" /><g
     id="g73"><text
       id="text75"
       transform="translate(24.4304,172.1882)"><tspan
         id="tspan77"
         style="font-size:7.6500001px;font-family:Bitstream Vera Sans"
         y="0"
         x="0">1</tspan></text>
</g><g
     id="g79"><text
       id="text81"
       transform="translate(24.4304,132.2883)"><tspan
         id="tspan83"
         style="font-size:7.6500001px;font-family:Bitstream Vera Sans"
         y="0"
         x="0">2</tspan></text>
</g><g
     id="g85"><text
       id="text87"
       transform="matrix(0,-1,1,0,10.1614,170.0798)"><tspan
         id="tspan89"
         style="font-size:7.6500001px;font-family:Bitstream Vera Sans"
         y="0"
         x="0">x (m)</tspan></text>
</g><path
     inkscape:connector-curvature="0"
     id="path91"
     d="M 38.028,195.629 C 71.361,98.962 100.007,99.483 137.34,194.817"
     style="fill:none;stroke:#000000;stroke-linecap:square;stroke-miterlimit:1" /><line
     id="line93"
     y2="257.31601"
     x2="137.278"
     y1="257.31601"
     x1="37.653"
     style="fill:none;stroke:#000000;stroke-width:0.5;stroke-linecap:square;stroke-miterlimit:1" /><rect
     id="rect95"
     height="194.979"
     width="100.04"
     style="fill:none;stroke:#000000;stroke-width:0.5;stroke-linecap:square;stroke-miterlimit:1"
     y="112.754"
     x="37.59" /><line
     id="line97"
     y2="209.254"
     x2="137.59"
     y1="209.254"
     x1="38.09"
     style="fill:none;stroke:#000000;stroke-width:0.5;stroke-linecap:square;stroke-miterlimit:1" /><path
     inkscape:connector-curvature="0"
     id="path118"
     d="m 134.865,53.534 c 0,-1.643 -1.332,-2.975 -2.975,-2.975 -1.643,0 -2.975,1.332 -2.975,2.975 v 6.9 h 5.919 v -6.589 c 0.01,-0.103 0.031,-0.204 0.031,-0.311 z"
     style="fill:url(#linearGradient3332)" /><path
     inkscape:connector-curvature="0"
     id="path139"
     d="m 44.728,68.084 c 0,1.643 1.332,2.975 2.975,2.975 1.643,0 2.975,-1.332 2.975,-2.975 v -6.9 H 44.76 v 6.588 c -0.011,0.104 -0.032,0.205 -0.032,0.312 z"
     style="fill:url(#linearGradient3329)" /><path
     inkscape:connector-curvature="0"
     id="path141"
     d="m 27.382,66.433 c 3.701,1.938 7.135,4.49 9.78,7.738 l 0.255,0.417 c 0.116,0.22 0.371,0.348 0.626,0.29 l 0.29,-0.07 c 0.127,-0.023 0.232,-0.104 0.313,-0.208 l 0.185,-0.255 c 2.216,-2.355 4.397,-5.151 7.738,-5.812 0.291,-0.081 0.464,-0.383 0.383,-0.685 -0.081,-0.29 -0.383,-0.464 -0.684,-0.383 -3.388,0.615 -5.673,3.376 -7.913,5.743 l -0.603,0.731 0.325,-0.208 -0.29,0.058 0.568,0.208 -0.325,-0.522 c -2.75,-3.388 -6.334,-6.033 -10.186,-8.063 -0.278,-0.128 -0.604,0 -0.743,0.278 -0.125,0.279 0.003,0.604 0.281,0.743 l 0,0 z" /><path
     inkscape:connector-curvature="0"
     id="path143"
     d="m 29.281,62.863 c -1.392,-0.29 -2.784,-0.568 -4.177,-0.87 l -0.696,-0.197 0.371,0.267 -0.174,-0.313 c -1.845,-2.599 -0.499,-5.975 2.135,-7.379 1.311,-0.696 2.75,-1.636 4.188,-1.16 2.935,0.963 4.188,4.2 5.023,6.972 l 0.128,0.499 0.487,-0.708 -0.058,0.047 C 35.371,59.615 34.292,58.907 33.05,58.884 h -0.23 c -0.023,0 -0.046,0 -0.058,0 -0.313,0.035 -0.534,0.313 -0.499,0.615 l 0.07,0.453 c 0.302,1.079 0.882,2.552 -0.035,3.341 -1.334,1.137 -2.808,-0.36 -4.014,-1.125 -0.267,-0.139 -0.603,-0.046 -0.754,0.232 -0.15,0.267 -0.046,0.604 0.221,0.754 1.601,1.276 4.281,2.761 5.754,0.406 0.696,-1.09 0.267,-2.413 0.023,-3.585 l -0.162,-0.591 -0.557,0.615 0.604,0.023 c -0.012,0 -0.012,0 -0.023,0 0.847,0.197 1.636,0.545 2.413,0.939 l 0.87,0.116 c 0.023,0 0.035,0 0.058,-0.012 0.302,-0.058 0.499,-0.348 0.441,-0.65 L 37.033,59.87 c 0,0.012 0,0.023 0,0.035 -0.94,-3.179 -2.622,-6.764 -5.998,-7.901 -3.086,-0.081 -6.114,1.59 -7.68,4.327 -0.998,1.729 -0.986,3.817 0.058,5.523 l 0.406,0.766 c 0.058,0.093 0.14,0.162 0.232,0.22 l 0.58,0.197 c -0.023,-0.012 -0.035,-0.012 -0.058,-0.023 1.485,0.336 2.981,0.626 4.478,0.939 0.302,0.07 0.592,-0.127 0.661,-0.429 0.056,-0.301 -0.129,-0.591 -0.431,-0.661 l 0,0 z" /><path
     inkscape:connector-curvature="0"
     id="path145"
     d="m 30.466,56.817 c 0,0.313 0.244,0.557 0.557,0.557 0.313,0 0.557,-0.244 0.557,-0.557 0,-0.313 -0.244,-0.557 -0.557,-0.557 -0.314,0 -0.557,0.244 -0.557,0.557 l 0,0 z" /><path
     inkscape:connector-curvature="0"
     id="path147"
     d="m 27.174,64.182 c 1.237,4.827 2.073,9.807 1.81,14.773 -0.417,7.966 -0.433,15.917 -2.042,23.744 l -0.046,0.789 c 0,0.278 0.186,0.511 0.448,0.557 l 0.619,0.124 c 2.243,0 4.486,0 6.729,0 0.31,0 0.557,-0.248 0.557,-0.557 0,-0.31 -0.248,-0.557 -0.557,-0.557 -1.949,0 -3.898,0 -5.847,0 l -1.284,-0.093 0.449,0.542 -0.046,-0.696 c 1.902,-7.843 1.655,-15.871 2.119,-23.884 0.309,-5.058 -0.572,-10.163 -1.856,-15.082 -0.077,-0.294 -0.402,-0.448 -0.696,-0.355 -0.295,0.076 -0.45,0.401 -0.357,0.695 l 0,0 z" /><path
     inkscape:connector-curvature="0"
     id="path149"
     d="m 29.649,81.384 c 1.825,6.249 4.424,12.499 4.192,19.104 l -0.016,0.711 c 0,0.217 0.124,0.418 0.325,0.511 l 0.588,0.232 c 1.903,-0.248 3.79,0.557 5.631,0 0.31,-0.046 0.526,-0.325 0.479,-0.634 -0.031,-0.294 -0.325,-0.51 -0.619,-0.479 -1.655,0.511 -3.326,-0.201 -5.012,0.016 l -0.588,-0.139 0.31,0.51 0.016,-0.681 v 0.016 c 0.263,-6.729 -2.397,-13.179 -4.254,-19.552 -0.108,-0.294 -0.433,-0.434 -0.727,-0.325 -0.279,0.106 -0.434,0.431 -0.325,0.71 l 0,0 z" /><ellipse
     sodipodi:ry="1.05"
     sodipodi:rx="1.4"
     sodipodi:cy="57.036999"
     sodipodi:cx="30.591999"
     id="ellipse151"
     ry="1.05"
     rx="1.4"
     cy="57.036999"
     cx="30.591999"
     style="fill:none;stroke:#000000" /><circle
     sodipodi:ry="2.9749999"
     sodipodi:rx="2.9749999"
     sodipodi:cy="60.728001"
     sodipodi:cx="47.702999"
     id="circle153"
     r="2.9749999"
     cy="60.728001"
     cx="47.702999" /><path
     inkscape:connector-curvature="0"
     id="path155"
     d="m 73.59,62.754 c -1.397,0.266 -2.79,0.543 -4.191,0.798 l -0.719,0.085 0.445,0.104 -0.281,-0.222 c -2.7,-1.693 -2.752,-5.327 -0.858,-7.633 0.944,-1.146 1.912,-2.565 3.423,-2.677 3.08,-0.236 5.479,2.273 7.313,4.513 l 0.31,0.412 0.178,-0.84 -0.036,0.065 C 77.968,57.42 76.7,57.18 75.545,57.635 l -0.214,0.089 c -0.021,0.009 -0.042,0.018 -0.053,0.022 -0.276,0.152 -0.373,0.494 -0.225,0.759 l 0.238,0.391 c 0.692,0.881 1.793,2.019 1.249,3.099 -0.796,1.562 -2.73,0.745 -4.139,0.5 -0.3,-0.026 -0.575,0.188 -0.607,0.503 -0.037,0.304 0.188,0.575 0.493,0.612 1.968,0.564 5.013,0.908 5.47,-1.832 0.225,-1.274 -0.679,-2.331 -1.354,-3.32 l -0.377,-0.484 -0.278,0.781 0.566,-0.21 c -0.011,0.004 -0.011,0.004 -0.021,0.009 0.857,-0.143 1.72,-0.124 2.589,-0.057 L 79.73,58.27 c 0.021,-0.009 0.032,-0.014 0.049,-0.033 0.256,-0.169 0.327,-0.513 0.158,-0.769 l -0.338,-0.45 c 0.004,0.011 0.009,0.021 0.014,0.032 -2.087,-2.575 -5.016,-5.241 -8.569,-4.997 -2.881,1.109 -5.037,3.813 -5.434,6.942 -0.258,1.979 0.553,3.903 2.171,5.078 l 0.668,0.552 c 0.089,0.063 0.191,0.097 0.299,0.114 l 0.611,-0.04 c -0.026,-0.002 -0.037,0.002 -0.062,0.001 1.5,-0.259 2.994,-0.565 4.496,-0.85 0.306,-0.051 0.498,-0.345 0.446,-0.65 -0.061,-0.301 -0.344,-0.498 -0.649,-0.446 l 0,0 z" /><path
     inkscape:connector-curvature="0"
     id="path157"
     d="m 72.396,56.822 c 0.12,0.289 0.438,0.421 0.728,0.301 0.289,-0.12 0.421,-0.438 0.301,-0.728 -0.12,-0.29 -0.439,-0.421 -0.728,-0.301 -0.29,0.12 -0.421,0.439 -0.301,0.728 l 0,0 z" /><path
     inkscape:connector-curvature="0"
     id="path159"
     d="m 69.709,64.182 c 1.237,4.827 2.073,9.807 1.81,14.773 -0.417,7.966 -0.433,15.917 -2.042,23.744 l -0.046,0.789 c 0,0.278 0.186,0.511 0.448,0.557 l 0.619,0.124 c 2.243,0 4.486,0 6.729,0 0.31,0 0.557,-0.248 0.557,-0.557 0,-0.31 -0.248,-0.557 -0.557,-0.557 -1.949,0 -3.898,0 -5.847,0 l -1.284,-0.093 0.449,0.542 -0.047,-0.696 c 1.903,-7.843 1.655,-15.871 2.12,-23.884 0.309,-5.058 -0.573,-10.163 -1.856,-15.082 -0.077,-0.294 -0.402,-0.448 -0.696,-0.355 -0.296,0.076 -0.45,0.401 -0.357,0.695 l 0,0 z" /><path
     inkscape:connector-curvature="0"
     id="path161"
     d="m 72.184,81.384 c 1.825,6.249 4.424,12.499 4.192,19.104 l -0.016,0.711 c 0,0.217 0.124,0.418 0.325,0.511 l 0.587,0.232 c 1.903,-0.248 3.79,0.557 5.631,0 0.309,-0.046 0.526,-0.325 0.479,-0.634 -0.031,-0.294 -0.325,-0.51 -0.619,-0.479 -1.655,0.511 -3.326,-0.201 -5.012,0.016 l -0.587,-0.139 0.309,0.51 0.016,-0.681 v 0.016 c 0.263,-6.729 -2.398,-13.179 -4.254,-19.552 -0.108,-0.294 -0.433,-0.434 -0.727,-0.325 -0.278,0.106 -0.433,0.431 -0.324,0.71 l 0,0 z" /><ellipse
     sodipodi:ry="1.4"
     sodipodi:rx="1.05"
     sodipodi:cy="56.869999"
     sodipodi:cx="72.567001"
     id="ellipse163"
     ry="1.4"
     rx="1.05"
     cy="56.869999"
     cx="72.567001"
     style="fill:none;stroke:#000000"
     transform="matrix(0.3836,0.9235,-0.9235,0.3836,97.2475,-31.961)" /><circle
     sodipodi:ry="2.9749999"
     sodipodi:rx="2.9749999"
     sodipodi:cy="25.193001"
     sodipodi:cx="87.069"
     id="circle165"
     r="2.9749999"
     cy="25.193001"
     cx="87.069" /><path
     inkscape:connector-curvature="0"
     id="path167"
     d="m 113.466,62.863 c -1.393,-0.29 -2.785,-0.568 -4.177,-0.87 l -0.696,-0.197 0.372,0.267 -0.174,-0.313 c -1.845,-2.599 -0.499,-5.975 2.135,-7.379 1.311,-0.696 2.75,-1.636 4.188,-1.16 2.935,0.963 4.188,4.2 5.023,6.972 l 0.128,0.499 0.487,-0.708 -0.058,0.047 c -1.137,-0.406 -2.216,-1.114 -3.457,-1.137 h -0.232 c -0.023,0 -0.046,0 -0.058,0 -0.313,0.035 -0.534,0.313 -0.499,0.615 l 0.069,0.453 c 0.302,1.079 0.882,2.552 -0.035,3.341 -1.334,1.137 -2.808,-0.36 -4.014,-1.125 -0.267,-0.139 -0.603,-0.046 -0.754,0.232 -0.151,0.267 -0.046,0.604 0.22,0.754 1.601,1.276 4.281,2.761 5.754,0.406 0.696,-1.09 0.267,-2.413 0.023,-3.585 l -0.163,-0.591 -0.557,0.615 0.604,0.023 c -0.012,0 -0.012,0 -0.023,0 0.847,0.197 1.636,0.545 2.413,0.939 l 0.87,0.116 c 0.023,0 0.035,0 0.058,-0.012 0.302,-0.058 0.499,-0.348 0.441,-0.65 l -0.139,-0.545 c 0,0.012 0,0.023 0,0.035 -0.94,-3.179 -2.622,-6.764 -5.998,-7.901 -3.086,-0.081 -6.114,1.59 -7.68,4.327 -0.998,1.729 -0.986,3.817 0.058,5.523 l 0.406,0.766 c 0.058,0.093 0.139,0.162 0.232,0.22 l 0.58,0.197 c -0.023,-0.012 -0.035,-0.012 -0.058,-0.023 1.485,0.336 2.981,0.626 4.478,0.939 0.302,0.07 0.592,-0.127 0.662,-0.429 0.058,-0.301 -0.128,-0.591 -0.429,-0.661 l 0,0 z" /><path
     inkscape:connector-curvature="0"
     id="path169"
     d="m 114.607,57.206 c 0,0.313 0.244,0.557 0.557,0.557 0.313,0 0.557,-0.244 0.557,-0.557 0,-0.313 -0.244,-0.557 -0.557,-0.557 -0.314,0 -0.557,0.243 -0.557,0.557 l 0,0 z" /><path
     inkscape:connector-curvature="0"
     id="path171"
     d="m 111.358,64.182 c 1.237,4.827 2.073,9.807 1.81,14.773 -0.418,7.966 -0.433,15.917 -2.042,23.744 l -0.046,0.789 c 0,0.278 0.186,0.511 0.448,0.557 l 0.619,0.124 c 2.243,0 4.486,0 6.729,0 0.309,0 0.557,-0.248 0.557,-0.557 0,-0.31 -0.248,-0.557 -0.557,-0.557 -1.949,0 -3.898,0 -5.848,0 l -1.284,-0.093 0.449,0.542 -0.046,-0.696 c 1.902,-7.843 1.655,-15.871 2.119,-23.884 0.309,-5.058 -0.572,-10.163 -1.856,-15.082 -0.077,-0.294 -0.402,-0.448 -0.696,-0.355 -0.294,0.076 -0.449,0.401 -0.356,0.695 l 0,0 z" /><path
     inkscape:connector-curvature="0"
     id="path173"
     d="m 113.833,81.384 c 1.825,6.249 4.424,12.499 4.192,19.104 l -0.015,0.711 c 0,0.217 0.124,0.418 0.325,0.511 l 0.588,0.232 c 1.902,-0.248 3.79,0.557 5.63,0 0.31,-0.046 0.526,-0.325 0.479,-0.634 -0.031,-0.294 -0.325,-0.51 -0.619,-0.479 -1.655,0.511 -3.326,-0.201 -5.012,0.016 l -0.588,-0.139 0.31,0.51 0.015,-0.681 v 0.016 c 0.263,-6.729 -2.397,-13.179 -4.254,-19.552 -0.108,-0.294 -0.433,-0.434 -0.727,-0.325 -0.277,0.106 -0.432,0.431 -0.324,0.71 l 0,0 z" /><ellipse
     sodipodi:ry="1.05"
     sodipodi:rx="1.4"
     sodipodi:cy="57.036999"
     sodipodi:cx="114.777"
     id="ellipse175"
     ry="1.05"
     rx="1.4"
     cy="57.036999"
     cx="114.777"
     style="fill:none;stroke:#000000" /><circle
     sodipodi:ry="2.9749999"
     sodipodi:rx="2.9749999"
     sodipodi:cy="60.248001"
     sodipodi:cx="131.88901"
     id="circle177"
     r="2.9749999"
     cy="60.248001"
     cx="131.88901" /><path
     inkscape:connector-curvature="0"
     id="path179"
     d="m 72.311,69.942 c 3.217,-0.495 6.543,-1.083 9.745,-0.263 l 0.402,0.031 c 0.201,0.016 0.387,-0.093 0.495,-0.263 l 0.263,-0.464 c 0.944,-2.475 1.655,-5.027 2.815,-7.41 0.124,-0.278 0,-0.604 -0.278,-0.727 -0.278,-0.123 -0.619,0 -0.743,0.278 -1.036,2.228 -1.686,4.61 -2.676,6.853 l -0.31,0.881 0.495,-0.263 -0.634,-0.108 c -3.249,-0.619 -6.59,-0.201 -9.823,0.371 -0.294,0.062 -0.479,0.356 -0.417,0.665 0.063,0.295 0.357,0.48 0.666,0.419 l 0,0 z" /><path
     inkscape:connector-curvature="0"
     id="path181"
     d="m 112.19,67.049 c -1.114,3.914 -0.325,8.152 -2.305,11.818 l -0.093,0.155 c -0.093,0.17 -0.093,0.371 0,0.542 l 0.155,0.278 c 0.062,0.093 0.155,0.17 0.248,0.217 l 0.278,0.093 c 1.47,1.376 3.063,2.661 4.208,4.347 0.186,0.247 0.542,0.309 0.789,0.124 0.247,-0.185 0.294,-0.526 0.124,-0.773 -1.083,-1.562 -2.491,-2.815 -3.898,-4.068 l -1.021,-0.727 0.248,0.232 -0.155,-0.278 v 0.542 l 0.356,-0.882 c 0,0.016 0,0.031 0,0.047 1.794,-3.512 1.067,-7.564 2.119,-11.292 0.108,-0.294 -0.046,-0.603 -0.34,-0.711 -0.294,-0.108 -0.605,0.042 -0.713,0.336 l 0,0 z" /><line
     id="line183"
     y2="29.903"
     x2="87.069"
     y1="59.827999"
     x1="87.069"
     style="fill:none;stroke:#000000;stroke-dasharray:2" /><path
     inkscape:connector-curvature="0"
     id="path185"
     d="m 129.573,54.878 c 0,0 0,-21.262 0,-25.425 0,-4.162 2.025,-4.5 2.025,-0.225 0,4.275 0,27 0,27"
     style="fill:none;stroke:#000000;stroke-dasharray:2" /><line
     style="fill:none;stroke:#b4b4b4;stroke-width:6"
     x1="49.611"
     y1="105.108"
     x2="49.611"
     y2="121.775"
     id="line243" /><polygon
     style="fill:#b4b4b4"
     points="59.293,120.286 59.293,120.348 49.638,126.447 39.984,120.348 39.984,120.286 "
     id="polygon245" /><polygon
     style="fill:#b4b4b4"
     points="39.928,106.596 39.928,106.534 49.583,100.435 59.238,106.534 59.238,106.596 "
     id="polygon247" /><line
     style="fill:none;stroke:#b4b4b4;stroke-width:6"
     x1="88.924004"
     y1="96.775002"
     x2="88.924004"
     y2="113.441"
     id="line251" /><polygon
     style="fill:#b4b4b4"
     points="98.606,111.953 98.606,112.015 88.951,118.114 79.296,112.015 79.296,111.953 "
     id="polygon253" /><polygon
     style="fill:#b4b4b4"
     points="79.241,98.262 79.241,98.2 88.896,92.102 98.551,98.2 98.551,98.262 "
     id="polygon255" /><line
     style="fill:none;stroke:#b4b4b4;stroke-width:6"
     x1="130.59"
     y1="105.775"
     x2="130.59"
     y2="122.441"
     id="line259" /><polygon
     style="fill:#b4b4b4"
     points="140.273,120.953 140.273,121.015 130.617,127.114 120.963,121.015 120.963,120.953 "
     id="polygon261" /><polygon
     style="fill:#b4b4b4"
     points="120.908,107.262 120.908,107.2 130.562,101.102 140.217,107.2 140.217,107.262 "
     id="polygon263" /></svg>