<?xml version="1.0" encoding="UTF-8" standalone="no"?>
<!-- Created with Inkscape (http://www.inkscape.org/) -->

<svg
   xmlns:dc="http://purl.org/dc/elements/1.1/"
   xmlns:cc="http://creativecommons.org/ns#"
   xmlns:rdf="http://www.w3.org/1999/02/22-rdf-syntax-ns#"
   xmlns:svg="http://www.w3.org/2000/svg"
   xmlns="http://www.w3.org/2000/svg"
   xmlns:sodipodi="http://sodipodi.sourceforge.net/DTD/sodipodi-0.dtd"
   xmlns:inkscape="http://www.inkscape.org/namespaces/inkscape"
   width="744.09448819"
   height="1052.3622047"
   id="svg2"
   version="1.1"
   inkscape:version="0.48.4 r9939"
   sodipodi:docname="reservoir.svg">
  <defs
     id="defs4" />
  <sodipodi:namedview
     id="base"
     pagecolor="#ffffff"
     bordercolor="#666666"
     borderopacity="1.0"
     inkscape:pageopacity="0.0"
     inkscape:pageshadow="2"
     inkscape:zoom="1.655366"
     inkscape:cx="355.21536"
     inkscape:cy="429.05226"
     inkscape:document-units="px"
     inkscape:current-layer="layer1"
     showgrid="false"
     inkscape:window-width="1280"
     inkscape:window-height="998"
     inkscape:window-x="0"
     inkscape:window-y="0"
     inkscape:window-maximized="1" />
  <metadata
     id="metadata7">
    <rdf:RDF>
      <cc:Work
         rdf:about="">
        <dc:format>image/svg+xml</dc:format>
        <dc:type
           rdf:resource="http://purl.org/dc/dcmitype/StillImage" />
        <dc:title />
      </cc:Work>
    </rdf:RDF>
  </metadata>
  <g
     inkscape:label="Layer 1"
     inkscape:groupmode="layer"
     id="layer1">
    <path
       sodipodi:type="arc"
       style="fill:#dedede;stroke:#000000;stroke-width:1.46616542000000005;stroke-miterlimit:4;stroke-opacity:1;stroke-dasharray:none;fill-opacity:1"
       id="path4077"
       sodipodi:cx="506.26138"
       sodipodi:cy="606.85217"
       sodipodi:rx="83.133446"
       sodipodi:ry="83.133446"
       d="m 589.39483,606.85217 a 83.133446,83.133446 0 1 1 -166.26689,0 83.133446,83.133446 0 1 1 166.26689,0 z"
       transform="matrix(0.59935684,0,0,0.59935684,-25.269564,238.65754)" />
    <path
       sodipodi:type="arc"
       style="fill:#dedede;stroke:#000000;stroke-width:1.46616542000000005;stroke-miterlimit:4;stroke-opacity:1;stroke-dasharray:none;fill-opacity:1"
       id="path4077-2"
       sodipodi:cx="506.26138"
       sodipodi:cy="606.85217"
       sodipodi:rx="83.133446"
       sodipodi:ry="83.133446"
       d="m 589.39483,606.85217 a 83.133446,83.133446 0 1 1 -166.26689,0 83.133446,83.133446 0 1 1 166.26689,0 z"
       transform="matrix(0.59935684,0,0,0.59935684,86.485476,239.20138)" />
    <path
       sodipodi:type="arc"
       style="fill:#dedede;fill-opacity:1;stroke:#000000;stroke-width:5.86628819;stroke-miterlimit:4;stroke-opacity:1;stroke-dasharray:none"
       id="path4077-6"
       sodipodi:cx="506.26138"
       sodipodi:cy="606.85217"
       sodipodi:rx="83.133446"
       sodipodi:ry="83.133446"
       d="m 589.39483,606.85217 a 83.133446,83.133446 0 1 1 -166.26689,0 83.133446,83.133446 0 1 1 166.26689,0 z"
       transform="matrix(0.14983921,0,0,0.14983921,40.529459,499.62912)" />
    <path
       style="color:#000000;fill:none;stroke:#000000;stroke-width:0.87875627999999995;stroke-linecap:butt;stroke-linejoin:miter;stroke-miterlimit:4;stroke-opacity:1;stroke-dasharray:none;stroke-dashoffset:0;marker:none;visibility:visible;display:inline;overflow:visible;enable-background:accumulate"
       d="m 87.390957,564.90472 0,77.68276 111.324893,0"
       id="path3052"
       inkscape:connector-curvature="0" />
    <path
       style="color:#000000;fill:none;stroke:#000000;stroke-width:1.75751257;stroke-linecap:butt;stroke-linejoin:miter;stroke-miterlimit:4;stroke-opacity:1;stroke-dasharray:none;stroke-dashoffset:0;marker:none;visibility:visible;display:inline;overflow:visible;enable-background:accumulate"
       d="m 236.86276,641.33162 c 11.14103,-17.47115 15.55755,-22.39792 21.26923,-28.10576 5.84591,-5.84198 10.5809,-8.4885 17.47114,-12.40705 7.26594,-4.13222 8.20177,-4.48857 17.82356,-8.53984 9.62179,-4.05129 32.31104,-10.19733 32.31104,-10.19733"
       id="path3307"
       inkscape:connector-curvature="0"
       sodipodi:nodetypes="csssc" />
    <path
       style="color:#000000;fill:none;stroke:#000000;stroke-width:0.87875628;stroke-linecap:butt;stroke-linejoin:miter;stroke-miterlimit:4;stroke-opacity:1;stroke-dasharray:none;stroke-dashoffset:0;marker:none;visibility:visible;display:inline;overflow:visible;enable-background:accumulate"
       d="M 114.58036,578.25029 271.31809,552.63466"
       id="path4097"
       inkscape:connector-curvature="0"
       sodipodi:nodetypes="cc" />
    <path
       style="color:#000000;fill:none;stroke:#000000;stroke-width:0.87875628;stroke-linecap:butt;stroke-linejoin:miter;stroke-miterlimit:4;stroke-opacity:1;stroke-dasharray:none;stroke-dashoffset:0;marker:none;visibility:visible;display:inline;overflow:visible;enable-background:accumulate"
       d="m 112.4355,602.3893 154.19705,48.97631"
       id="path4099"
       inkscape:connector-curvature="0"
       sodipodi:nodetypes="cc" />
    <path
       style="color:#000000;fill:none;stroke:#000000;stroke-width:1.75751257;stroke-linecap:butt;stroke-linejoin:miter;stroke-miterlimit:4;stroke-opacity:1;stroke-dasharray:none;stroke-dashoffset:0;marker:none;visibility:visible;display:inline;overflow:visible;enable-background:accumulate"
       d="m 344.12423,628.88232 c 0,0 30.06825,-18.36624 38.89974,-24.22022 8.83151,-5.85397 28.04671,-15.2115 32.55111,-17.52489 5.08574,-2.61197 19.15991,-9.07682 19.15991,-9.07682"
       id="path4119"
       inkscape:connector-curvature="0"
       sodipodi:nodetypes="cssc" />
    <path
       sodipodi:type="arc"
       style="fill:none;stroke:#000000;stroke-width:5.86466169000000015;stroke-miterlimit:4;stroke-opacity:1;stroke-dasharray:none"
       id="path4077-6-7"
       sodipodi:cx="506.26138"
       sodipodi:cy="606.85217"
       sodipodi:rx="83.133446"
       sodipodi:ry="83.133446"
       d="m 589.39483,606.85217 a 83.133446,83.133446 0 1 1 -166.26689,0 83.133446,83.133446 0 1 1 166.26689,0 z"
       transform="matrix(0.14983921,0,0,0.14983921,200.68282,510.27431)" />
    <path
       style="color:#000000;fill:none;stroke:#000000;stroke-width:0.87875627999999995;stroke-linecap:butt;stroke-linejoin:miter;stroke-miterlimit:4;stroke-opacity:1;stroke-dasharray:none;stroke-dashoffset:0;marker:none;visibility:visible;display:inline;overflow:visible;enable-background:accumulate"
       d="m 272.52197,589.26173 104.53695,-34.6258"
       id="path4157"
       inkscape:connector-curvature="0" />
    <path
       style="color:#000000;fill:none;stroke:#000000;stroke-width:0.87875627999999995;stroke-linecap:butt;stroke-linejoin:miter;stroke-miterlimit:4;stroke-opacity:1;stroke-dasharray:none;stroke-dashoffset:0;marker:none;visibility:visible;display:inline;overflow:visible;enable-background:accumulate"
       d="M 270.87312,612.67537 375.0803,650.59886"
       id="path4159"
       inkscape:connector-curvature="0" />
    <path
       sodipodi:type="arc"
       style="fill:none;stroke:#000000;stroke-width:5.86466169000000015;stroke-miterlimit:4;stroke-opacity:1;stroke-dasharray:none"
       id="path4077-6-7-3"
       sodipodi:cx="506.26138"
       sodipodi:cy="606.85217"
       sodipodi:rx="83.133446"
       sodipodi:ry="83.133446"
       d="m 589.39483,606.85217 a 83.133446,83.133446 0 1 1 -166.26689,0 83.133446,83.133446 0 1 1 166.26689,0 z"
       transform="matrix(0.14983921,0,0,0.14983921,313.54681,511.12353)" />
    <path
       style="color:#000000;fill:none;stroke:#000000;stroke-width:0.87875627999999995;stroke-linecap:butt;stroke-linejoin:miter;stroke-miterlimit:4;stroke-opacity:1;stroke-dasharray:none;stroke-dashoffset:0;marker:none;visibility:visible;display:inline;overflow:visible;enable-background:accumulate"
       d="M 385.38596,590.11095 489.9229,555.48515"
       id="path4157-8"
       inkscape:connector-curvature="0" />
    <path
       style="color:#000000;fill:none;stroke:#000000;stroke-width:0.87875627999999995;stroke-linecap:butt;stroke-linejoin:miter;stroke-miterlimit:4;stroke-opacity:1;stroke-dasharray:none;stroke-dashoffset:0;marker:none;visibility:visible;display:inline;overflow:visible;enable-background:accumulate"
       d="m 383.73711,613.52459 104.20718,37.92349"
       id="path4159-1"
       inkscape:connector-curvature="0" />
    <path
       sodipodi:type="arc"
       style="fill:#000000;fill-opacity:1;stroke:#000000;stroke-width:0.87900001;stroke-miterlimit:4;stroke-opacity:1;stroke-dasharray:none;stroke-dashoffset:0"
       id="path3028"
       sodipodi:cx="115.63634"
       sodipodi:cy="558.72693"
       sodipodi:rx="1.5656759"
       sodipodi:ry="1.5656759"
       d="m 117.20201,558.72693 a 1.5656759,1.5656759 0 1 1 -3.13135,0 1.5656759,1.5656759 0 1 1 3.13135,0 z"
       transform="translate(0.44733596,31.313518)" />
    <path
       sodipodi:type="arc"
       style="fill:#000000;fill-opacity:1;stroke:#000000;stroke-width:0.87900001;stroke-miterlimit:4;stroke-opacity:1;stroke-dasharray:none;stroke-dashoffset:0"
       id="path3028-1"
       sodipodi:cx="115.63634"
       sodipodi:cy="558.72693"
       sodipodi:rx="1.5656759"
       sodipodi:ry="1.5656759"
       d="m 117.20201,558.72693 a 1.5656759,1.5656759 0 1 1 -3.13135,0 1.5656759,1.5656759 0 1 1 3.13135,0 z"
       transform="translate(160.71581,41.866041)" />
    <path
       sodipodi:type="arc"
       style="fill:#000000;fill-opacity:1;stroke:#000000;stroke-width:0.87900001;stroke-miterlimit:4;stroke-opacity:1;stroke-dasharray:none;stroke-dashoffset:0"
       id="path3028-8"
       sodipodi:cx="115.63634"
       sodipodi:cy="558.72693"
       sodipodi:rx="1.5656759"
       sodipodi:ry="1.5656759"
       d="m 117.20201,558.72693 a 1.5656759,1.5656759 0 1 1 -3.13135,0 1.5656759,1.5656759 0 1 1 3.13135,0 z"
       transform="translate(273.16039,42.601993)" />
    <g
       id="g3033"
       transform="translate(-114.17414,0)">
      <path
         transform="matrix(0.59935684,0,0,0.59935684,314.14779,239.71201)"
         d="m 589.39483,606.85217 c 0,45.91334 -37.22011,83.13345 -83.13345,83.13345 -45.91333,0 -83.13344,-37.22011 -83.13344,-83.13345 0,-45.91333 37.22011,-83.13344 83.13344,-83.13344 45.91334,0 83.13345,37.22011 83.13345,83.13344 z"
         sodipodi:ry="83.133446"
         sodipodi:rx="83.133446"
         sodipodi:cy="606.85217"
         sodipodi:cx="506.26138"
         id="path4077-2-3-3"
         style="fill:#dedede;fill-opacity:1;stroke:#000000;stroke-width:1.46616542;stroke-miterlimit:4;stroke-opacity:1;stroke-dasharray:none"
         sodipodi:type="arc" />
      <path
         transform="translate(502.47113,43.258199)"
         d="m 117.20201,558.72693 c 0,0.8647 -0.70097,1.56567 -1.56567,1.56567 -0.8647,0 -1.56568,-0.70097 -1.56568,-1.56567 0,-0.8647 0.70098,-1.56568 1.56568,-1.56568 0.8647,0 1.56567,0.70098 1.56567,1.56568 z"
         sodipodi:ry="1.5656759"
         sodipodi:rx="1.5656759"
         sodipodi:cy="558.72693"
         sodipodi:cx="115.63634"
         id="path3028-3-2"
         style="fill:#000000;fill-opacity:1;stroke:#000000;stroke-width:0.87900001;stroke-miterlimit:4;stroke-opacity:1;stroke-dasharray:none;stroke-dashoffset:0"
         sodipodi:type="arc" />
      <path
         inkscape:connector-curvature="0"
         id="path4239-7-9"
         d="m 573.25196,628.14048 86.74505,-50.94259"
         style="color:#000000;fill:none;stroke:#000000;stroke-width:1.40601003;stroke-linecap:butt;stroke-linejoin:miter;stroke-miterlimit:4;stroke-opacity:1;stroke-dasharray:none;stroke-dashoffset:0;marker:none;visibility:visible;display:inline;overflow:visible;enable-background:accumulate" />
    </g>
    <path
       style="color:#000000;fill:none;stroke:#000000;stroke-width:1.75751257;stroke-linecap:butt;stroke-linejoin:miter;stroke-miterlimit:4;stroke-opacity:1;stroke-dasharray:none;stroke-dashoffset:0;marker:none;visibility:visible;display:inline;overflow:visible;enable-background:accumulate"
       d="m 90.240362,637.69707 c 3.26226,-1.42724 4.28172,-3.87394 6.11675,-8.35956 1.83503,-4.48562 2.650588,-14.47632 4.281728,-16.71913 1.63113,-2.2428 4.22122,-11.08907 6.67532,-14.2943 2.38914,-3.12039 6.78154,-7.726 10.85937,-9.56103 4.07783,-1.83502 15.69966,-6.11675 17.94248,-6.52454 2.24281,-0.40778 19.98139,0.20389 19.98139,0.20389 0,0 2.65059,-0.61167 5.50508,-1.22334 2.85448,-0.61168 2.65058,0.81556 3.46615,0.61167 0.81557,-0.2039 1.83503,-2.03892 2.44671,-3.26227 0.61167,-1.22335 0.61167,-2.4467 1.63112,-2.85448 1.01947,-0.40779 2.6506,1.83502 3.67006,-0.40779 1.01946,-2.24281 1.22335,-3.46616 2.85449,-4.48561 1.63113,-1.01947 3.05837,-1.42725 5.50507,-1.42725 2.4467,0 8.56345,0.20389 8.56345,0.20389"
       id="path3050-8"
       inkscape:connector-curvature="0"
       sodipodi:nodetypes="cssssscscsssssc" />
  </g>
</svg>
