<?xml version="1.0" encoding="UTF-8" standalone="no"?>
<svg
   xmlns:dc="http://purl.org/dc/elements/1.1/"
   xmlns:cc="http://creativecommons.org/ns#"
   xmlns:rdf="http://www.w3.org/1999/02/22-rdf-syntax-ns#"
   xmlns:svg="http://www.w3.org/2000/svg"
   xmlns="http://www.w3.org/2000/svg"
   xmlns:sodipodi="http://sodipodi.sourceforge.net/DTD/sodipodi-0.dtd"
   xmlns:inkscape="http://www.inkscape.org/namespaces/inkscape"
   version="1.0"
   width="300.000000pt"
   height="363.000000pt"
   viewBox="0 0 300.000000 363.000000"
   preserveAspectRatio="xMidYMid meet"
   id="svg3301"
   sodipodi:docname="skyscraper.svg">
  <defs
     id="defs3311">
    <marker
       inkscape:stockid="Arrow2Mend"
       orient="auto"
       refY="0.0"
       refX="0.0"
       id="Arrow2Mend"
       style="overflow:visible;">
      <path
         id="path5817"
         style="fill-rule:evenodd;stroke-width:0.62500000;stroke-linejoin:round;"
         d="M 8.7185878,4.0337352 L -2.2072895,0.016013256 L 8.7185884,-4.0017078 C 6.9730900,-1.6296469 6.9831476,1.6157441 8.7185878,4.0337352 z "
         transform="scale(0.6) rotate(180) translate(0,0)" />
    </marker>
  </defs>
  <sodipodi:namedview
     pagecolor="#ffffff"
     bordercolor="#666666"
     borderopacity="1"
     objecttolerance="10"
     gridtolerance="10"
     guidetolerance="10"
     inkscape:pageopacity="0"
     inkscape:pageshadow="2"
     inkscape:window-width="1280"
     inkscape:window-height="998"
     id="namedview3309"
     showgrid="false"
     inkscape:zoom="1.5614448"
     inkscape:cx="191.61876"
     inkscape:cy="215.98926"
     inkscape:window-x="0"
     inkscape:window-y="0"
     inkscape:window-maximized="1"
     inkscape:current-layer="svg3301" />
  <metadata
     id="metadata3303">
Created by potrace 1.11, written by Peter Selinger 2001-2013
<rdf:RDF>
  <cc:Work
     rdf:about="">
    <dc:format>image/svg+xml</dc:format>
    <dc:type
       rdf:resource="http://purl.org/dc/dcmitype/StillImage" />
    <dc:title />
  </cc:Work>
</rdf:RDF>
</metadata>
  <g
     transform="translate(0.000000,363.000000) scale(0.100000,-0.100000)"
     fill="#000000"
     stroke="none"
     id="g3305">
    <path
       d="M1192 3504 c-6 -11 -17 -15 -30 -12 -24 7 -32 -8 -32 -60 0 -59 -8 -64 -88 -57 -39 3 -73 2 -76 -3 -3 -5 -10 -54 -16 -108 -6 -55 -16 -128 -21 -164 -6 -36 -18 -123 -29 -193 -11 -75 -24 -136 -33 -145 -9 -10 -20 -57 -26 -112 -34 -279 -30 -260 -54 -260 -20 0 -22 -5 -22 -55 0 -48 3 -55 20 -56 19 0 19 -1 -1 -9 -17 -7 -23 -20 -28 -67 -12 -104 -37 -278 -43 -293 -3 -8 -5 -25 -4 -37 1 -12 -7 -27 -19 -36 -16 -11 -18 -16 -8 -20 7 -3 -3 -6 -22 -6 l-36 -1 -10 -66 c-8 -55 -7 -67 6 -74 13 -8 13 -9 -2 -10 -19 0 -24 -13 -33 -92 -6 -52 -5 -57 15 -63 l22 -7 -23 -12 c-18 -9 -26 -26 -37 -81 -10 -52 -11 -70 -2 -73 8 -3 7 -9 -3 -21 -9 -10 -23 -74 -36 -166 -11 -82 -41 -289 -66 -460 -25 -170 -54 -377 -65 -460 -11 -82 -23 -167 -26 -187 l-7 -38 375 0 c285 0 377 3 387 12 11 10 13 10 7 1 -6 -10 14 -13 83 -13 62 0 91 4 94 13 4 10 6 10 6 0 1 -10 80 -13 362 -13 l361 0 -5 23 c-3 12 -8 49 -12 82 -3 33 -20 159 -36 280 -16 121 -41 306 -55 410 -82 614 -133 975 -140 987 -2 3 -15 5 -29 3 -14 -1 -25 1 -25 6 0 4 -9 70 -19 146 -11 76 -27 198 -36 272 -19 155 -21 161 -46 161 -10 0 -19 5 -19 10 0 39 -42 349 -50 365 -5 11 -14 67 -20 125 -6 58 -18 125 -26 150 -7 25 -21 110 -30 190 -9 80 -17 147 -19 149 -2 1 -37 4 -77 5 l-73 1 -6 40 c-10 71 -19 85 -50 85 -19 0 -29 5 -29 15 0 20 -27 19 -38 -1z m121 -1831 c-7 -2 -19 -2 -25 0 -7 3 -2 5 12 5 14 0 19 -2 13 -5z m-638 -123 c-3 -5 -13 -10 -21 -10 -8 0 -14 5 -14 10 0 6 9 10 21 10 11 0 17 -4 14 -10z m-52 -357 c-7 -2 -19 -2 -25 0 -7 3 -2 5 12 5 14 0 19 -2 13 -5z m-13 -103 c12 -8 11 -10 -7 -10 -13 0 -23 5 -23 10 0 13 11 13 30 0z m-60 -540 c0 -5 -10 -10 -22 -9 -22 0 -22 1 -3 9 11 5 21 9 23 9 1 1 2 -3 2 -9z m1140 -20 c0 -5 -4 -10 -10 -10 -5 0 -10 5 -10 10 0 6 5 10 10 10 6 0 10 -4 10 -10z m-560 -135 c0 -8 -4 -15 -10 -15 -5 0 -10 7 -10 15 0 8 5 15 10 15 6 0 10 -7 10 -15z m30 6 c0 -6 -4 -13 -10 -16 -5 -3 -10 1 -10 9 0 9 5 16 10 16 6 0 10 -4 10 -9z m147 -13 c-3 -8 -6 -5 -6 6 -1 11 2 17 5 13 3 -3 4 -12 1 -19z m33 6 c0 -8 -5 -12 -10 -9 -6 4 -8 11 -5 16 9 14 15 11 15 -7z m180 -20 c0 -17 -22 -14 -28 4 -2 7 3 12 12 12 9 0 16 -7 16 -16z m40 1 c0 -8 -7 -15 -15 -15 -8 0 -15 7 -15 15 0 8 7 15 15 15 8 0 15 -7 15 -15z m105 -5 c3 -5 1 -10 -4 -10 -6 0 -11 5 -11 10 0 6 2 10 4 10 3 0 8 -4 11 -10z m35 0 c0 -5 -4 -10 -10 -10 -5 0 -10 5 -10 10 0 6 5 10 10 10 6 0 10 -4 10 -10z m-550 -14 c0 -9 -7 -12 -20 -9 -11 3 -20 9 -20 14 0 5 9 9 20 9 11 0 20 -6 20 -14z m395 -26 c-28 -12 -45 -12 -45 0 0 6 15 10 33 9 27 0 29 -2 12 -9z m-425 -275 c0 -8 -4 -15 -10 -15 -5 0 -10 7 -10 15 0 8 5 15 10 15 6 0 10 -7 10 -15z m30 0 c0 -8 -4 -15 -10 -15 -5 0 -10 7 -10 15 0 8 5 15 10 15 6 0 10 -7 10 -15z m170 0 c0 -8 -4 -15 -10 -15 -5 0 -10 7 -10 15 0 8 5 15 10 15 6 0 10 -7 10 -15z m30 0 c0 -8 -4 -15 -10 -15 -5 0 -10 7 -10 15 0 8 5 15 10 15 6 0 10 -7 10 -15z m-450 -11 c0 -2 -7 -4 -15 -4 -8 0 -15 4 -15 10 0 5 7 7 15 4 8 -4 15 -8 15 -10z m794 -9 c3 -9 0 -15 -9 -15 -8 0 -15 7 -15 15 0 8 4 15 9 15 5 0 11 -7 15 -15z m36 0 c0 -8 -4 -15 -10 -15 -5 0 -10 7 -10 15 0 8 5 15 10 15 6 0 10 -7 10 -15z"
       id="path3307" />
  </g>
  <g
     transform="matrix(0.1,0,0,-0.1,-1.5402706,363.18184)"
     id="g6"
     style="fill:#7a7a7a;fill-opacity:1;stroke:none">
    <path
       inkscape:connector-curvature="0"
       d="m 1240,3440 c 0,-5 5,-10 11,-10 5,0 7,5 4,10 -3,6 -8,10 -11,10 -2,0 -4,-4 -4,-10 z"
       id="path8"
       style="fill:#7a7a7a;fill-opacity:1" />
    <path
       inkscape:connector-curvature="0"
       d="m 1077,3306 c -6,-15 1,-26 15,-26 4,0 8,9 8,20 0,23 -15,27 -23,6 z"
       id="path10"
       style="fill:#7a7a7a;fill-opacity:1" />
    <path
       inkscape:connector-curvature="0"
       d="m 1250,3295 c 0,-8 5,-15 10,-15 6,0 10,7 10,15 0,8 -4,15 -10,15 -5,0 -10,-7 -10,-15 z"
       id="path12"
       style="fill:#7a7a7a;fill-opacity:1" />
    <path
       inkscape:connector-curvature="0"
       d="m 1330,3285 c 0,-9 5,-15 11,-13 6,2 11,8 11,13 0,5 -5,11 -11,13 -6,2 -11,-4 -11,-13 z"
       id="path14"
       style="fill:#7a7a7a;fill-opacity:1" />
    <path
       inkscape:connector-curvature="0"
       d="m 1330,3250 c 0,-5 7,-10 15,-10 8,0 15,5 15,10 0,6 -7,10 -15,10 -8,0 -15,-4 -15,-10 z"
       id="path16"
       style="fill:#7a7a7a;fill-opacity:1" />
    <path
       inkscape:connector-curvature="0"
       d="m 1330,3218 c 0,-4 7,-8 15,-8 8,0 15,4 15,8 0,5 -7,9 -15,9 -8,0 -15,-4 -15,-9 z"
       id="path18"
       style="fill:#7a7a7a;fill-opacity:1" />
    <path
       inkscape:connector-curvature="0"
       d="m 1078,3193 c 7,-3 16,-2 19,1 4,3 -2,6 -13,5 -11,0 -14,-3 -6,-6 z"
       id="path20"
       style="fill:#7a7a7a;fill-opacity:1" />
    <path
       inkscape:connector-curvature="0"
       d="m 1255,3190 c 3,-5 8,-10 11,-10 2,0 4,5 4,10 0,6 -5,10 -11,10 -5,0 -7,-4 -4,-10 z"
       id="path22"
       style="fill:#7a7a7a;fill-opacity:1" />
    <path
       inkscape:connector-curvature="0"
       d="m 1338,3183 c 7,-3 16,-2 19,1 4,3 -2,6 -13,5 -11,0 -14,-3 -6,-6 z"
       id="path24"
       style="fill:#7a7a7a;fill-opacity:1" />
    <path
       inkscape:connector-curvature="0"
       d="m 1070,3160 c 0,-5 7,-10 15,-10 8,0 15,5 15,10 0,6 -7,10 -15,10 -8,0 -15,-4 -15,-10 z"
       id="path26"
       style="fill:#7a7a7a;fill-opacity:1" />
    <path
       inkscape:connector-curvature="0"
       d="m 1160,3162 c 0,-5 7,-9 15,-9 8,0 12,4 9,9 -3,4 -9,8 -15,8 -5,0 -9,-4 -9,-8 z"
       id="path28"
       style="fill:#7a7a7a;fill-opacity:1" />
    <path
       inkscape:connector-curvature="0"
       d="m 1250,3146 c 0,-13 7,-26 15,-30 9,-3 15,0 15,10 0,8 -4,13 -9,10 -5,-4 -7,3 -4,14 3,11 0,20 -6,20 -6,0 -11,-11 -11,-24 z"
       id="path30"
       style="fill:#7a7a7a;fill-opacity:1" />
    <path
       inkscape:connector-curvature="0"
       d="m 1334,3158 c -4,-6 -2,-14 5,-16 9,-3 9,-7 0,-18 -9,-11 -8,-14 8,-14 16,0 19,5 15,30 -4,31 -16,38 -28,18 z"
       id="path32"
       style="fill:#7a7a7a;fill-opacity:1" />
    <path
       inkscape:connector-curvature="0"
       d="m 1065,3130 c -3,-5 1,-10 9,-10 9,0 16,5 16,10 0,6 -4,10 -9,10 -6,0 -13,-4 -16,-10 z"
       id="path34"
       style="fill:#7a7a7a;fill-opacity:1" />
    <path
       inkscape:connector-curvature="0"
       d="m 1168,3093 c 7,-3 16,-2 19,1 4,3 -2,6 -13,5 -11,0 -14,-3 -6,-6 z"
       id="path36"
       style="fill:#7a7a7a;fill-opacity:1" />
    <path
       inkscape:connector-curvature="0"
       d="m 1250,3095 c 0,-2 7,-8 15,-15 12,-10 15,-10 15,2 0,8 -7,15 -15,15 -8,0 -15,-1 -15,-2 z"
       id="path38"
       style="fill:#7a7a7a;fill-opacity:1" />
    <path
       inkscape:connector-curvature="0"
       d="m 1065,3080 c 3,-5 10,-10 16,-10 5,0 9,5 9,10 0,6 -7,10 -16,10 -8,0 -12,-4 -9,-10 z"
       id="path40"
       style="fill:#7a7a7a;fill-opacity:1" />
    <path
       inkscape:connector-curvature="0"
       d="m 1160,3070 c 0,-5 4,-10 9,-10 6,0 13,5 16,10 3,6 -1,10 -9,10 -9,0 -16,-4 -16,-10 z"
       id="path42"
       style="fill:#7a7a7a;fill-opacity:1" />
    <path
       inkscape:connector-curvature="0"
       d="m 1340,3055 c 0,-16 6,-25 15,-25 9,0 15,9 15,25 0,16 -6,25 -15,25 -9,0 -15,-9 -15,-25 z"
       id="path44"
       style="fill:#7a7a7a;fill-opacity:1" />
    <path
       inkscape:connector-curvature="0"
       d="m 1060,3050 c 0,-5 7,-10 15,-10 8,0 15,5 15,10 0,6 -7,10 -15,10 -8,0 -15,-4 -15,-10 z"
       id="path46"
       style="fill:#7a7a7a;fill-opacity:1" />
    <path
       inkscape:connector-curvature="0"
       d="m 1410,3050 c 0,-5 7,-10 15,-10 8,0 15,5 15,10 0,6 -7,10 -15,10 -8,0 -15,-4 -15,-10 z"
       id="path48"
       style="fill:#7a7a7a;fill-opacity:1" />
    <path
       inkscape:connector-curvature="0"
       d="m 1160,3030 c 0,-5 7,-10 15,-10 8,0 15,5 15,10 0,6 -7,10 -15,10 -8,0 -15,-4 -15,-10 z"
       id="path50"
       style="fill:#7a7a7a;fill-opacity:1" />
    <path
       inkscape:connector-curvature="0"
       d="m 1257,3034 c -8,-8 1,-24 14,-24 5,0 9,7 9,15 0,15 -12,20 -23,9 z"
       id="path52"
       style="fill:#7a7a7a;fill-opacity:1" />
    <path
       inkscape:connector-curvature="0"
       d="m 1050,3020 c 0,-15 21,-23 32,-12 6,6 2,11 -11,15 -12,3 -21,1 -21,-3 z"
       id="path54"
       style="fill:#7a7a7a;fill-opacity:1" />
    <path
       inkscape:connector-curvature="0"
       d="m 1350,3010 c 0,-5 8,-11 18,-13 16,-4 16,-5 0,-6 -15,-1 -18,-11 -16,-63 0,-40 6,-69 16,-80 10,-12 11,-18 3,-18 -8,0 -11,-26 -10,-85 1,-50 5,-85 11,-85 7,0 7,-4 0,-12 -5,-8 -7,-42 -3,-83 5,-63 8,-70 29,-73 21,-3 22,0 18,35 -5,38 -10,110 -22,353 -4,69 -8,127 -11,129 -7,9 -33,9 -33,1 z"
       id="path56"
       style="fill:#7a7a7a;fill-opacity:1" />
    <path
       inkscape:connector-curvature="0"
       d="m 1160,2990 c 0,-11 5,-20 11,-20 5,0 7,5 4,10 -3,6 -1,10 5,10 6,0 8,5 5,10 -10,17 -25,11 -25,-10 z"
       id="path58"
       style="fill:#7a7a7a;fill-opacity:1" />
    <path
       inkscape:connector-curvature="0"
       d="m 1428,3003 c 6,-2 18,-2 25,0 6,3 1,5 -13,5 -14,0 -19,-2 -12,-5 z"
       id="path60"
       style="fill:#7a7a7a;fill-opacity:1" />
    <path
       inkscape:connector-curvature="0"
       d="m 1260,2985 c 0,-8 5,-15 10,-15 6,0 10,7 10,15 0,8 -4,15 -10,15 -5,0 -10,-7 -10,-15 z"
       id="path62"
       style="fill:#7a7a7a;fill-opacity:1" />
    <path
       inkscape:connector-curvature="0"
       d="m 1052,2960 c 0,-22 4,-30 17,-30 13,0 18,8 18,30 0,21 -5,30 -17,30 -12,0 -17,-9 -18,-30 z"
       id="path64"
       style="fill:#7a7a7a;fill-opacity:1" />
    <path
       inkscape:connector-curvature="0"
       d="m 1435,2980 c -4,-6 -1,-17 5,-25 9,-11 9,-15 1,-15 -6,0 -11,-18 -11,-45 0,-39 3,-45 20,-45 20,0 21,4 14,63 -7,64 -17,87 -29,67 z"
       id="path66"
       style="fill:#7a7a7a;fill-opacity:1" />
    <path
       inkscape:connector-curvature="0"
       d="m 1160,2940 c 0,-12 7,-20 18,-20 14,0 15,2 2,10 -10,6 -11,10 -2,10 6,0 12,5 12,10 0,6 -7,10 -15,10 -8,0 -15,-9 -15,-20 z"
       id="path68"
       style="fill:#7a7a7a;fill-opacity:1" />
    <path
       inkscape:connector-curvature="0"
       d="m 1255,2951 c -3,-5 -1,-12 5,-16 6,-4 8,-11 5,-16 -4,-5 -1,-9 4,-9 6,0 11,11 11,25 0,25 -14,34 -25,16 z"
       id="path70"
       style="fill:#7a7a7a;fill-opacity:1" />
    <path
       inkscape:connector-curvature="0"
       d="m 1046,2894 c -8,-21 -8,-21 14,-27 16,-4 20,0 20,19 0,27 -24,33 -34,8 z"
       id="path72"
       style="fill:#7a7a7a;fill-opacity:1" />
    <path
       inkscape:connector-curvature="0"
       d="m 1160,2880 c 0,-5 7,-10 15,-10 8,0 15,5 15,10 0,6 -7,10 -15,10 -8,0 -15,-4 -15,-10 z"
       id="path74"
       style="fill:#7a7a7a;fill-opacity:1" />
    <path
       inkscape:connector-curvature="0"
       d="m 1260,2875 c 0,-8 7,-15 15,-15 8,0 15,7 15,15 0,8 -7,15 -15,15 -8,0 -15,-7 -15,-15 z"
       id="path76"
       style="fill:#7a7a7a;fill-opacity:1" />
    <path
       inkscape:connector-curvature="0"
       d="m 1166,2843 c -11,-11 -6,-23 9,-23 8,0 15,4 15,9 0,13 -16,22 -24,14 z"
       id="path78"
       style="fill:#7a7a7a;fill-opacity:1" />
    <path
       inkscape:connector-curvature="0"
       d="m 1040,2830 c 0,-5 9,-10 20,-10 11,0 20,5 20,10 0,6 -9,10 -20,10 -11,0 -20,-4 -20,-10 z"
       id="path80"
       style="fill:#7a7a7a;fill-opacity:1" />
    <path
       inkscape:connector-curvature="0"
       d="m 1260,2830 c 0,-5 7,-10 15,-10 8,0 15,5 15,10 0,6 -7,10 -15,10 -8,0 -15,-4 -15,-10 z"
       id="path82"
       style="fill:#7a7a7a;fill-opacity:1" />
    <path
       inkscape:connector-curvature="0"
       d="m 1454,2832 c -12,-8 -13,-156 -1,-168 4,-4 14,-9 22,-10 12,-2 14,8 9,54 -12,104 -18,132 -30,124 z"
       id="path84"
       style="fill:#7a7a7a;fill-opacity:1" />
    <path
       inkscape:connector-curvature="0"
       d="m 1040,2784 c 0,-8 9,-14 20,-14 11,0 20,4 20,9 0,5 -9,11 -20,14 -13,3 -20,0 -20,-9 z"
       id="path86"
       style="fill:#7a7a7a;fill-opacity:1" />
    <path
       inkscape:connector-curvature="0"
       d="m 1150,2780 c 0,-13 12,-19 26,-13 21,8 17,22 -6,20 -11,-1 -20,-4 -20,-7 z"
       id="path88"
       style="fill:#7a7a7a;fill-opacity:1" />
    <path
       inkscape:connector-curvature="0"
       d="m 1260,2749 c 0,-52 24,-48 28,4 2,28 -1,37 -12,37 -12,0 -16,-11 -16,-41 z"
       id="path90"
       style="fill:#7a7a7a;fill-opacity:1" />
    <path
       inkscape:connector-curvature="0"
       d="m 1150,2735 c 0,-8 9,-15 20,-15 11,0 20,7 20,15 0,8 -9,15 -20,15 -11,0 -20,-7 -20,-15 z"
       id="path92"
       style="fill:#7a7a7a;fill-opacity:1" />
    <path
       inkscape:connector-curvature="0"
       d="m 975,2730 c -3,-5 -1,-10 4,-10 6,0 11,5 11,10 0,6 -2,10 -4,10 -3,0 -8,-4 -11,-10 z"
       id="path94"
       style="fill:#7a7a7a;fill-opacity:1" />
    <path
       inkscape:connector-curvature="0"
       d="m 1035,2730 c -3,-5 -1,-10 6,-10 10,0 10,-3 1,-12 -20,-20 -14,-38 13,-38 28,0 31,9 13,29 -10,11 -10,14 0,18 6,3 12,9 12,14 0,12 -37,12 -45,-1 z"
       id="path96"
       style="fill:#7a7a7a;fill-opacity:1" />
    <path
       inkscape:connector-curvature="0"
       d="m 967,2703 c -22,-6 -17,-27 6,-31 12,-2 17,3 17,17 0,12 -1,20 -2,20 -2,-1 -11,-3 -21,-6 z"
       id="path98"
       style="fill:#7a7a7a;fill-opacity:1" />
    <path
       inkscape:connector-curvature="0"
       d="m 1260,2685 c 0,-8 7,-15 15,-15 8,0 15,7 15,15 0,8 -7,15 -15,15 -8,0 -15,-7 -15,-15 z"
       id="path100"
       style="fill:#7a7a7a;fill-opacity:1" />
    <path
       inkscape:connector-curvature="0"
       d="m 1150,2680 c 0,-5 9,-10 20,-10 11,0 20,5 20,10 0,6 -9,10 -20,10 -11,0 -20,-4 -20,-10 z"
       id="path102"
       style="fill:#7a7a7a;fill-opacity:1" />
    <path
       inkscape:connector-curvature="0"
       d="m 950,2635 c 0,-8 7,-15 15,-15 8,0 15,7 15,15 0,8 -7,15 -15,15 -8,0 -15,-7 -15,-15 z"
       id="path104"
       style="fill:#7a7a7a;fill-opacity:1" />
    <path
       inkscape:connector-curvature="0"
       d="m 1030,2628 c 0,-13 -3,-33 -6,-45 -5,-19 -2,-23 17,-23 12,0 19,-3 15,-7 -4,-5 -13,-8 -19,-8 -7,0 -14,-21 -17,-47 -5,-41 -3,-49 13,-54 29,-9 34,9 36,112 2,88 1,94 -19,94 -14,0 -20,-7 -20,-22 z"
       id="path106"
       style="fill:#7a7a7a;fill-opacity:1" />
    <path
       inkscape:connector-curvature="0"
       d="m 1260,2623 c 0,-7 7,-13 15,-13 8,0 15,6 15,13 0,8 -7,14 -15,14 -8,0 -15,-6 -15,-14 z"
       id="path108"
       style="fill:#7a7a7a;fill-opacity:1" />
    <path
       inkscape:connector-curvature="0"
       d="m 1456,2548 c 6,-113 8,-118 35,-118 19,0 20,4 15,48 -3,26 -8,73 -12,105 -5,46 -10,57 -25,57 -17,0 -18,-8 -13,-92 z"
       id="path110"
       style="fill:#7a7a7a;fill-opacity:1" />
    <path
       inkscape:connector-curvature="0"
       d="m 955,2597 c -17,-13 -17,-14 4,-20 16,-4 21,-1 21,14 0,23 -1,23 -25,6 z"
       id="path112"
       style="fill:#7a7a7a;fill-opacity:1" />
    <path
       inkscape:connector-curvature="0"
       d="m 1260,2577 c 0,-8 7,-14 15,-14 8,0 15,6 15,14 0,7 -7,13 -15,13 -8,0 -15,-6 -15,-13 z"
       id="path114"
       style="fill:#7a7a7a;fill-opacity:1" />
    <path
       inkscape:connector-curvature="0"
       d="m 1150,2570 c 0,-5 7,-10 15,-10 8,0 15,5 15,10 0,6 -7,10 -15,10 -8,0 -15,-4 -15,-10 z"
       id="path116"
       style="fill:#7a7a7a;fill-opacity:1" />
    <path
       inkscape:connector-curvature="0"
       d="m 940,2524 c 0,-9 7,-14 17,-12 25,5 28,28 4,28 -12,0 -21,-6 -21,-16 z"
       id="path118"
       style="fill:#7a7a7a;fill-opacity:1" />
    <path
       inkscape:connector-curvature="0"
       d="m 1150,2520 c 0,-11 7,-20 15,-20 8,0 15,9 15,20 0,11 -7,20 -15,20 -8,0 -15,-9 -15,-20 z"
       id="path120"
       style="fill:#7a7a7a;fill-opacity:1" />
    <path
       inkscape:connector-curvature="0"
       d="m 1260,2516 c 0,-10 9,-16 21,-16 24,0 21,23 -4,28 -10,2 -17,-3 -17,-12 z"
       id="path122"
       style="fill:#7a7a7a;fill-opacity:1" />
    <path
       inkscape:connector-curvature="0"
       d="m 930,2465 c 0,-8 9,-15 20,-15 11,0 20,7 20,15 0,8 -9,15 -20,15 -11,0 -20,-7 -20,-15 z"
       id="path124"
       style="fill:#7a7a7a;fill-opacity:1" />
    <path
       inkscape:connector-curvature="0"
       d="m 1147,2466 c -7,-16 1,-26 20,-26 7,0 13,9 13,20 0,23 -25,27 -33,6 z"
       id="path126"
       style="fill:#7a7a7a;fill-opacity:1" />
    <path
       inkscape:connector-curvature="0"
       d="m 1260,2462 c 0,-10 7,-27 15,-40 14,-20 14,-21 0,-16 -9,4 -15,1 -15,-9 0,-8 9,-17 20,-20 22,-6 27,16 10,43 -6,9 -5,17 2,21 15,9 2,39 -17,39 -8,0 -15,-8 -15,-18 z"
       id="path128"
       style="fill:#7a7a7a;fill-opacity:1" />
    <path
       inkscape:connector-curvature="0"
       d="m 1393,2472 c -17,-3 -23,-10 -23,-28 0,-14 6,-24 14,-24 8,0 18,-5 22,-12 5,-8 0,-9 -15,-5 -17,4 -21,2 -19,-11 2,-9 14,-19 28,-23 l 25,-7 -24,-1 c -18,-1 -22,-5 -16,-18 4,-10 8,-23 8,-30 0,-7 13,-17 29,-22 24,-8 28,-7 28,8 0,9 -4,21 -9,27 -6,5 -13,41 -18,79 -7,65 -10,70 -30,67 z"
       id="path130"
       style="fill:#7a7a7a;fill-opacity:1" />
    <path
       inkscape:connector-curvature="0"
       d="m 1152,2418 c -18,-18 -14,-38 8,-38 13,0 20,7 20,19 0,25 -13,34 -28,19 z"
       id="path132"
       style="fill:#7a7a7a;fill-opacity:1" />
    <path
       inkscape:connector-curvature="0"
       d="m 926,2405 c -4,-11 1,-15 19,-15 16,0 25,6 25,15 0,8 -9,15 -19,15 -10,0 -21,-7 -25,-15 z"
       id="path134"
       style="fill:#7a7a7a;fill-opacity:1" />
    <path
       inkscape:connector-curvature="0"
       d="m 1010,2400 c 0,-14 7,-20 23,-21 20,-1 20,-2 2,-6 -38,-10 -51,-63 -15,-63 13,0 20,-7 20,-20 0,-13 -7,-20 -20,-20 -16,0 -20,-7 -20,-35 0,-28 4,-35 20,-35 23,0 27,13 35,133 l 6,87 -25,0 c -19,0 -26,-5 -26,-20 z"
       id="path136"
       style="fill:#7a7a7a;fill-opacity:1" />
    <path
       inkscape:connector-curvature="0"
       d="m 1474,2394 c -4,-14 -1,-37 5,-50 6,-14 11,-34 11,-44 0,-11 4,-20 9,-20 5,0 16,-3 25,-6 12,-5 16,0 16,20 0,27 -14,35 -24,14 -2,-7 -4,1 -4,17 2,72 -2,95 -17,95 -8,0 -18,-12 -21,-26 z"
       id="path138"
       style="fill:#7a7a7a;fill-opacity:1" />
    <path
       inkscape:connector-curvature="0"
       d="m 930,2350 c 19,-13 30,-13 30,0 0,6 -10,10 -22,10 -19,0 -20,-2 -8,-10 z"
       id="path140"
       style="fill:#7a7a7a;fill-opacity:1" />
    <path
       inkscape:connector-curvature="0"
       d="m 1160,2352 c -23,-10 -23,-32 0,-32 13,0 20,7 20,20 0,11 -1,20 -2,19 -2,0 -10,-3 -18,-7 z"
       id="path142"
       style="fill:#7a7a7a;fill-opacity:1" />
    <path
       inkscape:connector-curvature="0"
       d="m 1268,2354 c -3,-3 -4,-14 -1,-25 8,-28 33,-24 33,6 0,23 -18,34 -32,19 z"
       id="path144"
       style="fill:#7a7a7a;fill-opacity:1" />
    <path
       inkscape:connector-curvature="0"
       d="m 910,2318 c 0,-4 9,-8 20,-8 11,0 20,4 20,8 0,4 -9,8 -20,8 -11,0 -20,-4 -20,-8 z"
       id="path146"
       style="fill:#7a7a7a;fill-opacity:1" />
    <path
       inkscape:connector-curvature="0"
       d="m 1153,2285 c -7,-8 -13,-28 -13,-45 0,-23 4,-30 20,-30 17,0 20,7 20,45 0,47 -6,54 -27,30 z"
       id="path148"
       style="fill:#7a7a7a;fill-opacity:1" />
    <path
       inkscape:connector-curvature="0"
       d="m 1270,2255 c 0,-37 3,-45 19,-45 15,0 18,6 16,33 -2,17 -4,34 -5,37 -1,3 -2,8 -1,13 0,4 -6,7 -14,7 -11,0 -15,-12 -15,-45 z"
       id="path150"
       style="fill:#7a7a7a;fill-opacity:1" />
    <path
       inkscape:connector-curvature="0"
       d="m 920,2260 c 19,-13 30,-13 30,0 0,6 -10,10 -22,10 -19,0 -20,-2 -8,-10 z"
       id="path152"
       style="fill:#7a7a7a;fill-opacity:1" />
    <path
       inkscape:connector-curvature="0"
       d="m 1400,2229 c 0,-20 6,-40 13,-42 10,-4 10,-6 0,-6 -15,-1 -18,-60 -3,-62 38,-5 45,-2 48,17 2,12 -4,29 -13,38 -9,9 -12,16 -6,16 6,0 11,15 11,34 0,28 -4,34 -25,38 -23,5 -25,2 -25,-33 z"
       id="path154"
       style="fill:#7a7a7a;fill-opacity:1" />
    <path
       inkscape:connector-curvature="0"
       d="m 1498,2218 c 6,-95 11,-108 38,-108 25,0 25,1 19,63 -9,82 -11,87 -37,87 -21,0 -23,-4 -20,-42 z"
       id="path156"
       style="fill:#7a7a7a;fill-opacity:1" />
    <path
       inkscape:connector-curvature="0"
       d="m 1140,2171 c 0,-25 4,-31 21,-31 16,0 20,5 17,27 -2,17 -10,29 -20,31 -14,3 -18,-3 -18,-27 z"
       id="path158"
       style="fill:#7a7a7a;fill-opacity:1" />
    <path
       inkscape:connector-curvature="0"
       d="m 1270,2166 c 0,-15 7,-26 20,-29 17,-4 20,0 20,24 0,22 -5,29 -20,29 -14,0 -20,-7 -20,-24 z"
       id="path160"
       style="fill:#7a7a7a;fill-opacity:1" />
    <path
       inkscape:connector-curvature="0"
       d="m 912,2173 c -30,-6 -25,-37 6,-41 18,-3 22,1 22,22 0,14 -1,25 -2,25 -2,-1 -13,-4 -26,-6 z"
       id="path162"
       style="fill:#7a7a7a;fill-opacity:1" />
    <path
       inkscape:connector-curvature="0"
       d="m 996,2164 c -10,-27 -7,-34 19,-34 20,0 25,5 25,25 0,29 -34,36 -44,9 z"
       id="path164"
       style="fill:#7a7a7a;fill-opacity:1" />
    <path
       inkscape:connector-curvature="0"
       d="m 1158,2113 c -26,-7 -24,-53 2,-53 16,0 20,7 20,30 0,17 -1,29 -2,29 -2,-1 -11,-3 -20,-6 z"
       id="path166"
       style="fill:#7a7a7a;fill-opacity:1" />
    <path
       inkscape:connector-curvature="0"
       d="m 1288,2109 c -23,-13 -23,-45 -2,-53 22,-9 26,-3 22,32 -3,26 -6,29 -20,21 z"
       id="path168"
       style="fill:#7a7a7a;fill-opacity:1" />
    <path
       inkscape:connector-curvature="0"
       d="m 1410,2070 c 0,-16 3,-30 8,-31 4,0 15,-2 25,-4 13,-3 17,4 17,31 0,30 -3,34 -25,34 -21,0 -25,-5 -25,-30 z"
       id="path170"
       style="fill:#7a7a7a;fill-opacity:1" />
    <path
       inkscape:connector-curvature="0"
       d="m 1510,2070 c 0,-29 8,-35 40,-30 21,3 22,4 14,34 -4,19 -13,26 -30,26 -20,0 -24,-5 -24,-30 z"
       id="path172"
       style="fill:#7a7a7a;fill-opacity:1" />
    <path
       inkscape:connector-curvature="0"
       d="m 880,2075 c 0,-8 5,-15 10,-15 6,0 10,7 10,15 0,8 -4,15 -10,15 -5,0 -10,-7 -10,-15 z"
       id="path174"
       style="fill:#7a7a7a;fill-opacity:1" />
    <path
       inkscape:connector-curvature="0"
       d="m 913,2075 c 0,-8 4,-15 8,-15 4,0 9,7 13,15 3,9 0,15 -8,15 -7,0 -13,-7 -13,-15 z"
       id="path176"
       style="fill:#7a7a7a;fill-opacity:1" />
    <path
       inkscape:connector-curvature="0"
       d="m 990,2070 c 0,-15 7,-20 25,-20 18,0 25,5 25,20 0,15 -7,20 -25,20 -18,0 -25,-5 -25,-20 z"
       id="path178"
       style="fill:#7a7a7a;fill-opacity:1" />
    <path
       inkscape:connector-curvature="0"
       d="m 1152,2026 c -28,-14 -25,-40 6,-44 19,-3 22,1 22,27 0,17 -1,30 -2,30 -2,-1 -13,-7 -26,-13 z"
       id="path180"
       style="fill:#7a7a7a;fill-opacity:1" />
    <path
       inkscape:connector-curvature="0"
       d="m 1295,2030 c 3,-5 -1,-10 -9,-10 -9,0 -16,-9 -16,-20 0,-13 7,-20 20,-20 16,0 20,7 20,30 0,17 -5,30 -11,30 -5,0 -7,-4 -4,-10 z"
       id="path182"
       style="fill:#7a7a7a;fill-opacity:1" />
    <path
       inkscape:connector-curvature="0"
       d="m 992,2018 c -7,-7 -12,-20 -12,-30 0,-13 8,-18 30,-18 27,0 30,3 30,30 0,22 -5,30 -18,30 -10,0 -23,-5 -30,-12 z"
       id="path184"
       style="fill:#7a7a7a;fill-opacity:1" />
    <path
       inkscape:connector-curvature="0"
       d="m 880,1998 c 0,-21 0,-21 15,-2 13,17 14,17 15,2 0,-25 20,-23 20,2 0,15 -7,20 -25,20 -19,0 -25,-5 -25,-22 z"
       id="path186"
       style="fill:#7a7a7a;fill-opacity:1" />
    <path
       inkscape:connector-curvature="0"
       d="m 1410,1950 0,-70 33,0 32,0 -3,48 c -5,80 -10,92 -37,92 -24,0 -25,-2 -25,-70 z"
       id="path188"
       style="fill:#7a7a7a;fill-opacity:1" />
    <path
       inkscape:connector-curvature="0"
       d="m 1557,2013 c -5,-7 -16,-13 -26,-13 -16,0 -17,-7 -14,-52 6,-72 9,-78 38,-78 21,0 25,5 24,28 -2,62 -14,127 -22,115 z"
       id="path190"
       style="fill:#7a7a7a;fill-opacity:1" />
    <path
       inkscape:connector-curvature="0"
       d="m 895,1950 c 19,-8 19,-9 -2,-9 -31,-1 -34,-51 -3,-51 11,0 20,-4 20,-10 0,-5 -12,-10 -26,-10 -23,0 -25,-3 -22,-32 2,-28 8,-34 31,-36 l 27,-3 0,80 c 0,78 -1,81 -22,80 -22,0 -22,-1 -3,-9 z"
       id="path192"
       style="fill:#7a7a7a;fill-opacity:1" />
    <path
       inkscape:connector-curvature="0"
       d="m 979,1948 c 0,-7 -3,-42 -6,-77 -4,-47 -2,-66 8,-72 10,-6 11,-9 2,-9 -19,0 -16,-18 5,-23 13,-4 11,-5 -5,-6 -18,-1 -23,-7 -23,-30 0,-23 4,-28 23,-26 12,1 28,3 35,4 9,1 12,33 12,126 l 0,125 -25,0 c -14,0 -25,-6 -26,-12 z"
       id="path194"
       style="fill:#7a7a7a;fill-opacity:1" />
    <path
       inkscape:connector-curvature="0"
       d="m 1136,1944 c -12,-33 -6,-50 19,-52 22,-2 25,2 25,33 0,28 -4,35 -19,35 -10,0 -22,-7 -25,-16 z"
       id="path196"
       style="fill:#7a7a7a;fill-opacity:1" />
    <path
       inkscape:connector-curvature="0"
       d="m 1270,1876 c 0,-69 2,-75 23,-79 l 22,-4 -22,-2 c -19,-1 -23,-7 -23,-36 0,-31 3,-35 25,-35 l 26,0 -3,113 c -3,108 -4,112 -25,115 -22,3 -23,0 -23,-72 z"
       id="path198"
       style="fill:#7a7a7a;fill-opacity:1" />
    <path
       inkscape:connector-curvature="0"
       d="m 1150,1870 c 24,-8 24,-8 3,-9 -31,-1 -34,-51 -3,-51 11,0 20,-5 20,-11 0,-6 -9,-9 -20,-6 -17,4 -20,0 -20,-34 0,-35 3,-39 25,-39 25,0 25,1 25,80 l 0,80 -27,-1 -28,-1 25,-8 z"
       id="path200"
       style="fill:#7a7a7a;fill-opacity:1" />
    <path
       inkscape:connector-curvature="0"
       d="m 1412,1825 c -2,-25 29,-52 48,-40 6,3 10,1 10,-4 0,-6 -11,-11 -25,-11 -22,0 -25,-4 -25,-34 0,-31 3,-34 36,-38 l 36,-4 -6,35 c -3,20 -6,55 -6,79 0,41 -1,42 -33,42 -28,0 -33,-4 -35,-25 z"
       id="path202"
       style="fill:#7a7a7a;fill-opacity:1" />
    <path
       inkscape:connector-curvature="0"
       d="m 1532,1814 c -2,-29 1,-33 25,-37 l 28,-4 -28,-2 c -26,-1 -28,-4 -25,-38 3,-35 6,-38 36,-41 l 34,-3 -7,58 c -10,93 -12,99 -38,99 -19,0 -24,-6 -25,-32 z"
       id="path204"
       style="fill:#7a7a7a;fill-opacity:1" />
    <path
       inkscape:connector-curvature="0"
       d="m 873,1766 c -14,-6 -23,-20 -23,-33 0,-19 6,-23 30,-23 28,0 30,3 30,35 0,37 -2,39 -37,21 z"
       id="path206"
       style="fill:#7a7a7a;fill-opacity:1" />
    <path
       inkscape:connector-curvature="0"
       d="m 1700,1748 c 0,-18 4,-62 9,-98 5,-36 13,-94 16,-130 4,-36 10,-69 13,-75 3,-5 5,-26 3,-46 -2,-32 1,-37 23,-41 20,-4 26,-1 26,12 0,56 -54,396 -63,402 -21,14 -27,8 -27,-24 z"
       id="path208"
       style="fill:#7a7a7a;fill-opacity:1" />
    <path
       inkscape:connector-curvature="0"
       d="m 678,1723 c 7,-3 16,-2 19,1 4,3 -2,6 -13,5 -11,0 -14,-3 -6,-6 z"
       id="path210"
       style="fill:#7a7a7a;fill-opacity:1" />
    <path
       inkscape:connector-curvature="0"
       d="m 1153,1683 c -33,-6 -32,-49 2,-55 23,-5 25,-2 25,28 0,19 -1,33 -2,33 -2,-1 -13,-4 -25,-6 z"
       id="path212"
       style="fill:#7a7a7a;fill-opacity:1" />
    <path
       inkscape:connector-curvature="0"
       d="m 873,1672 c -27,-3 -33,-7 -33,-28 0,-20 5,-24 29,-24 23,0 30,5 35,26 8,31 10,30 -31,26 z"
       id="path214"
       style="fill:#7a7a7a;fill-opacity:1" />
    <path
       inkscape:connector-curvature="0"
       d="m 960,1640 c 0,-27 3,-30 30,-30 27,0 30,3 30,30 0,27 -3,30 -30,30 -27,0 -30,-3 -30,-30 z"
       id="path216"
       style="fill:#7a7a7a;fill-opacity:1" />
    <path
       inkscape:connector-curvature="0"
       d="m 1270,1645 c 0,-21 5,-25 30,-25 17,0 30,4 30,9 0,25 -14,41 -36,41 -19,0 -24,-5 -24,-25 z"
       id="path218"
       style="fill:#7a7a7a;fill-opacity:1" />
    <path
       inkscape:connector-curvature="0"
       d="m 1540,1636 c 0,-31 3,-34 35,-38 31,-3 35,-1 35,18 0,40 -11,54 -41,54 -26,0 -29,-3 -29,-34 z"
       id="path220"
       style="fill:#7a7a7a;fill-opacity:1" />
    <path
       inkscape:connector-curvature="0"
       d="m 1422,1633 c 2,-23 8,-29 36,-31 30,-3 32,-1 32,27 0,29 -3,31 -36,31 -33,0 -35,-2 -32,-27 z"
       id="path222"
       style="fill:#7a7a7a;fill-opacity:1" />
    <path
       inkscape:connector-curvature="0"
       d="m 890,1580 c 0,-5 -13,-10 -30,-10 -25,0 -30,-4 -30,-25 0,-22 4,-25 35,-25 33,0 35,2 35,35 0,19 -2,35 -5,35 -3,0 -5,-4 -5,-10 z"
       id="path224"
       style="fill:#7a7a7a;fill-opacity:1" />
    <path
       inkscape:connector-curvature="0"
       d="m 985,1581 c -25,-5 -31,-12 -33,-39 -3,-31 -2,-32 32,-32 35,0 36,1 36,40 0,22 -1,39 -2,39 -2,-1 -16,-4 -33,-8 z"
       id="path226"
       style="fill:#7a7a7a;fill-opacity:1" />
    <path
       inkscape:connector-curvature="0"
       d="m 1270,1555 c 0,-31 3,-35 25,-35 16,0 25,-6 25,-15 0,-8 -9,-15 -19,-15 -33,0 -43,-61 -13,-80 12,-8 13,-13 5,-16 -9,-4 -13,-30 -13,-79 0,-57 3,-74 16,-79 9,-3 20,-4 25,0 5,3 9,-2 9,-10 0,-10 -9,-16 -25,-16 l -25,0 0,-174 0,-175 33,-4 32,-4 -32,-1 -33,-2 0,-65 0,-65 36,0 37,0 -6,178 c -4,97 -10,293 -13,435 l -7,257 -29,0 c -25,0 -28,-3 -28,-35 z"
       id="path228"
       style="fill:#7a7a7a;fill-opacity:1" />
    <path
       inkscape:connector-curvature="0"
       d="m 1430,1540 c 0,-38 2,-40 30,-40 38,0 38,-10 0,-38 -40,-30 -36,-66 8,-70 22,-2 32,-9 36,-25 3,-12 3,16 1,63 -3,47 -5,100 -5,118 0,30 -2,32 -35,32 -34,0 -35,-1 -35,-40 z"
       id="path230"
       style="fill:#7a7a7a;fill-opacity:1" />
    <path
       inkscape:connector-curvature="0"
       d="m 1120,1545 c 0,-20 5,-25 25,-25 14,0 25,-4 25,-10 0,-5 -8,-10 -17,-10 -15,0 -16,-2 -3,-10 13,-9 13,-10 0,-11 -8,-1 -18,-1 -22,0 -5,0 -8,-14 -8,-33 0,-32 2,-34 25,-30 18,3 25,0 25,-11 0,-9 -9,-15 -25,-15 -24,0 -25,-2 -25,-75 l 0,-75 28,0 29,0 2,165 2,165 -30,0 c -26,0 -31,-4 -31,-25 z"
       id="path232"
       style="fill:#7a7a7a;fill-opacity:1" />
    <path
       inkscape:connector-curvature="0"
       d="m 1563,1563 c -7,-2 -13,-19 -13,-36 0,-30 2,-32 35,-32 37,0 41,8 29,53 -6,21 -24,26 -51,15 z"
       id="path234"
       style="fill:#7a7a7a;fill-opacity:1" />
    <path
       inkscape:connector-curvature="0"
       d="m 630,1512 c 0,-4 9,-13 20,-20 18,-11 20,-10 20,8 0,13 -7,20 -20,20 -11,0 -20,-3 -20,-8 z"
       id="path236"
       style="fill:#7a7a7a;fill-opacity:1" />
    <path
       inkscape:connector-curvature="0"
       d="m 991,1477 c -7,-10 -21,-16 -30,-15 -11,2 -17,-6 -19,-24 -3,-28 7,-34 47,-29 26,4 4,-24 -25,-30 -16,-4 -21,-7 -11,-8 21,-1 23,-21 2,-21 -9,0 -15,-9 -15,-22 0,-13 -3,-39 -6,-59 -6,-36 -5,-37 29,-41 l 36,-4 6,81 c 4,44 5,104 3,134 -3,48 -5,52 -17,38 z"
       id="path238"
       style="fill:#7a7a7a;fill-opacity:1" />
    <path
       inkscape:connector-curvature="0"
       d="m 1611,1468 c -1,-12 -9,-18 -24,-18 -13,0 -26,-2 -29,-5 -11,-11 5,-54 21,-58 14,-4 14,-5 -1,-6 -21,-1 -22,-24 -9,-133 5,-40 12,-118 15,-173 11,-204 19,-280 28,-284 7,-2 6,-6 0,-10 -6,-4 -8,-23 -5,-47 5,-38 7,-40 35,-36 19,3 33,-1 39,-9 13,-21 11,38 -6,211 -8,82 -22,218 -30,300 -8,83 -15,157 -15,164 0,8 -8,17 -17,19 -17,4 -17,5 0,6 18,1 20,16 7,66 -4,17 -8,22 -9,13 z"
       id="path240"
       style="fill:#7a7a7a;fill-opacity:1" />
    <path
       inkscape:connector-curvature="0"
       d="m 826,1448 c -3,-7 -9,-83 -16,-168 -15,-209 -21,-274 -27,-282 -4,-8 16,-12 47,-10 8,0 18,-5 22,-11 4,-7 8,18 8,55 0,44 -4,68 -12,71 -9,4 -7,6 3,6 14,1 17,20 23,119 4,64 9,143 13,175 l 6,57 -32,0 c -17,0 -33,-6 -35,-12 z"
       id="path242"
       style="fill:#7a7a7a;fill-opacity:1" />
    <path
       inkscape:connector-curvature="0"
       d="m 620,1410 c 0,-13 7,-20 20,-20 13,0 20,7 20,20 0,13 -7,20 -20,20 -13,0 -20,-7 -20,-20 z"
       id="path244"
       style="fill:#7a7a7a;fill-opacity:1" />
    <path
       inkscape:connector-curvature="0"
       d="m 610,1320 c 0,-13 7,-20 20,-20 13,0 20,7 20,20 0,13 -7,20 -20,20 -13,0 -20,-7 -20,-20 z"
       id="path246"
       style="fill:#7a7a7a;fill-opacity:1" />
    <path
       inkscape:connector-curvature="0"
       d="m 1440,1291 c 0,-65 7,-81 36,-81 13,0 24,-5 24,-11 0,-7 -11,-9 -26,-6 l -27,5 7,-141 c 4,-94 11,-144 19,-149 9,-6 9,-8 0,-8 -8,0 -13,-13 -13,-30 0,-28 3,-30 38,-32 36,-1 36,-1 5,-5 l -33,-4 0,-64 0,-64 38,-3 c 34,-3 37,-6 39,-35 1,-32 0,-33 -39,-33 l -41,0 7,-52 c 3,-29 6,-81 6,-115 l 0,-62 43,-3 c 40,-3 42,-4 45,-39 3,-34 1,-37 -29,-43 -17,-3 -35,-3 -40,0 -5,3 -9,-13 -9,-35 0,-45 5,-51 56,-55 l 36,-3 -6,111 c -10,206 -26,460 -36,561 -11,113 -26,401 -22,428 1,14 -6,17 -38,17 l -40,0 0,-49 z"
       id="path248"
       style="fill:#7a7a7a;fill-opacity:1" />
    <path
       inkscape:connector-curvature="0"
       d="m 1785,1329 c 4,-6 -2,-13 -14,-16 -14,-3 -21,-13 -21,-29 0,-13 3,-24 8,-24 4,0 6,-20 4,-45 -4,-43 -3,-45 22,-45 19,0 26,-5 26,-20 0,-14 -7,-20 -21,-20 -31,0 -23,-54 9,-58 24,-4 25,-27 1,-27 -9,0 -15,-13 -17,-37 -2,-21 1,-38 6,-38 5,0 7,-22 4,-48 -3,-35 0,-51 11,-61 11,-9 13,-19 8,-34 -5,-13 -2,-79 9,-162 10,-77 25,-220 35,-317 18,-176 18,-177 43,-180 35,-4 41,-28 7,-28 l -27,0 7,-62 c 4,-35 9,-66 12,-70 2,-5 25,-8 50,-8 l 45,0 -7,38 c -4,20 -11,42 -17,49 -9,11 -6,45 9,97 4,13 1,16 -7,11 -9,-5 -11,-4 -6,4 4,6 0,18 -9,27 -16,16 -18,73 -4,84 4,3 -1,24 -11,46 -18,38 -22,61 -36,196 -2,27 -9,59 -13,72 -5,13 -12,57 -16,97 -10,116 -12,131 -44,353 -17,114 -31,221 -31,237 0,16 -5,29 -11,29 -5,0 -7,-5 -4,-11 z M 1917,124 c -3,-3 -12,-4 -19,-1 -8,3 -5,6 6,6 11,1 17,-2 13,-5 z"
       id="path250"
       style="fill:#7a7a7a;fill-opacity:1" />
    <path
       inkscape:connector-curvature="0"
       d="m 600,1250 c 0,-5 -3,-15 -6,-24 -5,-12 0,-16 20,-16 32,0 37,35 6,43 -11,3 -20,1 -20,-3 z"
       id="path252"
       style="fill:#7a7a7a;fill-opacity:1" />
    <path
       inkscape:connector-curvature="0"
       d="m 963,1202 c -32,-3 -33,-4 -33,-53 0,-31 4,-48 10,-44 6,3 10,1 10,-4 0,-6 9,-11 20,-11 23,0 33,30 28,81 -3,32 -5,34 -35,31 z"
       id="path254"
       style="fill:#7a7a7a;fill-opacity:1" />
    <path
       inkscape:connector-curvature="0"
       d="m 1116,1188 c -3,-13 -6,-37 -6,-53 0,-27 3,-30 30,-30 30,-1 30,0 30,52 0,49 -2,53 -24,53 -16,0 -26,-7 -30,-22 z"
       id="path256"
       style="fill:#7a7a7a;fill-opacity:1" />
    <path
       inkscape:connector-curvature="0"
       d="m 603,1153 c -33,-6 -31,-43 2,-43 20,0 25,5 25,25 0,14 -1,24 -2,24 -2,-1 -13,-4 -25,-6 z"
       id="path258"
       style="fill:#7a7a7a;fill-opacity:1" />
    <path
       inkscape:connector-curvature="0"
       d="m 963,1073 c 24,-6 11,-23 -19,-23 -21,0 -24,-5 -24,-35 0,-33 2,-35 33,-35 l 32,-1 -25,-13 c -14,-8 -28,-12 -31,-10 -7,4 -19,-46 -19,-82 0,-21 5,-24 34,-24 43,0 46,8 46,131 0,96 -1,99 -22,98 -18,-1 -19,-2 -5,-6 z"
       id="path260"
       style="fill:#7a7a7a;fill-opacity:1" />
    <path
       inkscape:connector-curvature="0"
       d="m 1111,900 c 0,-142 2,-169 15,-174 9,-3 20,-4 25,0 5,3 9,-4 9,-15 0,-15 -6,-21 -24,-21 -30,0 -36,-27 -36,-166 l 0,-104 35,0 35,0 0,320 c 0,176 -3,321 -7,321 -5,1 -18,3 -30,4 l -23,2 1,-167 z"
       id="path262"
       style="fill:#7a7a7a;fill-opacity:1" />
    <path
       inkscape:connector-curvature="0"
       d="m 570,1025 c 0,-29 34,-36 44,-9 10,27 7,34 -19,34 -20,0 -25,-5 -25,-25 z"
       id="path264"
       style="fill:#7a7a7a;fill-opacity:1" />
    <path
       inkscape:connector-curvature="0"
       d="m 557,943 c -14,-13 -7,-52 11,-56 15,-4 15,-5 1,-6 -13,-1 -20,-18 -28,-64 -15,-87 -14,-94 13,-99 22,-4 24,-1 30,51 4,31 10,84 13,119 4,56 3,62 -14,62 -11,0 -23,-3 -26,-7 z"
       id="path266"
       style="fill:#7a7a7a;fill-opacity:1" />
    <path
       inkscape:connector-curvature="0"
       d="m 836,935 c -3,-8 -16,-15 -30,-15 -19,0 -25,-6 -28,-29 -4,-26 -1,-30 25,-35 47,-9 47,-9 46,44 -2,54 -4,58 -13,35 z"
       id="path268"
       style="fill:#7a7a7a;fill-opacity:1" />
    <path
       inkscape:connector-curvature="0"
       d="m 770,831 c 0,-5 9,-11 20,-13 12,-2 21,-7 21,-13 0,-5 -9,-11 -21,-13 -11,-2 -20,-9 -20,-15 0,-7 -3,-22 -6,-34 -6,-21 -3,-23 35,-23 l 41,0 0,44 c 0,24 3,51 6,60 5,13 -2,16 -35,16 -23,0 -41,-4 -41,-9 z"
       id="path270"
       style="fill:#7a7a7a;fill-opacity:1" />
    <path
       inkscape:connector-curvature="0"
       d="m 905,779 c -8,-65 -7,-66 15,-69 56,-8 60,-4 60,65 l 0,65 -34,0 -34,0 -7,-61 z"
       id="path272"
       style="fill:#7a7a7a;fill-opacity:1" />
    <path
       inkscape:connector-curvature="0"
       d="m 756,646 c -14,-67 -9,-76 34,-76 l 40,0 0,53 0,52 -34,0 c -30,0 -35,-4 -40,-29 z"
       id="path274"
       style="fill:#7a7a7a;fill-opacity:1" />
    <path
       inkscape:connector-curvature="0"
       d="m 920,661 c 0,-10 -7,-21 -15,-25 -9,-3 -15,-18 -15,-36 0,-24 4,-30 22,-30 21,0 21,-1 3,-13 -18,-14 -40,-121 -29,-139 3,-4 23,-8 45,-8 l 39,0 0,83 c 0,45 3,105 6,132 l 6,51 -31,2 c -25,2 -31,-2 -31,-17 z"
       id="path276"
       style="fill:#7a7a7a;fill-opacity:1" />
    <path
       inkscape:connector-curvature="0"
       d="m 1290,551 0,-129 36,-4 37,-4 -7,89 c -3,50 -6,109 -6,131 0,39 -2,42 -30,44 l -30,2 0,-129 z"
       id="path278"
       style="fill:#7a7a7a;fill-opacity:1" />
    <path
       inkscape:connector-curvature="0"
       d="m 540,650 c -33,-8 -40,-46 -10,-55 28,-9 43,6 38,37 -2,20 -7,23 -28,18 z"
       id="path280"
       style="fill:#7a7a7a;fill-opacity:1" />
    <path
       inkscape:connector-curvature="0"
       d="m 1628,653 c 12,-2 32,-2 45,0 12,2 2,4 -23,4 -25,0 -35,-2 -22,-4 z"
       id="path282"
       style="fill:#7a7a7a;fill-opacity:1" />
    <path
       inkscape:connector-curvature="0"
       d="m 1691,631 c -1,-9 -12,-12 -36,-9 -35,4 -35,4 -35,-34 0,-38 0,-38 40,-38 33,0 40,-3 40,-20 0,-17 -7,-20 -41,-20 -28,0 -38,-3 -33,-12 4,-6 7,-31 5,-55 -2,-44 6,-51 58,-43 8,1 18,-4 23,-12 5,-8 6,17 2,62 -8,98 -21,199 -23,181 z"
       id="path284"
       style="fill:#7a7a7a;fill-opacity:1" />
    <path
       inkscape:connector-curvature="0"
       d="m 756,533 c -3,-10 -10,-39 -15,-65 -7,-41 -6,-48 8,-49 9,0 28,-2 44,-4 l 27,-4 0,70 c 0,53 -3,69 -14,69 -8,0 -17,-6 -19,-12 -4,-10 -6,-10 -6,0 -1,18 -19,15 -25,-5 z"
       id="path286"
       style="fill:#7a7a7a;fill-opacity:1" />
    <path
       inkscape:connector-curvature="0"
       d="m 500,505 c 0,-14 -1,-28 -2,-32 -2,-5 7,-9 20,-11 29,-4 28,-22 -2,-22 -24,0 -36,-28 -36,-87 0,-21 4,-24 28,-21 26,3 27,5 38,93 6,50 11,90 10,91 -1,1 -13,4 -28,8 -25,6 -28,4 -28,-19 z"
       id="path288"
       style="fill:#7a7a7a;fill-opacity:1" />
    <path
       inkscape:connector-curvature="0"
       d="m 950,380 c 0,-5 -6,-10 -12,-10 -30,-1 -56,-37 -59,-81 l -4,-44 43,-6 42,-5 0,78 c 0,43 -2,78 -5,78 -3,0 -5,-4 -5,-10 z"
       id="path290"
       style="fill:#7a7a7a;fill-opacity:1" />
    <path
       inkscape:connector-curvature="0"
       d="m 778,363 c 6,-2 18,-2 25,0 6,3 1,5 -13,5 -14,0 -19,-2 -12,-5 z"
       id="path292"
       style="fill:#7a7a7a;fill-opacity:1" />
    <path
       inkscape:connector-curvature="0"
       d="m 1315,350 c 3,-6 -1,-13 -9,-16 -11,-4 -16,-19 -16,-45 0,-37 2,-39 30,-39 21,0 30,-5 30,-16 0,-12 -7,-15 -30,-12 l -30,5 0,-74 0,-73 35,0 35,0 0,140 0,140 -26,0 c -14,0 -23,-4 -19,-10 z"
       id="path294"
       style="fill:#7a7a7a;fill-opacity:1" />
    <path
       inkscape:connector-curvature="0"
       d="m 1711,353 c -1,-8 -16,-13 -38,-14 -21,-1 -30,-3 -20,-6 21,-5 23,-23 2,-23 -23,0 -21,-80 3,-81 9,0 29,-2 45,-3 26,-2 27,0 27,46 0,38 -3,46 -15,42 -8,-4 -15,-2 -15,4 0,6 5,12 12,14 6,2 8,11 5,19 -3,9 -6,10 -6,2 z"
       id="path296"
       style="fill:#7a7a7a;fill-opacity:1" />
    <path
       inkscape:connector-curvature="0"
       d="m 1100,301 c 0,-40 1,-41 35,-41 33,0 35,2 35,35 0,21 -5,35 -12,35 -7,0 -23,3 -35,6 -21,6 -23,3 -23,-35 z"
       id="path298"
       style="fill:#7a7a7a;fill-opacity:1" />
    <path
       inkscape:connector-curvature="0"
       d="m 726,314 c -3,-9 -6,-29 -6,-45 0,-28 2,-29 45,-29 l 45,0 0,45 0,45 -39,0 c -26,0 -41,-5 -45,-16 z"
       id="path300"
       style="fill:#7a7a7a;fill-opacity:1" />
    <path
       inkscape:connector-curvature="0"
       d="m 470,298 c 0,-5 14,-8 30,-8 17,0 30,4 30,8 0,4 -13,8 -30,7 -16,0 -30,-3 -30,-7 z"
       id="path302"
       style="fill:#7a7a7a;fill-opacity:1" />
    <path
       inkscape:connector-curvature="0"
       d="m 495,271 c -25,-5 -31,-11 -33,-39 -2,-17 0,-33 5,-33 49,-8 51,-7 56,35 3,22 5,41 4,41 -1,1 -15,-1 -32,-4 z"
       id="path304"
       style="fill:#7a7a7a;fill-opacity:1" />
    <path
       inkscape:connector-curvature="0"
       d="m 740,199 c -16,-5 -19,-7 -7,-8 9,-1 17,-6 17,-12 0,-6 -6,-9 -14,-6 -17,7 -26,-13 -26,-59 0,-34 0,-34 45,-34 l 45,0 0,63 c 0,68 -4,72 -60,56 z"
       id="path306"
       style="fill:#7a7a7a;fill-opacity:1" />
    <path
       inkscape:connector-curvature="0"
       d="m 1095,166 c -10,-66 -5,-81 33,-84 l 32,-3 0,65 0,66 -29,0 c -27,0 -30,-3 -36,-44 z"
       id="path308"
       style="fill:#7a7a7a;fill-opacity:1" />
    <path
       inkscape:connector-curvature="0"
       d="m 870,145 c 0,-30 -1,-58 -2,-62 -2,-5 16,-9 40,-11 l 42,-3 0,53 c 0,50 -12,78 -33,78 -4,0 -5,-4 -2,-10 3,-5 1,-10 -4,-10 -6,0 -11,5 -11,10 0,6 -7,10 -15,10 -12,0 -15,-13 -15,-55 z"
       id="path310"
       style="fill:#7a7a7a;fill-opacity:1" />
    <path
       inkscape:connector-curvature="0"
       d="m 1502,118 c 3,-62 6,-73 20,-70 10,2 18,-6 21,-20 l 4,-23 2,23 c 1,26 27,30 34,4 7,-27 8,92 1,127 -6,28 -10,31 -46,31 l -39,0 3,-72 z"
       id="path312"
       style="fill:#7a7a7a;fill-opacity:1" />
    <path
       inkscape:connector-curvature="0"
       d="m 1651,186 c 10,-8 89,-13 83,-5 -3,5 -24,9 -46,9 -23,0 -39,-2 -37,-4 z"
       id="path314"
       style="fill:#7a7a7a;fill-opacity:1" />
    <path
       inkscape:connector-curvature="0"
       d="m 492,163 c -6,-2 -9,-9 -6,-15 3,-5 -3,-12 -15,-15 C 456,129 449,117 445,81 441,56 436,27 433,18 430,3 435,0 464,0 l 34,0 7,67 c 4,38 9,76 11,86 5,17 0,20 -24,10 z"
       id="path316"
       style="fill:#7a7a7a;fill-opacity:1" />
    <path
       inkscape:connector-curvature="0"
       d="m 1652,113 3,-48 48,-6 c 45,-5 48,-4 43,15 -3,12 -6,36 -6,54 0,31 -1,32 -46,32 l -45,0 3,-47 z"
       id="path318"
       style="fill:#7a7a7a;fill-opacity:1" />
    <path
       inkscape:connector-curvature="0"
       d="m 1145,10 c -3,-5 -1,-10 4,-10 6,0 11,5 11,10 0,6 -2,10 -4,10 -3,0 -8,-4 -11,-10 z"
       id="path320"
       style="fill:#7a7a7a;fill-opacity:1" />
  </g>
  <path
     sodipodi:type="arc"
     style="fill:#000000;fill-opacity:1;fill-rule:nonzero;stroke:#000000;stroke-width:6;stroke-linecap:butt;stroke-linejoin:miter;stroke-miterlimit:4;stroke-opacity:1;stroke-dasharray:none;stroke-dashoffset:0"
     id="path2213"
     sodipodi:cx="625.46057"
     sodipodi:cy="755.94208"
     sodipodi:rx="27.517427"
     sodipodi:ry="31.492359"
     d="m 652.978,755.94208 a 27.517427,31.492359 0 1 1 -0.002,-0.39337 l -27.51528,0.39337 z"
     transform="matrix(-0.01715954,0.02972121,-0.03054085,-0.01763277,254.51579,47.76963)"
     sodipodi:start="0"
     sodipodi:end="6.2706941" />
  <path
     inkscape:connector-curvature="0"
     style="fill:#6c6c6c;fill-opacity:1;fill-rule:evenodd;stroke:#000000;stroke-width:0.07732399px;stroke-linecap:butt;stroke-linejoin:miter;stroke-opacity:1"
     d="m 232.65894,75.660251 c -1.12002,-0.597316 -7.57047,-1.693967 -9.29088,-2.139818 -12.4564,-3.22815 -6.48097,-16.490928 -3.37834,-19.114991 2.25681,-1.908712 3.19889,-1.815198 4.29611,-1.692226 0.963,0.107931 11.80972,6.086365 15.18234,8.19654 1.79748,1.124649 3.76298,3.410061 3.95662,4.510069 0.69457,3.945729 -3.71422,13.997989 -10.76585,10.240426 z"
     id="path2215"
     sodipodi:nodetypes="cssssss" />
  <path
     sodipodi:type="arc"
     style="fill:#000000;fill-opacity:1;fill-rule:nonzero;stroke:#000000;stroke-width:6;stroke-linecap:butt;stroke-linejoin:miter;stroke-miterlimit:4;stroke-opacity:1;stroke-dasharray:none;stroke-dashoffset:0"
     id="path1308"
     sodipodi:cx="625.46057"
     sodipodi:cy="755.94208"
     sodipodi:rx="15.601057"
     sodipodi:ry="15.601057"
     d="m 641.06163,755.94208 a 15.601057,15.601057 0 1 1 -31.20212,0 15.601057,15.601057 0 1 1 31.20212,0 z"
     transform="matrix(-0.038662,0.06696454,-0.06696454,-0.038662,257.32279,49.501715)" />
  <path
     sodipodi:type="arc"
     style="fill:#000000;fill-opacity:1;fill-rule:nonzero;stroke:#000000;stroke-width:6;stroke-linecap:butt;stroke-linejoin:miter;stroke-miterlimit:4;stroke-opacity:1;stroke-dasharray:none;stroke-dashoffset:0"
     id="path1310"
     sodipodi:cx="431.15646"
     sodipodi:cy="808.4184"
     sodipodi:rx="11.346223"
     sodipodi:ry="17.019335"
     d="m 442.50269,808.4184 a 11.346223,17.019335 0 1 1 -22.69245,0 11.346223,17.019335 0 1 1 22.69245,0 z"
     transform="matrix(-0.038662,0.06696454,-0.06696454,-0.038662,257.32279,49.501715)" />
  <path
     sodipodi:type="arc"
     style="fill:#000000;fill-opacity:1;fill-rule:nonzero;stroke:#000000;stroke-width:6;stroke-linecap:butt;stroke-linejoin:miter;stroke-miterlimit:4;stroke-opacity:1;stroke-dasharray:none;stroke-dashoffset:0"
     id="path1314"
     sodipodi:cx="625.46057"
     sodipodi:cy="755.94208"
     sodipodi:rx="15.601057"
     sodipodi:ry="15.601057"
     d="m 641.06163,755.94208 a 15.601057,15.601057 0 1 1 -31.20212,0 15.601057,15.601057 0 1 1 31.20212,0 z"
     transform="matrix(-0.038662,0.06696454,-0.06696454,-0.038662,273.01591,22.978426)" />
  <path
     sodipodi:type="arc"
     style="fill:#000000;fill-opacity:1;fill-rule:nonzero;stroke:#000000;stroke-width:6;stroke-linecap:butt;stroke-linejoin:miter;stroke-miterlimit:4;stroke-opacity:1;stroke-dasharray:none;stroke-dashoffset:0"
     id="path1316"
     sodipodi:cx="625.46057"
     sodipodi:cy="755.94208"
     sodipodi:rx="15.601057"
     sodipodi:ry="15.601057"
     d="m 641.06163,755.94208 a 15.601057,15.601057 0 1 1 -31.20212,0 15.601057,15.601057 0 1 1 31.20212,0 z"
     transform="matrix(-0.038662,0.06696454,-0.06696454,-0.038662,274.34345,30.329761)" />
  <path
     sodipodi:type="arc"
     style="fill:#000000;fill-opacity:1;fill-rule:nonzero;stroke:#000000;stroke-width:6;stroke-linecap:butt;stroke-linejoin:miter;stroke-miterlimit:4;stroke-opacity:1;stroke-dasharray:none;stroke-dashoffset:0"
     id="path1318"
     sodipodi:cx="625.46057"
     sodipodi:cy="755.94208"
     sodipodi:rx="15.601057"
     sodipodi:ry="15.601057"
     d="m 641.06163,755.94208 a 15.601057,15.601057 0 1 1 -31.20212,0 15.601057,15.601057 0 1 1 31.20212,0 z"
     transform="matrix(-0.038662,0.06696454,-0.06696454,-0.038662,265.40166,46.694734)" />
  <path
     inkscape:connector-curvature="0"
     style="fill:none;stroke:#000000;stroke-width:0.07732399px;stroke-linecap:butt;stroke-linejoin:miter;stroke-opacity:1"
     d="m 187.23589,48.392095 5.22208,3.109805"
     id="path1320" />
  <path
     inkscape:connector-curvature="0"
     style="fill:none;stroke:#000000;stroke-width:0.07732399px;stroke-linecap:butt;stroke-linejoin:miter;stroke-opacity:1"
     d="M 192.29077,52.448512 184.85401,61.7158"
     id="path1322" />
  <path
     inkscape:connector-curvature="0"
     style="fill:none;stroke:#000000;stroke-width:0.07732399px;stroke-linecap:butt;stroke-linejoin:miter;stroke-opacity:1"
     d="m 183.71603,61.058787 -0.39452,1.668852"
     id="path1324" />
  <path
     inkscape:connector-curvature="0"
     style="fill:none;stroke:#000000;stroke-width:0.07732399px;stroke-linecap:butt;stroke-linejoin:miter;stroke-opacity:1"
     d="m 185.15166,63.499787 7.25267,-6.813128"
     id="path1326" />
  <path
     inkscape:connector-curvature="0"
     style="fill:none;stroke:#000000;stroke-width:0.07732399px;stroke-linecap:butt;stroke-linejoin:miter;stroke-opacity:1"
     d="M 192.44755,58.41858 191.47893,58.618"
     id="path1328" />
  <path
     inkscape:connector-curvature="0"
     style="fill:none;stroke:#000000;stroke-width:0.07732399px;stroke-linecap:butt;stroke-linejoin:miter;stroke-opacity:1"
     d="m 191.42096,60.196671 1.37336,0.413584"
     id="path1330" />
  <path
     inkscape:connector-curvature="0"
     style="fill:none;stroke:#000000;stroke-width:0.07732399px;stroke-linecap:butt;stroke-linejoin:miter;stroke-opacity:1"
     d="m 195.91003,54.063931 1.55234,-3.181506"
     id="path1332" />
  <path
     inkscape:connector-curvature="0"
     style="fill:#6c6c6c;fill-opacity:1;fill-rule:evenodd;stroke:#000000;stroke-width:0.07732399px;stroke-linecap:butt;stroke-linejoin:miter;stroke-opacity:1"
     d="m 215.15921,50.288904 c -0.25333,0.180803 0.0846,0.261297 -0.69388,1.21228 -2.30698,2.818057 -5.85213,8.29039 -6.15484,8.679015 -2.41773,3.103924 -4.4415,6.51247 -5.11974,10.510186 -0.18461,1.088126 -0.76775,3.120017 -0.803,4.183133 -0.0935,2.818451 2.1763,1.710034 2.7027,1.560405 3.95233,-1.12346 6.57216,-7.495142 8.87692,-12.418732 0.34145,-0.729412 2.18938,-7.427434 3.00136,-8.319308 0.73744,-0.810003 1.60339,-7.842784 -1.80952,-5.406977 z"
     id="path2217"
     sodipodi:nodetypes="cssssssss" />
  <path
     inkscape:connector-curvature="0"
     style="fill:#000000;fill-opacity:1;fill-rule:evenodd;stroke:#000000;stroke-width:0.07732399px;stroke-linecap:butt;stroke-linejoin:miter;stroke-opacity:1"
     d="m 215.75489,58.392931 1.12156,0.682038 1.43297,-2.70493 -1.38535,-0.722183 m -6.04334,-6.117129 0.67352,4.57449 -0.86057,1.014846 -0.59697,-4.98461 m 0.0668,-3.565025 -0.66277,0.845352 c -0.38852,0.495535 0.90896,0.50704 0.67702,1.509451 -0.1,0.431944 -0.84331,0.17262 -0.86221,1.346173 -0.0213,1.326081 0.52769,4.204116 0.37371,4.811746 -0.0839,0.330986 -0.29422,1.514413 -1.20908,1.179524 -0.4327,-0.158395 0.0631,-0.463807 -0.31498,-0.234251 -0.46516,0.282443 -0.77567,1.511356 -0.78946,1.520794 l -4.13106,-2.548913 -2.2782,-1.810282 -3.45499,-1.899914 2.91764,-3.246731 1.8618,-4.045993 -1.40341,-0.525768 -0.67764,2.001381 -2.1357,1.808906 1.40992,-4.336054 1.23858,-5.923109 -1.70696,-0.985517 c 0,0 -1.5325,1.011838 -1.24801,1.176092 0.2845,0.164253 1.35135,0.780202 1.35135,0.780202 l -4.31538,10.595262 -1.237,0.992781 -5.24409,-2.743182 -1.09771,1.737029 4.86647,2.904487 0.005,1.140925 -7.27252,8.982794 -0.42673,-0.24638 -0.98552,1.706967 1.64684,0.761147 7.42792,-7.280933 -0.40552,1.85216 -0.85643,0.16936 -0.36447,1.78104 1.93429,0.263281 3.1157,-6.546324 3.16692,1.714934 2.48198,1.448232 4.29594,2.191857 c -1.94572,1.236596 -5.62469,11.089952 -4.96807,14.235738 l 1.50336,1.290374 c 0.52775,-2.617379 -0.50869,-1.762059 2.58516,-9.214815 l 3.2427,-5.437706 c 1.87725,-3.147997 7.01837,-9.375442 6.62903,-9.796134 -0.24008,-0.259394 -0.12826,-1.579636 -2.50487,2.179738 l -0.0113,0.06762 c -0.54713,-3.109402 -0.28293,-3.637239 -1.07418,-5.043526 l -0.50645,-0.900109 m 32.40499,17.828657 c -5.91845,-6.820308 -15.11,-9.551509 -20.48987,-11.849856 -0.0807,-0.393768 1.3818,-0.551069 3.25151,0.554413 2.48407,1.468726 6.91186,2.975737 7.56719,3.352258 4.7568,3.260221 5.36182,2.290285 9.80569,7.431884 l -0.13451,0.511301 z"
     id="path1338"
     sodipodi:nodetypes="cccccccccssssssccccccccccccscccccccccccccccccccccccssccscccsccc" />
  <path
     style="color:#000000;fill:none;stroke:#000000;stroke-width:1;stroke-linecap:butt;stroke-linejoin:miter;stroke-miterlimit:4;stroke-opacity:1;stroke-dasharray:none;stroke-dashoffset:0;marker:none;visibility:visible;display:inline;overflow:visible;enable-background:accumulate"
     d="m 314.45235,21.458075 8.96605,0"
     id="path5274"
     inkscape:connector-curvature="0"
     transform="scale(0.8,0.8)" />
  <path
     style="color:#000000;fill:none;stroke:#000000;stroke-width:0.80000001;stroke-linecap:butt;stroke-linejoin:miter;stroke-miterlimit:4;stroke-opacity:1;stroke-dasharray:none;stroke-dashoffset:0;marker:none;marker-end:url(#Arrow2Mend);visibility:visible;display:inline;overflow:visible;enable-background:accumulate"
     d="m 255.14061,16.654114 0,54.308675"
     id="path5276"
     inkscape:connector-curvature="0" />
  <text
     xml:space="preserve"
     style="font-size:19.20000076px;font-style:normal;font-variant:normal;font-weight:normal;font-stretch:normal;text-indent:0;text-align:start;text-decoration:none;line-height:125%;letter-spacing:0px;word-spacing:0px;text-transform:none;direction:ltr;block-progression:tb;writing-mode:lr-tb;text-anchor:start;baseline-shift:baseline;color:#000000;fill:#000000;fill-opacity:1;fill-rule:nonzero;stroke:none;stroke-width:1.24999988px;marker:none;visibility:visible;display:inline;overflow:visible;enable-background:accumulate;font-family:Liberation Sans;-inkscape-font-specification:Liberation Sans"
     x="260.78412"
     y="48.931911"
     id="text6230"
     sodipodi:linespacing="125%"><tspan
       sodipodi:role="line"
       id="tspan6232"
       x="260.78412"
       y="48.931911"
       style="font-size:19.20000076px;font-style:italic;-inkscape-font-specification:Liberation Sans Italic">h</tspan></text>
</svg>
