<?xml version="1.0" encoding="UTF-8" standalone="no"?>
<!-- Generator: Adobe Illustrator 11 Build 196, SVG Export Plug-In . SVG Version: 6.0.0 Build 78)  -->

<svg
   xmlns:dc="http://purl.org/dc/elements/1.1/"
   xmlns:cc="http://creativecommons.org/ns#"
   xmlns:rdf="http://www.w3.org/1999/02/22-rdf-syntax-ns#"
   xmlns:svg="http://www.w3.org/2000/svg"
   xmlns="http://www.w3.org/2000/svg"
   xmlns:sodipodi="http://sodipodi.sourceforge.net/DTD/sodipodi-0.dtd"
   xmlns:inkscape="http://www.inkscape.org/namespaces/inkscape"
   width="147.401"
   height="49.684"
   viewBox="0 0 147.401 49.684"
   style="overflow:visible;enable-background:new 0 0 147.401 49.684"
   xml:space="preserve"
   id="svg2"
   version="1.1"
   inkscape:version="0.48.4 r9939"
   sodipodi:docname="sketch-derivative-of-sine.svg"><metadata
     id="metadata103"><rdf:RDF><cc:Work
         rdf:about=""><dc:format>image/svg+xml</dc:format><dc:type
           rdf:resource="http://purl.org/dc/dcmitype/StillImage" /></cc:Work></rdf:RDF></metadata><defs
     id="defs101" /><sodipodi:namedview
     pagecolor="#ffffff"
     bordercolor="#666666"
     borderopacity="1"
     objecttolerance="10"
     gridtolerance="10"
     guidetolerance="10"
     inkscape:pageopacity="0"
     inkscape:pageshadow="2"
     inkscape:window-width="1280"
     inkscape:window-height="996"
     id="namedview99"
     showgrid="false"
     showguides="true"
     inkscape:guide-bbox="true"
     inkscape:zoom="1.8728146"
     inkscape:cx="-47.754703"
     inkscape:cy="-451.74461"
     inkscape:window-x="0"
     inkscape:window-y="0"
     inkscape:window-maximized="1"
     inkscape:current-layer="svg2" /><rect
     style="fill:#dedede;fill-opacity:1;stroke:none;overflow:visible"
     id="rect3032-0"
     width="184.25197"
     height="80.093353"
     x="-106.00883"
     y="498.74072" /><rect
     style="fill:#dedede;fill-opacity:1;stroke:none"
     id="rect3032"
     width="184.25197"
     height="71.550064"
     x="-106.25719"
     y="421.85114" /><path
     inkscape:connector-curvature="0"
     id="path9"
     d="m -90.014957,459.27911 c 7.994825,-13.69934 10.743347,-17.14813 13.231483,-20.20272 2.488136,-3.05568 4.069743,-3.745 5.111287,-4.43541 1.051189,-0.68932 3.539325,-1.67486 5.371674,-1.57684 1.832349,0.098 3.799711,0.4933 5.246303,1.57684 1.436947,1.08354 3.664696,2.75947 5.236658,4.63251 1.571962,1.87196 3.008909,3.44879 5.236658,6.99669 2.227751,3.54789 1.706978,1.97105 7.859811,13.00893"
     style="fill:none;stroke:#000000;stroke-width:0.625;stroke-miterlimit:4;stroke-dasharray:none" /><path
     inkscape:connector-curvature="0"
     id="path11"
     d="m -42.615,459.27265 c 7.994824,13.69827 10.743347,17.14814 13.241127,20.20273 2.488136,3.05459 4.060098,3.745 5.111287,4.43433 1.05119,0.68933 3.539326,1.67593 5.371674,1.57684 1.832348,-0.098 3.799712,-0.4933 5.236658,-1.57684 1.436947,-1.08354 3.6743408,-2.75947 5.2463028,-4.63143 1.5719619,-1.87304 3.0089087,-3.44988 5.2366584,-6.99777 2.22774983,-3.54789 1.7069771,-1.97105 7.8598096,-13.00893"
     style="fill:none;stroke:#000000;stroke-width:0.625;stroke-miterlimit:4;stroke-dasharray:none" /><path
     inkscape:connector-curvature="0"
     id="path15"
     d="m 4.4918002,459.58859 c 7.9948248,-13.69826 10.7433488,-17.14706 13.2411268,-20.20272 2.488135,-3.05567 4.060097,-3.745 5.111286,-4.43541 1.051192,-0.69041 3.539327,-1.67593 5.371674,-1.57684 1.83235,0.098 3.809356,0.4933 5.246302,1.57684 1.436946,1.08355 3.664697,2.75947 5.236658,4.63251 1.571963,1.87196 3.008909,3.4488 5.23666,6.99669 2.227749,3.54789 1.706977,1.97105 7.859809,13.00893"
     style="fill:none;stroke:#000000;stroke-width:0.625;stroke-miterlimit:4;stroke-dasharray:none" /><path
     style="fill:none;stroke:#000000;stroke-width:0.625;stroke-miterlimit:4;stroke-dasharray:none"
     d="m 51.665721,459.34646 c 7.994822,13.69825 10.743345,17.14813 13.241126,20.20272"
     id="path4198"
     inkscape:connector-curvature="0" /><g
     id="g4239"
     transform="matrix(0.87528581,0,0,0.91676907,-13.151644,41.923468)"
     style="stroke-width:0.6818468;stroke-miterlimit:4;stroke-dasharray:none"><path
       inkscape:connector-curvature="0"
       id="path4203"
       d="m -87.912359,426.79155 0,58.62323"
       style="fill:none;stroke:#000000;stroke-width:0.6818468;stroke-linecap:butt;stroke-linejoin:miter;stroke-miterlimit:4;stroke-opacity:1;stroke-dasharray:none" /><path
       inkscape:connector-curvature="0"
       id="path4205"
       d="m -88.120243,455.06375 180.443126,0"
       style="fill:none;stroke:#000000;stroke-width:0.6818468;stroke-linecap:butt;stroke-linejoin:miter;stroke-miterlimit:4;stroke-opacity:1;stroke-dasharray:none" /></g><text
     xml:space="preserve"
     style="font-size:10px;font-style:normal;font-weight:normal;line-height:125%;letter-spacing:0px;word-spacing:0px;fill:#000000;fill-opacity:1;stroke:none;font-family:Sans"
     x="68.295441"
     y="461.4631"
     id="text4262"
     sodipodi:linespacing="125%"><tspan
       sodipodi:role="line"
       id="tspan4264"
       x="68.295441"
       y="461.4631">θ</tspan></text>
<text
     xml:space="preserve"
     style="font-size:10px;font-style:normal;font-weight:normal;line-height:125%;letter-spacing:0px;word-spacing:0px;fill:#000000;fill-opacity:1;stroke:none;font-family:Sans"
     x="-464.4649"
     y="-95.388474"
     id="text4270"
     sodipodi:linespacing="125%"
     transform="matrix(0,-1,1,0,0,0)"><tspan
       sodipodi:role="line"
       id="tspan4272"
       x="-464.4649"
       y="-95.388474">sin θ</tspan></text>
<path
     style="fill:#000000;stroke:none"
     d="m 5.3143795,504.36964 c -0.038627,4.8e-4 -0.070874,0.0278 -0.1145785,0.0287 -0.02979,-7.4e-4 -0.058738,2.4e-4 -0.085934,0 -0.6406333,0.0284 -1.67846,0.12365 -1.8905457,0.20051 -0.1411425,0.049 -0.3744463,0.14242 -0.5156034,0.17187 -0.1411434,0.0392 -0.4278711,0.13099 -0.6588266,0.22915 -0.230972,0.0982 -0.6753625,0.26441 -1.0025621,0.37238 -1.64243446,0.58902 -4.598847,2.50491 -5.843505,3.7811 -0.2823003,0.28468 -0.5596191,0.56147 -0.6301819,0.63018 -0.064168,0.0687 -0.2598845,0.21692 -0.4010249,0.31509 -0.5004306,0.3534 -2.1624364,2.14235 -3.2081988,3.40871 -0.2630486,0.32395 -0.6698509,0.75713 -0.8879836,1.00256 -1.020098,1.14856 -3.013381,4.41758 -4.726364,7.67676 -0.07058,0.12762 -0.250492,0.3962 -0.37238,0.5729 -0.121906,0.18652 -0.412052,0.6115 -0.630182,0.94527 -0.75064,1.09948 -2.578017,4.36717 -2.578017,4.58314 0,0.0574 -0.30339,0.55712 -0.716116,1.20307 -0.03478,0.0544 -0.04946,0.0868 -0.08593,0.14323 -0.227113,0.3921 -0.456904,0.80099 -0.630182,1.05985 -0.275888,0.40249 -0.641657,0.97568 -0.80205,1.26036 -0.160394,0.27487 -0.434715,0.74651 -0.601537,1.03121 -0.160378,0.28469 -0.472322,0.85707 -0.716116,1.28901 -0.237384,0.42211 -0.770241,1.29091 -1.17443,1.91919 -0.410599,0.62827 -0.971651,1.55193 -1.260364,2.06241 -2.232679,3.98562 -2.666465,4.72637 -2.749884,4.72637 -0.03205,0 -0.183344,0.19326 -0.343736,0.45831 -0.307947,0.50065 -0.95177,1.35817 -1.747322,2.32022 -0.641557,0.78534 -0.888335,1.05546 -2.062414,2.26292 -0.923857,0.94241 -1.132762,1.16476 -1.575455,1.51817 -0.08981,0.0687 -0.40517,0.37414 -0.687471,0.65882 -0.282283,0.27487 -0.632262,0.61714 -0.773405,0.74476 -0.288727,0.27487 -1.47623,1.14579 -1.54681,1.14579 -0.02567,0 -0.135897,0.0647 -0.257802,0.14322 -0.121891,0.0786 -0.307778,0.23657 -0.429669,0.31509 -0.121905,0.0786 -0.238553,0.14323 -0.257802,0.14323 -0.04491,0 -0.574072,0.3381 -0.830694,0.54425 -0.102654,0.0785 -0.212903,0.14322 -0.257802,0.14322 -0.05132,0 -0.199614,0.0647 -0.315091,0.14322 -0.256636,0.16689 -0.474934,0.23751 -1.604099,0.63018 -0.474769,0.16689 -0.950785,0.35194 -1.059852,0.40103 -0.102653,0.0491 -0.414581,0.14161 -0.716116,0.20051 -0.301552,0.0589 -0.742945,0.14162 -0.973917,0.20051 -0.230957,0.049 -0.565132,0.11377 -0.744761,0.14323 l -0.02864,0 -0.05729,0 c -0.179647,-0.0294 -0.513806,-0.0941 -0.744761,-0.14323 -0.230972,-0.0589 -0.643721,-0.14161 -0.945273,-0.20051 -0.301533,-0.0589 -0.642103,-0.15143 -0.74476,-0.20051 -0.109066,-0.049 -0.585082,-0.23415 -1.059852,-0.40103 -1.129162,-0.39267 -1.347465,-0.46329 -1.604099,-0.63018 -0.115479,-0.0785 -0.235121,-0.14322 -0.286446,-0.14322 -0.04491,0 -0.183807,-0.0647 -0.286447,-0.14322 -0.256634,-0.20615 -0.785781,-0.54425 -0.830694,-0.54425 -0.01926,0 -0.135896,-0.0647 -0.257802,-0.14323 -0.121888,-0.0785 -0.307763,-0.23655 -0.429669,-0.31509 -0.121908,-0.0786 -0.232137,-0.14322 -0.257802,-0.14322 -0.07058,0 -1.2581,-0.87092 -1.54681,-1.14579 -0.141157,-0.12762 -0.491122,-0.49853 -0.773405,-0.7734 -0.282299,-0.28469 -0.569013,-0.56146 -0.658827,-0.63018 -0.442693,-0.35341 -0.680225,-0.57576 -1.604099,-1.51817 -1.174078,-1.20746 -1.42084,-1.47758 -2.062414,-2.26292 -0.795553,-0.96205 -1.410713,-1.81957 -1.718678,-2.32022 -0.160392,-0.26505 -0.340303,-0.45831 -0.37238,-0.45831 -0.08342,0 -0.48856,-0.74075 -2.72124,-4.72637 -0.288712,-0.51048 -0.8784,-1.43414 -1.289008,-2.06241 -0.404195,-0.62828 -0.908404,-1.49707 -1.145786,-1.91919 -0.243799,-0.43194 -0.584366,-1.00432 -0.74476,-1.28901 -0.16681,-0.28469 -0.44114,-0.75634 -0.601537,-1.03121 -0.160393,-0.28468 -0.497527,-0.85787 -0.773405,-1.26036 -0.122807,-0.18343 -0.29554,-0.44285 -0.458315,-0.71612 -0.02492,-0.0386 -0.03313,-0.0483 -0.05729,-0.0859 -0.07239,-0.12252 -0.159081,-0.25107 -0.229157,-0.37238 l 0,-0.0287 c -0.283319,-0.45332 -0.515603,-0.81379 -0.515603,-0.85933 0,-0.21597 -1.827373,-3.48366 -2.578017,-4.58315 -0.218136,-0.33377 -0.508282,-0.75875 -0.630182,-0.94527 -0.121899,-0.17671 -0.273161,-0.44527 -0.343736,-0.57289 -1.713007,-3.25917 -3.734911,-6.49955 -4.755009,-7.64812 -0.218147,-0.24542 -0.624936,-0.70725 -0.887983,-1.0312 -1.045778,-1.26637 -2.707768,-3.05531 -3.208199,-3.40872 -0.141142,-0.0982 -0.336857,-0.24638 -0.401025,-0.31509 -0.07058,-0.0687 -0.347882,-0.34549 -0.630182,-0.63018 -1.244658,-1.27618 -4.201068,-3.19208 -5.843505,-3.78109 -0.327198,-0.10799 -0.77159,-0.27422 -1.002562,-0.37238 -0.230972,-0.0982 -0.517685,-0.18989 -0.658827,-0.22916 -0.141157,-0.0294 -0.374461,-0.12278 -0.515603,-0.17187 -0.144017,-0.0521 -0.659712,-0.0971 -1.17443,-0.14322 l 0,1.11714 c 0.233327,0.0586 0.648523,0.14256 0.945273,0.20051 0.301535,0.0589 0.642106,0.15143 0.74476,0.20052 0.109066,0.0491 0.585083,0.23414 1.059852,0.40102 1.129164,0.39268 1.318819,0.49195 1.575455,0.65883 0.115477,0.0786 0.263763,0.14322 0.315091,0.14322 0.04491,0 0.155163,0.036 0.257801,0.11458 0.256636,0.20616 0.785779,0.54425 0.830695,0.54425 0.01925,0 0.135895,0.0933 0.257801,0.17187 0.12189,0.0786 0.307764,0.20791 0.42967,0.28644 0.121906,0.0786 0.232138,0.14323 0.257802,0.14323 0.07058,0 1.258098,0.89955 1.54681,1.17443 0.141157,0.12761 0.491121,0.46989 0.773405,0.74476 0.282298,0.28468 0.597656,0.5901 0.687471,0.65882 0.442692,0.35341 0.680227,0.57576 1.604099,1.51817 1.17408,1.20746 1.392196,1.44894 2.033769,2.23428 0.795555,0.96205 1.439361,1.81956 1.747323,2.32021 0.160395,0.26507 0.311662,0.48696 0.343735,0.48696 0.08342,0 0.517205,0.7121 2.749885,4.69772 0.288713,0.51047 0.849755,1.4628 1.260364,2.09106 0.404194,0.62828 0.937048,1.46842 1.17443,1.89055 0.243799,0.43193 0.584365,1.03296 0.74476,1.31765 0.166809,0.28469 0.412496,0.75634 0.572893,1.03121 0.160392,0.28468 0.526171,0.82923 0.80205,1.23172 0.12302,0.18374 0.266594,0.44232 0.429669,0.71611 0.03464,0.0536 0.05278,0.0915 0.08593,0.14322 0.06843,0.11619 0.134677,0.22927 0.200512,0.34374 0.28436,0.45523 0.515604,0.84233 0.515604,0.88798 0,0.21597 1.827373,3.48367 2.578017,4.58315 0.218138,0.33377 0.50828,0.75874 0.630182,0.94527 0.1219,0.1767 0.301805,0.44527 0.37238,0.57289 1.713007,3.25918 3.734911,6.49956 4.755009,7.64812 0.218147,0.24542 0.59629,0.70725 0.859339,1.0312 1.045777,1.26636 2.73641,3.05531 3.236843,3.40872 0.141141,0.0982 0.308213,0.21772 0.372381,0.28644 0.07058,0.0687 0.347881,0.37413 0.630181,0.65883 1.244659,1.27618 4.201068,3.16343 5.843505,3.75245 0.327197,0.10797 0.771591,0.2742 1.002563,0.37238 0.230972,0.0982 0.54633,0.21852 0.687471,0.2578 0.141158,0.0294 0.374461,0.0941 0.515603,0.14322 0.212086,0.0769 1.221251,0.20077 1.861901,0.22916 0.03864,-4.9e-4 0.07087,9.1e-4 0.114579,0 0.02979,7.3e-4 0.08738,0 0.114578,0 0.640634,-0.0284 1.649816,-0.1523 1.861901,-0.22916 0.141141,-0.049 0.345802,-0.11377 0.486959,-0.14322 0.141141,-0.0392 0.456516,-0.15964 0.687471,-0.2578 0.230972,-0.0982 0.675363,-0.26441 1.002563,-0.37238 1.642434,-0.58902 4.598846,-2.47627 5.843505,-3.75245 0.2823,-0.28469 0.559618,-0.59012 0.630181,-0.65883 0.06416,-0.0688 0.23124,-0.18827 0.372381,-0.28644 0.50043,-0.35341 2.19108,-2.14235 3.236843,-3.40872 0.263049,-0.32394 0.669851,-0.78578 0.887984,-1.0312 1.020098,-1.14856 3.042029,-4.38895 4.755009,-7.64812 0.07058,-0.12761 0.221847,-0.39619 0.343735,-0.57289 0.121908,-0.18653 0.412049,-0.6115 0.630182,-0.94527 0.750638,-1.09948 2.578017,-4.36718 2.578017,-4.58315 0,-0.0576 0.301593,-0.58416 0.716116,-1.23172 0.03371,-0.0527 0.05063,-0.0886 0.08593,-0.14322 0.227114,-0.3921 0.456901,-0.801 0.630182,-1.05985 0.275885,-0.40249 0.641655,-0.94703 0.802049,-1.23172 0.160393,-0.27488 0.406072,-0.74651 0.572893,-1.03121 0.160378,-0.28468 0.500964,-0.88571 0.744761,-1.31765 0.237382,-0.42212 0.77024,-1.26227 1.17443,-1.89054 0.410598,-0.62828 0.971651,-1.58058 1.260363,-2.09106 2.23268,-3.98562 2.666466,-4.69772 2.749885,-4.69772 0.03206,0 0.211986,-0.22191 0.37238,-0.48696 0.307945,-0.50065 0.9231224,-1.35817 1.7186781,-2.32022 0.6415564,-0.78534 0.888333,-1.02681 2.0624135,-2.23428 0.9238568,-0.94241 1.1327623,-1.1934 1.5754548,-1.54681 0.089815,-0.0687 0.4051709,-0.34549 0.6874712,-0.63018 0.2822833,-0.27487 0.6322622,-0.61714 0.7734051,-0.74476 0.2887272,-0.27487 1.4762302,-1.17443 1.5468101,-1.17443 0.025664,0 0.135896,-0.0647 0.2578017,-0.14322 0.1218888,-0.0786 0.3077784,-0.20791 0.4296695,-0.28645 0.1219058,-0.0786 0.2385499,-0.17187 0.2578017,-0.17187 0.044916,0 0.5740751,-0.3381 0.83069434,-0.54425 0.10265393,-0.0786 0.21290295,-0.11457 0.25780169,-0.11457 0.0513284,0 0.19961221,-0.0647 0.31509096,-0.14323 0.2566362,-0.16689 0.47493452,-0.26615 1.60409941,-0.65882 0.4747667,-0.16689 0.9221399,-0.35195 1.0312068,-0.40103 0.1026532,-0.0491 0.4432255,-0.14162 0.7447604,-0.20051 0.3015496,-0.0589 0.7429455,-0.14161 0.9739175,-0.20051 0.2309555,-0.049 0.5651316,-0.0852 0.7447605,-0.11458 l 0.028645,-0.0287 0.057289,0.0287 c 0.1796463,0.0294 0.5138058,0.0654 0.7447604,0.11458 0.230972,0.0589 0.6437233,0.14161 0.9452729,0.20051 0.3015349,0.0589 0.6421063,0.15143 0.7447604,0.20051 0.1090659,0.049 0.5850829,0.23414 1.0598514,0.40103 1.129165,0.39267 1.3474626,0.49193 1.6040996,0.65882 0.115478,0.0786 0.235119,0.14323 0.286446,0.14323 0.04491,0 0.18381,0.036 0.286446,0.11457 0.256636,0.20615 0.757134,0.54425 0.80205,0.54425 0.01926,0 0.135896,0.0933 0.257802,0.17187 0.121889,0.0786 0.336408,0.20791 0.458314,0.28645 0.121905,0.0786 0.232137,0.14322 0.257802,0.14322 0.07058,0 1.2581,0.89956 1.54681,1.17443 0.141158,0.12762 0.491122,0.46989 0.773405,0.74476 0.282299,0.28469 0.569012,0.59011 0.658826,0.65883 0.442692,0.3534 0.680228,0.57575 1.6041,1.51816 1.174081,1.20747 1.42084,1.44894 2.062413,2.23428 0.795554,0.96204 1.410716,1.81957 1.718678,2.32022 0.160393,0.26505 0.340304,0.48696 0.372381,0.48696 0.08342,0 0.488557,0.7121 2.72124,4.69772 0.28871,0.51048 0.849755,1.46278 1.260363,2.09106 0.404195,0.62827 0.937048,1.46842 1.17443,1.89054 0.2438,0.43194 0.584367,1.03297 0.744761,1.31765 0.16681,0.28469 0.44114,0.75633 0.601537,1.03121 0.160393,0.28469 0.497527,0.82923 0.773405,1.23172 0.123021,0.18375 0.295239,0.44232 0.458314,0.71612 l 0,0.0287 c 0.03464,0.0536 0.05278,0.0628 0.08593,0.11458 0.06843,0.11618 0.134678,0.22926 0.200513,0.34373 0.28436,0.45523 0.515603,0.84234 0.515603,0.88798 0,0.21598 1.827373,3.48366 2.578017,4.58315 0.218138,0.33377 0.508281,0.75875 0.630182,0.94527 0.121901,0.17671 0.27316,0.44527 0.343735,0.57289 1.71301,3.25917 3.734911,6.49955 4.755009,7.64812 0.218148,0.24542 0.624936,0.70725 0.887984,1.0312 1.045778,1.26637 2.707766,3.05531 3.208199,3.40872 0.14114,0.0982 0.336857,0.21772 0.401025,0.28644 0.07058,0.0688 0.347881,0.37414 0.630182,0.65883 1.244658,1.27618 4.201067,3.16344 5.843505,3.75245 0.327196,0.10798 0.77159,0.27421 1.002562,0.37238 0.230972,0.0982 0.517686,0.21853 0.658826,0.2578 0.141157,0.0294 0.37446,0.0941 0.515604,0.14322 0.212086,0.0768 1.221249,0.20076 1.861901,0.22916 0.03864,-5e-4 0.09951,9.1e-4 0.143223,0 0.02978,7.2e-4 0.05874,0 0.08593,0 0.640634,-0.0284 1.649815,-0.1523 1.861901,-0.22916 0.14114,-0.049 0.374446,-0.11377 0.515603,-0.14322 0.141141,-0.0392 0.456517,-0.13099 0.687472,-0.22916 0.230972,-0.0982 0.675362,-0.29304 1.002562,-0.40102 1.642434,-0.58901 4.598847,-2.47627 5.843505,-3.75245 0.2823,-0.28469 0.559619,-0.59011 0.630182,-0.65883 0.06416,-0.0687 0.231239,-0.18828 0.37238,-0.28644 0.233257,-0.16473 0.727008,-0.6738 1.289008,-1.26037 l 0,-1.40358 c -0.09223,0.095 -0.122478,0.11944 -0.229157,0.22915 -0.923857,0.94242 -1.161407,1.16476 -1.604099,1.51817 -0.08981,0.0687 -0.405171,0.37414 -0.687471,0.65882 -0.282284,0.27487 -0.632262,0.61715 -0.773405,0.74476 -0.288727,0.27488 -1.447586,1.14579 -1.518166,1.14579 -0.02567,0 -0.16454,0.0933 -0.286446,0.17187 -0.121891,0.0786 -0.307778,0.20791 -0.42967,0.28644 -0.121906,0.0786 -0.238552,0.14323 -0.257801,0.14323 -0.04492,0 -0.545428,0.3381 -0.80205,0.54425 -0.102654,0.0786 -0.241548,0.14322 -0.286446,0.14322 -0.05132,0 -0.17097,0.0647 -0.286447,0.14322 -0.256636,0.16688 -0.474934,0.23751 -1.604099,0.63018 -0.474769,0.16688 -0.950785,0.38059 -1.059852,0.42967 -0.102654,0.049 -0.443225,0.11297 -0.74476,0.17187 -0.301552,0.0589 -0.714301,0.14161 -0.945273,0.20051 -0.230958,0.049 -0.565131,0.11378 -0.74476,0.14323 l -0.05729,0 -0.05729,0 c -0.179646,-0.0294 -0.513806,-0.0941 -0.74476,-0.14323 -0.230972,-0.0589 -0.643721,-0.14161 -0.945273,-0.20051 -0.301532,-0.0589 -0.642104,-0.12278 -0.744761,-0.17187 -0.109066,-0.049 -0.585082,-0.26279 -1.059851,-0.42967 -1.129162,-0.39267 -1.318821,-0.4633 -1.575455,-0.63018 -0.115478,-0.0785 -0.263765,-0.14322 -0.315091,-0.14322 -0.04491,0 -0.155162,-0.0647 -0.257801,-0.14322 -0.256634,-0.20616 -0.785781,-0.54425 -0.830695,-0.54425 -0.01926,0 -0.135895,-0.0647 -0.257802,-0.14323 -0.121888,-0.0786 -0.307763,-0.20791 -0.429669,-0.28644 -0.121908,-0.0786 -0.260782,-0.17187 -0.286446,-0.17187 -0.07058,0 -1.229455,-0.87092 -1.518166,-1.14579 -0.141157,-0.12761 -0.491122,-0.46989 -0.773405,-0.74476 -0.282298,-0.28468 -0.597656,-0.59011 -0.687471,-0.65882 -0.442692,-0.35341 -0.680225,-0.57575 -1.6041,-1.51817 -1.174077,-1.20747 -1.392196,-1.47758 -2.033768,-2.26292 -0.795554,-0.96205 -1.439358,-1.81956 -1.747323,-2.32022 -0.160392,-0.26505 -0.311659,-0.45831 -0.343736,-0.45831 -0.08342,0 -0.517204,-0.74075 -2.749884,-4.72637 -0.288713,-0.51047 -0.849755,-1.43414 -1.260364,-2.06241 -0.404194,-0.62828 -0.937048,-1.49707 -1.17443,-1.91919 -0.243799,-0.43193 -0.584366,-1.00432 -0.74476,-1.28901 -0.16681,-0.28469 -0.441142,-0.75634 -0.601538,-1.03121 -0.160392,-0.28468 -0.497526,-0.85788 -0.773405,-1.26036 -0.122806,-0.18344 -0.266894,-0.44286 -0.429669,-0.71612 -0.02491,-0.0386 -0.03313,-0.0483 -0.05729,-0.0859 -0.07239,-0.12252 -0.15908,-0.25106 -0.229157,-0.37238 l 0,-0.0287 c -0.283318,-0.45333 -0.515603,-0.8138 -0.515603,-0.85934 0,-0.21597 -1.827373,-3.48367 -2.578017,-4.58315 -0.218138,-0.33377 -0.536925,-0.75874 -0.658827,-0.94527 -0.121897,-0.17667 -0.273159,-0.44527 -0.343735,-0.57289 -1.713007,-3.25918 -3.734911,-6.49955 -4.755009,-7.64812 -0.218148,-0.24542 -0.596293,-0.70725 -0.859339,-1.0312 -1.045778,-1.26636 -2.736413,-3.05531 -3.236844,-3.40872 -0.141143,-0.0982 -0.308212,-0.24637 -0.37238,-0.31509 -0.07058,-0.0687 -0.347884,-0.34549 -0.630182,-0.63018 -1.244658,-1.27618 -4.201067,-3.19207 -5.8435047,-3.78109 -0.3271987,-0.10798 -0.7715901,-0.27421 -1.0025621,-0.37238 -0.230972,-0.0982 -0.5463288,-0.18989 -0.6874712,-0.22916 -0.141158,-0.0294 -0.37446,-0.12278 -0.5156034,-0.17186 -0.2120857,-0.0768 -1.2212503,-0.17213 -1.8619011,-0.20052 l 0,-0.0287 z"
     id="path8"
     inkscape:connector-curvature="0" /><path
     style="fill:none;stroke:#000000;stroke-width:0.57289267;stroke-linecap:butt;stroke-linejoin:miter;stroke-miterlimit:4;stroke-opacity:1;stroke-dasharray:none"
     d="m -90.110851,504.03889 0,53.73571"
     id="path4203-5"
     inkscape:connector-curvature="0" /><path
     style="fill:none;stroke:#000000;stroke-width:0.55986708;stroke-linecap:butt;stroke-linejoin:miter;stroke-miterlimit:4;stroke-opacity:1;stroke-dasharray:none"
     d="m -90.307917,529.9605 157.939308,0"
     id="path4205-7"
     inkscape:connector-curvature="0" /><text
     xml:space="preserve"
     style="font-size:10px;font-style:normal;font-weight:normal;line-height:125%;letter-spacing:0px;word-spacing:0px;fill:#000000;fill-opacity:1;stroke:none;font-family:Sans"
     x="68.784889"
     y="532.1958"
     id="text4266"
     sodipodi:linespacing="125%"><tspan
       sodipodi:role="line"
       id="tspan4268"
       x="68.784889"
       y="532.1958">θ</tspan></text>
<text
     xml:space="preserve"
     style="font-size:10px;font-style:normal;font-weight:normal;line-height:125%;letter-spacing:0px;word-spacing:0px;fill:#000000;fill-opacity:1;stroke:none;font-family:Sans"
     x="-548.81097"
     y="-95.388474"
     id="text4274"
     sodipodi:linespacing="125%"
     transform="matrix(0,-1,1,0,0,0)"><tspan
       sodipodi:role="line"
       id="tspan4276"
       x="-548.81097"
       y="-95.388474">(sin θ)'</tspan></text>
<path
     style="color:#000000;fill:none;stroke:#000000;stroke-width:1;stroke-linecap:butt;stroke-linejoin:miter;stroke-miterlimit:4;stroke-opacity:1;stroke-dasharray:1.00000004, 1.00000004;stroke-dashoffset:0;marker:none;visibility:visible;display:inline;overflow:visible;enable-background:accumulate"
     d="m -88.636646,425.98928 0,137.22661"
     id="path3838"
     inkscape:connector-curvature="0"
     sodipodi:nodetypes="cc" /><path
     style="color:#000000;fill:none;stroke:#000000;stroke-width:1;stroke-linecap:butt;stroke-linejoin:miter;stroke-miterlimit:4;stroke-opacity:1;stroke-dasharray:1.00000008, 1.00000008;stroke-dashoffset:0;marker:none;visibility:visible;display:inline;overflow:visible;enable-background:accumulate"
     d="m -67.278422,425.98928 0,137.22661"
     id="path3838-0"
     inkscape:connector-curvature="0"
     sodipodi:nodetypes="cc" /><path
     style="color:#000000;fill:none;stroke:#000000;stroke-width:1;stroke-linecap:butt;stroke-linejoin:miter;stroke-miterlimit:4;stroke-opacity:1;stroke-dasharray:1.00000012, 1.00000012;stroke-dashoffset:0;marker:none;visibility:visible;display:inline;overflow:visible;enable-background:accumulate"
     d="m -42.182504,425.98927 0,137.22663"
     id="path3838-0-7"
     inkscape:connector-curvature="0"
     sodipodi:nodetypes="cc" /><text
     xml:space="preserve"
     style="font-size:10px;font-style:normal;font-variant:normal;font-weight:normal;font-stretch:normal;text-indent:0;text-align:start;text-decoration:none;line-height:125%;letter-spacing:0px;word-spacing:0px;text-transform:none;direction:ltr;block-progression:tb;writing-mode:lr-tb;text-anchor:start;baseline-shift:baseline;color:#000000;fill:#000000;fill-opacity:1;fill-rule:nonzero;stroke:none;stroke-width:1.24999988px;marker:none;visibility:visible;display:inline;overflow:visible;enable-background:accumulate;font-family:Liberation Sans;-inkscape-font-specification:Liberation Sans"
     x="-91.840378"
     y="571.3587"
     id="text3894"
     sodipodi:linespacing="125%"><tspan
       sodipodi:role="line"
       id="tspan3896"
       x="-91.840378"
       y="571.3587">0</tspan></text>
<text
     xml:space="preserve"
     style="font-size:10px;font-style:normal;font-variant:normal;font-weight:normal;font-stretch:normal;text-indent:0;text-align:start;text-decoration:none;line-height:125%;letter-spacing:0px;word-spacing:0px;text-transform:none;direction:ltr;block-progression:tb;writing-mode:lr-tb;text-anchor:start;baseline-shift:baseline;color:#000000;fill:#000000;fill-opacity:1;fill-rule:nonzero;stroke:none;stroke-width:1.24999988px;marker:none;visibility:visible;display:inline;overflow:visible;enable-background:accumulate;font-family:Liberation Sans;-inkscape-font-specification:Liberation Sans"
     x="-72.617973"
     y="571.3587"
     id="text3898"
     sodipodi:linespacing="125%"><tspan
       sodipodi:role="line"
       id="tspan3900"
       x="-72.617973"
       y="571.3587">π/2</tspan></text>
<text
     xml:space="preserve"
     style="font-size:10px;font-style:normal;font-variant:normal;font-weight:normal;font-stretch:normal;text-indent:0;text-align:start;text-decoration:none;line-height:125%;letter-spacing:0px;word-spacing:0px;text-transform:none;direction:ltr;block-progression:tb;writing-mode:lr-tb;text-anchor:start;baseline-shift:baseline;color:#000000;fill:#000000;fill-opacity:1;fill-rule:nonzero;stroke:none;stroke-width:1.24999988px;marker:none;visibility:visible;display:inline;overflow:visible;enable-background:accumulate;font-family:Liberation Sans;-inkscape-font-specification:Liberation Sans"
     x="-45.386238"
     y="571.3587"
     id="text3902"
     sodipodi:linespacing="125%"><tspan
       sodipodi:role="line"
       id="tspan3904"
       x="-45.386238"
       y="571.3587">π</tspan></text>
</svg>