<?xml version="1.0" encoding="UTF-8" standalone="no"?>
<!-- Created with Inkscape (http://www.inkscape.org/) -->

<svg
   xmlns:dc="http://purl.org/dc/elements/1.1/"
   xmlns:cc="http://creativecommons.org/ns#"
   xmlns:rdf="http://www.w3.org/1999/02/22-rdf-syntax-ns#"
   xmlns:svg="http://www.w3.org/2000/svg"
   xmlns="http://www.w3.org/2000/svg"
   xmlns:sodipodi="http://sodipodi.sourceforge.net/DTD/sodipodi-0.dtd"
   xmlns:inkscape="http://www.inkscape.org/namespaces/inkscape"
   width="744.09448819"
   height="1052.3622047"
   id="svg2"
   version="1.1"
   inkscape:version="0.48.4 r9939"
   sodipodi:docname="New document 1">
  <defs
     id="defs4" />
  <sodipodi:namedview
     id="base"
     pagecolor="#ffffff"
     bordercolor="#666666"
     borderopacity="1.0"
     inkscape:pageopacity="0.0"
     inkscape:pageshadow="2"
     inkscape:zoom="1.5124303"
     inkscape:cx="219.81663"
     inkscape:cy="862.026"
     inkscape:document-units="px"
     inkscape:current-layer="layer1"
     showgrid="false"
     inkscape:window-width="1280"
     inkscape:window-height="996"
     inkscape:window-x="0"
     inkscape:window-y="0"
     inkscape:window-maximized="1" />
  <metadata
     id="metadata7">
    <rdf:RDF>
      <cc:Work
         rdf:about="">
        <dc:format>image/svg+xml</dc:format>
        <dc:type
           rdf:resource="http://purl.org/dc/dcmitype/StillImage" />
        <dc:title></dc:title>
      </cc:Work>
    </rdf:RDF>
  </metadata>
  <g
     inkscape:label="Layer 1"
     inkscape:groupmode="layer"
     id="layer1">
    <rect
       style="fill:#dedede;fill-opacity:1;stroke:none"
       id="rect4280"
       width="184.25197"
       height="224.92297"
       x="76.697746"
       y="58.478176" />
    <g
       id="g4282"
       transform="translate(-15.868499,12.562562)">
      <path
         sodipodi:nodetypes="csssscc"
         inkscape:connector-curvature="0"
         id="path3836"
         d="m 143.70786,150.09054 c 0,0 2.04684,6.14051 2.30269,7.67564 0.25587,1.53512 4.09368,10.74588 3.83782,13.04858 -0.25585,2.30269 -1.02342,6.65221 -3.83782,7.41977 -2.81439,0.76756 -10.49002,1.53513 -11.7693,1.53513 -1.27927,0 -5.11595,-4.00425 -5.11595,-4.00425 l -1.28041,0.16643"
         style="color:#000000;fill:none;stroke:#000000;stroke-width:0.625;stroke-linecap:butt;stroke-linejoin:miter;stroke-miterlimit:4;stroke-opacity:1;stroke-dasharray:none;stroke-dashoffset:0;marker:none;visibility:visible;display:inline;overflow:visible;enable-background:accumulate" />
      <path
         inkscape:connector-curvature="0"
         id="path3838"
         d="m 135.26467,168.00036 c -2.04683,-0.76757 -3.07025,0 -4.34952,-0.25586 -1.27928,-0.25585 -2.55855,-0.76756 -2.55855,-0.76756"
         style="color:#000000;fill:none;stroke:#000000;stroke-width:0.625;stroke-linecap:butt;stroke-linejoin:miter;stroke-miterlimit:4;stroke-opacity:1;stroke-dasharray:none;stroke-dashoffset:0;marker:none;visibility:visible;display:inline;overflow:visible;enable-background:accumulate" />
      <path
         inkscape:connector-curvature="0"
         id="path3840"
         d="m 136.03223,171.58231 c -0.25585,-2.8144 -0.76756,-4.09366 -1.79098,-6.39635 -1.02341,-2.3027 -1.02341,-0.25586 -2.04683,-4.86124 -1.02342,-4.60538 -2.30269,-10.49003 -2.30269,-10.49003"
         style="color:#000000;fill:none;stroke:#000000;stroke-width:0.625;stroke-linecap:butt;stroke-linejoin:miter;stroke-miterlimit:4;stroke-opacity:1;stroke-dasharray:none;stroke-dashoffset:0;marker:none;visibility:visible;display:inline;overflow:visible;enable-background:accumulate" />
      <path
         sodipodi:nodetypes="cssscc"
         inkscape:connector-curvature="0"
         id="path3842"
         d="m 135.34733,180.19532 c 0,2.04684 -3.66914,5.45786 -4.60539,7.16393 -0.8961,1.63293 -2.89705,4.43556 -3.40876,6.73825 -0.51171,2.30269 -2.8144,5.88466 -3.83781,7.41978 -1.02342,1.53513 -4.60538,4.60538 -4.60538,4.60538 l 0,0"
         style="color:#000000;fill:none;stroke:#000000;stroke-width:0.625;stroke-linecap:butt;stroke-linejoin:miter;stroke-miterlimit:4;stroke-opacity:1;stroke-dasharray:none;stroke-dashoffset:0;marker:none;visibility:visible;display:inline;overflow:visible;enable-background:accumulate" />
      <path
         inkscape:connector-curvature="0"
         id="path3844"
         d="m 124.77464,210.9839 c 3.58196,-5.37295 4.60539,-6.65222 7.41978,-8.69905 2.8144,-2.04684 6.1405,-7.16393 7.16392,-8.18735 1.02341,-1.02342 1.27928,-3.07025 3.07026,-5.11708 1.79098,-2.04684 1.27926,-3.32611 3.3261,-4.60538 2.04684,-1.27928 2.55855,-5.11709 2.55855,-5.11709"
         style="color:#000000;fill:none;stroke:#000000;stroke-width:0.625;stroke-linecap:butt;stroke-linejoin:miter;stroke-miterlimit:4;stroke-opacity:1;stroke-dasharray:none;stroke-dashoffset:0;marker:none;visibility:visible;display:inline;overflow:visible;enable-background:accumulate" />
      <path
         inkscape:connector-curvature="0"
         id="path3846"
         d="m 148.56911,176.18769 c 3.07024,-1.53512 4.34952,-5.37293 4.86122,-6.65221 0.51172,-1.27928 1.79099,-4.60538 2.55855,-8.18734 0.76756,-3.58196 1.53512,-8.18735 1.53512,-8.18735"
         style="color:#000000;fill:none;stroke:#000000;stroke-width:0.625;stroke-linecap:butt;stroke-linejoin:miter;stroke-miterlimit:4;stroke-opacity:1;stroke-dasharray:none;stroke-dashoffset:0;marker:none;visibility:visible;display:inline;overflow:visible;enable-background:accumulate" />
      <path
         sodipodi:nodetypes="cssc"
         inkscape:connector-curvature="0"
         id="path3848"
         d="m 143.96372,150.60225 c -0.9954,-1.29846 -2.33815,-2.37989 -4.9717,-2.43801 -3.09448,-0.0683 -5.21212,-0.0198 -6.5386,0.35152 -1.2319,0.34488 -3.04791,1.37054 -3.04791,1.37054"
         style="color:#000000;fill:none;stroke:#000000;stroke-width:0.625;stroke-linecap:butt;stroke-linejoin:miter;stroke-miterlimit:4;stroke-opacity:1;stroke-dasharray:none;stroke-dashoffset:0;marker:none;visibility:visible;display:inline;overflow:visible;enable-background:accumulate" />
      <path
         inkscape:connector-curvature="0"
         id="path3850"
         d="m 145.49885,152.39323 c 4.34952,-1.02342 5.62879,-1.27927 7.67563,-1.27927 2.04684,0 2.30269,0.25585 3.58196,0.76756 1.27928,0.51171 2.04684,-0.76756 2.04684,-2.30269 0,-1.53512 0.51171,-10.23417 0.51171,-11.00173 0,-0.76757 -0.51171,-6.39637 -0.51171,-6.39637 l -12.53686,0.25586 c 0,0 -7.41978,-0.51171 -10.74589,-1.27927 -3.32611,-0.76757 -6.1405,-1.27928 -6.1405,-1.27928 0,0 -2.30269,4.09367 -2.30269,5.88466 0,1.79098 0.25584,4.86123 0.25584,6.1405 0,1.27928 0.51171,3.58197 0.51171,3.58197 l 0.25586,0"
         style="color:#000000;fill:none;stroke:#000000;stroke-width:0.625;stroke-linecap:butt;stroke-linejoin:miter;stroke-miterlimit:4;stroke-opacity:1;stroke-dasharray:none;stroke-dashoffset:0;marker:none;visibility:visible;display:inline;overflow:visible;enable-background:accumulate" />
      <path
         inkscape:connector-curvature="0"
         id="path3852"
         d="m 142.4286,79.730577 c -4.60538,-0.767562 -7.93149,-0.255854 -9.72247,1.535129 -1.79098,1.790981 -4.86124,6.652212 -4.86124,6.652212"
         style="color:#000000;fill:none;stroke:#000000;stroke-width:0.625;stroke-linecap:butt;stroke-linejoin:miter;stroke-miterlimit:4;stroke-opacity:1;stroke-dasharray:none;stroke-dashoffset:0;marker:none;visibility:visible;display:inline;overflow:visible;enable-background:accumulate" />
      <path
         sodipodi:nodetypes="cssssssccc"
         inkscape:connector-curvature="0"
         id="path3854"
         d="m 128.10075,86.126936 c -2.8144,1.790982 -5.11709,2.302694 -7.67563,4.09367 -2.55855,1.790979 -4.86124,1.02342 -5.11709,4.093675 -0.25586,3.070248 -1.27927,7.163919 1.53512,11.001739 2.8144,3.83781 4.60539,6.14051 6.65222,8.95491 2.04684,2.81439 2.81439,1.27927 3.07025,4.34952 0.25585,3.07026 -0.5117,3.3261 0.51172,5.11709 1.02341,1.79098 3.07121,3.1672 3.07121,3.1672 l 1.22695,0.53354 1.38681,-0.10273"
         style="color:#000000;fill:none;stroke:#000000;stroke-width:0.625;stroke-linecap:butt;stroke-linejoin:miter;stroke-miterlimit:4;stroke-opacity:1;stroke-dasharray:none;stroke-dashoffset:0;marker:none;visibility:visible;display:inline;overflow:visible;enable-background:accumulate" />
      <path
         inkscape:connector-curvature="0"
         id="path3856"
         d="m 128.93701,122.55939 c 1.38682,1.74636 1.48954,2.51681 2.15727,3.13317 0.66773,0.61637 1.97749,1.33545 2.20863,1.25841 0.23114,-0.077 0.79613,-0.64204 0.79613,-0.64204"
         style="color:#000000;fill:none;stroke:#000000;stroke-width:0.625;stroke-linecap:butt;stroke-linejoin:miter;stroke-miterlimit:4;stroke-opacity:1;stroke-dasharray:none;stroke-dashoffset:0;marker:none;visibility:visible;display:inline;overflow:visible;enable-background:accumulate" />
      <path
         inkscape:connector-curvature="0"
         id="path3858"
         d="m 130.99155,121.81462 c 1.07864,2.08022 0.69341,2.05454 1.51522,2.90204 0.82182,0.84749 0.69341,1.10431 1.46386,1.15568 0.77045,0.0513 0.92455,0.30818 1.43818,-0.23114 0.51364,-0.53932 0.565,-0.66773 0.565,-0.66773"
         style="color:#000000;fill:none;stroke:#000000;stroke-width:0.625;stroke-linecap:butt;stroke-linejoin:miter;stroke-miterlimit:4;stroke-opacity:1;stroke-dasharray:none;stroke-dashoffset:0;marker:none;visibility:visible;display:inline;overflow:visible;enable-background:accumulate" />
      <path
         inkscape:connector-curvature="0"
         id="path3860"
         d="m 133.48268,119.88849 c 0.41091,1.36113 0.20546,1.33544 0.6934,2.23431 0.48796,0.89886 0.64205,1.33545 1.00159,1.77204 0.35955,0.43659 0.7191,0.89886 0.7191,0.89886"
         style="color:#000000;fill:none;stroke:#000000;stroke-width:0.625;stroke-linecap:butt;stroke-linejoin:miter;stroke-miterlimit:4;stroke-opacity:1;stroke-dasharray:none;stroke-dashoffset:0;marker:none;visibility:visible;display:inline;overflow:visible;enable-background:accumulate" />
      <path
         inkscape:connector-curvature="0"
         id="path3862"
         d="m 136.30767,124.20302 c 0.61636,0.10273 1.15568,0.71909 0.82182,-0.38523 -0.33387,-1.10431 -0.46227,-1.23272 -0.74477,-2.31135 -0.2825,-1.07864 -0.12841,-0.66773 -1.15568,-2.28568 -1.02727,-1.61795 -1.25841,-1.79772 -1.9775,-2.51682 -0.71908,-0.71907 -2.59386,-2.64521 -2.59386,-2.64521"
         style="color:#000000;fill:none;stroke:#000000;stroke-width:0.625;stroke-linecap:butt;stroke-linejoin:miter;stroke-miterlimit:4;stroke-opacity:1;stroke-dasharray:none;stroke-dashoffset:0;marker:none;visibility:visible;display:inline;overflow:visible;enable-background:accumulate" />
      <path
         inkscape:connector-curvature="0"
         id="path3864"
         d="m 131.06585,114.30181 c -1.88861,-2.54236 -3.05083,-3.77722 -4.06778,-5.15736 -1.01695,-1.38014 -2.25181,-3.05084 -2.54237,-3.70459 -0.29055,-0.65375 -0.36318,-1.88861 -0.50846,-3.19612 -0.14528,-1.3075 -0.3632,-2.905555 -0.43584,-3.196115 -0.0727,-0.290552 0.21792,-0.581104 -0.43584,-1.307496 -0.65375,-0.726391 -2.61499,-1.743335 -2.61499,-1.743335"
         style="color:#000000;fill:none;stroke:#000000;stroke-width:0.625;stroke-linecap:butt;stroke-linejoin:miter;stroke-miterlimit:4;stroke-opacity:1;stroke-dasharray:none;stroke-dashoffset:0;marker:none;visibility:visible;display:inline;overflow:visible;enable-background:accumulate" />
      <path
         inkscape:connector-curvature="0"
         id="path3866"
         d="m 123.43876,97.667486 c 1.23486,-0.799028 1.3075,-1.162216 1.59806,-1.162216 0.29055,0 1.67069,0.435824 1.96125,0.363188 0.29056,-0.0726 2.10653,-0.435832 2.46972,-0.653748 0.3632,-0.217916 2.76028,-1.162223 2.76028,-1.162223 0,0 0.72639,-0.435832 1.45278,-0.944308 0.72639,-0.508475 1.6707,-2.033887 1.6707,-2.033887"
         style="color:#000000;fill:none;stroke:#000000;stroke-width:0.625;stroke-linecap:butt;stroke-linejoin:miter;stroke-miterlimit:4;stroke-opacity:1;stroke-dasharray:none;stroke-dashoffset:0;marker:none;visibility:visible;display:inline;overflow:visible;enable-background:accumulate" />
      <path
         sodipodi:nodetypes="cssc"
         inkscape:connector-curvature="0"
         id="path3868"
         d="m 134.11669,94.834571 c -0.7264,1.815979 -0.65375,2.033887 -0.87167,3.77723 -0.21792,1.743339 -0.21792,2.832919 -0.43584,4.067769 -0.21791,1.23487 -1.06714,11.13621 -1.06714,11.13621"
         style="color:#000000;fill:none;stroke:#000000;stroke-width:0.625;stroke-linecap:butt;stroke-linejoin:miter;stroke-miterlimit:4;stroke-opacity:1;stroke-dasharray:none;stroke-dashoffset:0;marker:none;visibility:visible;display:inline;overflow:visible;enable-background:accumulate" />
      <path
         inkscape:connector-curvature="0"
         id="path3870"
         d="m 142.10697,79.144556 c 1.45278,-0.145278 2.32445,-0.726389 3.41403,-0.581112 1.08959,0.145278 2.76028,-0.145277 3.55931,-0.217916 0.79903,-0.07264 2.10653,-0.508473 2.10653,-0.508473"
         style="color:#000000;fill:none;stroke:#000000;stroke-width:0.625;stroke-linecap:butt;stroke-linejoin:miter;stroke-miterlimit:4;stroke-opacity:1;stroke-dasharray:none;stroke-dashoffset:0;marker:none;visibility:visible;display:inline;overflow:visible;enable-background:accumulate" />
      <path
         inkscape:connector-curvature="0"
         id="path3872"
         d="m 164.14669,108.87102 c -0.82182,3.59544 -2.05454,5.64999 -2.77364,8.62906 -0.71908,2.97909 -0.92454,2.87636 -1.12999,6.26635 -0.20545,3.38999 -1.33545,7.80725 -1.33545,7.80725"
         style="color:#000000;fill:none;stroke:#000000;stroke-width:0.625;stroke-linecap:butt;stroke-linejoin:miter;stroke-miterlimit:4;stroke-opacity:1;stroke-dasharray:none;stroke-dashoffset:0;marker:none;visibility:visible;display:inline;overflow:visible;enable-background:accumulate" />
      <path
         inkscape:connector-curvature="0"
         id="path3874"
         d="m 169.28304,97.160136 c -0.30818,2.465448 -1.74636,5.752714 -2.26,6.779984 -0.51363,1.02727 -2.25999,4.51999 -2.25999,4.51999"
         style="color:#000000;fill:none;stroke:#000000;stroke-width:0.625;stroke-linecap:butt;stroke-linejoin:miter;stroke-miterlimit:4;stroke-opacity:1;stroke-dasharray:none;stroke-dashoffset:0;marker:none;visibility:visible;display:inline;overflow:visible;enable-background:accumulate" />
      <path
         inkscape:connector-curvature="0"
         id="path3876"
         d="m 165.37942,109.48738 c -0.20546,2.77363 -0.20546,3.38998 0.10272,4.93089 0.30818,1.54091 0.10272,2.87636 1.33545,3.8009 1.23272,0.92454 2.05454,1.23273 3.08181,1.13001 1.02727,-0.10274 1.43818,-0.92455 2.56817,-1.8491 1.13001,-0.92454 1.95182,-0.82181 1.95182,-1.43817 0,-0.61637 -0.10273,-2.6709 -0.10273,-2.6709"
         style="color:#000000;fill:none;stroke:#000000;stroke-width:0.625;stroke-linecap:butt;stroke-linejoin:miter;stroke-miterlimit:4;stroke-opacity:1;stroke-dasharray:none;stroke-dashoffset:0;marker:none;visibility:visible;display:inline;overflow:visible;enable-background:accumulate" />
      <path
         inkscape:connector-curvature="0"
         id="path3878"
         d="m 170.64566,103.89819 c 0.49319,-0.69048 1.6522,-0.6165 2.56461,-0.4932 0.91241,0.1233 1.70152,-0.17261 2.49063,0.64116 0.78912,0.81377 1.30697,1.159 1.43027,1.80015 0.1233,0.64116 -0.1233,1.23299 -0.1233,1.23299"
         style="color:#000000;fill:none;stroke:#000000;stroke-width:0.625;stroke-linecap:butt;stroke-linejoin:miter;stroke-miterlimit:4;stroke-opacity:1;stroke-dasharray:none;stroke-dashoffset:0;marker:none;visibility:visible;display:inline;overflow:visible;enable-background:accumulate" />
      <path
         inkscape:connector-curvature="0"
         id="path3880"
         d="m 169.95518,105.42709 c 0.7398,-0.59183 1.20833,-0.59183 1.72619,-0.59183 0.51785,0 0.86309,-0.17262 1.92345,0.24659 1.06038,0.41922 1.65221,0.44388 2.12075,0.98639 0.46853,0.54251 0.64115,0.93707 0.96172,1.4056 0.32058,0.46854 0.4932,0.78913 0.34524,1.3563 -0.14795,0.56717 -0.86309,0.91241 -0.86309,0.91241"
         style="color:#000000;fill:none;stroke:#000000;stroke-width:0.625;stroke-linecap:butt;stroke-linejoin:miter;stroke-miterlimit:4;stroke-opacity:1;stroke-dasharray:none;stroke-dashoffset:0;marker:none;visibility:visible;display:inline;overflow:visible;enable-background:accumulate" />
      <path
         inkscape:connector-curvature="0"
         id="path3882"
         d="m 169.21539,107.91773 c -0.0247,-0.66582 -0.14796,-0.66582 0.29592,-0.88776 0.44387,-0.22193 0.44387,-0.51785 1.80016,-0.22193 1.35628,0.29592 1.25765,0.1233 2.34267,0.59183 1.08503,0.46854 1.67686,0.29592 1.92346,1.08503 0.2466,0.78911 0.3699,1.01105 0.39456,1.47958 0.0247,0.46854 -0.46854,1.50425 -0.46854,1.50425"
         style="color:#000000;fill:none;stroke:#000000;stroke-width:0.625;stroke-linecap:butt;stroke-linejoin:miter;stroke-miterlimit:4;stroke-opacity:1;stroke-dasharray:none;stroke-dashoffset:0;marker:none;visibility:visible;display:inline;overflow:visible;enable-background:accumulate" />
      <path
         inkscape:connector-curvature="0"
         id="path3884"
         d="m 169.46199,109.54527 c -0.19729,-0.59183 -0.27126,-0.86309 0.46854,-0.78912 0.73978,0.074 1.43025,0.2466 2.02209,0.59184 0.59184,0.34523 1.40561,0.76445 1.84948,1.18367 0.44388,0.41921 0.81378,0.49319 0.9864,0.91241 0.17262,0.41922 -0.22195,0.71513 -0.46854,0.88775 -0.2466,0.17262 -0.71514,0.2466 -0.71514,0.2466 l 0,0"
         style="color:#000000;fill:none;stroke:#000000;stroke-width:0.625;stroke-linecap:butt;stroke-linejoin:miter;stroke-miterlimit:4;stroke-opacity:1;stroke-dasharray:none;stroke-dashoffset:0;marker:none;visibility:visible;display:inline;overflow:visible;enable-background:accumulate" />
      <path
         inkscape:connector-curvature="0"
         id="path3886"
         d="m 172.49514,112.08522 c -0.34524,-0.24659 -1.15901,-0.83843 -1.38095,-0.98639 -0.22194,-0.14796 -0.51786,-0.59183 -0.93707,-0.56717 -0.41921,0.0247 -0.98639,-0.27126 -0.71513,0.41921 0.27125,0.69048 0.61648,1.03571 1.15901,1.33163 0.54251,0.29592 1.70152,0.86309 1.97277,0.86309 0.27126,0 0.64116,-0.2466 0.64116,-0.2466"
         style="color:#000000;fill:none;stroke:#000000;stroke-width:0.625;stroke-linecap:butt;stroke-linejoin:miter;stroke-miterlimit:4;stroke-opacity:1;stroke-dasharray:none;stroke-dashoffset:0;marker:none;visibility:visible;display:inline;overflow:visible;enable-background:accumulate" />
      <path
         inkscape:connector-curvature="0"
         id="path3888"
         d="m 166.39515,82.09966 c 0.70466,1.080474 1.12746,0.657677 2.39583,1.221403 1.26838,0.563725 1.17442,-0.04698 2.34885,1.785123 1.17442,1.832106 2.02001,0.46977 2.39583,4.603745 0.37581,4.133978 0.047,5.308403 -0.094,6.905616 -0.14093,1.59722 -0.70465,3.570253 -0.65768,3.993043 0.047,0.4228 0.89257,2.34885 0.89257,2.34885"
         style="color:#000000;fill:none;stroke:#000000;stroke-width:0.625;stroke-linecap:butt;stroke-linejoin:miter;stroke-miterlimit:4;stroke-opacity:1;stroke-dasharray:none;stroke-dashoffset:0;marker:none;visibility:visible;display:inline;overflow:visible;enable-background:accumulate" />
      <path
         inkscape:connector-curvature="0"
         id="path3890"
         d="m 167.09981,62.792118 c 0.70465,1.738149 0.70465,2.207918 1.03349,3.382343 0.32884,1.174425 0.32884,1.456287 0.46977,2.395827 0.14093,0.93954 -0.28186,1.503263 -0.37581,2.066987 -0.094,0.563724 -0.32884,0.657678 -0.14093,1.87908 0.1879,1.221402 -0.4228,2.536757 -0.56372,3.42932 -0.14094,0.892563 -0.61071,1.268379 -0.61071,2.207919 0,0.939539 -0.70465,2.865598 -0.93954,3.476296 -0.23488,0.610699 -0.70465,1.597216 -1.73815,1.785129 -1.03349,0.187907 -2.58374,0.04698 -3.33537,-0.234885 -0.75163,-0.281863 -2.58373,-1.26838 -2.58373,-1.26838"
         style="color:#000000;fill:none;stroke:#000000;stroke-width:0.625;stroke-linecap:butt;stroke-linejoin:miter;stroke-miterlimit:4;stroke-opacity:1;stroke-dasharray:none;stroke-dashoffset:0;marker:none;visibility:visible;display:inline;overflow:visible;enable-background:accumulate" />
      <path
         inkscape:connector-curvature="0"
         id="path3892"
         d="m 164.89189,69.650759 c 0.18791,1.127447 0.75163,2.160941 1.0335,2.865596 0.28186,0.704654 0.75162,0.986516 0.84558,1.456287 0.094,0.469769 -0.75163,0.751631 -1.08047,1.08047 -0.32884,0.328839 -1.31535,0.140931 -1.50326,0 -0.18792,-0.140931 -0.46977,-0.845585 -0.46977,-0.845585"
         style="color:#000000;fill:none;stroke:#000000;stroke-width:0.625;stroke-linecap:butt;stroke-linejoin:miter;stroke-miterlimit:4;stroke-opacity:1;stroke-dasharray:none;stroke-dashoffset:0;marker:none;visibility:visible;display:inline;overflow:visible;enable-background:accumulate" />
      <path
         inkscape:connector-curvature="0"
         id="path3894"
         d="m 166.48911,77.871732 c -0.75163,-0.281862 -1.45629,-0.375817 -2.02002,-0.281862 -0.56371,0.09395 -1.26837,-0.09396 -1.59721,0.234885 -0.32884,0.328839 -1.12745,0.798609 -1.12745,0.798609"
         style="color:#000000;fill:none;stroke:#000000;stroke-width:0.625;stroke-linecap:butt;stroke-linejoin:miter;stroke-miterlimit:4;stroke-opacity:1;stroke-dasharray:none;stroke-dashoffset:0;marker:none;visibility:visible;display:inline;overflow:visible;enable-background:accumulate" />
      <path
         inkscape:connector-curvature="0"
         id="path3896"
         d="m 166.18374,79.222363 c 0,0 -0.70465,-0.375815 -1.40931,-0.281861 -0.70465,0.09395 -2.48978,-0.04698 -2.48978,-0.04698"
         style="color:#000000;fill:none;stroke:#000000;stroke-width:0.625;stroke-linecap:butt;stroke-linejoin:miter;stroke-miterlimit:4;stroke-opacity:1;stroke-dasharray:none;stroke-dashoffset:0;marker:none;visibility:visible;display:inline;overflow:visible;enable-background:accumulate" />
      <path
         inkscape:connector-curvature="0"
         id="path3898"
         d="m 165.6905,80.596397 c -0.89257,0.422795 -1.45629,0.516746 -2.02001,0.187908 -0.56372,-0.328839 -1.26838,-0.939539 -1.26838,-0.939539"
         style="color:#000000;fill:none;stroke:#000000;stroke-width:0.625;stroke-linecap:butt;stroke-linejoin:miter;stroke-miterlimit:4;stroke-opacity:1;stroke-dasharray:none;stroke-dashoffset:0;marker:none;visibility:visible;display:inline;overflow:visible;enable-background:accumulate" />
      <g
         style="fill:none;stroke:#000000;stroke-width:1.1308465;stroke-miterlimit:4;stroke-opacity:1;stroke-dasharray:none"
         transform="matrix(0.55268331,0,0,0.55268331,62.90484,25.491506)"
         id="g3932">
        <path
           style="color:#000000;fill:none;stroke:#000000;stroke-width:1.1308465;stroke-linecap:butt;stroke-linejoin:miter;stroke-miterlimit:4;stroke-opacity:1;stroke-dasharray:none;stroke-dashoffset:0;marker:none;visibility:visible;display:inline;overflow:visible;enable-background:accumulate"
           d="m 181.30078,82.194743 c -2.71993,-0.764982 -3.73991,-1.189972 -4.92988,-0.764982 -1.18997,0.42499 -2.80494,0.934978 -2.80494,0.934978"
           id="path3900"
           inkscape:connector-curvature="0" />
        <path
           style="color:#000000;fill:none;stroke:#000000;stroke-width:1.1308465;stroke-linecap:butt;stroke-linejoin:miter;stroke-miterlimit:4;stroke-opacity:1;stroke-dasharray:none;stroke-dashoffset:0;marker:none;visibility:visible;display:inline;overflow:visible;enable-background:accumulate"
           d="m 179.09084,83.044724 c -1.18998,0.509988 -1.95496,0.42499 -3.31493,0.254994 -1.35997,-0.169996 -2.71993,-0.594987 -2.71993,-0.594987"
           id="path3902"
           inkscape:connector-curvature="0" />
        <path
           style="color:#000000;fill:none;stroke:#000000;stroke-width:1.1308465;stroke-linecap:butt;stroke-linejoin:miter;stroke-miterlimit:4;stroke-opacity:1;stroke-dasharray:none;stroke-dashoffset:0;marker:none;visibility:visible;display:inline;overflow:visible;enable-background:accumulate"
           d="m 176.88089,82.109745 0.59498,0.339992"
           id="path3904"
           inkscape:connector-curvature="0" />
      </g>
      <path
         inkscape:connector-curvature="0"
         id="path3906"
         d="m 163.48258,69.180989 c -1.03349,-0.32884 -1.50327,-0.657678 -2.06699,-0.657678 -0.56372,0 -0.89256,-0.140931 -1.31535,0 -0.42279,0.140931 -1.0335,0.281862 -1.0335,0.281862"
         style="color:#000000;fill:none;stroke:#000000;stroke-width:0.625;stroke-linecap:butt;stroke-linejoin:miter;stroke-miterlimit:4;stroke-opacity:1;stroke-dasharray:none;stroke-dashoffset:0;marker:none;visibility:visible;display:inline;overflow:visible;enable-background:accumulate" />
      <path
         inkscape:connector-curvature="0"
         id="path3908"
         d="m 165.64352,68.946104 c 0.93954,-0.375816 0.56373,-0.516747 1.26838,-0.516747 0.70465,0 1.50326,0.04698 1.50326,0.04698"
         style="color:#000000;fill:none;stroke:#000000;stroke-width:0.625;stroke-linecap:butt;stroke-linejoin:miter;stroke-miterlimit:4;stroke-opacity:1;stroke-dasharray:none;stroke-dashoffset:0;marker:none;visibility:visible;display:inline;overflow:visible;enable-background:accumulate" />
      <path
         inkscape:connector-curvature="0"
         id="path3910"
         d="m 165.78445,70.402391 c 0.65768,-0.140932 0.047,-0.375817 0.89256,-0.32884 0.8456,0.04698 1.40932,0.140932 1.40932,0.140932"
         style="color:#000000;fill:none;stroke:#000000;stroke-width:0.625;stroke-linecap:butt;stroke-linejoin:miter;stroke-miterlimit:4;stroke-opacity:1;stroke-dasharray:none;stroke-dashoffset:0;marker:none;visibility:visible;display:inline;overflow:visible;enable-background:accumulate" />
      <path
         inkscape:connector-curvature="0"
         id="path3912"
         d="m 166.95888,70.637275 0.047,0.234885"
         style="color:#000000;fill:none;stroke:#000000;stroke-width:0.625;stroke-linecap:butt;stroke-linejoin:miter;stroke-miterlimit:4;stroke-opacity:1;stroke-dasharray:none;stroke-dashoffset:0;marker:none;visibility:visible;display:inline;overflow:visible;enable-background:accumulate" />
      <path
         inkscape:connector-curvature="0"
         id="path3914"
         d="m 166.77097,62.510257 c -2.16094,0.09395 -4.22793,0.281861 -5.21444,0.281861 -0.98652,0 -2.20793,0 -3.33537,0.140931 -1.12745,0.140931 -1.45629,-1.503264 -1.55024,0.234885 -0.094,1.738149 -0.70466,2.677689 -0.6107,3.664205 0.094,0.986517 -0.56373,1.550241 -1.50327,2.02001 -0.93954,0.46977 -1.97304,1.127449 -1.97304,1.127449"
         style="color:#000000;fill:none;stroke:#000000;stroke-width:0.625;stroke-linecap:butt;stroke-linejoin:miter;stroke-miterlimit:4;stroke-opacity:1;stroke-dasharray:none;stroke-dashoffset:0;marker:none;visibility:visible;display:inline;overflow:visible;enable-background:accumulate" />
      <path
         sodipodi:nodetypes="cssssssssc"
         inkscape:connector-curvature="0"
         id="path3916"
         d="m 167.05284,61.664671 c -0.89257,-1.315356 -2.58375,-2.254896 -3.24142,-2.724666 -0.65768,-0.46977 -2.11397,-1.221401 -4.22793,-1.315355 -2.11396,-0.09395 -4.36886,0.187908 -4.65072,0.281862 -0.28186,0.09395 -1.17442,0.04698 -1.92605,0.892562 -1.15857,1.303371 -1.12745,1.879079 -1.55025,2.301873 -0.42279,0.422792 -0.65768,0.798609 -0.75163,2.113964 -0.0939,1.315356 -0.75163,1.456287 -0.6107,2.48978 0.14092,1.033494 -0.46977,1.221402 -0.23488,2.020011 0.23488,0.798609 1.97303,1.973034 1.97303,1.973034"
         style="color:#000000;fill:none;stroke:#000000;stroke-width:0.625;stroke-linecap:butt;stroke-linejoin:miter;stroke-miterlimit:4;stroke-opacity:1;stroke-dasharray:none;stroke-dashoffset:0;marker:none;visibility:visible;display:inline;overflow:visible;enable-background:accumulate" />
      <path
         inkscape:connector-curvature="0"
         id="path3918"
         d="m 151.83229,70.449368 c -1.59723,-0.892564 -1.40931,-1.785126 -2.06699,-0.751632 -0.65768,1.033493 -1.31536,0.845585 -0.56372,2.254895 0.75163,1.40931 0.37581,1.174425 1.31535,2.207918 0.93954,1.033494 1.36234,1.362333 1.36234,1.362333"
         style="color:#000000;fill:none;stroke:#000000;stroke-width:0.625;stroke-linecap:butt;stroke-linejoin:miter;stroke-miterlimit:4;stroke-opacity:1;stroke-dasharray:none;stroke-dashoffset:0;marker:none;visibility:visible;display:inline;overflow:visible;enable-background:accumulate" />
      <path
         inkscape:connector-curvature="0"
         id="path3920"
         d="m 152.06717,76.697307 c -0.094,1.691172 -0.51675,1.033494 -0.51675,2.066987 0,1.033495 0,1.315357 0,1.315357"
         style="color:#000000;fill:none;stroke:#000000;stroke-width:0.625;stroke-linecap:butt;stroke-linejoin:miter;stroke-miterlimit:4;stroke-opacity:1;stroke-dasharray:none;stroke-dashoffset:0;marker:none;visibility:visible;display:inline;overflow:visible;enable-background:accumulate" />
      <path
         sodipodi:nodetypes="cssssssssssc"
         inkscape:connector-curvature="0"
         id="path3922"
         d="m 128.74675,166.11864 c -1.10381,-1.44345 -0.25473,-1.35854 -2.46234,-2.37744 -2.20762,-1.0189 -2.46235,-0.93398 -3.31143,-0.67926 -1.84023,0.55207 -1.44344,1.69816 -2.29252,3.22651 -0.74339,1.33808 -0.76418,3.39633 -1.0189,5.0096 -0.25473,1.61326 -1.52836,6.87757 -1.52836,9.76446 0,2.87311 0.0408,4.63216 1.27363,6.79267 1.4656,2.56846 2.37744,3.99069 3.82088,3.90578 1.4583,-0.0858 2.80197,-1.95289 3.0567,-3.14162 0.25472,-1.18871 0.42454,-1.01889 0.76417,-3.65105 0.33963,-2.63216 0.16982,-3.56616 0.59436,-5.00959 0.42454,-1.44345 0.59435,-2.37744 0.59435,-2.37744"
         style="color:#000000;fill:none;stroke:#000000;stroke-width:0.625;stroke-linecap:butt;stroke-linejoin:miter;stroke-miterlimit:4;stroke-opacity:1;stroke-dasharray:none;stroke-dashoffset:0;marker:none;visibility:visible;display:inline;overflow:visible;enable-background:accumulate" />
      <path
         sodipodi:nodetypes="csssssssssssc"
         inkscape:connector-curvature="0"
         id="path3924"
         d="m 117.79357,206.28028 c -1.35853,1.9529 -2.63216,2.12272 -3.39633,4.33033 -0.80594,2.32826 -0.82666,2.62182 -0.16982,4.07561 1.03297,2.28625 1.90059,2.43456 4.83977,4.41522 1.85896,1.25271 1.18871,0.59436 1.95289,2.12272 0.76419,1.52834 1.1661,2.06529 2.63217,2.46234 1.66722,0.45152 2.71593,0.26439 4.83977,0.50945 2.20761,0.25472 3.31142,0.50944 4.0756,-0.67927 0.76418,-1.18872 1.10381,-0.84908 -0.42454,-2.71706 -1.52834,-1.86799 -1.27363,-0.934 -2.71707,-1.52836 -1.44344,-0.59436 -1.69816,0.50945 -2.97179,-1.61326 -1.27362,-2.12271 -2.54725,-2.54724 -2.54725,-4.07559 0,-1.52836 0.33964,-1.78308 0.33964,-1.78308"
         style="color:#000000;fill:none;stroke:#000000;stroke-width:0.625;stroke-linecap:butt;stroke-linejoin:miter;stroke-miterlimit:4;stroke-opacity:1;stroke-dasharray:none;stroke-dashoffset:0;marker:none;visibility:visible;display:inline;overflow:visible;enable-background:accumulate" />
      <path
         inkscape:connector-curvature="0"
         id="path3926"
         d="m 134.54822,100.17264 c 3.35497,0.17657 5.29732,0.17657 6.35678,-2.825238 1.05946,-3.001808 1.5892,-3.531541 1.41261,-7.769394 -0.17657,-4.237855 -0.7063,-9.535173 -0.7063,-9.535173"
         style="color:#000000;fill:none;stroke:#000000;stroke-width:0.625;stroke-linecap:butt;stroke-linejoin:miter;stroke-miterlimit:4;stroke-opacity:1;stroke-dasharray:none;stroke-dashoffset:0;marker:none;visibility:visible;display:inline;overflow:visible;enable-background:accumulate" />
      <path
         sodipodi:nodetypes="csssc"
         inkscape:connector-curvature="0"
         id="path3928"
         d="m 146.90862,78.983372 c 0.88289,5.827051 0.52974,12.3604 3.8847,15.009067 3.35497,2.648659 3.17839,3.178385 6.1802,3.354963 3.51221,0.206601 4.76759,-1.412622 5.29732,-4.061275 0.96963,-4.848151 0.35315,-6.709937 0.35315,-6.709937"
         style="color:#000000;fill:none;stroke:#000000;stroke-width:0.625;stroke-linecap:butt;stroke-linejoin:miter;stroke-miterlimit:4;stroke-opacity:1;stroke-dasharray:none;stroke-dashoffset:0;marker:none;visibility:visible;display:inline;overflow:visible;enable-background:accumulate" />
      <path
         inkscape:connector-curvature="0"
         id="path3930"
         d="m 167.03843,84.280687 c 0.52973,3.001816 -0.35316,10.947789 -0.17658,12.536982 0.17658,1.5892 0.17658,5.827041 0.17658,5.827041"
         style="color:#000000;fill:none;stroke:#000000;stroke-width:0.625;stroke-linecap:butt;stroke-linejoin:miter;stroke-miterlimit:4;stroke-opacity:1;stroke-dasharray:none;stroke-dashoffset:0;marker:none;visibility:visible;display:inline;overflow:visible;enable-background:accumulate" />
      <path
         sodipodi:nodetypes="cc"
         inkscape:connector-curvature="0"
         id="path3937"
         d="m 165.96677,71.144216 c 0.48141,0.469926 1.63218,0.006 1.63218,0.006"
         style="color:#000000;fill:none;stroke:#000000;stroke-width:0.625;stroke-linecap:butt;stroke-linejoin:miter;stroke-miterlimit:4;stroke-opacity:1;stroke-dasharray:none;stroke-dashoffset:0;marker:none;visibility:visible;display:inline;overflow:visible;enable-background:accumulate" />
    </g>
    <path
       style="color:#000000;fill:none;stroke:#000000;stroke-width:0.625;stroke-linecap:butt;stroke-linejoin:miter;stroke-miterlimit:4;stroke-opacity:1;stroke-dasharray:none;stroke-dashoffset:0;marker:none;visibility:visible;display:inline;overflow:visible;enable-background:accumulate"
       d="m 168.38699,128.81564 0,131.49549 84.12884,0"
       id="path3939"
       inkscape:connector-curvature="0" />
    <path
       style="color:#000000;fill:none;stroke:#000000;stroke-width:1.25;stroke-linecap:butt;stroke-linejoin:miter;stroke-miterlimit:4;stroke-opacity:1;stroke-dasharray:none;stroke-dashoffset:0;marker:none;visibility:visible;display:inline;overflow:visible;enable-background:accumulate"
       d="m 168.37848,135.27427 c 44.1816,0 78.54507,124.36302 78.54507,124.36302"
       id="path4268"
       inkscape:connector-curvature="0"
       sodipodi:nodetypes="cc" />
    <text
       xml:space="preserve"
       style="font-size:10px;font-style:italic;font-variant:normal;font-weight:normal;font-stretch:normal;text-indent:0;text-align:start;text-decoration:none;line-height:125%;letter-spacing:0px;word-spacing:0px;text-transform:none;direction:ltr;block-progression:tb;writing-mode:lr-tb;text-anchor:start;baseline-shift:baseline;color:#000000;fill:#000000;fill-opacity:1;fill-rule:nonzero;stroke:none;stroke-width:1.24999988px;marker:none;visibility:visible;display:inline;overflow:visible;enable-background:accumulate;font-family:Liberation Sans;-inkscape-font-specification:Liberation Sans Italic"
       x="237.36629"
       y="270.83856"
       id="text4270"
       sodipodi:linespacing="125%"><tspan
         sodipodi:role="line"
         id="tspan4272"
         x="237.36629"
         y="270.83856">t</tspan></text>
    <text
       xml:space="preserve"
       style="font-size:10px;font-style:normal;font-variant:normal;font-weight:normal;font-stretch:normal;text-indent:0;text-align:start;text-decoration:none;line-height:125%;letter-spacing:0px;word-spacing:0px;text-transform:none;direction:ltr;block-progression:tb;writing-mode:lr-tb;text-anchor:start;baseline-shift:baseline;color:#000000;fill:#000000;fill-opacity:1;fill-rule:nonzero;stroke:none;stroke-width:1.24999988px;marker:none;visibility:visible;display:inline;overflow:visible;enable-background:accumulate;font-family:Liberation Sans;-inkscape-font-specification:Liberation Sans"
       x="-229.78966"
       y="161.29054"
       id="text4274"
       sodipodi:linespacing="125%"
       transform="matrix(0,-1,1,0,0,0)"><tspan
         sodipodi:role="line"
         id="tspan4276"
         x="-229.78966"
         y="161.29054">vertical force, <tspan
   style="font-style:italic;-inkscape-font-specification:Liberation Sans Italic"
   id="tspan4278">F</tspan></tspan></text>
  </g>
</svg>
