<?xml version="1.0" encoding="UTF-8" standalone="no"?>
<svg
   xmlns:dc="http://purl.org/dc/elements/1.1/"
   xmlns:cc="http://creativecommons.org/ns#"
   xmlns:rdf="http://www.w3.org/1999/02/22-rdf-syntax-ns#"
   xmlns:svg="http://www.w3.org/2000/svg"
   xmlns="http://www.w3.org/2000/svg"
   xmlns:xlink="http://www.w3.org/1999/xlink"
   xmlns:sodipodi="http://sodipodi.sourceforge.net/DTD/sodipodi-0.dtd"
   xmlns:inkscape="http://www.inkscape.org/namespaces/inkscape"
   width="600"
   height="480"
   viewBox="0 0 600 480"
   id="svg2"
   version="1.1"
   sodipodi:docname="sin-squared-integral-raw.svg">
  <metadata
     id="metadata114">
    <rdf:RDF>
      <cc:Work
         rdf:about="">
        <dc:format>image/svg+xml</dc:format>
        <dc:type
           rdf:resource="http://purl.org/dc/dcmitype/StillImage" />
        <dc:title>Gnuplot</dc:title>
      </cc:Work>
    </rdf:RDF>
  </metadata>
  <defs
     id="defs112">
    <defs
       id="defs11">
      <circle
         stroke-width="0.5"
         r="0.5"
         id="gpDot" />
      <path
         d="M-1,0 h2 M0,-1 v2"
         stroke="currentColor"
         stroke-width="0.222"
         id="gpPt0" />
      <path
         d="M-1,-1 L1,1 M1,-1 L-1,1"
         stroke="currentColor"
         stroke-width="0.222"
         id="gpPt1" />
      <path
         d="M-1,0 L1,0 M0,-1 L0,1 M-1,-1 L1,1 M-1,1 L1,-1"
         stroke="currentColor"
         stroke-width="0.222"
         id="gpPt2" />
      <rect
         height="2"
         width="2"
         y="-1"
         x="-1"
         stroke="currentColor"
         stroke-width="0.222"
         id="gpPt3" />
      <rect
         height="2"
         width="2"
         y="-1"
         x="-1"
         fill="currentColor"
         stroke="currentColor"
         stroke-width="0.222"
         id="gpPt4" />
      <circle
         r="1"
         cy="0"
         cx="0"
         stroke="currentColor"
         stroke-width="0.222"
         id="gpPt5" />
      <use
         stroke="none"
         fill="currentColor"
         id="gpPt6"
         xlink:href="#gpPt5" />
      <path
         d="M0,-1.33 L-1.33,0.67 L1.33,0.67 z"
         stroke="currentColor"
         stroke-width="0.222"
         id="gpPt7" />
      <use
         stroke="none"
         fill="currentColor"
         id="gpPt8"
         xlink:href="#gpPt7" />
      <use
         transform="rotate(180)"
         stroke="currentColor"
         id="gpPt9"
         xlink:href="#gpPt7" />
      <use
         stroke="none"
         fill="currentColor"
         id="gpPt10"
         xlink:href="#gpPt9" />
      <use
         transform="rotate(45)"
         stroke="currentColor"
         id="gpPt11"
         xlink:href="#gpPt3" />
      <use
         stroke="none"
         fill="currentColor"
         id="gpPt12"
         xlink:href="#gpPt11" />
    </defs>
  </defs>
  <sodipodi:namedview
     pagecolor="#ffffff"
     bordercolor="#666666"
     borderopacity="1"
     objecttolerance="10"
     gridtolerance="10"
     guidetolerance="10"
     inkscape:pageopacity="0"
     inkscape:pageshadow="2"
     inkscape:window-width="1280"
     inkscape:window-height="996"
     id="namedview110"
     showgrid="false"
     inkscape:zoom="3.0333398"
     inkscape:cx="-294.92225"
     inkscape:cy="86.933472"
     inkscape:window-x="0"
     inkscape:window-y="0"
     inkscape:window-maximized="1"
     inkscape:current-layer="svg2" />
  <title
     id="title4">Gnuplot</title>
  <desc
     id="desc6">Produced by GNUPLOT 4.6 patchlevel 1 </desc>
  <rect
     style="fill:#dedede;fill-opacity:1;stroke:none"
     id="rect3920"
     width="113.73602"
     height="114.72503"
     x="-325.71359"
     y="304.94543" />
  <g
     style="color:#000000;fill:#5d5d5d;stroke:currentColor;stroke-width:1.50000000000000000;stroke-linecap:butt;stroke-linejoin:miter;fill-opacity:1"
     id="g102"
     transform="translate(-379.63608,-6.380438)">
    <path
       d="m 54.1,426 0.4,-0.1 0.4,-0.1 0.3,-0.3 0.4,-0.3 0.4,-0.5 0.4,-0.5 0.4,-0.6 0.4,-0.8 0.3,-0.8 0.4,-1 0.4,-1 0.4,-1.1 0.4,-1.2 0.3,-1.3 0.4,-1.4 0.4,-1.4 0.4,-1.5 0.4,-1.6 0.4,-1.7 0.3,-1.8 0.4,-1.8 0.4,-1.9 0.4,-1.9 0.4,-2 0.3,-2.1 0.4,-2.1 0.4,-2.1 0.4,-2.2 0.4,-2.2 0.3,-2.3 0.4,-2.3 0.4,-2.3 0.4,-2.4 0.4,-2.3 0.4,-2.4 0.3,-2.4 0.4,-2.4 0.4,-2.4 0.4,-2.4 0.4,-2.4 0.3,-2.3 0.4,-2.4 0.4,-2.3 0.4,-2.3 0.4,-2.3 0.4,-2.3 0.3,-2.2 0.4,-2.2 0.4,-2.1 0.4,-2.1 0.4,-2.1 0.3,-2 0.4,-1.9 0.4,-1.8 0.4,-1.8 0.4,-1.8 0.4,-1.6 0.3,-1.6 0.4,-1.5 0.4,-1.5 0.4,-1.3 0.4,-1.3 0.3,-1.2 0.4,-1.1 0.4,-1 0.4,-0.9 0.4,-0.8 0.3,-0.7 0.4,-0.6 0.4,-0.6 0.4,-0.4 0.4,-0.3 0.4,-0.2 0.3,-0.2 0.4,0 0.4,0.1 0.4,0.2 0.4,0.2 0.3,0.4 0.4,0.5 0.4,0.5 0.4,0.7 0.4,0.8 0.4,0.8 0.3,1 0.4,1 0.4,1.2 0.4,1.2 0.4,1.3 0.3,1.4 0.4,1.5 0.4,1.5 0.4,1.6 0.4,1.7 0.4,1.8 0.3,1.8 0.4,1.9 0.4,2 0.4,2 0.4,2.1 0.3,2.1 0.4,2.1 0.4,2.2 0.4,2.3 0.4,2.2 0.4,2.3 0.3,2.4 0.4,2.3 0.4,2.4 0.4,2.4 0.4,2.4 0.3,2.3 0.4,2.4 0.4,2.4 0.4,2.4 0.4,2.4 0.3,2.3 0.4,2.4 0.4,2.3 0.4,2.3 0.4,2.2 0.4,2.2 0.3,2.2 0.4,2.1 0.4,2.1 0.4,2 0.4,2 0.3,1.9 0.4,1.9 0.4,1.8 0.4,1.7 0.4,1.6 0.4,1.6 0.3,1.5 0.4,1.4 0.4,1.3 0.4,1.3 0.4,1.1 0.3,1.1 0.4,1 0.4,0.9 0.4,0.8 0.4,0.7 0.4,0.6 0.3,0.5 0.4,0.4 0.4,0.3 0.4,0.2 0.4,0.1 0.3,0 0.4,-0.1 0.4,-0.2 0.4,-0.3 0.4,-0.4 0.3,-0.5 0.4,-0.6 0.4,-0.7 0.4,-0.8 0.4,-0.9 0.4,-0.9 0.3,-1.1 0.4,-1.1 0.4,-1.3 0.4,-1.3 0.4,-1.4 0.3,-1.5 0.4,-1.6 0.4,-1.6 0.4,-1.7 0.4,-1.8 0.4,-1.9 0.3,-1.9 0.4,-1.9 0.4,-2.1 0.4,-2 0.4,-2.2 0.3,-2.1 0.4,-2.3 0.4,-2.2 0.4,-2.3 0.4,-2.3 0.4,-2.3 0.3,-2.4 0.4,-2.3 0.4,-2.4 0.4,-2.4 0.4,-2.4 0.3,-2.4 0.4,-2.4 0.4,-2.4 0.4,-2.3 0.4,-2.4 0.3,-2.3 0.4,-2.3 0.4,-2.3 0.4,-2.2 0.4,-2.2 0.4,-2.2 0.3,-2.1 0.4,-2.1 0.4,-2 0.4,-2 0.4,-1.9 0.3,-1.8 0.4,-1.8 0.4,-1.7 0.4,-1.6 0.4,-1.6 0.4,-1.4 0.3,-1.4 0.4,-1.3 0.4,-1.3 0.4,-1.1 0.4,-1.1 0.3,-0.9 0.4,-0.9 0.4,-0.7 0.4,-0.7 0.4,-0.6 0.4,-0.5 0.3,-0.4 0.4,-0.2 0.4,-0.2 0.4,-0.1 0.4,0 0.3,0.1 0.4,0.3 0.4,0.3 0.4,0.4 0.4,0.5 0.4,0.6 0.3,0.8 0.4,0.8 0.4,0.9 0.4,1 0.4,1.1 0.3,1.1 0.4,1.3 0.4,1.3 0.4,1.5 0.4,1.5 0.3,1.6 0.4,1.6 0.4,1.8 0.4,1.8 0.4,1.8 0.4,1.9 0.3,2 0.4,2.1 0.4,2 0.4,2.2 0.4,2.2 0.3,2.2 0.4,2.2 0.4,2.3 0.4,2.3 0.4,2.4 0.4,2.3 0.3,2.4 0.4,2.4 0.4,2.4 0.4,2.4 0.4,2.4 0.3,2.4 0.4,2.3 0.4,2.4 0.4,2.3 0.4,2.4 0.4,2.3 0.3,2.2 0.4,2.3 0.4,2.2 0.4,2.1 0.4,2.1 0.3,2.1 0.4,2 0.4,1.9 0.4,1.9 0.4,1.8 0.3,1.8 0.4,1.7 0.4,1.6 0.4,1.5 0.4,1.5 0.4,1.3 0.3,1.3 0.4,1.2 0.4,1.2 0.4,1 0.4,0.9 0.3,0.9 0.4,0.7 0.4,0.7 0.4,0.5 0.4,0.5 0.4,0.3 0.3,0.3 0.4,0.1 0.4,0.1 h 0.01"
       id="path104"
       inkscape:connector-curvature="0"
       style="fill:#5d5d5d;fill-opacity:1" />
  </g>
  <g
     id="g27"
     style="color:#ffffff;fill:none;stroke:currentColor;stroke-width:1;stroke-linecap:butt;stroke-linejoin:miter" />
  <g
     id="g29"
     style="color:#ffffff;fill:none;stroke:currentColor;stroke-width:0.5;stroke-linecap:butt;stroke-linejoin:miter" />
  <path
     style="color:#000000;fill:none;stroke:currentColor;stroke-width:0.5;stroke-linecap:butt;stroke-linejoin:miter"
     d="m -325.53608,305.61956 -9,0 m 9,0 9,0 h 0.01"
     id="path33"
     inkscape:connector-curvature="0" />
  <path
     style="color:#000000;fill:none;stroke:currentColor;stroke-width:0.5;stroke-linecap:butt;stroke-linejoin:miter"
     d="m -325.53608,419.61956 114.1,0 m -114.1,0 0,-114 h 0.01"
     id="path75"
     inkscape:connector-curvature="0" />
  <g
     transform="translate(-205.73608,424.11956)"
     style="font-size:15px;text-anchor:start;color:#000000;fill:#000000;stroke:none;font-family:Arial"
     id="g77">
    <text
       id="text79">
      <tspan
         id="tspan3928"
         style="font-size:10px">θ</tspan>
    </text>
  </g>
  <g
     transform="translate(-325.53608,293.01956)"
     style="font-size:15px;text-anchor:start;color:#000000;fill:#000000;stroke:none;font-family:Arial"
     id="g81">
    <text
       id="text83">
      <tspan
         id="tspan3924"
         style="font-size:10px">sin</tspan>
      <tspan
         id="tspan3922"
         style="font-size:9px;baseline-shift:super">2</tspan>
      <tspan
         id="tspan3926"
         style="font-size:10px">θ</tspan>
    </text>
  </g>
  <g
     style="color:#000000;fill:none;stroke:none"
     id="g85"
     transform="translate(-379.63608,-6.3804383)">
    <polygon
       points="162.2,426 162.2,422.6 171.6,426 162.2,429.4 162.2,426 "
       id="polygon87"
       style="fill:currentColor" />
  </g>
  <path
     style="color:#000000;fill:none;stroke:currentColor;stroke-width:0.5;stroke-linecap:butt;stroke-linejoin:miter"
     d="m -217.43608,419.61956 0,-3.4 9.4,3.4 -9.4,3.4 0,-3.4 m -108.1,0 108.1,0 h 0.01"
     id="path89"
     inkscape:connector-curvature="0" />
  <g
     style="color:#000000;fill:none;stroke:none"
     id="g91"
     transform="translate(-379.63608,-6.3804383)">
    <polygon
       points="54.1,310 50.7,310 54.1,300.6 57.5,310 54.1,310 "
       id="polygon93"
       style="fill:currentColor" />
  </g>
  <path
     style="color:#000000;fill:none;stroke:currentColor;stroke-width:0.5;stroke-linecap:butt;stroke-linejoin:miter"
     d="m -325.53608,303.61956 -3.4,0 3.4,-9.4 3.4,9.4 -3.4,0 m 0,116 0,-116 h 0.01"
     id="path95"
     inkscape:connector-curvature="0" />
  <g
     style="color:#ffffff;fill:none;stroke:currentColor;stroke-width:1.5;stroke-linecap:butt;stroke-linejoin:miter"
     id="g100"
     transform="translate(-379.63608,-6.3804383)" />
  <g
     id="g106"
     style="color:#ffffff;fill:none;stroke:currentColor;stroke-width:0.5;stroke-linecap:butt;stroke-linejoin:miter" />
  <g
     id="g108"
     style="color:#000000;fill:none;stroke:currentColor;stroke-width:0.5;stroke-linecap:butt;stroke-linejoin:miter" />
  <text
     xml:space="preserve"
     style="font-size:10px;font-style:normal;font-variant:normal;font-weight:normal;font-stretch:normal;text-indent:0;text-align:start;text-decoration:none;line-height:125%;letter-spacing:0px;word-spacing:0px;text-transform:none;direction:ltr;block-progression:tb;writing-mode:lr-tb;text-anchor:start;baseline-shift:baseline;color:#000000;fill:#000000;fill-opacity:1;fill-rule:nonzero;stroke:none;stroke-width:1.24999988px;marker:none;visibility:visible;display:inline;overflow:visible;enable-background:accumulate;font-family:Liberation Sans;-inkscape-font-specification:Liberation Sans"
     x="-343.18607"
     y="306.92343"
     id="text3966"
     sodipodi:linespacing="125%"><tspan
       sodipodi:role="line"
       id="tspan3968"
       x="-343.18607"
       y="306.92343">1</tspan></text>
  <text
     xml:space="preserve"
     style="font-size:10px;font-style:normal;font-variant:normal;font-weight:normal;font-stretch:normal;text-indent:0;text-align:start;text-decoration:none;line-height:125%;letter-spacing:0px;word-spacing:0px;text-transform:none;direction:ltr;block-progression:tb;writing-mode:lr-tb;text-anchor:start;baseline-shift:baseline;color:#000000;fill:#000000;fill-opacity:1;fill-rule:nonzero;stroke:none;stroke-width:1.24999988px;marker:none;visibility:visible;display:inline;overflow:visible;enable-background:accumulate;font-family:Liberation Sans;-inkscape-font-specification:Liberation Sans"
     x="-328.02127"
     y="432.52759"
     id="text3970"
     sodipodi:linespacing="125%"><tspan
       sodipodi:role="line"
       id="tspan3972"
       x="-328.02127"
       y="432.52759">0</tspan></text>
  <text
     xml:space="preserve"
     style="font-size:10px;font-style:normal;font-variant:normal;font-weight:normal;font-stretch:normal;text-indent:0;text-align:start;text-decoration:none;line-height:125%;letter-spacing:0px;word-spacing:0px;text-transform:none;direction:ltr;block-progression:tb;writing-mode:lr-tb;text-anchor:start;baseline-shift:baseline;color:#000000;fill:#000000;fill-opacity:1;fill-rule:nonzero;stroke:none;stroke-width:1.24999988px;marker:none;visibility:visible;display:inline;overflow:visible;enable-background:accumulate;font-family:Liberation Sans;-inkscape-font-specification:Liberation Sans"
     x="-271.31812"
     y="432.52759"
     id="text3974"
     sodipodi:linespacing="125%"><tspan
       sodipodi:role="line"
       id="tspan3976"
       x="-271.31812"
       y="432.52759">π</tspan></text>
  <text
     xml:space="preserve"
     style="font-size:10px;font-style:normal;font-variant:normal;font-weight:normal;font-stretch:normal;text-indent:0;text-align:start;text-decoration:none;line-height:125%;letter-spacing:0px;word-spacing:0px;text-transform:none;direction:ltr;block-progression:tb;writing-mode:lr-tb;text-anchor:start;baseline-shift:baseline;color:#000000;fill:#000000;fill-opacity:1;fill-rule:nonzero;stroke:none;stroke-width:1.24999988px;marker:none;visibility:visible;display:inline;overflow:visible;enable-background:accumulate;font-family:Liberation Sans;-inkscape-font-specification:Liberation Sans"
     x="-218.2413"
     y="432.52759"
     id="text3978"
     sodipodi:linespacing="125%"><tspan
       sodipodi:role="line"
       id="tspan3980"
       x="-218.2413"
       y="432.52759">2π</tspan></text>
</svg>
