<?xml version="1.0" encoding="UTF-8" standalone="no"?>
<!-- Created with Inkscape (http://www.inkscape.org/) -->

<svg
   xmlns:dc="http://purl.org/dc/elements/1.1/"
   xmlns:cc="http://creativecommons.org/ns#"
   xmlns:rdf="http://www.w3.org/1999/02/22-rdf-syntax-ns#"
   xmlns:svg="http://www.w3.org/2000/svg"
   xmlns="http://www.w3.org/2000/svg"
   xmlns:sodipodi="http://sodipodi.sourceforge.net/DTD/sodipodi-0.dtd"
   xmlns:inkscape="http://www.inkscape.org/namespaces/inkscape"
   version="1.0"
   width="362"
   height="362"
   id="svg4275"
   sodipodi:docname="snowflake.svg">
  <metadata
     id="metadata16">
    <rdf:RDF>
      <cc:Work
         rdf:about="">
        <dc:format>image/svg+xml</dc:format>
        <dc:type
           rdf:resource="http://purl.org/dc/dcmitype/StillImage" />
      </cc:Work>
    </rdf:RDF>
  </metadata>
  <sodipodi:namedview
     pagecolor="#ffffff"
     bordercolor="#666666"
     borderopacity="1"
     objecttolerance="10"
     gridtolerance="10"
     guidetolerance="10"
     inkscape:pageopacity="0"
     inkscape:pageshadow="2"
     inkscape:window-width="1440"
     inkscape:window-height="872"
     id="namedview14"
     showgrid="false"
     inkscape:zoom="0.6519337"
     inkscape:cx="-6.9025424"
     inkscape:cy="181"
     inkscape:window-x="0"
     inkscape:window-y="0"
     inkscape:window-maximized="1"
     inkscape:current-layer="svg4275" />
  <defs
     id="defs4277" />
  <path
     inkscape:connector-curvature="0"
     id="path4352"
     style="fill:none;stroke:#000000;stroke-width:1;stroke-miterlimit:4;stroke-opacity:1;stroke-dasharray:none"
     d="M 52.576764,32.88567 78.157514,77.192835 103.73827,121.5 l -51.161506,0 -51.1615098,0 L 26.996014,77.192834 52.576764,32.88567 z" />
  <path
     inkscape:connector-curvature="0"
     id="path4358"
     style="fill:none;stroke:#08ff00;stroke-width:1px;stroke-linecap:butt;stroke-linejoin:miter;stroke-opacity:1"
     d="M 217.04036,91.999996 233.52018,62.280262" />
  <path
     inkscape:connector-curvature="0"
     id="path4360"
     style="fill:none;stroke:#08ff00;stroke-width:1px;stroke-linecap:butt;stroke-linejoin:miter;stroke-opacity:1"
     d="m 266.47982,62.280262 16.47983,29.719734" />
  <path
     inkscape:connector-curvature="0"
     id="path4362"
     style="fill:none;stroke:#08ff00;stroke-width:1px;stroke-linecap:butt;stroke-linejoin:miter;stroke-opacity:1"
     d="m 233.52018,121.71972 32.95964,0" />
  <path
     inkscape:connector-curvature="0"
     id="path4338"
     style="fill:none;stroke:#000000;stroke-width:1;stroke-linecap:butt;stroke-linejoin:miter;stroke-miterlimit:4;stroke-opacity:1;stroke-dasharray:none"
     d="m 200.56053,62.280262 32.95965,0 L 250,32.560528 l 16.47982,29.719734 32.95965,0 -16.47982,29.719734 16.47982,29.719724 -32.95965,0 L 250,151.43947 l -16.47982,-29.71975 -32.95965,0 16.47983,-29.719724 -16.47983,-29.719734" />
  <path
     inkscape:connector-curvature="0"
     id="path4385"
     style="fill:none;stroke:#04ff00;stroke-width:1;stroke-linecap:butt;stroke-linejoin:miter;stroke-miterlimit:4;stroke-opacity:1;stroke-dasharray:none"
     d="m 116.50299,158.31364 32.95965,0 16.47982,-29.71973 16.47983,29.71973 32.95963,0 -16.47981,29.71974 16.47981,29.71972 -32.95963,0 -16.47983,29.71975 -16.47982,-29.71975 -32.95965,0 16.47983,-29.71972 -16.47983,-29.71974" />
  <path
     inkscape:connector-curvature="0"
     id="path4374"
     style="fill:none;stroke:#000000;stroke-width:0.9990893;stroke-linecap:butt;stroke-linejoin:miter;stroke-miterlimit:4;stroke-opacity:1;stroke-dasharray:none"
     d="m 116.46608,217.75614 5.4978,-9.90332 -5.4978,-9.90332 10.99558,0 5.49779,-9.90332 -5.49779,-9.90333 -10.99558,0 5.4978,-9.90331 -5.4978,-9.90332 10.99558,0 5.4978,-9.90332 5.49779,9.90332 10.99558,0 5.49779,-9.90332 -5.49779,-9.90332 10.99558,0 5.49779,-9.90333 5.4978,9.90333 10.99558,0 -5.49779,9.90332 5.49779,9.90332 10.99559,0 5.49779,-9.90332 5.49778,9.90332 10.99558,0 -5.4978,9.90332 5.4978,9.90331 -10.99559,0 -5.49778,9.90333 5.49778,9.90332 10.99559,0 -5.49779,9.90332 5.49779,9.90332 -10.99558,0 -5.49778,9.90331 -5.49779,-9.90331 -10.99559,0 -5.4978,9.90331 5.4978,9.90333 -10.99559,0 -5.49779,9.90333 -5.49779,-9.90333 -10.99558,0 5.49779,-9.90333 -5.49779,-9.90331 -10.99558,0 -5.4978,9.90331 -5.49779,-9.90331 -10.99558,0" />
  <path
     inkscape:connector-curvature="0"
     id="path4412"
     style="fill:none;stroke:#00ff00;stroke-width:1;stroke-linecap:butt;stroke-linejoin:miter;stroke-miterlimit:4;stroke-opacity:1;stroke-dasharray:none"
     d="m 315.59234,217.89278 5.49774,-9.92147 -5.49774,-9.92147 10.99548,0 5.49774,-9.92148 -5.49774,-9.92148 -10.99548,0 5.49774,-9.92146 -5.49774,-9.92147 10.99548,0 5.49774,-9.92148 5.49774,9.92148 10.99548,0 5.49774,-9.92148 -5.49774,-9.92147 10.99548,0 5.49774,-9.92148 5.49774,9.92148 10.99548,0 -5.49774,9.92147 5.49774,9.92148 10.99549,0 5.49774,-9.92148 5.49773,9.92148 10.99548,0 -5.49775,9.92147 5.49775,9.92146 -10.99549,0 -5.49773,9.92148 5.49773,9.92148 10.99549,0 -5.49774,9.92147 5.49774,9.92147 -10.99548,0 -5.49773,9.92147 -5.49774,-9.92147 -10.99549,0 -5.49774,9.92147 5.49774,9.92148 -10.99548,0 -5.49774,9.92148 -5.49774,-9.92148 -10.99548,0 5.49774,-9.92148 -5.49774,-9.92147 -10.99548,0 -5.49774,9.92147 -5.49774,-9.92147 -10.99548,0" />
  <path
     inkscape:connector-curvature="0"
     id="path4399"
     style="fill:none;stroke:#000000;stroke-width:1.03345299;stroke-linecap:butt;stroke-linejoin:miter;stroke-miterlimit:4;stroke-opacity:1;stroke-dasharray:none"
     d="m 315.65124,217.86754 1.83064,-3.30364 -1.83064,-3.30362 3.66128,0 1.83065,-3.30364 -1.83065,-3.30363 -3.66129,0 1.83065,-3.30362 -1.83064,-3.30364 3.66128,0 1.83065,-3.30362 1.83066,3.30362 3.66128,0 1.83065,-3.30362 -1.83065,-3.30363 3.66129,0 1.83066,-3.30363 -1.83066,-3.30362 -3.66129,0 1.83065,-3.30364 -1.83065,-3.30362 -3.66129,0 -1.83065,3.30362 -1.83065,-3.30362 -3.66128,0 1.83064,-3.30363 -1.83065,-3.30363 3.66129,0 1.83065,-3.30362 -1.83065,-3.30364 -3.66128,0 1.83064,-3.30362 -1.83065,-3.30364 3.66129,1e-5 1.83065,-3.30363 1.83065,3.30362 3.66129,1e-5 1.83065,-3.30363 -1.83065,-3.30362 3.66129,0 1.83066,-3.30364 1.83064,3.30364 3.66129,0 -1.83064,3.30362 1.83064,3.30363 3.6613,-1e-5 1.83063,-3.30362 1.83068,3.30363 3.66127,-1e-5 1.83065,-3.30362 -1.83065,-3.30362 3.66129,0 1.83067,-3.30364 -1.83067,-3.30363 -3.66129,0 1.83065,-3.30363 -1.83065,-3.30363 3.66129,0 1.83066,-3.30361 1.83065,3.30361 3.66129,0 1.83063,-3.30361 -1.83063,-3.30364 3.6613,0 1.83064,-3.30362 1.83063,3.30362 3.6613,0 -1.83063,3.30364 1.83063,3.30361 3.6613,0 1.83064,-3.30361 1.83066,3.30361 3.66129,0 -1.83065,3.30363 1.83065,3.30363 -3.66129,0 -1.83067,3.30363 1.83067,3.30364 3.66129,0 -1.83065,3.30362 1.83065,3.30363 3.66128,-1e-5 1.83067,-3.30362 1.83063,3.30362 3.6613,1e-5 1.83064,-3.30363 -1.83064,-3.30362 3.6613,0 1.83063,-3.30364 1.83066,3.30364 3.66129,0 -1.83065,3.30362 1.83065,3.30362 3.66128,0 1.83066,-3.30362 1.83065,3.30363 3.66128,-1e-5 -1.83064,3.30364 1.83065,3.30362 -3.66129,0 -1.83065,3.30364 1.83065,3.30362 3.66129,0 -1.83065,3.30363 1.83064,3.30363 -3.66128,0 -1.83065,3.30362 -1.83065,-3.30362 -3.66129,0 -1.83065,3.30362 1.83065,3.30364 -3.66129,0 -1.83066,3.30362 1.83066,3.30363 3.66129,0 -1.83065,3.30363 1.83065,3.30362 3.66129,0 1.83065,-3.30362 1.83065,3.30362 3.66129,0 -1.83065,3.30364 1.83065,3.30362 -3.66129,0 -1.83065,3.30364 1.83065,3.30363 3.66128,0 -1.83064,3.30362 1.83065,3.30364 -3.66129,0 -1.83065,3.30362 -1.83065,-3.30362 -3.66129,0 -1.83065,3.30362 1.83065,3.30362 -3.66129,1e-5 -1.83066,3.30363 -1.83064,-3.30364 -3.66129,1e-5 1.83064,-3.30363 -1.83064,-3.30362 -3.6613,0 -1.83063,3.30362 -1.83067,-3.30362 -3.66128,0 -1.83065,3.30362 1.83065,3.30363 -3.66129,-1e-5 -1.83067,3.30364 1.83067,3.30362 3.66129,0 -1.83065,3.30363 1.83065,3.30363 -3.66129,0 -1.83066,3.30361 -1.83064,-3.30361 -3.6613,0 -1.83063,3.30361 1.83063,3.30364 -3.6613,0 -1.83064,3.30362 -1.83063,-3.30362 -3.6613,0 1.83063,-3.30364 -1.83063,-3.30361 -3.66129,0 -1.83064,3.30361 -1.83067,-3.30361 -3.66129,0 1.83065,-3.30363 -1.83065,-3.30363 3.66129,0 1.83067,-3.30362 -1.83067,-3.30364 -3.66129,0 1.83065,-3.30362 -1.83065,-3.30362 -3.66128,0 -1.83067,3.30362 -1.83063,-3.30362 -3.6613,0 -1.83064,3.30362 1.83064,3.30363 -3.6613,-1e-5 -1.83063,3.30364 -1.83066,-3.30364 -3.66129,1e-5 1.83065,-3.30363 -1.83065,-3.30362 -3.66128,0 -1.83066,3.30362 -1.83065,-3.30362 -3.66128,0" />
  <text
     xml:space="preserve"
     style="font-size:40px;font-style:normal;font-weight:normal;line-height:125%;letter-spacing:0px;word-spacing:0px;fill:#000000;fill-opacity:1;stroke:none;font-family:Sans"
     x="-3.0677962"
     y="59.822037"
     id="text3002"
     sodipodi:linespacing="125%"><tspan
       sodipodi:role="line"
       id="tspan3004"
       x="-3.0677962"
       y="59.822037">1</tspan></text>
  <text
     xml:space="preserve"
     style="font-size:40px;font-style:normal;font-weight:normal;line-height:125%;letter-spacing:0px;word-spacing:0px;fill:#000000;fill-opacity:1;stroke:none;font-family:Sans"
     x="161.05933"
     y="59.822037"
     id="text3006"
     sodipodi:linespacing="125%"><tspan
       sodipodi:role="line"
       id="tspan3008"
       x="161.05933"
       y="59.822037">2</tspan></text>
  <text
     xml:space="preserve"
     style="font-size:40px;font-style:normal;font-weight:normal;line-height:125%;letter-spacing:0px;word-spacing:0px;fill:#000000;fill-opacity:1;stroke:none;font-family:Sans"
     x="79.762711"
     y="176.3983"
     id="text3010"
     sodipodi:linespacing="125%"><tspan
       sodipodi:role="line"
       id="tspan3012"
       x="79.762711"
       y="176.3983">3</tspan></text>
  <text
     xml:space="preserve"
     style="font-size:40px;font-style:normal;font-weight:normal;line-height:125%;letter-spacing:0px;word-spacing:0px;fill:#000000;fill-opacity:1;stroke:none;font-family:Sans"
     x="273.03391"
     y="176.3983"
     id="text3014"
     sodipodi:linespacing="125%"><tspan
       sodipodi:role="line"
       id="tspan3016"
       x="273.03391"
       y="176.3983">4</tspan></text>
</svg>
