<?xml version="1.0" encoding="UTF-8" standalone="no"?>
<!-- Created with Inkscape (http://www.inkscape.org/) -->

<svg
   xmlns:dc="http://purl.org/dc/elements/1.1/"
   xmlns:cc="http://creativecommons.org/ns#"
   xmlns:rdf="http://www.w3.org/1999/02/22-rdf-syntax-ns#"
   xmlns:svg="http://www.w3.org/2000/svg"
   xmlns="http://www.w3.org/2000/svg"
   xmlns:sodipodi="http://sodipodi.sourceforge.net/DTD/sodipodi-0.dtd"
   xmlns:inkscape="http://www.inkscape.org/namespaces/inkscape"
   width="744.09448819"
   height="1052.3622047"
   id="svg2"
   version="1.1"
   inkscape:version="0.48.3.1 r9886"
   sodipodi:docname="New document 1">
  <defs
     id="defs4" />
  <sodipodi:namedview
     id="base"
     pagecolor="#ffffff"
     bordercolor="#666666"
     borderopacity="1.0"
     inkscape:pageopacity="0.0"
     inkscape:pageshadow="2"
     inkscape:zoom="1.1555833"
     inkscape:cx="318.28337"
     inkscape:cy="501.84563"
     inkscape:document-units="px"
     inkscape:current-layer="layer1"
     showgrid="false"
     inkscape:window-width="1440"
     inkscape:window-height="872"
     inkscape:window-x="0"
     inkscape:window-y="0"
     inkscape:window-maximized="1" />
  <metadata
     id="metadata7">
    <rdf:RDF>
      <cc:Work
         rdf:about="">
        <dc:format>image/svg+xml</dc:format>
        <dc:type
           rdf:resource="http://purl.org/dc/dcmitype/StillImage" />
        <dc:title></dc:title>
      </cc:Work>
    </rdf:RDF>
  </metadata>
  <g
     inkscape:label="Layer 1"
     inkscape:groupmode="layer"
     id="layer1">
    <path
       style="fill:none;stroke:#f90000;stroke-width:1px;stroke-linecap:butt;stroke-linejoin:miter;stroke-opacity:1"
       d="M 85.625 479.9375 C 80.069405 480.27403 73.822113 484.2585 64.15625 497.03125 C 56.156967 507.60173 50.742754 518.18373 38.5 529.46875 L 38.5 573.59375 L 228.78125 573.59375 L 228.78125 564.28125 C 209.60076 562.12819 184.57196 557.99228 167.25 550.125 C 152.24616 543.31056 132.35135 527.64787 114.15625 502.78125 C 100.88162 484.63927 96.012312 481.54621 89.375 480.21875 C 88.130504 479.96985 86.90706 479.85984 85.625 479.9375 z "
       id="path3031" />
    <path
       style="fill:none;stroke:#f90000;stroke-width:1px;stroke-linecap:butt;stroke-linejoin:miter;stroke-opacity:1"
       d="m 10.581618,548.81445 c 34.95652,-19.02696 41.15134,-35.399 53.54099,-51.77104 11.89645,-15.72031 18.58448,-18.14199 25.22179,-16.81452 6.637312,1.32746 11.504672,4.42488 24.779302,22.56686 18.1951,24.86662 38.09465,40.53172 53.09849,47.34616 31.71768,14.40552 89.38248,16.37204 89.38248,16.37204 m 0,7.0798 -245.580562,0"
       id="path3031-1"
       inkscape:connector-curvature="0"
       sodipodi:nodetypes="cssssccc" />
    <path
       style="fill:none;stroke:#f90000;stroke-width:0.96822941;stroke-miterlimit:4;stroke-opacity:1;stroke-dashoffset:0"
       d="m 320.12177,574.33128 -9.56315,0 0,-50.7367 9.56315,0"
       id="rect3822"
       inkscape:connector-curvature="0"
       sodipodi:nodetypes="cccc" />
    <rect
       style="fill:none;stroke:#f90000;stroke-width:0.44611061;stroke-miterlimit:4;stroke-opacity:1;stroke-dasharray:none;stroke-dashoffset:0"
       id="rect3822-5"
       width="9.5631409"
       height="10.770871"
       x="-498.02518"
       y="563.81427"
       transform="scale(-1,1)" />
    <path
       style="fill:none;stroke:#f90000;stroke-width:1.07397366;stroke-miterlimit:4;stroke-opacity:1;stroke-dashoffset:0"
       d="m 329.48511,574.27841 -9.56315,0 0,-62.42419 9.56315,0"
       id="rect3822-2"
       inkscape:connector-curvature="0"
       sodipodi:nodetypes="cccc" />
    <path
       style="fill:none;stroke:#f90000;stroke-width:1.18806136;stroke-miterlimit:4;stroke-opacity:1;stroke-dashoffset:0"
       d="m 338.84844,574.22137 -9.56315,0 0,-76.39121 9.56315,0"
       id="rect3822-26"
       inkscape:connector-curvature="0"
       sodipodi:nodetypes="cccc" />
    <path
       style="fill:none;stroke:#f90000;stroke-width:1.26088381;stroke-miterlimit:4;stroke-opacity:1;stroke-dashoffset:0"
       d="m 348.21178,574.18496 -9.56315,0 0,-86.04306 9.56315,0"
       id="rect3822-9"
       inkscape:connector-curvature="0"
       sodipodi:nodetypes="cccc" />
    <path
       style="fill:none;stroke:#f90000;stroke-width:1.31174195;stroke-miterlimit:4;stroke-opacity:1;stroke-dashoffset:0"
       d="m 357.57514,574.15953 -9.56315,0 0,-93.12419 9.56315,0"
       id="rect3822-4"
       inkscape:connector-curvature="0"
       sodipodi:nodetypes="cccc" />
    <path
       style="fill:none;stroke:#f90000;stroke-width:1.31787443;stroke-miterlimit:4;stroke-opacity:1;stroke-dashoffset:0"
       d="m 366.93847,574.15646 -9.56315,0 0,-93.99694 9.56315,0 z"
       id="rect3822-1"
       inkscape:connector-curvature="0"
       sodipodi:nodetypes="cccc" />
    <path
       style="fill:none;stroke:#f90000;stroke-width:1.26011121;stroke-miterlimit:4;stroke-opacity:1;stroke-dashoffset:0"
       d="m 366.73865,574.18534 9.56315,0 0,-85.93766 -9.56315,0"
       id="rect3822-6"
       inkscape:connector-curvature="0"
       sodipodi:nodetypes="cccc" />
    <path
       style="fill:none;stroke:#f90000;stroke-width:1.1814996;stroke-miterlimit:4;stroke-opacity:1;stroke-dashoffset:0"
       d="m 376.10198,574.22465 9.56315,0 0,-75.54971 -9.56315,0"
       id="rect3822-8"
       inkscape:connector-curvature="0"
       sodipodi:nodetypes="cccc" />
    <path
       style="fill:none;stroke:#f90000;stroke-width:1.09438539;stroke-miterlimit:4;stroke-opacity:1;stroke-dashoffset:0"
       d="m 385.4653,574.2682 9.56315,0 0,-64.81958 -9.56315,0"
       id="rect3822-22"
       inkscape:connector-curvature="0"
       sodipodi:nodetypes="cccc" />
    <path
       style="fill:none;stroke:#f90000;stroke-width:1.00323975;stroke-miterlimit:4;stroke-opacity:1;stroke-dashoffset:0"
       d="m 394.82866,574.32134 9.56315,0 0,-54.47222 -9.56315,0"
       id="rect3822-92"
       inkscape:connector-curvature="0"
       sodipodi:nodetypes="cccc" />
    <path
       style="fill:none;stroke:#f90000;stroke-width:0.91577119;stroke-miterlimit:4;stroke-opacity:1;stroke-dashoffset:0"
       d="m 404.192,574.36818 9.56315,0 0,-45.38785 -9.56315,0"
       id="rect3822-0"
       inkscape:connector-curvature="0"
       sodipodi:nodetypes="cccc" />
    <path
       style="fill:none;stroke:#f90000;stroke-width:0.82898378;stroke-miterlimit:4;stroke-opacity:1;stroke-dashoffset:0"
       d="m 413.55532,574.40836 9.56315,0 0,-37.19271 -9.56315,0"
       id="rect3822-54"
       inkscape:connector-curvature="0"
       sodipodi:nodetypes="cccc" />
    <path
       style="fill:none;stroke:#f90000;stroke-width:0.7505523;stroke-miterlimit:4;stroke-opacity:1;stroke-dashoffset:0"
       d="m 422.91866,574.44012 9.56315,0 0,-30.48791 -9.56315,0"
       id="rect3822-91"
       inkscape:connector-curvature="0"
       sodipodi:nodetypes="cccc" />
    <path
       style="fill:none;stroke:#f90000;stroke-width:0.66970372;stroke-miterlimit:4;stroke-opacity:1;stroke-dashoffset:0"
       d="m 432.28199,574.48055 9.56315,0 0,-24.27343 -9.56315,0"
       id="rect3822-48"
       inkscape:connector-curvature="0"
       sodipodi:nodetypes="cccc" />
    <path
       style="fill:none;stroke:#f90000;stroke-width:0.61975491;stroke-miterlimit:4;stroke-opacity:1;stroke-dashoffset:0"
       d="m 441.64532,574.50174 9.56315,0 0,-20.78766 -9.56315,0"
       id="rect3822-93"
       inkscape:connector-curvature="0"
       sodipodi:nodetypes="cccc" />
    <path
       style="fill:none;stroke:#f90000;stroke-width:0.57641977;stroke-miterlimit:4;stroke-opacity:1;stroke-dashoffset:0"
       d="m 451.00868,574.52719 9.56315,0 0,-17.98222 -9.56315,0"
       id="rect3822-7"
       inkscape:connector-curvature="0"
       sodipodi:nodetypes="cccc" />
    <path
       style="fill:none;stroke:#f90000;stroke-width:0.53009135;stroke-miterlimit:4;stroke-opacity:1;stroke-dashoffset:0"
       d="m 460.372,574.54434 9.56315,0 0,-15.20782 -9.56315,0"
       id="rect3822-73"
       inkscape:connector-curvature="0"
       sodipodi:nodetypes="cccc" />
    <path
       style="fill:none;stroke:#f90000;stroke-width:0.50102252;stroke-miterlimit:4;stroke-opacity:1;stroke-dashoffset:0"
       d="m 469.73533,574.56116 9.56315,0 0,-13.58564 -9.56315,0"
       id="rect3822-07"
       inkscape:connector-curvature="0"
       sodipodi:nodetypes="cccc" />
    <path
       style="fill:none;stroke:#f90000;stroke-width:0.47072318;stroke-miterlimit:4;stroke-opacity:1;stroke-dashoffset:0"
       d="m 479.09867,574.58004 9.56315,0 0,-11.99214 -9.56315,0"
       id="rect3822-87"
       inkscape:connector-curvature="0"
       sodipodi:nodetypes="cccc" />
    <path
       style="fill:none;stroke:#f90000;stroke-width:1.00809133px;stroke-linecap:butt;stroke-linejoin:miter;stroke-opacity:1"
       d="m 281.94587,549.12831 c 34.95652,-19.33611 41.15134,-35.97416 53.54099,-52.61222 11.89645,-15.97573 18.58448,-18.43676 25.22179,-17.08772 6.63731,1.34903 11.50467,4.49678 24.7793,22.93353 18.1951,25.27066 38.09465,41.19029 53.09849,48.11545 31.71768,14.63958 89.38248,16.63805 89.38248,16.63805 m 0,7.19483 -245.58056,0"
       id="path3031-1-9"
       inkscape:connector-curvature="0"
       sodipodi:nodetypes="cssssccc" />
  </g>
</svg>
