<?xml version="1.0" encoding="UTF-8" standalone="no"?>
<!-- Created with Inkscape (http://www.inkscape.org/) -->

<svg
   xmlns:dc="http://purl.org/dc/elements/1.1/"
   xmlns:cc="http://creativecommons.org/ns#"
   xmlns:rdf="http://www.w3.org/1999/02/22-rdf-syntax-ns#"
   xmlns:svg="http://www.w3.org/2000/svg"
   xmlns="http://www.w3.org/2000/svg"
   xmlns:sodipodi="http://sodipodi.sourceforge.net/DTD/sodipodi-0.dtd"
   xmlns:inkscape="http://www.inkscape.org/namespaces/inkscape"
   id="svg2"
   version="1.1"
   width="273.75"
   height="401.25"
   xml:space="preserve"
   sodipodi:docname="hw-longbow.svg"><metadata
     id="metadata8"><rdf:RDF><cc:Work
         rdf:about=""><dc:format>image/svg+xml</dc:format><dc:type
           rdf:resource="http://purl.org/dc/dcmitype/StillImage" /><dc:title /></cc:Work></rdf:RDF></metadata><defs
     id="defs6" /><sodipodi:namedview
     pagecolor="#ffffff"
     bordercolor="#666666"
     borderopacity="1"
     objecttolerance="10"
     gridtolerance="10"
     guidetolerance="10"
     inkscape:pageopacity="0"
     inkscape:pageshadow="2"
     inkscape:window-width="1280"
     inkscape:window-height="996"
     id="namedview4"
     showgrid="false"
     inkscape:zoom="1.176324"
     inkscape:cx="136.875"
     inkscape:cy="200.625"
     inkscape:window-x="0"
     inkscape:window-y="0"
     inkscape:window-maximized="1"
     inkscape:current-layer="g10" /><g
     id="g10"
     inkscape:groupmode="layer"
     inkscape:label="ink_ext_XXXXXX"
     transform="matrix(0,1.25,1.25,0,0,0)"><g
       id="g3043"
       transform="matrix(1,0,0,-1,0,221.02755)"><rect
         transform="matrix(0,1,1,0,0,0)"
         y="-31.963978"
         x="34.684322"
         height="219.66736"
         width="151.65891"
         id="rect3042"
         style="fill:#dedede;fill-opacity:1;stroke:none" /><g
         transform="matrix(0,1,-1,0,187.875,31.875)"
         id="g5698"><path
           inkscape:connector-curvature="0"
           id="path14"
           style="fill:none;stroke:#000000;stroke-width:1;stroke-linecap:butt;stroke-linejoin:miter;stroke-miterlimit:4;stroke-opacity:1;stroke-dasharray:none"
           d="m 142.625,109.325 -7.4,-3.5 -5.1,0.3 -4.2,-0.6 -4.8,1.6 -2.8,-1.3 c -3.556,7.041 3.8,16.3 3.8,16.3 l 4.8,0.7 -1.9,-3.2" /><path
           inkscape:connector-curvature="0"
           id="path16"
           style="fill:none;stroke:#000000;stroke-width:0.5;stroke-linecap:butt;stroke-linejoin:miter;stroke-miterlimit:4;stroke-opacity:1;stroke-dasharray:none"
           d="m 127.525,104.225 1,-1.9 1.6,-0.6 2.2,-1.3" /><path
           inkscape:connector-curvature="0"
           id="path18"
           style="fill:none;stroke:#000000;stroke-width:0.5;stroke-linecap:butt;stroke-linejoin:miter;stroke-miterlimit:4;stroke-opacity:1;stroke-dasharray:none"
           d="m 126.925,102.625 0.6,-2.9 2.3,-0.9 1.6,-1.9 1.9,-3.9" /><path
           inkscape:connector-curvature="0"
           id="path20"
           style="fill:none;stroke:#000000;stroke-width:1;stroke-linecap:butt;stroke-linejoin:miter;stroke-miterlimit:4;stroke-opacity:1;stroke-dasharray:none"
           d="m 127.925,122.425 1.2,-0.6 1.9,-1.3" /><path
           inkscape:connector-curvature="0"
           id="path22"
           style="fill:none;stroke:#000000;stroke-width:1;stroke-linecap:butt;stroke-linejoin:miter;stroke-miterlimit:4;stroke-opacity:1;stroke-dasharray:none"
           d="m 132.625,121.225 1,0.6 2.9,-0.3 1.9,-0.7 1.3,1 1.3,0.6 2.5,-2.8 2.6,0 1.3,-0.4 0.6,-1.9 3.2,-1.3 -1.3,-4.8 c 0,0 0.648,-4.113 -9.3,-18.8 -9.872,-14.7238 -4.8,-6.7 -4.8,-6.7 l -3.5,0.6" /><path
           inkscape:connector-curvature="0"
           id="path24"
           style="fill:none;stroke:#000000;stroke-width:0.5;stroke-linecap:butt;stroke-linejoin:miter;stroke-miterlimit:4;stroke-opacity:1;stroke-dasharray:none"
           d="m 135.525,82.525 -8,-9.6 -5.1,-5.8" /><path
           inkscape:connector-curvature="0"
           id="path26"
           style="fill:none;stroke:#000000;stroke-width:1;stroke-linecap:butt;stroke-linejoin:miter;stroke-miterlimit:4;stroke-opacity:1;stroke-dasharray:none"
           d="m 133.925,78.325 -4.5,-12.1 -2.8,-4.2 -1.3,-3.5 -2.6,-1.9" /><path
           inkscape:connector-curvature="0"
           id="path28"
           style="fill:none;stroke:#000000;stroke-width:1;stroke-linecap:butt;stroke-linejoin:miter;stroke-miterlimit:4;stroke-opacity:1;stroke-dasharray:none"
           d="m 125.925,56.325 c 0,0 0.352,-1.9602 0,-2.9 -0.287,-0.9785 -0.926,-3.216 0,-4.5 0.992,-1.2734 1,-4.5 1,-4.5 l -0.3,-1.9 -9.9,-2.9 -2,7.1" /><path
           inkscape:connector-curvature="0"
           id="path30"
           style="fill:none;stroke:#000000;stroke-width:1;stroke-linecap:butt;stroke-linejoin:miter;stroke-miterlimit:4;stroke-opacity:1;stroke-dasharray:none"
           d="m 115.725,50.225 -3.8,-10.6 -14.1,3.6 -7,1.5 -4.2,1.6 1.3,4.2" /><path
           inkscape:connector-curvature="0"
           id="path32"
           style="fill:none;stroke:#000000;stroke-width:1;stroke-linecap:butt;stroke-linejoin:miter;stroke-miterlimit:4;stroke-opacity:1;stroke-dasharray:none"
           d="m 84.725,46.325 -3.2,1 -5.4,0.6 4.1,15.7 2.3,9.3 3.2,7.7 3.8,9.9" /><path
           inkscape:connector-curvature="0"
           id="path34"
           style="fill:none;stroke:#000000;stroke-width:1;stroke-linecap:butt;stroke-linejoin:miter;stroke-miterlimit:4;stroke-opacity:1;stroke-dasharray:none"
           d="m 67.425,104.525 9,-10.2 1.6,-8.3 2.5,-12.2" /><path
           inkscape:connector-curvature="0"
           id="path36"
           style="fill:none;stroke:#000000;stroke-width:1;stroke-linecap:butt;stroke-linejoin:miter;stroke-miterlimit:4;stroke-opacity:1;stroke-dasharray:none"
           d="m 72.925,93.325 -9.6,2 -9.3,0.3 -5.7,3.8 -4.8,3.9" /><path
           inkscape:connector-curvature="0"
           id="path38"
           style="fill:none;stroke:#000000;stroke-width:1;stroke-linecap:butt;stroke-linejoin:miter;stroke-miterlimit:4;stroke-opacity:1;stroke-dasharray:none"
           d="m 35.525,121.525 c 0,0 -0.0367,-16.651 -0.4,-17.6 l 6.8,0" /><path
           inkscape:connector-curvature="0"
           id="path40"
           style="fill:none;stroke:#000000;stroke-width:1;stroke-linecap:butt;stroke-linejoin:miter;stroke-miterlimit:4;stroke-opacity:1;stroke-dasharray:none"
           d="m 36.725,121.225 4.2,0 4.2,-0.7 11.1,-0.6 2.6,0 2.2,-1.3 2.9,1.9 5.4,-0.3 2.3,0.3 c 0,0 -0.3324,-0.626 2.2,-0.6 2.5824,-0.026 6.4,1.3 6.4,1.3 l 2.9,0.6 2.6,-1.3 0.6,1.9 9.3,0 7.6,-1.2" /><path
           inkscape:connector-curvature="0"
           id="path42"
           style="fill:none;stroke:#000000;stroke-width:1;stroke-linecap:butt;stroke-linejoin:miter;stroke-miterlimit:4;stroke-opacity:1;stroke-dasharray:none"
           d="m 81.825,46.025 0,-29.1 c 0,0 0.0172,-12.75 1,-14 0.9352,-1.30742 1.9,-1.9 1.9,-1.9" /><path
           inkscape:connector-curvature="0"
           id="path44"
           style="fill:none;stroke:#000000;stroke-width:1;stroke-linecap:butt;stroke-linejoin:miter;stroke-miterlimit:4;stroke-opacity:1;stroke-dasharray:none"
           d="m 96.825,29.425 4.2,-19.2 1.3,-7" /><path
           inkscape:connector-curvature="0"
           id="path46"
           style="fill:none;stroke:#000000;stroke-width:1;stroke-linecap:butt;stroke-linejoin:miter;stroke-miterlimit:4;stroke-opacity:1;stroke-dasharray:none"
           d="m 125.325,40.325 0,-8 -2.2,-7.4 -1.3,-7.6 -1.6,-14.1" /><path
           inkscape:connector-curvature="0"
           id="path48"
           style="fill:none;stroke:#000000;stroke-width:1;stroke-linecap:butt;stroke-linejoin:miter;stroke-miterlimit:4;stroke-opacity:1;stroke-dasharray:none"
           d="m 120.925,122.425 -4,0.9 -4,3 -4.3,1.3 -2.8,0 -0.8,0.7 -0.2,-1" /><path
           inkscape:connector-curvature="0"
           id="path50"
           style="fill:none;stroke:#000000;stroke-width:1;stroke-linecap:butt;stroke-linejoin:miter;stroke-miterlimit:4;stroke-opacity:1;stroke-dasharray:none"
           d="m 105.125,126.925 -1.3,-0.8 0.1,-1.9 2.3,-0.6" /><path
           inkscape:connector-curvature="0"
           id="path52"
           style="fill:none;stroke:#000000;stroke-width:1;stroke-linecap:butt;stroke-linejoin:miter;stroke-miterlimit:4;stroke-opacity:1;stroke-dasharray:none"
           d="m 105.625,122.925 -0.3,-1.8 1,-0.1 1.7,0.6" /><path
           inkscape:connector-curvature="0"
           id="path54"
           style="fill:none;stroke:#000000;stroke-width:1;stroke-linecap:butt;stroke-linejoin:miter;stroke-miterlimit:4;stroke-opacity:1;stroke-dasharray:none"
           d="m 106.425,120.525 0,-0.9 1.2,-0.3" /><path
           inkscape:connector-curvature="0"
           id="path56"
           style="fill:none;stroke:#000000;stroke-width:1;stroke-linecap:butt;stroke-linejoin:miter;stroke-miterlimit:4;stroke-opacity:1;stroke-dasharray:none"
           d="m 107.425,117.925 c 0,0 -0.048,-1.822 0.3,-1.9 0.371,-0.162 0.97,-0.162 1.7,-0.3 0.709,-0.102 0.589,-0.341 2,-0.3 1.466,-0.041 4.5,0 4.5,0 l 1,-0.6" /><path
           inkscape:connector-curvature="0"
           id="path58"
           style="fill:none;stroke:#000000;stroke-width:0.5;stroke-linecap:butt;stroke-linejoin:miter;stroke-miterlimit:4;stroke-opacity:1;stroke-dasharray:none"
           d="m 117.325,118.525 -1.1,-0.9 0.5,-1" /><path
           inkscape:connector-curvature="0"
           id="path60"
           style="fill:none;stroke:#000000;stroke-width:0.5;stroke-linecap:butt;stroke-linejoin:miter;stroke-miterlimit:4;stroke-opacity:1;stroke-dasharray:none"
           d="m 108.425,126.525 c -0.569,-0.232 -0.2,-1 -0.2,-1" /><path
           inkscape:connector-curvature="0"
           id="path62"
           style="fill:none;stroke:#000000;stroke-width:0.5;stroke-linecap:butt;stroke-linejoin:miter;stroke-miterlimit:4;stroke-opacity:1;stroke-dasharray:none"
           d="m 107.725,124.725 c 0,0 -0.708,-0.59 -0.1,-1.1" /><path
           inkscape:connector-curvature="0"
           id="path64"
           style="fill:none;stroke:#000000;stroke-width:0.5;stroke-linecap:butt;stroke-linejoin:miter;stroke-miterlimit:4;stroke-opacity:1;stroke-dasharray:none"
           d="m 110.925,122.425 4.8,-1.2" /><path
           inkscape:connector-curvature="0"
           id="path66"
           style="fill:none;stroke:#000000;stroke-width:0.5;stroke-linecap:butt;stroke-linejoin:miter;stroke-miterlimit:4;stroke-opacity:1;stroke-dasharray:none"
           d="m 111.225,124.725 3.6,-1.8" /><path
           inkscape:connector-curvature="0"
           id="path68"
           style="fill:none;stroke:#000000;stroke-width:1;stroke-linecap:butt;stroke-linejoin:miter;stroke-miterlimit:4;stroke-opacity:1;stroke-dasharray:none"
           d="m 100.925,140.425 c -0.142,-1.185 -0.022,-2.864 0,-3.6 -0.022,-0.702 -2.5395,-4.179 -2.2,-5.5 0.3797,-1.316 2.2,-1.6 2.2,-1.6" /><path
           inkscape:connector-curvature="0"
           id="path70"
           style="fill:none;stroke:#000000;stroke-width:1;stroke-linecap:butt;stroke-linejoin:miter;stroke-miterlimit:4;stroke-opacity:1;stroke-dasharray:none"
           d="m 101.525,129.425 0.5,-1.8 1.6,-0.4" /><path
           inkscape:connector-curvature="0"
           id="path72"
           style="fill:none;stroke:#000000;stroke-width:1;stroke-linecap:butt;stroke-linejoin:miter;stroke-miterlimit:4;stroke-opacity:1;stroke-dasharray:none"
           d="m 102.625,126.625 -0.6,-0.3 0.8,-0.9 0,-1.6 c 0,0 0.356,-2.208 1.4,-2.4" /><path
           inkscape:connector-curvature="0"
           id="path74"
           style="fill:none;stroke:#000000;stroke-width:1;stroke-linecap:butt;stroke-linejoin:miter;stroke-miterlimit:4;stroke-opacity:1;stroke-dasharray:none"
           d="m 102.625,137.825 1.5,-0.4" /><path
           inkscape:connector-curvature="0"
           id="path76"
           style="fill:none;stroke:#000000;stroke-width:1;stroke-linecap:butt;stroke-linejoin:miter;stroke-miterlimit:4;stroke-opacity:1;stroke-dasharray:none"
           d="m 103.425,136.525 c 0,0 1.674,-0.043 2.8,-1.1" /><path
           inkscape:connector-curvature="0"
           id="path78"
           style="fill:none;stroke:#000000;stroke-width:0.5;stroke-linecap:butt;stroke-linejoin:miter;stroke-miterlimit:4;stroke-opacity:1;stroke-dasharray:none"
           d="m 104.425,135.625 0.2,-0.6 0.5,0" /><path
           inkscape:connector-curvature="0"
           id="path80"
           style="fill:none;stroke:#000000;stroke-width:0.5;stroke-linecap:butt;stroke-linejoin:miter;stroke-miterlimit:4;stroke-opacity:1;stroke-dasharray:none"
           d="m 102.125,132.125 c 0,0 0.816,-0.198 0.9,-0.6" /><path
           inkscape:connector-curvature="0"
           id="path82"
           style="fill:none;stroke:#000000;stroke-width:0.5;stroke-linecap:butt;stroke-linejoin:miter;stroke-miterlimit:4;stroke-opacity:1;stroke-dasharray:none"
           d="m 116.825,129.925 c 0,0 -0.337,-0.516 0.4,-0.5 0.701,-0.016 1.5,0.3 1.5,0.3" /><path
           inkscape:connector-curvature="0"
           id="path84"
           style="fill:none;stroke:#000000;stroke-width:1;stroke-linecap:butt;stroke-linejoin:miter;stroke-miterlimit:4;stroke-opacity:1;stroke-dasharray:none"
           d="m 96.925,146.025 c 0.0219,-1.151 2.9,-5.8 2.9,-5.8 0,0 2.996,-0.266 3.7,-0.6 0.735,-0.385 1.334,-1.704 2.1,-1.9 0.673,-0.284 2.8,-0.9 2.8,-0.9" /><path
           inkscape:connector-curvature="0"
           id="path86"
           style="fill:none;stroke:#000000;stroke-width:1;stroke-linecap:butt;stroke-linejoin:miter;stroke-miterlimit:4;stroke-opacity:1;stroke-dasharray:none"
           d="m 112.625,153.625 c 0,0 2.784,0 3.7,0 1.002,0 2.3,-1.6 2.3,-1.6" /><path
           inkscape:connector-curvature="0"
           id="path88"
           style="fill:none;stroke:#000000;stroke-width:1;stroke-linecap:butt;stroke-linejoin:miter;stroke-miterlimit:4;stroke-opacity:1;stroke-dasharray:none"
           d="m 117.925,154.225 c 0,0 0.96,0.599 2.4,0.1 1.437,-0.46 -0.841,3.256 3.4,-1.2 4.151,-4.415 4,-6.8 4,-6.8 l 1.9,-5.8 c 0,0 0.049,-4.043 0.2,-4.4" /><path
           inkscape:connector-curvature="0"
           id="path90"
           style="fill:none;stroke:#000000;stroke-width:1;stroke-linecap:butt;stroke-linejoin:miter;stroke-miterlimit:4;stroke-opacity:1;stroke-dasharray:none"
           d="m 129.525,133.025 c 0.029,-0.858 -0.33,-2.776 0.1,-3.1 0.529,-0.396 0.9,-0.5 0.9,-0.5" /><path
           inkscape:connector-curvature="0"
           id="path92"
           style="fill:none;stroke:#000000;stroke-width:1;stroke-linecap:butt;stroke-linejoin:miter;stroke-miterlimit:4;stroke-opacity:1;stroke-dasharray:none"
           d="m 128.525,129.325 c -0.05,-0.755 0.4,-3.2 0.4,-3.2" /><path
           inkscape:connector-curvature="0"
           id="path94"
           style="fill:none;stroke:#000000;stroke-width:0.5;stroke-linecap:butt;stroke-linejoin:miter;stroke-miterlimit:4;stroke-opacity:1;stroke-dasharray:none"
           d="m 124.325,136.125 1.5,-4.4" /><path
           inkscape:connector-curvature="0"
           id="path96"
           style="fill:none;stroke:#000000;stroke-width:1;stroke-linecap:butt;stroke-linejoin:miter;stroke-miterlimit:4;stroke-opacity:1;stroke-dasharray:none"
           d="m 98.125,147.525 6.7,3.7 c 0,0 2.791,0.243 3.4,0.7 0.59,0.502 3,1.1 3,1.1" /><path
           inkscape:connector-curvature="0"
           id="path98"
           style="fill:none;stroke:#000000;stroke-width:1;stroke-linecap:butt;stroke-linejoin:miter;stroke-miterlimit:4;stroke-opacity:1;stroke-dasharray:none"
           d="m 46.825,19.325 c -13.0289,27.0613 -29.0027,30.9203 -31.7,84.5 -0.1449,2.127 -0.1352,4.245 -0.1,6.4" /><path
           inkscape:connector-curvature="0"
           id="path100"
           style="fill:none;stroke:#000000;stroke-width:1;stroke-linecap:butt;stroke-linejoin:miter;stroke-miterlimit:4;stroke-opacity:1;stroke-dasharray:none"
           d="m 14.625,123.525 c 3.5648,53.919 16.7781,68.743 26.2,95.2" /><path
           inkscape:connector-curvature="0"
           id="path102"
           style="fill:none;stroke:#000000;stroke-width:1;stroke-linecap:butt;stroke-linejoin:miter;stroke-miterlimit:4;stroke-opacity:1;stroke-dasharray:none"
           d="m 48.325,20.325 c -13.0902,27.0203 -27.8055,29.9203 -30.5,83.5 -0.1477,2.127 -0.1379,4.245 -0.1,6.4" /><path
           inkscape:connector-curvature="0"
           id="path104"
           style="fill:none;stroke:#000000;stroke-width:1;stroke-linecap:butt;stroke-linejoin:miter;stroke-miterlimit:4;stroke-opacity:1;stroke-dasharray:none"
           d="m 17.325,123.525 c 3.5621,53.919 15.4258,68.168 24.8,94.6" /><path
           inkscape:connector-curvature="0"
           id="path106"
           style="fill:none;stroke:#000000;stroke-width:1;stroke-linecap:butt;stroke-linejoin:miter;stroke-miterlimit:4;stroke-opacity:1;stroke-dasharray:none"
           d="m 34.625,120.925 -8.8,0.7" /><path
           inkscape:connector-curvature="0"
           id="path108"
           style="fill:none;stroke:#000000;stroke-width:1;stroke-linecap:butt;stroke-linejoin:miter;stroke-miterlimit:4;stroke-opacity:1;stroke-dasharray:none"
           d="m 26.925,120.625 c -0.3477,0.333 -3.3,1.6 -3.3,1.6 l -3.4,0.5 -1.1,0.2" /><path
           inkscape:connector-curvature="0"
           id="path110"
           style="fill:none;stroke:#000000;stroke-width:1;stroke-linecap:butt;stroke-linejoin:miter;stroke-miterlimit:4;stroke-opacity:1;stroke-dasharray:none"
           d="m 18.925,122.625 -4.2,-0.8 -1.3,-0.6 1.2,-1.2 1.3,-0.4" /><path
           inkscape:connector-curvature="0"
           id="path112"
           style="fill:none;stroke:#000000;stroke-width:0.5;stroke-linecap:butt;stroke-linejoin:miter;stroke-miterlimit:4;stroke-opacity:1;stroke-dasharray:none"
           d="m 15.925,119.625 2.1,-0.5 c 0,0 0.9398,-0.745 1.2,-0.8 0.2195,-0.064 2.2574,-1.083 2.5,-1.1 0.2371,-0.103 1.7,-0.4 1.7,-0.4" /><path
           inkscape:connector-curvature="0"
           id="path114"
           style="fill:none;stroke:#000000;stroke-width:1;stroke-linecap:butt;stroke-linejoin:miter;stroke-miterlimit:4;stroke-opacity:1;stroke-dasharray:none"
           d="m 13.125,114.525 c 0,0 -0.3938,-0.76 -0.3,-0.9 0.1461,-0.22 1.0449,-1.118 1.6,-1.1 0.5238,-0.018 1.1234,-0.138 1.5,0 0.3426,0.101 1.7,0.3 1.7,0.3 l 0.7,1.2 c 0,0 0.8199,1.059 -0.4,0.9 -1.1777,-0.201 -3.4,-0.5 -3.4,-0.5" /><path
           inkscape:connector-curvature="0"
           id="path116"
           style="fill:none;stroke:#000000;stroke-width:1;stroke-linecap:butt;stroke-linejoin:miter;stroke-miterlimit:4;stroke-opacity:1;stroke-dasharray:none"
           d="m 17.925,115.725 0.3,0.7 -2.3,0.2 c 0,0 -1.6953,-0.163 -1.9,-0.2 -0.2746,0.037 -1.8,0 -1.8,0 l 0.1,-1.5" /><path
           inkscape:connector-curvature="0"
           id="path118"
           style="fill:none;stroke:#000000;stroke-width:1;stroke-linecap:butt;stroke-linejoin:miter;stroke-miterlimit:4;stroke-opacity:1;stroke-dasharray:none"
           d="m 17.325,117.325 0.1,0.5 -0.3,0.7 -4.7,0 -0.8,-0.2 0.2,-1.5" /><path
           inkscape:connector-curvature="0"
           id="path120"
           style="fill:none;stroke:#000000;stroke-width:1;stroke-linecap:butt;stroke-linejoin:miter;stroke-miterlimit:4;stroke-opacity:1;stroke-dasharray:none"
           d="m 11.025,119.025 c 0,0 -0.8113,0.614 -0.7,0.9 0.1285,0.194 0.1285,0.673 0.6,0.8 0.4875,0.113 1.5066,0.293 1.7,0.4" /><path
           inkscape:connector-curvature="0"
           id="path122"
           style="fill:none;stroke:#000000;stroke-width:1;stroke-linecap:butt;stroke-linejoin:miter;stroke-miterlimit:4;stroke-opacity:1;stroke-dasharray:none"
           d="m 42.725,217.625 61.3,-89.7" /><path
           inkscape:connector-curvature="0"
           id="path124"
           style="fill:none;stroke:#000000;stroke-width:1;stroke-linecap:butt;stroke-linejoin:miter;stroke-miterlimit:4;stroke-opacity:1;stroke-dasharray:none"
           d="m 48.325,20.325 55.9,103" /><path
           inkscape:connector-curvature="0"
           id="path126"
           style="fill:#ffffff;fill-opacity:1;fill-rule:nonzero;stroke:none"
           d="m 13.325,123.925 90.4,0 0,0.9 -90.4,0 -8.8,-0.6 8.8,-0.3" /><path
           inkscape:connector-curvature="0"
           id="path128"
           style="fill:none;stroke:#000000;stroke-width:0.5;stroke-linecap:butt;stroke-linejoin:miter;stroke-miterlimit:4;stroke-opacity:1;stroke-dasharray:none"
           d="m 13.325,123.925 90.4,0 0,0.9 -90.4,0 -8.8,-0.6 8.8,-0.3 z" /><path
           inkscape:connector-curvature="0"
           id="path130"
           style="fill:none;stroke:#000000;stroke-width:1;stroke-linecap:butt;stroke-linejoin:miter;stroke-miterlimit:4;stroke-opacity:1;stroke-dasharray:none"
           d="m 17.025,112.025 c 0,0 2.7191,-0.418 3.6,-0.3 0.7977,0.122 3.1352,0.841 3.7,0.9 0.5141,0.061 1.7129,0.421 2.4,0.4 0.6316,0.021 1.9504,-0.039 2.7,0 0.8086,-0.039 4.8,-1 4.8,-1" /></g></g></g></svg>