<?xml version="1.0" encoding="UTF-8" standalone="no"?>
<!-- Generator: Adobe Illustrator 11 Build 196, SVG Export Plug-In . SVG Version: 6.0.0 Build 78)  -->

<svg
   xmlns:dc="http://purl.org/dc/elements/1.1/"
   xmlns:cc="http://creativecommons.org/ns#"
   xmlns:rdf="http://www.w3.org/1999/02/22-rdf-syntax-ns#"
   xmlns:svg="http://www.w3.org/2000/svg"
   xmlns="http://www.w3.org/2000/svg"
   xmlns:sodipodi="http://sodipodi.sourceforge.net/DTD/sodipodi-0.dtd"
   xmlns:inkscape="http://www.inkscape.org/namespaces/inkscape"
   width="147.402"
   height="111.012"
   viewBox="0 0 147.402 111.012"
   style="overflow:visible;enable-background:new 0 0 147.402 111.012"
   xml:space="preserve"
   id="svg2"
   version="1.1"
   sodipodi:docname="tractor-at-cliff.svg"><metadata
     id="metadata73"><rdf:RDF><cc:Work
         rdf:about=""><dc:format>image/svg+xml</dc:format><dc:type
           rdf:resource="http://purl.org/dc/dcmitype/StillImage" /><dc:title></dc:title></cc:Work></rdf:RDF></metadata><defs
     id="defs71" /><sodipodi:namedview
     pagecolor="#ffffff"
     bordercolor="#666666"
     borderopacity="1"
     objecttolerance="10"
     gridtolerance="10"
     guidetolerance="10"
     inkscape:pageopacity="0"
     inkscape:pageshadow="2"
     inkscape:window-width="1173"
     inkscape:window-height="618"
     id="namedview69"
     showgrid="false"
     inkscape:zoom="1.2992609"
     inkscape:cx="223.18971"
     inkscape:cy="40.326831"
     inkscape:window-x="0"
     inkscape:window-y="0"
     inkscape:window-maximized="0"
     inkscape:current-layer="svg2" /><g
     id="g4440"
     transform="translate(1.8588414e-6,0.45198979)"><rect
       y="-6.9633789"
       x="38.043777"
       height="117.97538"
       width="120.74773"
       id="rect3399"
       style="fill:#dedede;fill-opacity:1;stroke:none" /><g
       transform="translate(4.9393749,0)"
       id="g3433"><rect
         id="rect5"
         height="16.875195"
         width="3.0000348"
         style="fill:#b5b5b5;stroke:#000000;stroke-width:1.00001156"
         transform="matrix(-0.71169177,0.70249187,-0.70249187,-0.71169177,0,0)"
         y="-75.639847"
         x="-19.065262" /><g
         id="g7"
         transform="translate(22.924126,0)"><rect
           id="rect9"
           height="6.006"
           width="9.5030003"
           style="fill:#ffffff"
           y="22.215"
           x="95.829002" /><path
           inkscape:connector-curvature="0"
           id="path11"
           d="m 98.376,20.67 3.844,0.389 c -0.091,0.9 -0.895,1.556 -1.795,1.465 L 94.45,21.919 c -0.849,-0.086 -1.479,-0.805 -1.473,-1.642 -1.31,-6.56 4.404,-1.326 5.399,0.393 z"
           style="fill:#d6d6d6;stroke:#000000" /><rect
           id="rect13"
           height="9.8280001"
           width="12.285"
           style="fill:#ededed"
           y="21.532"
           x="105.221" /><rect
           id="rect15"
           height="19.247"
           width="2.0480001"
           style="fill:#ffffff;stroke:#000000"
           transform="matrix(-0.1445,0.9895,-0.9895,-0.1445,149.3636,-70.4089)"
           y="19.740999"
           x="104.095" /><rect
           id="rect17"
           height="4.2589998"
           width="2.6210001"
           style="fill:#ffffff;stroke:#000000"
           transform="matrix(-0.999,-0.044,0.044,-0.999,227.088,56.1811)"
           y="23.464001"
           x="112.852" /><path
           inkscape:connector-curvature="0"
           id="path19"
           d="m 107.678,19.075 h 11.875 c 1.809,0 3.276,1.467 3.276,3.276 V 23.17 H 121.6 v 8.697 c -0.561,0.451 -1.272,0.721 -2.047,0.721 h -2.457 v -5.733 c 0,-1.809 -1.467,-3.276 -3.276,-3.276 h -9.419 V 22.35 c 0.001,-1.808 1.468,-3.275 3.277,-3.275 z"
           style="fill:#ffffff;stroke:#000000" /><circle
           sodipodi:ry="4.6329999"
           sodipodi:rx="4.6329999"
           sodipodi:cy="34.917"
           sodipodi:cx="118.598"
           d="m 123.231,34.917 c 0,2.558735 -2.07427,4.633 -4.633,4.633 -2.55874,0 -4.633,-2.074265 -4.633,-4.633 0,-2.558735 2.07426,-4.633 4.633,-4.633 2.55873,0 4.633,2.074265 4.633,4.633 z"
           id="circle21"
           r="4.6329999"
           cy="34.917"
           cx="118.598"
           style="stroke:#000000" /><circle
           sodipodi:ry="3.336"
           sodipodi:rx="3.336"
           sodipodi:cy="34.917"
           sodipodi:cx="118.598"
           d="m 121.934,34.917 c 0,1.842422 -1.49358,3.336 -3.336,3.336 -1.84242,0 -3.336,-1.493578 -3.336,-3.336 0,-1.842422 1.49358,-3.336 3.336,-3.336 1.84242,0 3.336,1.493578 3.336,3.336 z"
           id="circle23"
           r="3.336"
           cy="34.917"
           cx="118.598"
           style="fill:#ffffff;stroke:#000000" /><rect
           id="rect25"
           height="5.3239999"
           width="3.276"
           style="fill:#ffffff;stroke:#000000"
           transform="matrix(0.0973,0.9953,-0.9953,0.0973,126.7359,-85.2044)"
           y="24.604"
           x="108.702" /><path
           inkscape:connector-curvature="0"
           id="path27"
           d="m 95.256,30.678 h 8.122 c 1.248,0 2.306,-0.798 2.7,-1.911 h 1.431 c 0.02,0.134 0.033,0.27 0.033,0.41 0,1.583 -1.283,2.866 -2.866,2.866 h -9.419 v -1.365 z"
           style="fill:#ffffff;stroke:#000000" /><path
           inkscape:connector-curvature="0"
           id="path29"
           d="m 86.114,28.784 -7.74,-9.546 c 2.298,-1.947 5.27,-3.123 8.517,-3.123 4.669,0 8.77,2.43 11.112,6.092 l -11.889,6.577 z"
           style="fill:#ffffff;stroke:#000000" /><circle
           sodipodi:ry="10.989"
           sodipodi:rx="10.989"
           sodipodi:cy="28.698"
           sodipodi:cx="86.739998"
           d="m 97.728998,28.698 c 0,6.069057 -4.919943,10.989 -10.989,10.989 -6.069057,0 -10.989,-4.919943 -10.989,-10.989 0,-6.069057 4.919943,-10.989 10.989,-10.989 6.069057,0 10.989,4.919943 10.989,10.989 z"
           id="circle31"
           r="10.989"
           cy="28.698"
           cx="86.739998" /><circle
           sodipodi:ry="7.033"
           sodipodi:rx="7.033"
           sodipodi:cy="28.698"
           sodipodi:cx="86.739998"
           d="m 93.772998,28.698 c 0,3.884219 -3.148781,7.033 -7.033,7.033 -3.884219,0 -7.033,-3.148781 -7.033,-7.033 0,-3.884219 3.148781,-7.033 7.033,-7.033 3.884219,0 7.033,3.148781 7.033,7.033 z"
           id="circle33"
           r="7.033"
           cy="28.698"
           cx="86.739998"
           style="fill:#ffffff" /><circle
           sodipodi:ry="2.4619999"
           sodipodi:rx="2.4619999"
           sodipodi:cy="28.698"
           sodipodi:cx="86.739998"
           d="m 89.201998,28.698 c 0,1.359725 -1.102275,2.462 -2.462,2.462 -1.359725,0 -2.462,-1.102275 -2.462,-2.462 0,-1.359725 1.102275,-2.462 2.462,-2.462 1.359725,0 2.462,1.102275 2.462,2.462 z"
           id="circle35"
           r="2.4619999"
           cy="28.698"
           cx="86.739998"
           style="fill:none;stroke:#000000" /><line
           id="line37"
           y2="21.532"
           x2="105.221"
           y1="18.528999"
           x1="104.129"
           style="fill:#ffffff;stroke:#000000;stroke-width:2" /><ellipse
           sodipodi:ry="4.6329999"
           sodipodi:rx="1.448"
           sodipodi:cy="17.948999"
           sodipodi:cx="103.583"
           d="m 105.031,17.948999 c 0,2.558736 -0.64829,4.633 -1.448,4.633 -0.79971,0 -1.448,-2.074264 -1.448,-4.633 0,-2.558735 0.64829,-4.632999 1.448,-4.632999 0.79971,0 1.448,2.074264 1.448,4.632999 z"
           id="ellipse39"
           ry="4.6329999"
           rx="1.448"
           cy="17.948999"
           cx="103.583"
           style="fill:#ffffff;stroke:#000000;stroke-width:2"
           transform="matrix(0.196,0.9806,-0.9806,0.196,100.8865,-87.1431)" /><path
           inkscape:connector-curvature="0"
           id="path41"
           d="m 106.404,27.335 c -0.682,0.228 -1.374,0.394 -2.074,0.542 l -0.192,0.018 c -0.192,0.026 -0.376,-0.044 -0.507,-0.175 l -0.149,-0.149 c -0.114,-0.114 -0.175,-0.263 -0.184,-0.42 l -0.008,-0.228 c -0.149,-1.146 -0.114,-2.301 -0.464,-3.439 -0.28,-0.893 0.035,-1.837 -0.201,-2.739 l -0.167,-0.341 0.245,0.271 0.044,-0.018 c -1.146,-0.07 -2.292,-0.026 -3.439,-0.035 h -0.394 c -0.14,0 -0.263,-0.044 -0.376,-0.123 l -0.149,-0.105 c -0.14,-0.105 -0.228,-0.254 -0.253,-0.429 l -0.035,-0.28 c -0.044,-1.059 -0.525,-2.013 -0.639,-3.072 -0.263,-2.467 -0.14,-4.9 -0.341,-7.341 -0.009,-0.35 0.271,-0.639 0.612,-0.647 0.35,-0.009 0.639,0.263 0.647,0.612 0.228,3.36 -0.035,6.773 0.98,10.028 l 0.026,0.534 -0.253,-0.429 0.148,0.114 -0.367,-0.122 h 0.394 c 1.19,0.026 2.372,-0.053 3.561,0.043 l 0.481,0.193 c 0.105,0.061 0.184,0.148 0.245,0.253 l 0.148,0.368 c 0.114,0.28 0.193,0.577 0.219,0.875 0.061,0.744 -0.097,1.496 0.113,2.196 0.35,1.137 0.271,2.275 0.473,3.404 l 0.009,0.411 -0.184,-0.429 0.14,0.149 -0.508,-0.184 0.289,-0.035 c 0.648,-0.114 1.251,-0.359 1.881,-0.517 0.341,-0.061 0.674,0.167 0.735,0.508 0.063,0.344 -0.165,0.677 -0.506,0.738 l 0,0 z" /><path
           inkscape:connector-curvature="0"
           id="path43"
           d="m 103.91,19.083 c -0.918,-0.114 -1.776,0.297 -2.686,0.254 -0.202,-0.009 -0.438,-0.07 -0.578,-0.21 -1.435,-1.392 -2.582,-2.818 -3.78,-4.506 -0.201,-0.298 -0.394,-0.569 -0.507,-0.901 -0.149,-0.315 -0.018,-0.691 0.297,-0.84 0.315,-0.14 0.691,-0.009 0.84,0.306 0.901,1.855 2.564,3.141 3.693,4.839 0.919,0.07 1.793,-0.35 2.721,-0.201 0.35,0 0.63,0.28 0.63,0.63 0,0.35 -0.28,0.629 -0.63,0.629 l 0,0 z" /><path
           inkscape:connector-curvature="0"
           id="path45"
           d="m 103.551,16.809 c -0.927,0.289 -2.012,0.499 -2.914,0.035 l -0.079,-0.026 c -0.114,-0.035 -0.21,-0.096 -0.289,-0.184 l -0.263,-0.376 c -0.647,-1.969 -1.837,-3.649 -2.695,-5.521 -0.114,-0.324 0.052,-0.691 0.376,-0.805 0.324,-0.123 0.691,0.044 0.805,0.368 0.796,1.715 1.908,3.264 2.512,5.066 l 0.219,0.446 -0.28,-0.193 0.481,0.21 c -0.035,-0.009 -0.07,-0.018 -0.105,-0.026 0.612,0.096 1.251,0.018 1.829,-0.184 0.333,-0.113 0.683,0.062 0.796,0.394 0.113,0.332 -0.06,0.682 -0.393,0.796 l 0,0 z" /><path
           inkscape:connector-curvature="0"
           id="path47"
           d="M 97.75,9.144 C 96.7,9.135 95.755,9.651 94.723,9.756 L 94.311,9.817 94.74,9.555 94.627,9.721 94.618,8.986 94.785,9.214 c 0.639,1.391 1.549,2.573 2.564,3.78 1.041,1.243 1.085,2.835 1.435,4.393 0.122,0.499 0.507,0.875 0.639,1.382 0.123,0.324 -0.053,0.683 -0.376,0.805 -0.324,0.114 -0.691,-0.053 -0.805,-0.385 C 97.341,17.85 97.437,16.205 96.877,14.727 96.781,14.473 96.693,14.21 96.536,14 95.626,12.767 94.585,11.769 93.981,10.395 L 93.605,9.73 C 93.447,9.511 93.438,9.223 93.596,8.995 L 93.71,8.837 c 0.096,-0.14 0.254,-0.236 0.429,-0.262 L 94.55,8.513 c 1.076,-0.148 2.083,-0.665 3.203,-0.63 0.35,0 0.63,0.28 0.63,0.63 0,0.35 -0.283,0.631 -0.633,0.631 l 0,0 z" /><path
           inkscape:connector-curvature="0"
           id="path49"
           d="M 101.309,3.93 C 100.22,3.766 99.13,3.812 98.021,3.97 97.043,4.108 96.085,4.035 95.12,4.042 h -0.111 c -0.118,0 -0.23,-0.04 -0.315,-0.118 L 94.418,3.622 C 94.293,3.136 94.09,2.624 94.267,2.132 94.674,1.016 95.855,0.55 96.852,0.058 97.03,-0.027 97.246,-0.008 97.456,0.045 98.709,0.334 99.012,1.567 99.287,2.611 99.359,2.86 99.215,3.123 98.965,3.195 98.716,3.267 98.453,3.123 98.381,2.867 98.152,2.119 98.007,1.325 97.272,0.885 96.504,1.404 94.968,1.745 95.205,2.933 l 0.112,0.282 -0.309,-0.118 h 0.275 c 1.253,0.006 2.494,-0.033 3.761,-0.177 0.813,-0.085 1.627,-0.079 2.435,0.079 0.256,0.046 0.427,0.295 0.38,0.551 -0.046,0.256 -0.295,0.426 -0.55,0.38 l 0,0 z" /><path
           inkscape:connector-curvature="0"
           id="path51"
           d="m 95.428,4.554 c 0.269,0.473 0.033,1.162 0.532,1.529 0.197,0.17 0.216,0.466 0.046,0.663 C 95.835,6.943 95.54,6.963 95.343,6.792 94.68,6.379 94.792,5.539 94.549,4.896 c -0.092,-0.249 0.026,-0.518 0.269,-0.61 0.249,-0.093 0.518,0.025 0.61,0.268 l 0,0 z" /><path
           inkscape:connector-curvature="0"
           id="path53"
           d="m 99.628,3.878 c 0.138,0.38 0.321,0.755 0.341,1.168 l 0.006,0.21 -0.151,-0.348 0.105,0.099 c 0.099,0.092 0.151,0.216 0.151,0.348 0,0.263 -0.21,0.473 -0.472,0.473 h -0.145 c -0.23,0 -0.466,0 -0.696,0 H 98.636 L 99.043,5.592 99.03,5.487 C 99.259,6.51 98.485,7.233 97.652,7.672 97.449,7.836 97.147,7.803 96.989,7.6 96.825,7.396 96.858,7.095 97.061,6.931 97.625,6.59 98.255,6.235 98.104,5.468 L 98.222,5.12 c 0.085,-0.145 0.243,-0.236 0.413,-0.236 h 0.375 c 0.098,0 0.203,0 0.302,0 h 0.295 L 99.285,5.704 99.18,5.606 C 99.088,5.521 99.029,5.396 99.029,5.265 L 99.088,5.114 C 99.022,4.799 98.74,4.589 98.806,4.215 c -0.02,0.007 -0.04,0.007 -0.059,0.013 -0.099,-0.243 0.026,-0.519 0.269,-0.61 0.245,-0.101 0.514,0.017 0.612,0.26 l 0,0 z" /></g><rect
         id="rect55"
         height="70.5"
         width="88.5"
         style="fill:#b4b4b4;stroke:#000000"
         y="40.012001"
         x="64.852127" /><rect
         id="rect57"
         height="70.144997"
         width="88.054001"
         style="fill:#b4b4b4"
         y="40.647999"
         x="65.575127" /><circle
         sodipodi:ry="3.9779999"
         sodipodi:rx="3.9779999"
         sodipodi:cy="27.355"
         sodipodi:cx="28.709"
         d="m 32.687,27.355 c 0,2.196988 -1.781012,3.977999 -3.978,3.977999 -2.196989,0 -3.978,-1.781011 -3.978,-3.977999 0,-2.196989 1.781011,-3.978 3.978,-3.978 2.196988,0 3.978,1.781011 3.978,3.978 z"
         id="circle59"
         r="3.9779999"
         cy="27.355"
         cx="28.709"
         style="fill:#d6d6d6;stroke:#000000"
         transform="translate(22.924126,0)" /><line
         id="line61"
         y2="23.378"
         x2="99.352127"
         y1="23.378"
         x1="51.633125"
         style="fill:#d6d6d6;stroke:#000000" /><line
         id="line63"
         y2="73.387001"
         x2="46.852127"
         y1="26.886999"
         x1="46.852127"
         style="fill:#d6d6d6;stroke:#000000" /><rect
         id="rect65"
         height="21"
         width="17.25"
         style="fill:#d6d6d6;stroke:#000000"
         y="72.637001"
         x="38.227127" /></g></g><g
     id="g4475"
     transform="translate(-9.1856569,2.3499047)"><rect
       y="-8.8612976"
       x="176.2137"
       height="117.97539"
       width="116.66595"
       id="rect3399-8"
       style="fill:#dedede;fill-opacity:1;stroke:none;overflow:visible" /><g
       id="g4409"><line
         style="fill:#d6d6d6;stroke:#000000"
         x1="243.87965"
         y1="56.927021"
         x2="181.62965"
         y2="56.927021"
         id="line3055" /><g
         id="g3057"
         transform="translate(160.55365,30.819021)"><rect
           x="99.883003"
           y="22.214001"
           style="fill:#ffffff"
           width="9.5030003"
           height="6.006"
           id="rect3059" /><path
           inkscape:connector-curvature="0"
           style="fill:#d6d6d6;stroke:#000000"
           d="m 102.431,20.669 3.844,0.389 c -0.091,0.9 -0.895,1.556 -1.794,1.465 l -5.976,-0.605 c -0.849,-0.086 -1.479,-0.805 -1.473,-1.641 -1.31,-6.56 4.404,-1.326 5.399,0.392 z"
           id="path3061" /><rect
           x="109.276"
           y="21.532"
           style="fill:#ededed"
           width="12.285"
           height="9.8280001"
           id="rect3063" /><rect
           x="108.15"
           y="19.74"
           transform="matrix(-0.1445,0.9895,-0.9895,-0.1445,154.0072,-74.4201)"
           style="fill:#ffffff;stroke:#000000"
           width="2.0469999"
           height="19.247"
           id="rect3065" /><rect
           x="116.906"
           y="23.462999"
           transform="matrix(-0.999,-0.044,0.044,-0.999,235.1935,56.3584)"
           style="fill:#ffffff;stroke:#000000"
           width="2.6210001"
           height="4.2589998"
           id="rect3067" /><path
           inkscape:connector-curvature="0"
           style="fill:#ffffff;stroke:#000000"
           d="m 111.733,19.075 h 11.875 c 1.81,0 3.276,1.467 3.276,3.276 v 0.819 h -1.229 v 8.698 c -0.561,0.45 -1.272,0.721 -2.047,0.721 h -2.457 v -5.733 c 0,-1.81 -1.467,-3.276 -3.276,-3.276 h -9.419 v -1.229 c 10e-4,-1.809 1.467,-3.276 3.277,-3.276 z"
           id="path3069" /><circle
           d="m 127.286,34.917 c 0,2.558735 -2.07426,4.633 -4.633,4.633 -2.55874,0 -4.633,-2.074265 -4.633,-4.633 0,-2.558735 2.07426,-4.633 4.633,-4.633 2.55874,0 4.633,2.074265 4.633,4.633 z"
           sodipodi:ry="4.6329999"
           sodipodi:rx="4.6329999"
           sodipodi:cy="34.917"
           sodipodi:cx="122.653"
           style="stroke:#000000"
           cx="122.653"
           cy="34.917"
           r="4.6329999"
           id="circle3071" /><circle
           d="m 125.989,34.917 c 0,1.842422 -1.49358,3.336 -3.336,3.336 -1.84242,0 -3.336,-1.493578 -3.336,-3.336 0,-1.842422 1.49358,-3.336 3.336,-3.336 1.84242,0 3.336,1.493578 3.336,3.336 z"
           sodipodi:ry="3.336"
           sodipodi:rx="3.336"
           sodipodi:cy="34.917"
           sodipodi:cx="122.653"
           style="fill:#ffffff;stroke:#000000"
           cx="122.653"
           cy="34.917"
           r="3.336"
           id="circle3073" /><rect
           x="112.757"
           y="24.603001"
           transform="matrix(0.0973,0.9953,-0.9953,0.0973,130.3955,-89.2403)"
           style="fill:#ffffff;stroke:#000000"
           width="3.276"
           height="5.3239999"
           id="rect3075" /><path
           inkscape:connector-curvature="0"
           style="fill:#ffffff;stroke:#000000"
           d="m 99.311,30.678 h 8.122 c 1.248,0 2.306,-0.799 2.7,-1.912 h 1.431 c 0.019,0.134 0.032,0.271 0.032,0.41 0,1.583 -1.283,2.867 -2.866,2.867 h -9.419 v -1.365 z"
           id="path3077" /><path
           inkscape:connector-curvature="0"
           style="fill:#ffffff;stroke:#000000"
           d="m 90.169,28.784 -7.74,-9.545 c 2.298,-1.947 5.27,-3.123 8.517,-3.123 4.669,0 8.77,2.43 11.112,6.091 l -11.889,6.577 z"
           id="path3079" /><circle
           d="m 101.784,28.698 c 0,6.069057 -4.919945,10.989 -10.989002,10.989 -6.069057,0 -10.989,-4.919943 -10.989,-10.989 0,-6.069057 4.919943,-10.989 10.989,-10.989 6.069057,0 10.989002,4.919943 10.989002,10.989 z"
           sodipodi:ry="10.989"
           sodipodi:rx="10.989"
           sodipodi:cy="28.698"
           sodipodi:cx="90.794998"
           cx="90.794998"
           cy="28.698"
           r="10.989"
           id="circle3081" /><circle
           d="m 97.827998,28.698 c 0,3.884219 -3.148781,7.033 -7.033,7.033 -3.884218,0 -7.033,-3.148781 -7.033,-7.033 0,-3.884219 3.148782,-7.033 7.033,-7.033 3.884219,0 7.033,3.148781 7.033,7.033 z"
           sodipodi:ry="7.033"
           sodipodi:rx="7.033"
           sodipodi:cy="28.698"
           sodipodi:cx="90.794998"
           style="fill:#ffffff"
           cx="90.794998"
           cy="28.698"
           r="7.033"
           id="circle3083" /><circle
           d="m 93.256998,28.698 c 0,1.359725 -1.102275,2.462 -2.462,2.462 -1.359725,0 -2.462,-1.102275 -2.462,-2.462 0,-1.359725 1.102275,-2.462 2.462,-2.462 1.359725,0 2.462,1.102275 2.462,2.462 z"
           sodipodi:ry="2.4619999"
           sodipodi:rx="2.4619999"
           sodipodi:cy="28.698"
           sodipodi:cx="90.794998"
           style="fill:none;stroke:#000000"
           cx="90.794998"
           cy="28.698"
           r="2.4619999"
           id="circle3085" /><line
           style="fill:#ffffff;stroke:#000000;stroke-width:2"
           x1="108.184"
           y1="18.528999"
           x2="109.276"
           y2="21.532"
           id="line3087" /><ellipse
           d="m 109.086,17.948 c 0,2.558735 -0.64829,4.633 -1.448,4.633 -0.79971,0 -1.448,-2.074265 -1.448,-4.633 0,-2.558735 0.64829,-4.633 1.448,-4.633 0.79971,0 1.448,2.074265 1.448,4.633 z"
           sodipodi:ry="4.6329999"
           sodipodi:rx="1.448"
           sodipodi:cy="17.948"
           sodipodi:cx="107.638"
           transform="matrix(0.196,0.9806,-0.9806,0.196,104.1462,-91.1195)"
           style="fill:#ffffff;stroke:#000000;stroke-width:2"
           cx="107.638"
           cy="17.948"
           rx="1.448"
           ry="4.6329999"
           id="ellipse3089" /><path
           inkscape:connector-curvature="0"
           d="m 110.458,27.334 c -0.682,0.228 -1.374,0.394 -2.074,0.542 l -0.192,0.018 C 108,27.92 107.816,27.851 107.685,27.719 l -0.149,-0.149 c -0.114,-0.114 -0.175,-0.263 -0.184,-0.42 l -0.009,-0.228 c -0.149,-1.146 -0.114,-2.301 -0.464,-3.439 -0.28,-0.893 0.035,-1.837 -0.201,-2.739 l -0.167,-0.341 0.245,0.271 0.044,-0.018 c -1.146,-0.07 -2.292,-0.026 -3.439,-0.035 h -0.394 c -0.14,0 -0.263,-0.044 -0.376,-0.123 l -0.149,-0.105 c -0.14,-0.105 -0.227,-0.253 -0.253,-0.429 l -0.035,-0.28 c -0.044,-1.059 -0.525,-2.013 -0.639,-3.071 -0.263,-2.468 -0.14,-4.9 -0.341,-7.341 -0.009,-0.35 0.271,-0.639 0.613,-0.647 0.35,-0.009 0.639,0.262 0.647,0.612 0.228,3.36 -0.035,6.772 0.98,10.028 l 0.026,0.534 -0.253,-0.429 0.148,0.114 -0.367,-0.123 h 0.394 c 1.19,0.026 2.372,-0.052 3.562,0.043 l 0.481,0.193 c 0.105,0.061 0.184,0.148 0.245,0.253 l 0.148,0.368 c 0.114,0.28 0.193,0.578 0.219,0.875 0.061,0.744 -0.096,1.496 0.114,2.196 0.35,1.138 0.271,2.275 0.472,3.404 l 0.009,0.412 -0.184,-0.429 0.14,0.149 -0.508,-0.184 0.289,-0.035 c 0.647,-0.114 1.251,-0.359 1.881,-0.516 0.341,-0.062 0.674,0.166 0.735,0.507 0.062,0.344 -0.165,0.676 -0.507,0.737 l 0,0 z"
           id="path3091" /><path
           inkscape:connector-curvature="0"
           d="m 107.965,19.083 c -0.918,-0.113 -1.776,0.298 -2.686,0.254 -0.202,-0.009 -0.438,-0.07 -0.578,-0.21 -1.435,-1.392 -2.582,-2.817 -3.78,-4.506 -0.201,-0.297 -0.394,-0.569 -0.507,-0.901 -0.149,-0.315 -0.018,-0.691 0.297,-0.84 0.315,-0.14 0.691,-0.009 0.84,0.306 0.901,1.855 2.564,3.141 3.693,4.839 0.919,0.07 1.794,-0.35 2.721,-0.201 0.35,0 0.63,0.28 0.63,0.63 0,0.35 -0.28,0.629 -0.63,0.629 l 0,0 z"
           id="path3093" /><path
           inkscape:connector-curvature="0"
           d="m 107.606,16.808 c -0.927,0.289 -2.012,0.499 -2.914,0.035 l -0.079,-0.026 c -0.114,-0.035 -0.21,-0.096 -0.289,-0.184 l -0.262,-0.376 c -0.647,-1.969 -1.838,-3.649 -2.695,-5.521 -0.114,-0.324 0.053,-0.691 0.376,-0.805 0.324,-0.123 0.691,0.043 0.805,0.367 0.796,1.715 1.908,3.264 2.512,5.066 l 0.219,0.446 -0.28,-0.192 0.481,0.21 c -0.035,-0.009 -0.07,-0.018 -0.105,-0.026 0.612,0.097 1.251,0.018 1.829,-0.184 0.333,-0.114 0.683,0.061 0.796,0.394 0.113,0.333 -0.062,0.682 -0.394,0.796 l 0,0 z"
           id="path3095" /><path
           inkscape:connector-curvature="0"
           d="M 101.805,9.143 C 100.755,9.134 99.81,9.65 98.778,9.755 l -0.412,0.062 0.429,-0.263 -0.114,0.167 -0.009,-0.735 0.166,0.228 c 0.639,1.392 1.549,2.573 2.564,3.78 1.041,1.242 1.085,2.835 1.435,4.393 0.123,0.499 0.507,0.875 0.639,1.382 0.123,0.324 -0.053,0.683 -0.376,0.805 -0.324,0.114 -0.691,-0.052 -0.805,-0.385 -0.901,-1.338 -0.805,-2.983 -1.365,-4.462 -0.096,-0.254 -0.184,-0.516 -0.341,-0.726 -0.91,-1.234 -1.951,-2.231 -2.555,-3.605 L 97.658,9.73 C 97.501,9.512 97.491,9.223 97.649,8.995 l 0.114,-0.157 c 0.096,-0.14 0.254,-0.236 0.429,-0.263 l 0.411,-0.061 c 1.076,-0.149 2.083,-0.666 3.203,-0.63 0.35,0 0.63,0.28 0.63,0.63 -0.001,0.349 -0.281,0.629 -0.631,0.629 l 0,0 z"
           id="path3097" /><path
           inkscape:connector-curvature="0"
           d="m 105.363,3.93 c -1.089,-0.164 -2.179,-0.118 -3.288,0.039 -0.978,0.138 -1.936,0.066 -2.901,0.072 h -0.111 c -0.118,0 -0.229,-0.04 -0.315,-0.118 L 98.472,3.621 c -0.125,-0.485 -0.328,-0.998 -0.151,-1.49 0.407,-1.116 1.588,-1.582 2.585,-2.074 0.178,-0.085 0.394,-0.066 0.604,-0.013 1.253,0.289 1.556,1.522 1.831,2.566 0.072,0.25 -0.072,0.512 -0.322,0.584 -0.249,0.072 -0.512,-0.072 -0.584,-0.329 -0.229,-0.748 -0.374,-1.542 -1.109,-1.981 -0.768,0.518 -2.304,0.859 -2.067,2.047 l 0.112,0.282 -0.309,-0.118 h 0.275 c 1.253,0.006 2.494,-0.033 3.761,-0.177 0.813,-0.085 1.627,-0.079 2.435,0.079 0.256,0.046 0.427,0.295 0.38,0.551 -0.045,0.257 -0.294,0.428 -0.55,0.382 l 0,0 z"
           id="path3099" /><path
           inkscape:connector-curvature="0"
           d="m 99.483,4.554 c 0.269,0.472 0.033,1.162 0.532,1.529 0.197,0.171 0.216,0.466 0.046,0.663 C 99.89,6.943 99.595,6.962 99.398,6.792 98.735,6.378 98.847,5.539 98.604,4.896 98.512,4.646 98.63,4.377 98.873,4.285 c 0.249,-0.093 0.518,0.026 0.61,0.269 l 0,0 z"
           id="path3101" /><path
           inkscape:connector-curvature="0"
           d="m 103.683,3.877 c 0.138,0.381 0.322,0.755 0.341,1.168 l 0.006,0.21 -0.151,-0.348 0.105,0.099 c 0.099,0.092 0.151,0.216 0.151,0.348 0,0.263 -0.21,0.473 -0.472,0.473 h -0.145 c -0.23,0 -0.466,0 -0.696,0 h -0.131 l 0.407,-0.236 -0.013,-0.105 c 0.229,1.024 -0.545,1.746 -1.378,2.186 -0.203,0.164 -0.505,0.131 -0.663,-0.072 -0.164,-0.204 -0.131,-0.505 0.072,-0.669 0.564,-0.341 1.194,-0.696 1.043,-1.463 l 0.118,-0.348 c 0.085,-0.145 0.243,-0.236 0.414,-0.236 h 0.374 c 0.098,0 0.203,0 0.302,0 h 0.295 l -0.322,0.82 -0.105,-0.099 c -0.092,-0.085 -0.151,-0.21 -0.151,-0.341 l 0.059,-0.151 c -0.066,-0.315 -0.348,-0.525 -0.282,-0.899 -0.02,0.006 -0.04,0.006 -0.059,0.013 -0.099,-0.243 0.026,-0.519 0.269,-0.61 0.244,-0.1 0.513,0.018 0.612,0.26 l 0,0 z"
           id="path3103" /></g><path
         inkscape:connector-curvature="0"
         style="fill:#d6d6d6;stroke:#000000"
         d="m 180.12965,55.927021 h 15 c 0,0 -0.5,13.75 8.75,15 9.25,1.25 -27.25,0.75 -23.75,-15 z"
         id="path3105" /><g
         id="g4326"><path
           id="path3107-0"
           d="m 176.62964,71.923074 3.75,-2.25 6.5,-0.25 c 0,0 1.75,3 2.5,2.75 0.75,-0.25 6.25,-2.75 6.25,-2.75 h 6.5 l 12.25,1 c 0,0 -1.25,3 1.25,3 2.5,0 10,0.25 11,0 1,-0.25 4.75,-0.75 5.75,-0.75 1,0 7.5,-2.5 8.5,-2.5 1,0 5.25,0.5 6,0.5 0.75001,0 11.75001,-0.25 11.75001,-0.25 l 7.75,-1.25 6.75,0.25 9.75,2.25 4.25,-1.25 5.75,1.75 v 7.75 H 176.37964 l 0.25,-8 z"
           style="fill:#b9b9b9;fill-opacity:1;stroke:none;overflow:visible"
           inkscape:connector-curvature="0" /><path
           sodipodi:nodetypes="cccccscccssssscccccc"
           id="path3107"
           d="m 292.37965,79.927021 -116.5,0 m 0.25,-8 3.75,-2.25 6.5,-0.25 c 0,0 1.75,3 2.5,2.75 0.75,-0.25 6.25,-2.75 6.25,-2.75 l 6.5,0 12.25,1 c 0,0 -1.25,3 1.25,3 2.5,0 10,0.25 11,0 1,-0.25 4.75,-0.75 5.75,-0.75 1,0 7.5,-2.5 8.5,-2.5 1,0 5.25,0.5 6,0.5 0.75,0 11.75,-0.25 11.75,-0.25 l 7.75,-1.25 6.75,0.25 9.75,2.25 4.25,-1.25 5.75,1.75"
           style="fill:none;stroke:#000000"
           inkscape:connector-curvature="0" /></g></g></g><g
     id="g4508"
     transform="translate(-22.32039,3.8074347)"><rect
       y="-10.318835"
       x="313.41684"
       height="117.9754"
       width="138.98634"
       id="rect3399-8-4"
       style="fill:#dedede;fill-opacity:1;stroke:none;overflow:visible" /><g
       id="g4378"><g
         id="g3120"
         transform="translate(309.47296,33.299732)"><line
           id="line3122"
           y2="21.327"
           x2="77.5"
           y1="21.327"
           x1="92.75"
           style="fill:#d6d6d6;stroke:#000000;stroke-width:1.5" /><g
           id="g3124"><rect
             id="rect3126"
             height="6.006"
             width="9.5030003"
             style="fill:#ffffff"
             y="22.214001"
             x="109.308" /><path
             id="path3128"
             d="m 111.855,20.669 3.844,0.389 c -0.091,0.9 -0.895,1.556 -1.794,1.465 l -5.976,-0.605 c -0.849,-0.086 -1.479,-0.805 -1.473,-1.641 -1.31,-6.56 4.404,-1.327 5.399,0.392 z"
             style="fill:#d6d6d6;stroke:#000000"
             inkscape:connector-curvature="0" /><rect
             id="rect3130"
             height="9.8280001"
             width="12.285"
             style="fill:#ededed"
             y="21.531"
             x="118.7" /><rect
             id="rect3132"
             height="19.247"
             width="2.0469999"
             style="fill:#ffffff;stroke:#000000"
             transform="matrix(-0.1445,0.9895,-0.9895,-0.1445,164.7931,-83.746)"
             y="19.74"
             x="117.574" /><rect
             id="rect3134"
             height="4.2589998"
             width="2.6210001"
             style="fill:#ffffff;stroke:#000000"
             transform="matrix(-0.999,-0.0438,0.0438,-0.999,254.0388,56.7488)"
             y="23.462999"
             x="126.331" /><path
             id="path3136"
             d="m 121.157,19.074 h 11.875 c 1.81,0 3.276,1.467 3.276,3.276 v 0.819 h -1.229 v 8.698 c -0.561,0.45 -1.272,0.721 -2.047,0.721 h -2.457 v -5.733 c 0,-1.81 -1.467,-3.276 -3.276,-3.276 h -9.419 v -1.228 c 0.001,-1.81 1.468,-3.277 3.277,-3.277 z"
             style="fill:#ffffff;stroke:#000000"
             inkscape:connector-curvature="0" /><circle
             id="circle3138"
             r="4.6329999"
             cy="34.917"
             cx="132.077"
             style="stroke:#000000"
             d="m 136.71,34.917 c 0,2.558735 -2.07427,4.633 -4.633,4.633 -2.55874,0 -4.633,-2.074265 -4.633,-4.633 0,-2.558735 2.07426,-4.633 4.633,-4.633 2.55873,0 4.633,2.074265 4.633,4.633 z"
             sodipodi:cx="132.077"
             sodipodi:cy="34.917"
             sodipodi:rx="4.6329999"
             sodipodi:ry="4.6329999" /><circle
             id="circle3140"
             r="3.336"
             cy="34.917"
             cx="132.077"
             style="fill:#ffffff;stroke:#000000"
             d="m 135.413,34.917 c 0,1.842422 -1.49358,3.336 -3.336,3.336 -1.84243,0 -3.336,-1.493578 -3.336,-3.336 0,-1.842422 1.49357,-3.336 3.336,-3.336 1.84242,0 3.336,1.493578 3.336,3.336 z"
             sodipodi:cx="132.077"
             sodipodi:cy="34.917"
             sodipodi:rx="3.336"
             sodipodi:ry="3.336" /><rect
             id="rect3142"
             height="5.3239999"
             width="3.276"
             style="fill:#ffffff;stroke:#000000"
             transform="matrix(0.0973,0.9953,-0.9953,0.0973,138.902,-98.6203)"
             y="24.603001"
             x="122.181" /><path
             id="path3144"
             d="m 108.735,30.677 h 8.122 c 1.248,0 2.306,-0.798 2.7,-1.911 h 1.431 c 0.019,0.134 0.032,0.27 0.032,0.409 0,1.583 -1.283,2.867 -2.866,2.867 h -9.419 v -1.365 z"
             style="fill:#ffffff;stroke:#000000"
             inkscape:connector-curvature="0" /><path
             id="path3146"
             d="m 99.593,28.783 -7.74,-9.545 c 2.298,-1.947 5.27,-3.123 8.517,-3.123 4.669,0 8.77,2.43 11.112,6.091 l -11.889,6.577 z"
             style="fill:#ffffff;stroke:#000000"
             inkscape:connector-curvature="0" /><circle
             id="circle3148"
             r="10.989"
             cy="28.697001"
             cx="100.219"
             d="m 111.208,28.697001 c 0,6.069057 -4.91994,10.989 -10.989,10.989 -6.069056,0 -10.988999,-4.919943 -10.988999,-10.989 0,-6.069058 4.919943,-10.989001 10.988999,-10.989001 6.06906,0 10.989,4.919943 10.989,10.989001 z"
             sodipodi:cx="100.219"
             sodipodi:cy="28.697001"
             sodipodi:rx="10.989"
             sodipodi:ry="10.989" /><circle
             id="circle3150"
             r="7.033"
             cy="28.697001"
             cx="100.219"
             style="fill:#ffffff"
             d="m 107.252,28.697001 c 0,3.884218 -3.14878,7.032999 -7.033,7.032999 -3.884217,0 -7.032998,-3.148781 -7.032998,-7.032999 0,-3.884219 3.148781,-7.033 7.032998,-7.033 3.88422,0 7.033,3.148781 7.033,7.033 z"
             sodipodi:cx="100.219"
             sodipodi:cy="28.697001"
             sodipodi:rx="7.033"
             sodipodi:ry="7.033" /><circle
             id="circle3152"
             r="2.4619999"
             cy="28.697001"
             cx="100.219"
             style="fill:none;stroke:#000000"
             d="m 102.681,28.697001 c 0,1.359724 -1.10227,2.461999 -2.462,2.461999 -1.359723,0 -2.461998,-1.102275 -2.461998,-2.461999 0,-1.359725 1.102275,-2.462 2.461998,-2.462 1.35973,0 2.462,1.102275 2.462,2.462 z"
             sodipodi:cx="100.219"
             sodipodi:cy="28.697001"
             sodipodi:rx="2.4619999"
             sodipodi:ry="2.4619999" /><line
             id="line3154"
             y2="21.531"
             x2="118.7"
             y1="18.528"
             x1="117.608"
             style="fill:#ffffff;stroke:#000000;stroke-width:2" /><ellipse
             id="ellipse3156"
             ry="4.6329999"
             rx="1.448"
             cy="17.948"
             cx="117.062"
             style="fill:#ffffff;stroke:#000000;stroke-width:2"
             transform="matrix(0.196,0.9806,-0.9806,0.196,111.7233,-100.3615)"
             d="m 118.51,17.948 c 0,2.558735 -0.6483,4.633 -1.448,4.633 -0.79971,0 -1.448,-2.074265 -1.448,-4.633 0,-2.558735 0.64829,-4.633 1.448,-4.633 0.7997,0 1.448,2.074265 1.448,4.633 z"
             sodipodi:cx="117.062"
             sodipodi:cy="17.948"
             sodipodi:rx="1.448"
             sodipodi:ry="4.6329999" /><path
             id="path3158"
             d="m 119.883,27.334 c -0.682,0.228 -1.374,0.394 -2.074,0.542 l -0.192,0.018 c -0.192,0.026 -0.376,-0.043 -0.507,-0.175 l -0.149,-0.149 c -0.114,-0.114 -0.175,-0.262 -0.184,-0.42 l -0.009,-0.228 c -0.149,-1.146 -0.114,-2.301 -0.464,-3.439 -0.28,-0.892 0.035,-1.837 -0.201,-2.739 l -0.167,-0.341 0.245,0.271 0.044,-0.018 c -1.146,-0.07 -2.292,-0.026 -3.439,-0.035 h -0.394 c -0.14,0 -0.263,-0.043 -0.376,-0.122 l -0.149,-0.105 c -0.14,-0.104 -0.227,-0.253 -0.253,-0.428 l -0.035,-0.28 c -0.044,-1.059 -0.525,-2.013 -0.639,-3.071 -0.263,-2.468 -0.14,-4.9 -0.341,-7.341 -0.009,-0.35 0.271,-0.639 0.613,-0.647 0.35,-0.009 0.639,0.262 0.647,0.612 0.228,3.36 -0.035,6.772 0.98,10.028 l 0.026,0.534 -0.253,-0.429 0.148,0.114 -0.367,-0.123 h 0.394 c 1.19,0.026 2.372,-0.053 3.562,0.043 l 0.481,0.193 c 0.105,0.061 0.184,0.148 0.245,0.253 l 0.148,0.368 c 0.114,0.28 0.193,0.578 0.219,0.875 0.061,0.744 -0.096,1.497 0.114,2.196 0.35,1.138 0.271,2.275 0.472,3.404 l 0.009,0.411 -0.184,-0.429 0.14,0.149 -0.508,-0.184 0.289,-0.035 c 0.647,-0.114 1.251,-0.359 1.881,-0.516 0.341,-0.062 0.674,0.166 0.735,0.507 0.062,0.342 -0.166,0.675 -0.507,0.736 l 0,0 z"
             inkscape:connector-curvature="0" /><path
             id="path3160"
             d="m 117.389,19.083 c -0.918,-0.113 -1.776,0.298 -2.686,0.254 -0.202,-0.009 -0.438,-0.07 -0.578,-0.21 -1.435,-1.391 -2.582,-2.817 -3.78,-4.506 -0.201,-0.297 -0.394,-0.569 -0.507,-0.901 -0.149,-0.315 -0.018,-0.691 0.297,-0.84 0.315,-0.14 0.691,-0.009 0.84,0.306 0.901,1.855 2.564,3.141 3.693,4.839 0.919,0.07 1.794,-0.35 2.721,-0.201 0.35,0 0.63,0.28 0.63,0.63 0,0.35 -0.28,0.629 -0.63,0.629 l 0,0 z"
             inkscape:connector-curvature="0" /><path
             id="path3162"
             d="m 117.03,16.808 c -0.927,0.289 -2.012,0.499 -2.914,0.035 l -0.079,-0.026 c -0.114,-0.035 -0.21,-0.096 -0.289,-0.184 l -0.262,-0.376 c -0.647,-1.969 -1.838,-3.649 -2.695,-5.521 -0.114,-0.324 0.053,-0.691 0.376,-0.805 0.324,-0.123 0.691,0.044 0.805,0.367 0.796,1.715 1.908,3.264 2.512,5.066 l 0.219,0.446 -0.28,-0.192 0.481,0.21 c -0.035,-0.009 -0.07,-0.018 -0.105,-0.026 0.612,0.096 1.251,0.018 1.829,-0.184 0.333,-0.114 0.683,0.062 0.796,0.394 0.114,0.332 -0.061,0.682 -0.394,0.796 l 0,0 z"
             inkscape:connector-curvature="0" /><path
             id="path3164"
             d="m 111.229,9.143 c -1.05,-0.009 -1.995,0.507 -3.027,0.612 l -0.412,0.061 0.429,-0.262 -0.114,0.167 -0.009,-0.735 0.166,0.228 c 0.639,1.392 1.549,2.573 2.564,3.78 1.041,1.242 1.085,2.835 1.435,4.393 0.123,0.499 0.507,0.875 0.639,1.382 0.123,0.324 -0.053,0.683 -0.376,0.805 -0.324,0.114 -0.691,-0.052 -0.805,-0.385 -0.901,-1.339 -0.805,-2.984 -1.365,-4.463 -0.096,-0.254 -0.184,-0.516 -0.341,-0.726 -0.91,-1.234 -1.951,-2.231 -2.555,-3.605 L 107.082,9.73 c -0.157,-0.219 -0.167,-0.508 -0.009,-0.735 l 0.114,-0.157 c 0.096,-0.14 0.254,-0.236 0.429,-0.263 l 0.411,-0.061 c 1.076,-0.149 2.083,-0.665 3.203,-0.63 0.35,0 0.63,0.28 0.63,0.63 -0.001,0.348 -0.281,0.629 -0.631,0.629 l 0,0 z"
             inkscape:connector-curvature="0" /><path
             id="path3166"
             d="m 114.788,3.93 c -1.089,-0.164 -2.179,-0.118 -3.288,0.039 -0.978,0.138 -1.936,0.066 -2.901,0.072 h -0.111 c -0.118,0 -0.229,-0.039 -0.315,-0.118 l -0.276,-0.302 c -0.125,-0.486 -0.328,-0.998 -0.151,-1.49 0.407,-1.116 1.588,-1.582 2.585,-2.074 0.178,-0.085 0.394,-0.065 0.604,-0.013 1.253,0.289 1.556,1.522 1.831,2.566 0.072,0.25 -0.072,0.512 -0.322,0.584 -0.249,0.072 -0.512,-0.072 -0.584,-0.328 -0.229,-0.749 -0.374,-1.542 -1.109,-1.982 -0.768,0.518 -2.304,0.859 -2.067,2.047 l 0.112,0.282 -0.309,-0.118 h 0.275 c 1.253,0.006 2.494,-0.033 3.761,-0.177 0.813,-0.085 1.627,-0.079 2.435,0.079 0.256,0.046 0.427,0.295 0.38,0.551 -0.046,0.257 -0.295,0.428 -0.55,0.382 l 0,0 z"
             inkscape:connector-curvature="0" /><path
             id="path3168"
             d="m 108.907,4.553 c 0.269,0.472 0.033,1.161 0.532,1.529 0.197,0.171 0.216,0.466 0.046,0.663 -0.171,0.197 -0.466,0.216 -0.663,0.046 -0.663,-0.414 -0.551,-1.253 -0.794,-1.897 -0.092,-0.249 0.026,-0.518 0.269,-0.61 0.249,-0.092 0.518,0.026 0.61,0.269 l 0,0 z"
             inkscape:connector-curvature="0" /><path
             id="path3170"
             d="m 113.107,3.877 c 0.138,0.381 0.322,0.755 0.341,1.168 l 0.006,0.21 -0.151,-0.348 0.105,0.098 c 0.099,0.092 0.151,0.217 0.151,0.348 0,0.263 -0.21,0.473 -0.472,0.473 h -0.145 c -0.23,0 -0.466,0 -0.696,0 h -0.131 l 0.407,-0.236 -0.013,-0.105 c 0.229,1.024 -0.545,1.746 -1.378,2.186 -0.203,0.164 -0.505,0.131 -0.663,-0.072 -0.164,-0.204 -0.131,-0.505 0.072,-0.669 0.564,-0.341 1.194,-0.695 1.043,-1.463 l 0.118,-0.348 c 0.085,-0.145 0.243,-0.236 0.414,-0.236 h 0.374 c 0.098,0 0.203,0 0.302,0 h 0.295 l -0.322,0.82 -0.105,-0.099 c -0.092,-0.085 -0.151,-0.21 -0.151,-0.341 l 0.059,-0.151 c -0.066,-0.315 -0.348,-0.525 -0.282,-0.899 -0.02,0.006 -0.04,0.006 -0.059,0.013 -0.099,-0.243 0.026,-0.519 0.269,-0.61 0.245,-0.1 0.514,0.018 0.612,0.261 l 0,0 z"
             inkscape:connector-curvature="0" /></g><rect
           id="rect3172"
           height="31.25"
           width="70"
           style="fill:#d6d6d6;stroke:#000000"
           y="2.3269999"
           x="11.25" /><circle
           id="circle3174"
           r="3.8889999"
           cy="34.327"
           cx="74.125"
           style="fill:#d6d6d6;stroke:#000000;stroke-width:3"
           d="m 78.014,34.327 c 0,2.147835 -1.741165,3.889 -3.889,3.889 -2.147835,0 -3.889,-1.741165 -3.889,-3.889 0,-2.147836 1.741165,-3.889 3.889,-3.889 2.147835,0 3.889,1.741164 3.889,3.889 z"
           sodipodi:cx="74.125"
           sodipodi:cy="34.327"
           sodipodi:rx="3.8889999"
           sodipodi:ry="3.8889999" /><circle
           id="circle3176"
           r="3.8889999"
           cy="34.014"
           cx="17.688"
           style="fill:#d6d6d6;stroke:#000000;stroke-width:3"
           d="m 21.577,34.014 c 0,2.147835 -1.741165,3.889 -3.889,3.889 -2.147836,0 -3.889,-1.741165 -3.889,-3.889 0,-2.147835 1.741164,-3.889 3.889,-3.889 2.147835,0 3.889,1.741165 3.889,3.889 z"
           sodipodi:cx="17.688"
           sodipodi:cy="34.014"
           sodipodi:rx="3.8889999"
           sodipodi:ry="3.8889999" /></g></g></g><text
     xml:space="preserve"
     style="font-size:10px;font-style:normal;font-variant:normal;font-weight:normal;font-stretch:normal;text-indent:0;text-align:start;text-decoration:none;line-height:125%;letter-spacing:0px;word-spacing:0px;text-transform:none;direction:ltr;block-progression:tb;writing-mode:lr-tb;text-anchor:start;baseline-shift:baseline;color:#000000;fill:#000000;fill-opacity:1;fill-rule:nonzero;stroke:none;stroke-width:1.24999988px;marker:none;visibility:visible;display:inline;overflow:visible;enable-background:accumulate;font-family:Liberation Sans;-inkscape-font-specification:Liberation Sans"
     x="46.949768"
     y="7.8764405"
     id="text4541"
     sodipodi:linespacing="125%"><tspan
       sodipodi:role="line"
       id="tspan4543"
       x="46.949768"
       y="7.8764405">1</tspan></text>
<text
     xml:space="preserve"
     style="font-size:10px;font-style:normal;font-variant:normal;font-weight:normal;font-stretch:normal;text-indent:0;text-align:start;text-decoration:none;line-height:125%;letter-spacing:0px;word-spacing:0px;text-transform:none;direction:ltr;block-progression:tb;writing-mode:lr-tb;text-anchor:start;baseline-shift:baseline;color:#000000;fill:#000000;fill-opacity:1;fill-rule:nonzero;stroke:none;stroke-width:1.24999988px;marker:none;visibility:visible;display:inline;overflow:visible;enable-background:accumulate;font-family:Liberation Sans;-inkscape-font-specification:Liberation Sans"
     x="269.38391"
     y="7.8764405"
     id="text4545"
     sodipodi:linespacing="125%"><tspan
       sodipodi:role="line"
       id="tspan4547"
       x="269.38391"
       y="7.8764405">2</tspan></text>
<text
     xml:space="preserve"
     style="font-size:10px;font-style:normal;font-variant:normal;font-weight:normal;font-stretch:normal;text-indent:0;text-align:start;text-decoration:none;line-height:125%;letter-spacing:0px;word-spacing:0px;text-transform:none;direction:ltr;block-progression:tb;writing-mode:lr-tb;text-anchor:start;baseline-shift:baseline;color:#000000;fill:#000000;fill-opacity:1;fill-rule:nonzero;stroke:none;stroke-width:1.24999988px;marker:none;visibility:visible;display:inline;overflow:visible;enable-background:accumulate;font-family:Liberation Sans;-inkscape-font-specification:Liberation Sans"
     x="414.08157"
     y="7.8764405"
     id="text4549"
     sodipodi:linespacing="125%"><tspan
       sodipodi:role="line"
       id="tspan4551"
       x="414.08157"
       y="7.8764405">3</tspan></text>
</svg>