<?xml version="1.0" encoding="UTF-8" standalone="no"?>
<svg
   xmlns:dc="http://purl.org/dc/elements/1.1/"
   xmlns:cc="http://creativecommons.org/ns#"
   xmlns:rdf="http://www.w3.org/1999/02/22-rdf-syntax-ns#"
   xmlns:svg="http://www.w3.org/2000/svg"
   xmlns="http://www.w3.org/2000/svg"
   xmlns:xlink="http://www.w3.org/1999/xlink"
   xmlns:sodipodi="http://sodipodi.sourceforge.net/DTD/sodipodi-0.dtd"
   xmlns:inkscape="http://www.inkscape.org/namespaces/inkscape"
   width="600"
   height="480"
   viewBox="0 0 600 480"
   id="svg2"
   version="1.1"
   inkscape:version="0.48.4 r9939"
   sodipodi:docname="hw-cycloid-raw.svg">
  <metadata
     id="metadata126">
    <rdf:RDF>
      <cc:Work
         rdf:about="">
        <dc:format>image/svg+xml</dc:format>
        <dc:type
           rdf:resource="http://purl.org/dc/dcmitype/StillImage" />
        <dc:title>Gnuplot</dc:title>
      </cc:Work>
    </rdf:RDF>
  </metadata>
  <defs
     id="defs124">
    <defs
       id="defs11">
      <circle
         stroke-width="0.5"
         r="0.5"
         id="gpDot" />
      <path
         d="M-1,0 h2 M0,-1 v2"
         stroke="currentColor"
         stroke-width="0.222"
         id="gpPt0" />
      <path
         d="M-1,-1 L1,1 M1,-1 L-1,1"
         stroke="currentColor"
         stroke-width="0.222"
         id="gpPt1" />
      <path
         d="M-1,0 L1,0 M0,-1 L0,1 M-1,-1 L1,1 M-1,1 L1,-1"
         stroke="currentColor"
         stroke-width="0.222"
         id="gpPt2" />
      <rect
         height="2"
         width="2"
         y="-1"
         x="-1"
         stroke="currentColor"
         stroke-width="0.222"
         id="gpPt3" />
      <rect
         height="2"
         width="2"
         y="-1"
         x="-1"
         fill="currentColor"
         stroke="currentColor"
         stroke-width="0.222"
         id="gpPt4" />
      <circle
         r="1"
         cy="0"
         cx="0"
         stroke="currentColor"
         stroke-width="0.222"
         id="gpPt5" />
      <use
         stroke="none"
         fill="currentColor"
         id="gpPt6"
         xlink:href="#gpPt5" />
      <path
         d="M0,-1.33 L-1.33,0.67 L1.33,0.67 z"
         stroke="currentColor"
         stroke-width="0.222"
         id="gpPt7" />
      <use
         stroke="none"
         fill="currentColor"
         id="gpPt8"
         xlink:href="#gpPt7" />
      <use
         transform="rotate(180)"
         stroke="currentColor"
         id="gpPt9"
         xlink:href="#gpPt7" />
      <use
         stroke="none"
         fill="currentColor"
         id="gpPt10"
         xlink:href="#gpPt9" />
      <use
         transform="rotate(45)"
         stroke="currentColor"
         id="gpPt11"
         xlink:href="#gpPt3" />
      <use
         stroke="none"
         fill="currentColor"
         id="gpPt12"
         xlink:href="#gpPt11" />
    </defs>
  </defs>
  <sodipodi:namedview
     pagecolor="#ffffff"
     bordercolor="#666666"
     borderopacity="1"
     objecttolerance="10"
     gridtolerance="10"
     guidetolerance="10"
     inkscape:pageopacity="0"
     inkscape:pageshadow="2"
     inkscape:window-width="1173"
     inkscape:window-height="877"
     id="namedview122"
     showgrid="false"
     showguides="true"
     inkscape:guide-bbox="true"
     inkscape:zoom="1.33242"
     inkscape:cx="524.63531"
     inkscape:cy="295.30719"
     inkscape:window-x="0"
     inkscape:window-y="0"
     inkscape:window-maximized="0"
     inkscape:current-layer="svg2" />
  <title
     id="title4">Gnuplot</title>
  <desc
     id="desc6">Produced by GNUPLOT 4.6 patchlevel 4 </desc>
  <rect
     style="fill:#dedede;fill-opacity:1;stroke:none"
     id="rect4190"
     width="184.25197"
     height="125.65593"
     x="353.99915"
     y="172.56071" />
  <path
     style="color:#000000;fill:none;stroke:#000000;stroke-width:0.81659448000000001;stroke-linecap:butt;stroke-linejoin:miter;stroke-miterlimit:4;stroke-opacity:1;stroke-dasharray:none;stroke-dashoffset:0;marker:none;visibility:visible;display:inline;overflow:visible;enable-background:accumulate"
     d="m 381.4077,184.62465 -6.94682,0"
     id="path3314"
     inkscape:connector-curvature="0" />
  <path
     style="color:#000000;fill:none;stroke:#000000;stroke-width:0.81659448000000001;stroke-linecap:butt;stroke-linejoin:miter;stroke-miterlimit:4;stroke-opacity:1;stroke-dasharray:none;stroke-dashoffset:0;marker:none;visibility:visible;display:inline;overflow:visible;enable-background:accumulate"
     d="m 381.19061,231.29865 -6.94683,0"
     id="path3314-8"
     inkscape:connector-curvature="0" />
  <path
     style="color:#000000;fill:none;stroke:#000000;stroke-width:0.81659448000000001;stroke-linecap:butt;stroke-linejoin:miter;stroke-miterlimit:4;stroke-opacity:1;stroke-dasharray:none;stroke-dashoffset:0;marker:none;visibility:visible;display:inline;overflow:visible;enable-background:accumulate"
     d="m 527.51718,278.40171 0,6.94682"
     id="path3314-8-6"
     inkscape:connector-curvature="0" />
  <g
     style="color:#ffffff;fill:none;stroke:#000000;stroke-width:1.19674921;stroke-linecap:butt;stroke-linejoin:miter;stroke-miterlimit:4;stroke-dasharray:none"
     id="g112"
     transform="matrix(0,-0.81659449,-1.2828699,0,927.83663,328.98862)" />
  <g
     style="color:#000000;fill:none;stroke:currentColor;stroke-width:1.19674921;stroke-linecap:butt;stroke-linejoin:miter;stroke-miterlimit:4;stroke-dasharray:none"
     id="g114"
     transform="matrix(0,-0.81659449,-1.2828699,0,927.83663,328.98862)">
    <path
       d="m 62.4,426 0.4,0 0.4,0 0.3,0 0.4,-0.1 0.4,0 0.4,0 0.4,-0.1 0.4,0 0.3,-0.1 0.4,0 0.4,0 0.4,-0.1 0.4,0 0.3,-0.1 0.4,-0.1 0.4,0 0.4,-0.1 0.4,0 0.4,-0.1 0.3,-0.1 0.4,0 0.4,-0.1 0.4,-0.1 0.4,0 0.3,-0.1 0.4,-0.1 0.4,-0.1 0.4,0 0.4,-0.1 0.3,-0.1 0.4,-0.1 0.4,-0.1 0.4,0 0.4,-0.1 0.4,-0.1 0.3,-0.1 0.4,-0.1 0.4,-0.1 0.4,-0.1 0.4,-0.1 0.3,-0.1 0.4,-0.1 0.4,-0.1 0.4,-0.1 0.4,-0.1 0.4,-0.1 0.3,-0.1 0.4,-0.1 0.4,-0.1 0.4,-0.1 0.4,-0.1 0.3,-0.1 0.4,-0.1 0.4,-0.1 0.4,-0.2 0.4,-0.1 0.4,-0.1 0.3,-0.1 0.4,-0.1 0.4,-0.1 0.4,-0.2 0.4,-0.1 0.3,-0.1 0.4,-0.1 0.4,-0.2 0.4,-0.1 0.4,-0.1 0.3,-0.2 0.4,-0.1 0.4,-0.1 0.4,-0.2 0.4,-0.1 0.4,-0.1 0.3,-0.2 0.4,-0.1 0.4,-0.2 0.4,-0.1 0.4,-0.1 0.3,-0.2 0.4,-0.1 0.4,-0.2 0.4,-0.1 0.4,-0.2 0.4,-0.1 0.3,-0.2 0.4,-0.1 0.4,-0.2 0.4,-0.1 0.4,-0.2 0.3,-0.2 0.4,-0.1 0.4,-0.2 0.4,-0.1 0.4,-0.2 0.4,-0.2 0.3,-0.1 0.4,-0.2 0.4,-0.2 0.4,-0.1 0.4,-0.2 0.3,-0.2 0.4,-0.2 0.4,-0.1 0.4,-0.2 0.4,-0.2 0.4,-0.2 0.3,-0.1 0.4,-0.2 0.4,-0.2 0.4,-0.2 0.4,-0.2 0.3,-0.2 0.4,-0.2 0.4,-0.2 0.4,-0.1 0.4,-0.2 0.3,-0.2 0.4,-0.2 0.4,-0.2 0.4,-0.2 0.4,-0.2 0.4,-0.2 0.3,-0.2 0.4,-0.2 0.4,-0.2 0.4,-0.2 0.4,-0.2 0.3,-0.3 0.4,-0.2 0.4,-0.2 0.4,-0.2 0.4,-0.2 0.4,-0.2 0.3,-0.2 0.4,-0.3 0.4,-0.2 0.4,-0.2 0.4,-0.2 0.3,-0.3 0.4,-0.2 0.4,-0.2 0.4,-0.2 0.4,-0.3 0.4,-0.2 0.3,-0.2 0.4,-0.3 0.4,-0.2 0.4,-0.3 0.4,-0.2 0.3,-0.2 0.4,-0.3 0.4,-0.2 0.4,-0.3 0.4,-0.2 0.3,-0.3 0.4,-0.2 0.4,-0.3 0.4,-0.2 0.4,-0.3 0.4,-0.3 0.3,-0.2 0.4,-0.3 0.4,-0.2 0.4,-0.3 0.4,-0.3 0.3,-0.2 0.4,-0.3 0.4,-0.3 0.4,-0.3 0.4,-0.2 0.4,-0.3 0.3,-0.3 0.4,-0.3 0.4,-0.3 0.4,-0.3 0.4,-0.3 0.3,-0.2 0.4,-0.3 0.4,-0.3 0.4,-0.3 0.4,-0.3 0.4,-0.3 0.3,-0.3 0.4,-0.3 0.4,-0.4 0.4,-0.3 0.4,-0.3 0.3,-0.3 0.4,-0.3 0.4,-0.3 0.4,-0.3 0.4,-0.4 0.3,-0.3 0.4,-0.3 0.4,-0.4 0.4,-0.3 0.4,-0.3 0.4,-0.4 0.3,-0.3 0.4,-0.3 0.4,-0.4 0.4,-0.3 0.4,-0.4 0.3,-0.4 0.4,-0.3 0.4,-0.4 0.4,-0.3 0.4,-0.4 0.4,-0.4 0.3,-0.3 0.4,-0.4 0.4,-0.4 0.4,-0.4 0.4,-0.4 0.3,-0.3 0.4,-0.4 0.4,-0.4 0.4,-0.4 0.4,-0.4 0.4,-0.4 0.3,-0.4 0.4,-0.4 0.4,-0.5 0.4,-0.4 0.4,-0.4 0.3,-0.4 0.4,-0.4 0.4,-0.5 0.4,-0.4 0.4,-0.5 0.4,-0.4 0.3,-0.5 0.4,-0.4 0.4,-0.5 0.4,-0.4 0.4,-0.5 0.3,-0.5 0.4,-0.4 0.4,-0.5 0.4,-0.5 0.4,-0.5 0.3,-0.5 0.4,-0.5 0.4,-0.5 0.4,-0.5 0.4,-0.5 0.4,-0.6 0.3,-0.5 0.4,-0.5 0.4,-0.6 0.4,-0.5 0.4,-0.6 0.3,-0.6 0.4,-0.5 0.4,-0.6 0.4,-0.6 0.4,-0.6 0.4,-0.6 0.3,-0.6 0.4,-0.6 0.4,-0.7 0.4,-0.6 0.4,-0.7 0.3,-0.6 0.4,-0.7 0.4,-0.7 0.4,-0.7 0.4,-0.7 0.4,-0.7 0.3,-0.7 0.4,-0.8 0.4,-0.7 0.4,-0.8 0.4,-0.8 0.3,-0.8 0.4,-0.9 0.4,-0.8 0.4,-0.9 0.4,-0.9 0.3,-0.9 0.4,-0.9 0.4,-1 0.4,-1 0.4,-1.1 0.4,-1 0.3,-1.2 0.4,-1.1 0.4,-1.2 0.4,-1.3 0.4,-1.3 0.3,-1.5 0.4,-1.5 0.4,-1.6 0.4,-1.8 0.4,-1.9 0.4,-2.3 0.3,-2.6 0.4,-3.5 0.4,-8.4 h 0.01"
       id="path116"
       inkscape:connector-curvature="0"
       style="stroke:#000000;stroke-width:1.19674921;stroke-miterlimit:4;stroke-dasharray:none" />
  </g>
  <path
     style="color:#000000;fill:none;stroke:#000000;stroke-width:0.81659448000000001;stroke-linecap:butt;stroke-linejoin:miter;stroke-miterlimit:4;stroke-opacity:1;stroke-dasharray:none;stroke-dashoffset:0;marker:none;visibility:visible;display:inline;overflow:visible;enable-background:accumulate"
     d="m 381.42254,184.35031 0,93.62234 146.51345,0"
     id="path3352"
     inkscape:connector-curvature="0"
     sodipodi:nodetypes="ccc" />
  <text
     xml:space="preserve"
     style="font-size:10px;font-style:normal;font-variant:normal;font-weight:normal;font-stretch:normal;text-indent:0;text-align:start;text-decoration:none;line-height:125%;letter-spacing:0px;word-spacing:0px;text-transform:none;direction:ltr;block-progression:tb;writing-mode:lr-tb;text-anchor:start;baseline-shift:baseline;color:#000000;fill:#000000;fill-opacity:1;fill-rule:nonzero;stroke:none;stroke-width:1.24999988000000006px;marker:none;visibility:visible;display:inline;overflow:visible;enable-background:accumulate;font-family:Liberation Sans;-inkscape-font-specification:Liberation Sans"
     x="361.16089"
     y="234.41208"
     id="text4178"
     sodipodi:linespacing="125%"><tspan
       sodipodi:role="line"
       id="tspan4180"
       x="361.16089"
       y="234.41208">1</tspan></text>
  <text
     xml:space="preserve"
     style="font-size:10px;font-style:normal;font-variant:normal;font-weight:normal;font-stretch:normal;text-indent:0;text-align:start;text-decoration:none;line-height:125%;letter-spacing:0px;word-spacing:0px;text-transform:none;direction:ltr;block-progression:tb;writing-mode:lr-tb;text-anchor:start;baseline-shift:baseline;color:#000000;fill:#000000;fill-opacity:1;fill-rule:nonzero;stroke:none;stroke-width:1.24999988000000006px;marker:none;visibility:visible;display:inline;overflow:visible;enable-background:accumulate;font-family:Liberation Sans;-inkscape-font-specification:Liberation Sans"
     x="362.46304"
     y="184.27992"
     id="text4182"
     sodipodi:linespacing="125%"><tspan
       sodipodi:role="line"
       id="tspan4184"
       x="362.46304"
       y="184.27992">2</tspan></text>
  <text
     xml:space="preserve"
     style="font-size:10px;font-style:normal;font-variant:normal;font-weight:normal;font-stretch:normal;text-indent:0;text-align:start;text-decoration:none;line-height:125%;letter-spacing:0px;word-spacing:0px;text-transform:none;direction:ltr;block-progression:tb;writing-mode:lr-tb;text-anchor:start;baseline-shift:baseline;color:#000000;fill:#000000;fill-opacity:1;fill-rule:nonzero;stroke:none;stroke-width:1.24999988px;marker:none;visibility:visible;display:inline;overflow:visible;enable-background:accumulate;font-family:Liberation Sans;-inkscape-font-specification:Liberation Sans"
     x="521.17218"
     y="293.65918"
     id="text4186"
     sodipodi:linespacing="125%"><tspan
       sodipodi:role="line"
       id="tspan4188"
       x="521.17218"
       y="293.65918"> π</tspan></text>
  <path
     style="color:#000000;fill:#000000;fill-opacity:1;stroke:none;stroke-width:1;marker:none;visibility:visible;display:inline;overflow:visible;enable-background:accumulate"
     d="m 527.56449,184.274 0.62151,-0.0234 -3e-5,0.6567 -0.76224,0.1759 z"
     id="path4195"
     inkscape:connector-curvature="0"
     sodipodi:nodetypes="ccccc" />
</svg>
