<?xml version="1.0" encoding="UTF-8" standalone="no"?>
<!-- Generator: Adobe Illustrator 11 Build 196, SVG Export Plug-In . SVG Version: 6.0.0 Build 78)  -->

<svg
   xmlns:dc="http://purl.org/dc/elements/1.1/"
   xmlns:cc="http://creativecommons.org/ns#"
   xmlns:rdf="http://www.w3.org/1999/02/22-rdf-syntax-ns#"
   xmlns:svg="http://www.w3.org/2000/svg"
   xmlns="http://www.w3.org/2000/svg"
   xmlns:sodipodi="http://sodipodi.sourceforge.net/DTD/sodipodi-0.dtd"
   xmlns:inkscape="http://www.inkscape.org/namespaces/inkscape"
   width="369.717"
   height="94.665"
   viewBox="0 0 369.717 94.665"
   style="overflow:visible;enable-background:new 0 0 369.717 94.665"
   xml:space="preserve"
   id="svg1"
   sodipodi:version="0.32"
   sodipodi:docname="pulley.svg"
   version="1.1"><defs
     id="defs78"><marker
       inkscape:stockid="Arrow2Mend"
       orient="auto"
       refY="0.0"
       refX="0.0"
       id="Arrow2Mend"
       style="overflow:visible;"><path
         id="path3990"
         style="fill-rule:evenodd;stroke-width:0.62500000;stroke-linejoin:round;"
         d="M 8.7185878,4.0337352 L -2.2072895,0.016013256 L 8.7185884,-4.0017078 C 6.9730900,-1.6296469 6.9831476,1.6157441 8.7185878,4.0337352 z "
         transform="scale(0.6) rotate(180) translate(0,0)" /></marker><marker
       inkscape:stockid="Arrow2Mstart"
       orient="auto"
       refY="0.0"
       refX="0.0"
       id="Arrow2Mstart"
       style="overflow:visible"><path
         id="path3987"
         style="fill-rule:evenodd;stroke-width:0.62500000;stroke-linejoin:round"
         d="M 8.7185878,4.0337352 L -2.2072895,0.016013256 L 8.7185884,-4.0017078 C 6.9730900,-1.6296469 6.9831476,1.6157441 8.7185878,4.0337352 z "
         transform="scale(0.6) translate(0,0)" /></marker></defs><metadata
     id="metadata77"><rdf:RDF><cc:Work
         rdf:about=""><dc:format>image/svg+xml</dc:format><dc:type
           rdf:resource="http://purl.org/dc/dcmitype/StillImage" /></cc:Work></rdf:RDF></metadata><sodipodi:namedview
     id="base"
     pagecolor="#ffffff"
     bordercolor="#666666"
     borderopacity="1.0"
     inkscape:pageopacity="0.0"
     inkscape:pageshadow="2"
     inkscape:zoom="1.8609764"
     inkscape:cx="99.29319"
     inkscape:cy="-0.3287854"
     inkscape:window-width="1280"
     inkscape:window-height="996"
     inkscape:window-x="0"
     inkscape:window-y="0"
     inkscape:current-layer="svg1"
     showgrid="false"
     inkscape:window-maximized="1" /><rect
     style="fill:#dedede;fill-opacity:1;stroke:none;overflow:visible"
     id="rect3787-2"
     width="202.77002"
     height="65.607307"
     x="-7.4388433"
     y="58.176579" /><rect
     style="fill:#dedede;fill-opacity:1;stroke:none"
     id="rect3787"
     width="202.77002"
     height="72.489433"
     x="-7.7554541"
     y="-18.755941" /><path
     style="fill:#e9e9e9;fill-opacity:1;stroke:#000000;stroke-width:0.49925643"
     d="m 49.654886,25.055788 9.2003,-11.3471 C 56.123754,11.394635 52.591515,9.9962174 48.731262,9.9962174 c -5.550733,0 -10.423975,2.8881986 -13.209326,7.2407156 l 14.13295,7.818855 z"
     id="path170"
     inkscape:connector-curvature="0" /><circle
     style="stroke:#000000"
     cx="11.53"
     cy="83.134003"
     r="11.031"
     id="circle169"
     sodipodi:cx="11.53"
     sodipodi:cy="83.134003"
     sodipodi:rx="11.031"
     sodipodi:ry="11.031"
     transform="matrix(0.49925642,0,0,0.49925642,5.9729224,-11.219568)" /><circle
     cx="87.380997"
     cy="68.327003"
     r="26.164"
     id="circle167"
     sodipodi:cx="87.380997"
     sodipodi:cy="68.327003"
     sodipodi:rx="26.164"
     sodipodi:ry="26.164"
     transform="matrix(0.49925642,0,0,0.49925642,5.3157711,-9.5757451)"
     style="fill:#353535;fill-opacity:1;stroke:none" /><path
     style="fill:#999999;fill-opacity:1;fill-rule:evenodd;stroke:none"
     d="m 30.55906,4.2163614 -0.920973,13.8983216 5.358389,-3.097819 -1.423322,-2.930369 0.920973,-7.2003346 -1.590772,-0.334899 -0.418624,-2.093121 1.255873,-2.1768453 0,-2.0093962 -4.688591,-0.3348993 -0.669799,2.4280203 1.088423,0.083725 0.50235,1.5907717 0.920973,0.5023488 0.586074,1.9256712 -0.920974,-0.251175 z"
     id="path89"
     inkscape:connector-curvature="0" /><rect
     x="75.577431"
     y="3.6493967"
     style="fill:#b4b4b4;stroke:#000000;stroke-width:0.625;stroke-miterlimit:4;stroke-dasharray:none"
     width="4.9925642"
     height="26.959846"
     id="rect4" /><rect
     x="21.525938"
     y="20.534248"
     style="fill:#dcdcdc"
     width="11.296175"
     height="7.1393671"
     id="rect10" /><path
     style="fill:#b4b4b4;stroke:#000000;stroke-width:0.49925643"
     d="m 29.793624,18.697484 -4.569694,0.462311 c 0.108339,1.069907 1.063416,1.849745 2.133323,1.740908 l 7.10342,-0.71893 c 1.008498,-0.102347 1.758381,-0.957074 1.749894,-1.950594 1.557181,-7.797387 -5.233705,-1.576652 -6.416943,0.466305 z"
     id="path12"
     inkscape:connector-curvature="0" /><rect
     x="7.0539923"
     y="19.722958"
     style="fill:#dcdcdc"
     width="14.603251"
     height="11.682101"
     id="rect14" /><rect
     x="30.658178"
     y="-28.7901"
     transform="matrix(0.14459905,0.98949033,-0.98949033,0.14459905,0,0)"
     style="fill:#808080;stroke:#000000;stroke-width:0.49925625"
     width="2.4338977"
     height="22.878141"
     id="rect16" /><rect
     x="8.3849945"
     y="22.477184"
     transform="matrix(0.99904024,-0.04380177,0.04380177,0.99904024,0,0)"
     style="fill:#808080;stroke:#000000;stroke-width:0.49925628"
     width="3.1152337"
     height="5.0622554"
     id="rect18" /><path
     style="fill:#353535;fill-opacity:1;stroke:#000000;stroke-width:0.49925643"
     d="m 18.736592,16.802307 -14.1159755,0 c -2.1507967,0 -3.8942001,1.743403 -3.8942001,3.8942 l 0,0.97355 1.4598258,0 0,10.338602 c 0.6670065,0.535202 1.5122477,0.856724 2.433875,0.856724 l 2.9206501,0 0,-6.81485 c 0,-2.150797 1.7434034,-3.894201 3.8941997,-3.894201 l 11.195825,0 0,-1.460325 c 0,-2.150297 -1.743403,-3.8937 -3.8942,-3.8937 z"
     id="path20"
     inkscape:connector-curvature="0" /><circle
     style="fill:#353535;fill-opacity:1;stroke:#2b2b2b;stroke-opacity:1"
     cx="11.53"
     cy="83.134003"
     r="11.031"
     id="circle22"
     sodipodi:cx="11.53"
     sodipodi:cy="83.134003"
     sodipodi:rx="11.031"
     sodipodi:ry="11.031"
     transform="matrix(0.49925642,0,0,0.49925642,-5.0094606e-4,-5.8719225)" /><circle
     style="fill:#dedede;fill-opacity:1;stroke:#000000"
     cx="11.53"
     cy="83.135002"
     r="7.9419999"
     id="circle24"
     sodipodi:cx="11.53"
     sodipodi:cy="83.135002"
     sodipodi:rx="7.9419999"
     sodipodi:ry="7.9419999"
     transform="matrix(0.49925642,0,0,0.49925642,-5.0094606e-4,-5.8719225)" /><rect
     x="22.946869"
     y="-21.248869"
     transform="matrix(-0.09740438,0.99524489,-0.99524489,-0.09740438,0,0)"
     style="fill:#808080;stroke:#000000;stroke-width:0.49925646"
     width="3.8940248"
     height="6.3277907"
     id="rect26" /><path
     style="fill:#b4b4b4;stroke:#000000;stroke-width:0.49925643"
     d="m 33.502101,30.593766 -9.654121,0 c -1.482792,0 -2.740918,-0.949087 -3.209221,-2.271617 l -1.700966,0 c -0.02297,0.159263 -0.03844,0.321022 -0.03844,0.486775 0,1.881698 1.525228,3.407425 3.407425,3.407425 l 11.195825,0 0,-1.622583 -4.99e-4,0 z"
     id="path28"
     inkscape:connector-curvature="0" /><path
     style="fill:#e9e9e9;fill-opacity:1;stroke:#000000;stroke-width:0.49925643"
     d="m 44.368916,28.343118 9.200297,-11.3471 c -2.731431,-2.314053 -6.263671,-3.712471 -10.123921,-3.712471 -5.550733,0 -10.423975,2.888199 -13.209326,7.240716 l 14.13295,7.818855 z"
     id="path30"
     inkscape:connector-curvature="0" /><circle
     cx="87.380997"
     cy="68.327003"
     r="26.164"
     id="circle32"
     style="fill:#353535;fill-opacity:1"
     sodipodi:cx="87.380997"
     sodipodi:cy="68.327003"
     sodipodi:rx="26.164"
     sodipodi:ry="26.164"
     transform="matrix(0.49925642,0,0,0.49925642,-5.0094606e-4,-5.8719225)" /><circle
     style="fill:#dedede;fill-opacity:1"
     cx="87.380997"
     cy="68.325996"
     r="16.745001"
     id="circle34"
     sodipodi:cx="87.380997"
     sodipodi:cy="68.325996"
     sodipodi:rx="16.745001"
     sodipodi:ry="16.745001"
     transform="matrix(0.49925642,0,0,0.49925642,-5.0094606e-4,-5.8719225)" /><circle
     style="fill:none;stroke:#000000"
     cx="87.380997"
     cy="68.327003"
     r="5.8610001"
     id="circle36"
     sodipodi:cx="87.380997"
     sodipodi:cy="68.327003"
     sodipodi:rx="5.8610001"
     sodipodi:ry="5.8610001"
     transform="matrix(0.49925642,0,0,0.49925642,-5.0094606e-4,-5.8719225)" /><line
     style="fill:#ffffff;stroke:#000000;stroke-width:0.99851286"
     x1="22.955309"
     y1="16.153275"
     x2="21.657244"
     y2="19.722958"
     id="line38" /><ellipse
     transform="matrix(-0.09785426,0.48957084,-0.48957084,-0.09785426,49.151843,-3.5026512)"
     style="fill:#dedede;fill-opacity:1;stroke:#000000;stroke-width:2"
     cx="47.279999"
     cy="42.734001"
     rx="3.447"
     ry="11.031"
     id="ellipse40"
     sodipodi:cx="47.279999"
     sodipodi:cy="42.734001"
     sodipodi:rx="3.447"
     sodipodi:ry="11.031" /><path
     d="m 26.308315,-1.2003802 c 1.295071,-0.1952092 2.590143,-0.140291 3.90818,0.04693 1.162268,0.1637561 2.301072,0.077884 3.447864,0.085872 l 0.132803,0 c 0.140291,0 0.273093,-0.04693 0.374442,-0.1402911 l 0.327512,-0.3589651 c 0.148279,-0.5771404 0.389919,-1.185734 0.179233,-1.7708625 -0.483779,-1.326025 -1.887688,-1.8801997 -3.073422,-2.4653282 -0.210687,-0.101349 -0.468303,-0.077884 -0.717931,-0.015477 -1.489781,0.3434884 -1.848747,1.8098045 -2.176259,3.0499574 -0.08587,0.2965584 0.08587,0.6085936 0.382431,0.6944657 0.296558,0.085872 0.608593,-0.085872 0.694465,-0.3899192 0.273094,-0.8891757 0.444838,-1.8332696 1.318536,-2.3559911 0.912641,0.6160824 2.737923,1.0219779 2.457341,2.4338751 l -0.132803,0.3355003 0.366455,-0.1402911 -0.327513,0 c -1.489781,0.00799 -2.964584,-0.038942 -4.469842,-0.2106862 -0.967559,-0.101349 -1.934619,-0.09386 -2.89419,0.09386 -0.304047,0.054419 -0.507244,0.3509773 -0.452326,0.6550244 0.05492,0.3040472 0.350478,0.5072446 0.655024,0.4523263 l 0,0 z"
     id="path51"
     inkscape:connector-curvature="0" /><path
     d="m 33.297905,-0.4589844 c -0.320023,0.5616635 -0.03894,1.3809433 -0.632059,1.8177926 -0.234151,0.2026982 -0.257616,0.5536754 -0.05442,0.7878267 0.203197,0.2341512 0.553675,0.2576163 0.787826,0.054419 0.787827,-0.4912683 0.655025,-1.4897811 0.944094,-2.254642 0.109337,-0.2965583 -0.03095,-0.6160824 -0.320023,-0.7254195 -0.296559,-0.1093372 -0.616083,0.031453 -0.72542,0.3200233 l 0,0 z"
     id="path53"
     inkscape:connector-curvature="0" /><path
     d="m 28.305341,-1.2627872 c -0.163756,0.4523263 -0.38243,0.8971638 -0.405396,1.3884321 l -0.008,0.2496282 0.179233,-0.4133843 -0.124814,0.116826 c -0.116826,0.1093371 -0.179233,0.2576163 -0.179233,0.4133843 0,0.3120353 0.249628,0.5616635 0.561663,0.5616635 l 0.171744,0 c 0.273093,0 0.553676,0 0.826769,0 l 0.155768,0 -0.48378,-0.2805821 0.01548,-0.1248141 c -0.273093,1.2171871 0.647536,2.0749096 1.638061,2.5976311 0.24164,0.1952093 0.600605,0.155768 0.787826,-0.085872 C 31.635872,2.9184854 31.59643,2.55952 31.354792,2.3643108 30.683792,1.9589146 29.934907,1.5375421 30.114639,0.6249014 L 29.974355,0.211517 c -0.101349,-0.1717442 -0.28857,-0.2805821 -0.491268,-0.2805821 l -0.444838,0 c -0.116826,0 -0.24164,0 -0.358965,0 l -0.350977,0 0.38243,0.9750478 0.124814,-0.116826 c 0.109337,-0.1013491 0.179233,-0.2496282 0.179233,-0.4053962 l -0.07039,-0.1792331 c 0.07788,-0.3744423 0.413384,-0.6240705 0.3355,-1.068908 0.02347,0.00799 0.04693,0.00799 0.0704,0.015477 0.116826,-0.2885702 -0.03095,-0.6160825 -0.320024,-0.7254196 -0.288071,-0.1173253 -0.608094,0.022966 -0.72492,0.311536 l 0,0 z"
     id="path55"
     inkscape:connector-curvature="0" /><path
     style="fill:none;stroke:#000000;stroke-width:1.25;stroke-miterlimit:4;stroke-dasharray:none"
     d="m 52.61164,20.624115 c 0,0 54.41895,0 60.90928,0 6.49034,0 6.49034,-5.991078 2.49628,-5.991078 -3.99405,0 -32.451662,-0.499256 -32.451662,-0.499256 0,0 -8.48736,6.490334 -8.48736,0.499256"
     id="path58"
     inkscape:connector-curvature="0" /><ellipse
     style="fill:#b4b4b4;stroke:#000000;stroke-width:1.34599447;stroke-miterlimit:4;stroke-dasharray:none"
     cx="230.631"
     cy="46.570999"
     rx="7.7779999"
     ry="6.0100002"
     id="ellipse60"
     sodipodi:cx="230.631"
     sodipodi:cy="46.570999"
     sodipodi:rx="7.7779999"
     sodipodi:ry="6.0100002"
     transform="matrix(0.44380437,0,0,0.48582726,12.339696,-5.1483462)" /><path
     style="fill:#b4b4b4;stroke:#000000;stroke-width:0.625;stroke-miterlimit:4;stroke-dasharray:none"
     d="m 160.78353,15.132294 c 0,0 4.65956,12.315158 3.66105,14.478436 -0.99851,2.163278 -0.49926,1.664022 -0.49926,1.664022 l 4.16031,0.83226 0.49925,-2.163278 c 0,0 2.49628,1.164765 5.49182,0.499256 2.99554,-0.665508 -0.99851,-2.995538 -0.99851,-2.995538 l 10.65064,1.664022 -5.65808,-4.826312 -4.32705,-2.995539 c 0,0 -2.49628,-6.157329 -2.82929,-9.985128 -0.332,-3.8272996 -9.31862,0.999012 -10.15088,3.827799 z"
     id="path62"
     inkscape:connector-curvature="0" /><path
     style="fill:none;stroke:#000000;stroke-width:0.24962822"
     d="m 169.9369,12.636012 c -1.99703,2.995538 -7.48885,4.65956 -9.15287,2.496282"
     id="path64"
     inkscape:connector-curvature="0" /><line
     style="fill:none;stroke:#000000;stroke-width:0.24962822"
     x1="172.76569"
     y1="25.949682"
     x2="169.10463"
     y2="20.291609"
     id="line66" /><path
     style="fill:none;stroke:#000000;stroke-width:0.24962822"
     d="m 167.93987,28.445965 c -0.16625,-1.664022 -0.99851,-4.992564 -0.99851,-4.992564"
     id="path68"
     inkscape:connector-curvature="0" /><line
     style="fill:none;stroke:#000000;stroke-width:1.25;stroke-miterlimit:4;stroke-dasharray:none"
     x1="155.62471"
     y1="17.12932"
     x2="160.61728"
     y2="16.46381"
     id="line70" /><path
     style="fill:none;stroke:#000000;stroke-width:1.25;stroke-miterlimit:4;stroke-dasharray:none"
     d="m 115.14301,17.378948 38.98393,0 c 0,0 23.79806,5.408445 17.47398,-2.579658"
     id="path72"
     inkscape:connector-curvature="0" /><line
     style="fill:none;stroke:#000000;stroke-width:0.49925643"
     x1="82.733276"
     y1="14.133781"
     x2="80.736252"
     y2="13.135269"
     id="line74" /><path
     sodipodi:type="arc"
     style="fill:#b4b4b4;fill-opacity:1;stroke:#000000;stroke-width:0.875;stroke-linecap:butt;stroke-linejoin:miter;stroke-miterlimit:4;stroke-opacity:1;stroke-dashoffset:0"
     id="path165"
     sodipodi:cx="156.29552"
     sodipodi:cy="19.200424"
     sodipodi:rx="4.6955733"
     sodipodi:ry="2.1800878"
     d="m 160.99109,19.200424 a 4.6955733,2.1800878 0 1 1 -9.39115,0 4.6955733,2.1800878 0 1 1 9.39115,0 z"
     transform="matrix(0.49925642,0,0,0.49925642,-5.0094606e-4,-5.8719225)" /><path
     style="fill:#dedede;fill-opacity:1;fill-rule:evenodd;stroke:none"
     d="m 75.184395,28.915186 c 2.428019,1.423323 1.507046,1.339598 3.181542,1.423323 1.674496,0.08372 3.097821,-1.590772 3.097821,-1.590772 l 2.260568,0.08372 -0.251171,2.009395 -8.707386,0.837249 -1.925667,-0.753524 2.344293,-2.009396 z"
     id="path166"
     inkscape:connector-curvature="0" /><path
     style="color:#000000;fill:#999999;fill-opacity:1;stroke:none;stroke-width:1;marker:none;visibility:visible;display:inline;overflow:visible;enable-background:accumulate"
     d="m 29.208082,7.8265944 c 0,0 -0.976122,0.641136 -1.651899,3.2287126 -0.204349,0.78246 -4.955699,0.750863 -4.955699,0.750863 l 0.375432,2.628022 5.856734,-0.300346 2.102418,-2.928367 1.201381,-5.0307836 -1.051209,-1.426641 z"
     id="path3020"
     inkscape:connector-curvature="0"
     sodipodi:nodetypes="csccccccc" /><path
     style="color:#000000;fill:#999999;fill-opacity:1;stroke:none;stroke-width:1;marker:none;visibility:visible;display:inline;overflow:visible;enable-background:accumulate"
     d="m 31.836104,9.7037534 -3.604144,4.8055246 -5.180958,1.6519 0.150173,1.651899 6.75777,-1.126295 1.426641,-2.778195 z"
     id="path3790"
     inkscape:connector-curvature="0"
     sodipodi:nodetypes="ccccccc" /><path
     style="color:#000000;fill:#999999;fill-opacity:1;stroke:none;stroke-width:1;marker:none;visibility:visible;display:inline;overflow:visible;enable-background:accumulate"
     d="m 29.826493,16.341595 -6.749417,3.689062 1.996651,8.218776 -1.532314,1.160844 0.835808,0.464338 3.094539,-1.081366 -1.136915,-6.747993 3.717834,-2.084961 z"
     id="path3792"
     inkscape:connector-curvature="0"
     sodipodi:nodetypes="ccccccccc" /><path
     style="color:#000000;fill:none;stroke:#000000;stroke-width:1;stroke-linecap:butt;stroke-linejoin:miter;stroke-miterlimit:4;stroke-opacity:1;stroke-dasharray:none;stroke-dashoffset:0;marker:none;visibility:visible;display:inline;overflow:visible;enable-background:accumulate"
     d="m 76.956062,71.176801 0,15.400035"
     id="path3789"
     inkscape:connector-curvature="0" /><path
     style="color:#000000;fill:none;stroke:#000000;stroke-width:1;stroke-linecap:butt;stroke-linejoin:miter;stroke-miterlimit:4;stroke-opacity:1;stroke-dasharray:none;stroke-dashoffset:0;marker:none;visibility:visible;display:inline;overflow:visible;enable-background:accumulate"
     d="m 76.897254,71.819124 -4.16778,4.16778"
     id="path3791"
     inkscape:connector-curvature="0"
     sodipodi:nodetypes="cc" /><path
     style="color:#000000;fill:none;stroke:#000000;stroke-width:1;stroke-linecap:butt;stroke-linejoin:miter;stroke-miterlimit:4;stroke-opacity:1;stroke-dasharray:none;stroke-dashoffset:0;marker:none;visibility:visible;display:inline;overflow:visible;enable-background:accumulate"
     d="m 76.897254,74.003888 -4.16778,4.16778"
     id="path3791-2"
     inkscape:connector-curvature="0"
     sodipodi:nodetypes="cc" /><path
     style="color:#000000;fill:none;stroke:#000000;stroke-width:1;stroke-linecap:butt;stroke-linejoin:miter;stroke-miterlimit:4;stroke-opacity:1;stroke-dasharray:none;stroke-dashoffset:0;marker:none;visibility:visible;display:inline;overflow:visible;enable-background:accumulate"
     d="m 76.897254,76.18865 -4.16778,4.16778"
     id="path3791-0"
     inkscape:connector-curvature="0"
     sodipodi:nodetypes="cc" /><path
     style="color:#000000;fill:none;stroke:#000000;stroke-width:1;stroke-linecap:butt;stroke-linejoin:miter;stroke-miterlimit:4;stroke-opacity:1;stroke-dasharray:none;stroke-dashoffset:0;marker:none;visibility:visible;display:inline;overflow:visible;enable-background:accumulate"
     d="m 76.897254,78.373414 -4.16778,4.16778"
     id="path3791-9"
     inkscape:connector-curvature="0"
     sodipodi:nodetypes="cc" /><path
     style="color:#000000;fill:none;stroke:#000000;stroke-width:1;stroke-linecap:butt;stroke-linejoin:miter;stroke-miterlimit:4;stroke-opacity:1;stroke-dasharray:none;stroke-dashoffset:0;marker:none;visibility:visible;display:inline;overflow:visible;enable-background:accumulate"
     d="m 76.897254,80.558175 -4.16778,4.16778"
     id="path3791-4"
     inkscape:connector-curvature="0"
     sodipodi:nodetypes="cc" /><path
     style="color:#000000;fill:none;stroke:#000000;stroke-width:1;stroke-linecap:butt;stroke-linejoin:miter;stroke-miterlimit:4;stroke-opacity:1;stroke-dasharray:none;stroke-dashoffset:0;marker:none;visibility:visible;display:inline;overflow:visible;enable-background:accumulate"
     d="m 76.897254,82.742938 -3.754446,3.651113"
     id="path3791-8"
     inkscape:connector-curvature="0"
     sodipodi:nodetypes="cc" /><path
     style="color:#000000;fill:none;stroke:#000000;stroke-width:1;stroke-linecap:butt;stroke-linejoin:miter;stroke-miterlimit:4;stroke-opacity:1;stroke-dasharray:none;stroke-dashoffset:0;marker:none;visibility:visible;display:inline;overflow:visible;enable-background:accumulate"
     d="M 76.897254,84.927701 75.55392,86.30548"
     id="path3791-1"
     inkscape:connector-curvature="0"
     sodipodi:nodetypes="cc" /><path
     style="color:#000000;fill:none;stroke:#000000;stroke-width:1;stroke-linecap:butt;stroke-linejoin:miter;stroke-miterlimit:4;stroke-opacity:1;stroke-dasharray:none;stroke-dashoffset:0;marker:none;visibility:visible;display:inline;overflow:visible;enable-background:accumulate"
     d="m 75.24392,71.632139 -2.514446,2.170002"
     id="path3791-07"
     inkscape:connector-curvature="0"
     sodipodi:nodetypes="cc" /><g
     id="g3873"
     transform="translate(7.4041971,-6.2167194)"><path
       transform="translate(-3.4612137e-6,0)"
       d="m 113.40112,92.911377 c 0,4.196836 -3.40221,7.599043 -7.59904,7.599043 -4.19684,0 -7.599046,-3.402207 -7.599046,-7.599043 0,-4.196836 3.402206,-7.599044 7.599046,-7.599044 4.19683,0 7.59904,3.402208 7.59904,7.599044 z"
       sodipodi:ry="7.5990443"
       sodipodi:rx="7.5990443"
       sodipodi:cy="92.911377"
       sodipodi:cx="105.80208"
       id="path3853"
       style="fill:none;stroke:#000000;stroke-width:1.25;stroke-miterlimit:4;stroke-opacity:1;stroke-dasharray:none"
       sodipodi:type="arc" /><path
       d="m 113.40112,92.911377 c 0,4.196836 -3.40221,7.599043 -7.59904,7.599043 -4.19684,0 -7.599046,-3.402207 -7.599046,-7.599043 0,-4.196836 3.402206,-7.599044 7.599046,-7.599044 4.19683,0 7.59904,3.402208 7.59904,7.599044 z"
       sodipodi:ry="7.5990443"
       sodipodi:rx="7.5990443"
       sodipodi:cy="92.911377"
       sodipodi:cx="105.80208"
       id="path3853-7"
       style="fill:none;stroke:#000000;stroke-width:4.70746279;stroke-miterlimit:4;stroke-opacity:1;stroke-dasharray:none;overflow:visible"
       sodipodi:type="arc"
       transform="matrix(0.26553581,0,0,0.26553581,77.707834,68.240079)" /></g><path
     style="color:#000000;fill:none;stroke:#000000;stroke-width:1;stroke-linecap:butt;stroke-linejoin:miter;stroke-miterlimit:4;stroke-opacity:1;stroke-dasharray:none;stroke-dashoffset:0;marker:none;visibility:visible;display:inline;overflow:visible;enable-background:accumulate"
     d="m 77.938914,79.089396 35.462206,0"
     id="path3877"
     inkscape:connector-curvature="0" /><path
     style="color:#000000;fill:none;stroke:#000000;stroke-width:1;stroke-linecap:butt;stroke-linejoin:miter;stroke-miterlimit:4;stroke-opacity:1;stroke-dasharray:none;stroke-dashoffset:0;marker:none;visibility:visible;display:inline;overflow:visible;enable-background:accumulate"
     d="m 113.22254,86.658849 57.15648,0"
     id="path3879"
     inkscape:connector-curvature="0" /><path
     style="color:#000000;fill:none;stroke:#000000;stroke-width:1;stroke-linecap:butt;stroke-linejoin:miter;stroke-miterlimit:4;stroke-opacity:1;stroke-dasharray:none;stroke-dashoffset:0;marker:none;visibility:visible;display:inline;overflow:visible;enable-background:accumulate"
     d="m 113.00336,94.353373 -67.297148,0"
     id="path3881"
     inkscape:connector-curvature="0" /><path
     transform="matrix(0.21008812,0,0,0.21008812,22.716629,74.833796)"
     sodipodi:type="arc"
     style="fill:#000000;fill-opacity:1;stroke:none;overflow:visible"
     id="path3853-7-8"
     sodipodi:cx="105.80208"
     sodipodi:cy="92.911377"
     sodipodi:rx="7.5990443"
     sodipodi:ry="7.5990443"
     d="m 113.40112,92.911377 a 7.5990443,7.5990443 0 1 1 -15.198086,0 7.5990443,7.5990443 0 1 1 15.198086,0 z" /><path
     transform="matrix(0.21008812,0,0,0.21008812,148.64814,67.139272)"
     sodipodi:type="arc"
     style="fill:#000000;fill-opacity:1;stroke:none;overflow:visible"
     id="path3853-7-8-2"
     sodipodi:cx="105.80208"
     sodipodi:cy="92.911377"
     sodipodi:rx="7.5990443"
     sodipodi:ry="7.5990443"
     d="m 113.40112,92.911377 a 7.5990443,7.5990443 0 1 1 -15.198086,0 7.5990443,7.5990443 0 1 1 15.198086,0 z" /><path
     style="color:#000000;fill:none;stroke:#000000;stroke-width:0.625;stroke-linecap:butt;stroke-linejoin:miter;stroke-miterlimit:4;stroke-opacity:1;stroke-dasharray:1.87499998, 1.87499998;stroke-dashoffset:0;marker:none;visibility:visible;display:inline;overflow:visible;enable-background:accumulate"
     d="m 44.714811,97.977464 0,10.192346"
     id="path3945"
     inkscape:connector-curvature="0" /><path
     style="color:#000000;fill:none;stroke:#000000;stroke-width:0.625;stroke-linecap:butt;stroke-linejoin:miter;stroke-miterlimit:4;stroke-opacity:1;stroke-dasharray:1.87499998, 1.87499998;stroke-dashoffset:0;marker:none;visibility:visible;display:inline;overflow:visible;enable-background:accumulate"
     d="m 77.264566,88.771473 0,19.069557"
     id="path3947"
     inkscape:connector-curvature="0" /><path
     style="color:#000000;fill:none;stroke:#000000;stroke-width:0.625;stroke-linecap:butt;stroke-linejoin:miter;stroke-miterlimit:4;stroke-opacity:1;stroke-dasharray:1.87499998, 1.87499998;stroke-dashoffset:0;marker:none;visibility:visible;display:inline;overflow:visible;enable-background:accumulate"
     d="m 170.96841,90.086614 0,17.096846"
     id="path3951"
     inkscape:connector-curvature="0" /><path
     style="color:#000000;fill:none;stroke:#000000;stroke-width:0.625;stroke-linecap:butt;stroke-linejoin:miter;stroke-miterlimit:4;stroke-opacity:1;stroke-dasharray:none;stroke-dashoffset:0;marker:none;marker-start:url(#Arrow2Mstart);marker-end:url(#Arrow2Mend);visibility:visible;display:inline;overflow:visible;enable-background:accumulate"
     d="m 45.372382,102.90924 29.919471,0"
     id="path3953"
     inkscape:connector-curvature="0" /><path
     style="color:#000000;fill:none;stroke:#000000;stroke-width:0.625;stroke-linecap:butt;stroke-linejoin:miter;stroke-miterlimit:4;stroke-opacity:1;stroke-dasharray:none;stroke-dashoffset:0;marker:none;marker-start:url(#Arrow2Mstart);marker-end:url(#Arrow2Mend);visibility:visible;display:inline;overflow:visible;enable-background:accumulate"
     d="m 79.894849,102.58046 88.443271,0"
     id="path3957"
     inkscape:connector-curvature="0" /><text
     xml:space="preserve"
     style="font-size:10px;font-style:italic;font-variant:normal;font-weight:normal;font-stretch:normal;text-indent:0;text-align:start;text-decoration:none;line-height:125%;letter-spacing:0px;word-spacing:0px;text-transform:none;direction:ltr;block-progression:tb;writing-mode:lr-tb;text-anchor:start;baseline-shift:baseline;color:#000000;fill:#000000;fill-opacity:1;fill-rule:nonzero;stroke:none;stroke-width:1.24999988px;marker:none;visibility:visible;display:inline;overflow:visible;enable-background:accumulate;font-family:Liberation Sans;-inkscape-font-specification:Liberation Sans Italic"
     x="55.88464"
     y="114.27836"
     id="text4589"
     sodipodi:linespacing="125%"><tspan
       sodipodi:role="line"
       id="tspan4591"
       x="55.88464"
       y="114.27836">A</tspan></text>
<text
     xml:space="preserve"
     style="font-size:10px;font-style:italic;font-variant:normal;font-weight:normal;font-stretch:normal;text-indent:0;text-align:start;text-decoration:none;line-height:125%;letter-spacing:0px;word-spacing:0px;text-transform:none;direction:ltr;block-progression:tb;writing-mode:lr-tb;text-anchor:start;baseline-shift:baseline;color:#000000;fill:#000000;fill-opacity:1;fill-rule:nonzero;stroke:none;stroke-width:1.24999988px;marker:none;visibility:visible;display:inline;overflow:visible;enable-background:accumulate;font-family:Liberation Sans;-inkscape-font-specification:Liberation Sans Italic"
     x="121.97897"
     y="114.27836"
     id="text4593"
     sodipodi:linespacing="125%"><tspan
       sodipodi:role="line"
       id="tspan4595"
       x="121.97897"
       y="114.27836">B</tspan></text>
<text
     xml:space="preserve"
     style="font-size:10px;font-style:normal;font-variant:normal;font-weight:normal;font-stretch:normal;text-indent:0;text-align:start;text-decoration:none;line-height:125%;letter-spacing:0px;word-spacing:0px;text-transform:none;direction:ltr;block-progression:tb;writing-mode:lr-tb;text-anchor:start;baseline-shift:baseline;color:#000000;fill:#000000;fill-opacity:1;fill-rule:nonzero;stroke:none;stroke-width:1.24999988px;marker:none;visibility:visible;display:inline;overflow:visible;enable-background:accumulate;font-family:Liberation Sans;-inkscape-font-specification:Liberation Sans"
     x="65.825661"
     y="156.7292"
     id="text4597"
     sodipodi:linespacing="125%"
     transform="translate(-3.4612137e-6,0)"><tspan
       sodipodi:role="line"
       id="tspan4599"
       x="65.825661"
       y="156.7292" /></text>
<g
     id="g5879"
     transform="translate(0,4.2988186)"><path
       style="fill:none;stroke:#000000;stroke-width:0.75;stroke-miterlimit:4;stroke-dasharray:none;overflow:visible"
       d="m 91.136906,67.49647 c 8.807603,-7.996802 3.775881,-12.943693 1.97069,-3.013751 -1.158493,6.373799 2.201554,3.361438 2.549241,2.896928"
       id="path5579"
       inkscape:connector-curvature="0" /><text
       sodipodi:linespacing="125%"
       id="text5875"
       y="70.484146"
       x="96.454742"
       style="font-size:10px;font-style:normal;font-variant:normal;font-weight:normal;font-stretch:normal;text-indent:0;text-align:start;text-decoration:none;line-height:125%;letter-spacing:0px;word-spacing:0px;text-transform:none;direction:ltr;block-progression:tb;writing-mode:lr-tb;text-anchor:start;baseline-shift:baseline;color:#000000;fill:#000000;fill-opacity:1;fill-rule:nonzero;stroke:none;stroke-width:1.24999988px;marker:none;visibility:visible;display:inline;overflow:visible;enable-background:accumulate;font-family:Liberation Sans;-inkscape-font-specification:Liberation Sans"
       xml:space="preserve"><tspan
         style="font-size:8px"
         y="70.484146"
         x="96.454742"
         id="tspan5877"
         sodipodi:role="line">1</tspan></text>
</g><g
     id="g5914"
     transform="translate(8.5976372,-89.200486)"><path
       style="fill:none;stroke:#000000;stroke-width:0.75;stroke-miterlimit:4;stroke-dasharray:none;overflow:visible"
       d="m 130.64339,169.90564 c 8.8076,-7.9968 3.77588,-12.94369 1.97069,-3.01375 -1.15849,6.3738 2.20156,3.36144 2.54924,2.89693"
       id="path5579-3"
       inkscape:connector-curvature="0" /><text
       sodipodi:linespacing="125%"
       id="text5875-7"
       y="172.89331"
       x="135.96123"
       style="font-size:10px;font-style:normal;font-variant:normal;font-weight:normal;font-stretch:normal;text-indent:0;text-align:start;text-decoration:none;line-height:125%;letter-spacing:0px;word-spacing:0px;text-transform:none;direction:ltr;block-progression:tb;writing-mode:lr-tb;text-anchor:start;baseline-shift:baseline;color:#000000;fill:#000000;fill-opacity:1;fill-rule:nonzero;stroke:none;stroke-width:1.24999988px;marker:none;visibility:visible;display:inline;overflow:visible;enable-background:accumulate;font-family:Liberation Sans;-inkscape-font-specification:Liberation Sans"
       xml:space="preserve"><tspan
         style="font-size:8px"
         y="172.89331"
         x="135.96123"
         id="tspan5877-3"
         sodipodi:role="line">2</tspan></text>
</g><text
     xml:space="preserve"
     style="font-size:10px;font-style:normal;font-variant:normal;font-weight:normal;font-stretch:normal;text-indent:0;text-align:start;text-decoration:none;line-height:125%;letter-spacing:0px;word-spacing:0px;text-transform:none;direction:ltr;block-progression:tb;writing-mode:lr-tb;text-anchor:start;baseline-shift:baseline;color:#000000;fill:#000000;fill-opacity:1;fill-rule:nonzero;stroke:none;stroke-width:1.24999988px;marker:none;visibility:visible;display:inline;overflow:visible;enable-background:accumulate;font-family:Liberation Sans;-inkscape-font-specification:Liberation Sans"
     x="-1.6193848"
     y="-5.5210667"
     id="text5919"
     sodipodi:linespacing="125%"><tspan
       sodipodi:role="line"
       id="tspan5921"
       x="-1.6193848"
       y="-5.5210667">1</tspan></text>
<text
     xml:space="preserve"
     style="font-size:10px;font-style:normal;font-variant:normal;font-weight:normal;font-stretch:normal;text-indent:0;text-align:start;text-decoration:none;line-height:125%;letter-spacing:0px;word-spacing:0px;text-transform:none;direction:ltr;block-progression:tb;writing-mode:lr-tb;text-anchor:start;baseline-shift:baseline;color:#000000;fill:#000000;fill-opacity:1;fill-rule:nonzero;stroke:none;stroke-width:1.24999988px;marker:none;visibility:visible;display:inline;overflow:visible;enable-background:accumulate;font-family:Liberation Sans;-inkscape-font-specification:Liberation Sans"
     x="-1.4826659"
     y="70.484146"
     id="text5923"
     sodipodi:linespacing="125%"><tspan
       sodipodi:role="line"
       id="tspan5925"
       x="-1.4826659"
       y="70.484146">2</tspan></text>
</svg>