<?xml version="1.0" encoding="UTF-8" standalone="no"?>
<!-- Generator: Adobe Illustrator 11 Build 196, SVG Export Plug-In . SVG Version: 6.0.0 Build 78)  -->

<svg
   xmlns:dc="http://purl.org/dc/elements/1.1/"
   xmlns:cc="http://creativecommons.org/ns#"
   xmlns:rdf="http://www.w3.org/1999/02/22-rdf-syntax-ns#"
   xmlns:svg="http://www.w3.org/2000/svg"
   xmlns="http://www.w3.org/2000/svg"
   xmlns:xlink="http://www.w3.org/1999/xlink"
   xmlns:sodipodi="http://sodipodi.sourceforge.net/DTD/sodipodi-0.dtd"
   xmlns:inkscape="http://www.inkscape.org/namespaces/inkscape"
   sodipodi:docname="horizon.svg"
   sodipodi:version="0.32"
   id="svg1"
   xml:space="preserve"
   style="overflow:visible"
   viewBox="0 0 764.99999 990.00003"
   height="990"
   width="765"
   version="1.1"><defs
     id="defs532"><marker
       inkscape:stockid="Arrow2Mend"
       orient="auto"
       refY="0.0"
       refX="0.0"
       id="Arrow2Mend"
       style="overflow:visible;"><path
         id="path4063"
         style="fill-rule:evenodd;stroke-width:0.62500000;stroke-linejoin:round;"
         d="M 8.7185878,4.0337352 L -2.2072895,0.016013256 L 8.7185884,-4.0017078 C 6.9730900,-1.6296469 6.9831476,1.6157441 8.7185878,4.0337352 z "
         transform="scale(0.6) rotate(180) translate(0,0)" /></marker><marker
       inkscape:stockid="Arrow2Mstart"
       orient="auto"
       refY="0.0"
       refX="0.0"
       id="Arrow2Mstart"
       style="overflow:visible"><path
         id="path4060"
         style="fill-rule:evenodd;stroke-width:0.62500000;stroke-linejoin:round"
         d="M 8.7185878,4.0337352 L -2.2072895,0.016013256 L 8.7185884,-4.0017078 C 6.9730900,-1.6296469 6.9831476,1.6157441 8.7185878,4.0337352 z "
         transform="scale(0.6) translate(0,0)" /></marker><linearGradient
       y2="69.100899"
       x2="116.4535"
       y1="10.4341"
       x1="79.120399"
       gradientUnits="userSpaceOnUse"
       id="XMLID_16_"><stop
         id="stop8"
         style="stop-color:#FFFFFF"
         offset="0" /><stop
         id="stop10"
         style="stop-color:#7F7F7F"
         offset="1" /><midPointStop
         id="midPointStop12"
         style="stop-color:#FFFFFF"
         offset="0" /><midPointStop
         id="midPointStop14"
         style="stop-color:#FFFFFF"
         offset="0.5" /><midPointStop
         id="midPointStop16"
         style="stop-color:#7F7F7F"
         offset="1" /></linearGradient><linearGradient
       gradientTransform="matrix(0.8,0,0,0.8,14.4465,10.5098)"
       y2="80.195297"
       x2="128.06599"
       y1="-49.137699"
       x1="43.398701"
       gradientUnits="userSpaceOnUse"
       id="XMLID_17_"><stop
         id="stop22"
         style="stop-color:#FFFFFF"
         offset="0" /><stop
         id="stop24"
         style="stop-color:#E9E9E9"
         offset="1" /><midPointStop
         id="midPointStop26"
         style="stop-color:#FFFFFF"
         offset="0" /><midPointStop
         id="midPointStop28"
         style="stop-color:#FFFFFF"
         offset="0.5" /><midPointStop
         id="midPointStop30"
         style="stop-color:#E9E9E9"
         offset="1" /></linearGradient><linearGradient
       gradientTransform="matrix(0.8,0,0,0.8,14.4465,10.5098)"
       y2="-1.7681"
       x2="158.2095"
       y1="-1.7681"
       x1="60.487999"
       gradientUnits="userSpaceOnUse"
       id="XMLID_18_"><stop
         id="stop36"
         style="stop-color:#FFFFFF"
         offset="0" /><stop
         id="stop38"
         style="stop-color:#7F7F7F"
         offset="1" /><midPointStop
         id="midPointStop40"
         style="stop-color:#FFFFFF"
         offset="0" /><midPointStop
         id="midPointStop42"
         style="stop-color:#FFFFFF"
         offset="0.5" /><midPointStop
         id="midPointStop44"
         style="stop-color:#7F7F7F"
         offset="1" /></linearGradient><linearGradient
       gradientTransform="matrix(0.8,0,0,0.8,14.4465,10.5098)"
       y2="6.6938"
       x2="80.312698"
       y1="6.6938"
       x1="56.783401"
       gradientUnits="userSpaceOnUse"
       id="XMLID_19_"><stop
         id="stop50"
         style="stop-color:#FFFFFF"
         offset="0" /><stop
         id="stop52"
         style="stop-color:#7F7F7F"
         offset="1" /><midPointStop
         id="midPointStop54"
         style="stop-color:#FFFFFF"
         offset="0" /><midPointStop
         id="midPointStop56"
         style="stop-color:#FFFFFF"
         offset="0.5" /><midPointStop
         id="midPointStop58"
         style="stop-color:#7F7F7F"
         offset="1" /></linearGradient><radialGradient
       gradientUnits="userSpaceOnUse"
       gradientTransform="matrix(0.4,0,0,0.4,42.7142,10.269)"
       fy="43.382301"
       fx="89.486603"
       r="10.6301"
       cy="43.382301"
       cx="89.486603"
       id="XMLID_23_"><stop
         id="stop357"
         style="stop-color:#CACACA"
         offset="0" /><stop
         id="stop359"
         style="stop-color:#B6B6B6"
         offset="0.0875" /><stop
         id="stop361"
         style="stop-color:#989898"
         offset="0.226" /><stop
         id="stop363"
         style="stop-color:#797979"
         offset="0.3689" /><stop
         id="stop365"
         style="stop-color:#5B5B5B"
         offset="0.515" /><stop
         id="stop367"
         style="stop-color:#3B3B3B"
         offset="0.6655" /><stop
         id="stop369"
         style="stop-color:#1F1F1F"
         offset="0.8232" /><stop
         id="stop371"
         style="stop-color:#000000"
         offset="1" /><midPointStop
         id="midPointStop373"
         style="stop-color:#CACACA"
         offset="0" /><midPointStop
         id="midPointStop375"
         style="stop-color:#CACACA"
         offset="0.27" /><midPointStop
         id="midPointStop377"
         style="stop-color:#000000"
         offset="1" /></radialGradient><radialGradient
       gradientUnits="userSpaceOnUse"
       gradientTransform="matrix(0.4,0,0,0.4,106.7977,-4.0979)"
       fy="43.382301"
       fx="89.486603"
       r="10.6301"
       cy="43.382301"
       cx="89.486603"
       id="XMLID_24_"><stop
         id="stop383"
         style="stop-color:#CACACA"
         offset="0" /><stop
         id="stop385"
         style="stop-color:#B6B6B6"
         offset="0.0875" /><stop
         id="stop387"
         style="stop-color:#989898"
         offset="0.226" /><stop
         id="stop389"
         style="stop-color:#797979"
         offset="0.3689" /><stop
         id="stop391"
         style="stop-color:#5B5B5B"
         offset="0.515" /><stop
         id="stop393"
         style="stop-color:#3B3B3B"
         offset="0.6655" /><stop
         id="stop395"
         style="stop-color:#1F1F1F"
         offset="0.8232" /><stop
         id="stop397"
         style="stop-color:#000000"
         offset="1" /><midPointStop
         id="midPointStop399"
         style="stop-color:#CACACA"
         offset="0" /><midPointStop
         id="midPointStop401"
         style="stop-color:#CACACA"
         offset="0.27" /><midPointStop
         id="midPointStop403"
         style="stop-color:#000000"
         offset="1" /></radialGradient><linearGradient
       gradientTransform="matrix(0.8,0,0,0.8,14.4465,10.5098)"
       y2="122.6611"
       x2="42.958099"
       y1="67.328102"
       x1="114.2917"
       gradientUnits="userSpaceOnUse"
       id="XMLID_25_"><stop
         id="stop409"
         style="stop-color:#EDEDED"
         offset="0" /><stop
         id="stop411"
         style="stop-color:#E9E9E9"
         offset="1" /><midPointStop
         id="midPointStop413"
         style="stop-color:#EDEDED"
         offset="0" /><midPointStop
         id="midPointStop415"
         style="stop-color:#EDEDED"
         offset="0.5" /><midPointStop
         id="midPointStop417"
         style="stop-color:#E9E9E9"
         offset="1" /></linearGradient><linearGradient
       gradientTransform="matrix(0.8,0,0,0.8,14.4465,10.5098)"
       y2="11.8909"
       x2="-47.078602"
       y1="144.2236"
       x1="44.2556"
       gradientUnits="userSpaceOnUse"
       id="XMLID_26_"><stop
         id="stop423"
         style="stop-color:#FFFFFF"
         offset="0" /><stop
         id="stop425"
         style="stop-color:#7F7F7F"
         offset="1" /><midPointStop
         id="midPointStop427"
         style="stop-color:#FFFFFF"
         offset="0" /><midPointStop
         id="midPointStop429"
         style="stop-color:#FFFFFF"
         offset="0.5" /><midPointStop
         id="midPointStop431"
         style="stop-color:#7F7F7F"
         offset="1" /></linearGradient><linearGradient
       gradientTransform="matrix(0.8,0,0,0.8,14.4465,10.5098)"
       y2="4.6956"
       x2="4.8587999"
       y1="93.695297"
       x1="-47.141602"
       gradientUnits="userSpaceOnUse"
       id="XMLID_27_"><stop
         id="stop437"
         style="stop-color:#FFFFFF"
         offset="0" /><stop
         id="stop439"
         style="stop-color:#7F7F7F"
         offset="1" /><midPointStop
         id="midPointStop441"
         style="stop-color:#FFFFFF"
         offset="0" /><midPointStop
         id="midPointStop443"
         style="stop-color:#FFFFFF"
         offset="0.5" /><midPointStop
         id="midPointStop445"
         style="stop-color:#7F7F7F"
         offset="1" /></linearGradient><radialGradient
       gradientUnits="userSpaceOnUse"
       gradientTransform="matrix(0.4,0,0,0.4,-14.6193,-3.6812)"
       fy="43.382301"
       fx="89.486603"
       r="10.6301"
       cy="43.382301"
       cx="89.486603"
       id="XMLID_28_"><stop
         id="stop451"
         style="stop-color:#CACACA"
         offset="0" /><stop
         id="stop453"
         style="stop-color:#B6B6B6"
         offset="0.0875" /><stop
         id="stop455"
         style="stop-color:#989898"
         offset="0.226" /><stop
         id="stop457"
         style="stop-color:#797979"
         offset="0.3689" /><stop
         id="stop459"
         style="stop-color:#5B5B5B"
         offset="0.515" /><stop
         id="stop461"
         style="stop-color:#3B3B3B"
         offset="0.6655" /><stop
         id="stop463"
         style="stop-color:#1F1F1F"
         offset="0.8232" /><stop
         id="stop465"
         style="stop-color:#000000"
         offset="1" /><midPointStop
         id="midPointStop467"
         style="stop-color:#CACACA"
         offset="0" /><midPointStop
         id="midPointStop469"
         style="stop-color:#CACACA"
         offset="0.27" /><midPointStop
         id="midPointStop471"
         style="stop-color:#000000"
         offset="1" /></radialGradient><radialGradient
       gradientUnits="userSpaceOnUse"
       gradientTransform="matrix(0.4,0,0,0.4,81.3356,54.323)"
       fy="43.382301"
       fx="89.486603"
       r="10.6301"
       cy="43.382301"
       cx="89.486603"
       id="XMLID_29_"><stop
         id="stop498"
         style="stop-color:#CACACA"
         offset="0" /><stop
         id="stop500"
         style="stop-color:#B6B6B6"
         offset="0.0875" /><stop
         id="stop502"
         style="stop-color:#989898"
         offset="0.226" /><stop
         id="stop504"
         style="stop-color:#797979"
         offset="0.3689" /><stop
         id="stop506"
         style="stop-color:#5B5B5B"
         offset="0.515" /><stop
         id="stop508"
         style="stop-color:#3B3B3B"
         offset="0.6655" /><stop
         id="stop510"
         style="stop-color:#1F1F1F"
         offset="0.8232" /><stop
         id="stop512"
         style="stop-color:#000000"
         offset="1" /><midPointStop
         id="midPointStop514"
         style="stop-color:#CACACA"
         offset="0" /><midPointStop
         id="midPointStop516"
         style="stop-color:#CACACA"
         offset="0.27" /><midPointStop
         id="midPointStop518"
         style="stop-color:#000000"
         offset="1" /></radialGradient></defs><metadata
     id="metadata531"><rdf:RDF><cc:Work
         rdf:about=""><dc:format>image/svg+xml</dc:format><dc:type
           rdf:resource="http://purl.org/dc/dcmitype/StillImage" /></cc:Work></rdf:RDF></metadata><sodipodi:namedview
     inkscape:current-layer="svg1"
     inkscape:window-y="0"
     inkscape:window-x="0"
     inkscape:window-height="872"
     inkscape:window-width="1440"
     inkscape:cy="183.20649"
     inkscape:cx="47.258821"
     inkscape:zoom="1.5367276"
     inkscape:pageshadow="2"
     inkscape:pageopacity="0.0"
     borderopacity="1.0"
     bordercolor="#666666"
     pagecolor="#ffffff"
     id="base"
     showgrid="false"
     units="in"
     inkscape:window-maximized="1" /><style
     id="style3"
     type="text/css" /><g
     id="g157"
     transform="matrix(2.272325,2.6695311,-2.6695311,2.272325,175.24934,600.79091)"><g
       id="g159"><defs
         id="defs161"><path
           d="M 60.428,83.356 C 44.875,89.002 31.406,82.591 24.597,75.386 13.011,63.125 13.569,48.246 17.955,38.409 c 2.585,-5.799 7.95,-13.591 18.823,-17.78 -4.712,1.773 -8.712,5.564 -11.229,11.25 2.517,-5.686 6.517,-9.477 11.229,-11.25 5.435,-1.854 11.695,-3.257 20.627,-0.991 6.128,1.554 11.695,5.06 16.545,10.42 7.131,7.88 11.639,22.766 4.687,36.828 -5.363,10.846 -14.521,15.132 -18.209,16.47 z"
           id="XMLID_7_"
           inkscape:connector-curvature="0" /></defs><use
         id="use165"
         style="fill:#eeeeee"
         xlink:href="#XMLID_7_"
         x="0"
         y="0"
         width="144.593"
         height="105.173" /><clipPath
         id="XMLID_22_"><use
           id="use168"
           xlink:href="#XMLID_7_"
           x="0"
           y="0"
           width="144.593"
           height="105.173" /></clipPath><g
         id="g171"
         clip-path="url(#XMLID_22_)"><path
           id="path173"
           d="M 60.428,83.356 C 44.875,89.002 31.406,82.591 24.597,75.386 13.011,63.125 13.569,48.246 17.955,38.409 c 2.585,-5.799 7.95,-13.591 18.823,-17.78 -4.712,1.773 -8.712,5.564 -11.229,11.25 2.517,-5.686 6.517,-9.477 11.229,-11.25 5.435,-1.854 11.695,-3.257 20.627,-0.991 6.128,1.554 11.695,5.06 16.545,10.42 7.131,7.88 11.639,22.766 4.687,36.828 -5.363,10.846 -14.521,15.132 -18.209,16.47"
           style="fill:#e5e5e5"
           inkscape:connector-curvature="0" /><g
           id="g175"><path
             id="path177"
             d="m 17.955,38.41 c 0.254,-0.566 0.64,-1.422 1.305,-2.633 l 0.626,-1.085 c 0.199,-0.317 0.459,-0.744 0.664,-1.058 l 0.636,-0.938 c 0.198,-0.271 0.457,-0.636 0.659,-0.903 l 0.658,-0.843 c 0.204,-0.245 0.47,-0.575 0.679,-0.814 l 0.7,-0.788 0.726,-0.768 0.768,-0.762 c 0.243,-0.226 0.562,-0.53 0.808,-0.751 l 0.874,-0.759 c 0.282,-0.229 0.655,-0.538 0.941,-0.762 l 1.034,-0.773 c 0.348,-0.239 0.807,-0.565 1.16,-0.797 l 1.27,-0.793 c 0.458,-0.258 1.065,-0.609 1.53,-0.855 l 1.597,-0.785 c 0.655,-0.279 1.525,-0.657 2.189,-0.913 -4.624,1.74 -8.561,5.422 -11.085,10.931 l 0,0 c -1.968,0.608 -5.622,2.381 -7.981,7.414 0.071,-0.169 0.166,-0.396 0.242,-0.565"
             style="fill:#e5e5e5"
             inkscape:connector-curvature="0" /><path
             id="path179"
             d="m 36.779,20.63 c 1.543,-0.526 3.657,-1.247 6.213,-1.683 l 2.32,-0.312 c 1.125,-0.072 2.626,-0.153 3.753,-0.162 l 2.467,0.123 c 1.019,0.127 2.38,0.291 3.391,0.47 l 2.482,0.574 c 0.94,0.295 2.2,0.676 3.124,1.017 l 2.403,1.025 c 0.865,0.453 2.027,1.041 2.868,1.535 l 2.242,1.469 c 0.782,0.607 1.837,1.402 2.589,2.046 l 1.978,1.87 1.341,1.458 1.662,2.078 c 0.543,0.802 1.283,1.863 1.787,2.69 l 1.24,2.274 c 0.4,0.891 0.946,2.073 1.302,2.982 l 0.803,2.382 c 0.251,0.979 0.592,2.285 0.793,3.276 l 0.362,2.374 c 0.088,1.09 0.195,2.545 0.224,3.638 l -0.057,2.199 c -0.115,1.271 -0.32,2.962 -0.516,4.223 l -0.386,1.785 c -0.55,2.009 -0.882,3.222 -1.913,5.617 l -0.614,1.31 c -0.207,0.397 -0.476,0.93 -0.691,1.323 l -0.626,1.086 c -0.199,0.317 -0.458,0.744 -0.664,1.057 l -0.636,0.938 c -0.197,0.271 -0.457,0.636 -0.659,0.903 l -0.658,0.843 c -0.204,0.245 -0.471,0.574 -0.679,0.815 l -0.7,0.788 c -0.218,0.23 -0.505,0.54 -0.726,0.767 L 71.83,76.17 c -0.242,0.226 -0.562,0.53 -0.808,0.751 l -0.873,0.759 c -0.282,0.229 -0.655,0.538 -0.941,0.762 l -1.033,0.773 c -0.348,0.239 -0.808,0.565 -1.16,0.797 l -1.269,0.792 c -0.458,0.258 -1.066,0.61 -1.531,0.856 l -1.596,0.784 c -0.654,0.279 -1.525,0.657 -2.189,0.913 l -1.991,0.679 c -2.717,0.74 -2.823,0.769 -4.397,1.033 l -2.326,0.301 c -1.121,0.066 -2.618,0.14 -3.741,0.143 L 45.507,85.378 C 44.49,85.246 43.132,85.076 42.123,84.892 L 39.642,84.306 C 38.704,84.007 37.448,83.62 36.525,83.275 l -2.399,-1.038 c -0.862,-0.457 -2.022,-1.051 -2.861,-1.55 l 0.356,0.203 C 40.08,84.81 47.712,76.937 49.85,74.43 64.295,57.491 68.655,52.379 64.197,42.691 57.896,28.998 30.509,29.539 25.695,31.563 28.217,26.052 32.155,22.37 36.779,20.63"
             style="fill:#e5e5e5"
             inkscape:connector-curvature="0" /></g><g
           id="g182"><path
             id="path184"
             d="m 19.26,35.777 c 0.829,-1.438 0.829,-1.438 1.29,-2.143 l 0.636,-0.938 c 0.198,-0.271 0.457,-0.636 0.659,-0.903 l 0.658,-0.843 c 0.204,-0.245 0.47,-0.575 0.679,-0.814 l 0.7,-0.788 0.726,-0.768 0.768,-0.762 c 0.243,-0.226 0.562,-0.53 0.808,-0.751 l 0.874,-0.759 c 0.282,-0.229 0.655,-0.538 0.941,-0.762 l 1.034,-0.773 c 0.348,-0.239 0.807,-0.565 1.16,-0.797 l 1.27,-0.793 c 0.458,-0.258 1.065,-0.609 1.53,-0.855 l 1.597,-0.785 c 0.655,-0.279 1.525,-0.657 2.189,-0.913 -4.347,1.636 -8.087,4.988 -10.617,9.962 l 0,0 c -0.05,0.013 -5.068,1.474 -7.699,6.728 l 0.638,-1.246 0.159,-0.297"
             style="fill:#e4e4e4"
             inkscape:connector-curvature="0" /><path
             id="path186"
             d="m 36.779,20.63 c 1.543,-0.526 3.657,-1.247 6.213,-1.683 l 2.32,-0.312 c 1.125,-0.072 2.626,-0.153 3.753,-0.162 l 2.467,0.123 c 1.019,0.127 2.38,0.291 3.391,0.47 l 2.482,0.574 c 0.94,0.295 2.2,0.676 3.124,1.017 l 2.403,1.025 c 0.865,0.453 2.027,1.041 2.868,1.535 l 2.242,1.469 c 0.782,0.607 1.837,1.402 2.589,2.046 l 1.978,1.87 1.341,1.458 1.662,2.078 c 0.543,0.802 1.283,1.863 1.787,2.69 l 1.24,2.274 c 0.4,0.891 0.946,2.073 1.302,2.982 l 0.803,2.382 c 0.251,0.979 0.592,2.285 0.793,3.276 l 0.362,2.374 c 0.088,1.09 0.195,2.545 0.224,3.638 l -0.057,2.199 c -0.115,1.271 -0.32,2.962 -0.516,4.223 l -0.386,1.785 c -0.55,2.009 -0.882,3.222 -1.913,5.617 l -0.614,1.31 c -0.207,0.397 -0.476,0.93 -0.691,1.323 l -0.626,1.086 c -0.199,0.317 -0.458,0.744 -0.664,1.057 l -0.636,0.938 c -0.197,0.271 -0.457,0.636 -0.659,0.903 l -0.658,0.843 c -0.204,0.245 -0.471,0.574 -0.679,0.815 l -0.7,0.788 c -0.218,0.23 -0.505,0.54 -0.726,0.767 L 71.83,76.17 c -0.242,0.226 -0.562,0.53 -0.808,0.751 l -0.873,0.759 c -0.282,0.229 -0.655,0.538 -0.941,0.762 l -1.033,0.773 c -0.348,0.239 -0.808,0.565 -1.16,0.797 l -1.269,0.792 c -0.458,0.258 -1.066,0.61 -1.531,0.856 l -1.596,0.784 c -0.654,0.279 -1.525,0.657 -2.189,0.913 l -1.991,0.679 c -2.717,0.74 -2.823,0.769 -4.397,1.033 l -2.326,0.301 c -1.121,0.066 -2.618,0.14 -3.741,0.143 L 45.507,85.378 C 44.49,85.246 43.132,85.076 42.123,84.892 L 39.642,84.306 C 38.704,84.007 37.448,83.62 36.525,83.275 l -2.399,-1.038 -1.522,-0.779 0.127,0.068 C 40.359,84.94 47.543,79.017 52.226,73.447 63.543,59.988 69.223,53.232 65.196,42.915 59.141,27.403 30.602,28.717 26.162,30.594 28.69,25.618 32.431,22.266 36.779,20.63"
             style="fill:#e4e4e4"
             inkscape:connector-curvature="0" /></g><g
           id="g189"><path
             id="path191"
             d="m 20.55,33.634 c 0.846,-1.246 0.846,-1.246 1.295,-1.841 l 0.658,-0.843 c 0.204,-0.245 0.47,-0.575 0.679,-0.814 l 0.7,-0.788 0.726,-0.768 0.768,-0.762 c 0.243,-0.226 0.562,-0.53 0.808,-0.751 l 0.874,-0.759 c 0.282,-0.229 0.655,-0.538 0.941,-0.762 l 1.034,-0.773 c 0.348,-0.239 0.807,-0.565 1.16,-0.797 l 1.27,-0.793 c 0.458,-0.258 1.065,-0.609 1.53,-0.855 l 1.597,-0.785 c 0.655,-0.279 1.525,-0.657 2.189,-0.913 -4.07,1.532 -7.609,4.569 -10.12,9.033 l 0,0 c -0.046,0.011 -4.749,1.419 -7.348,6.024 l 0.628,-1.081 0.611,-0.972"
             style="fill:#e3e3e3"
             inkscape:connector-curvature="0" /><path
             id="path193"
             d="m 36.779,20.63 c 1.543,-0.526 3.657,-1.247 6.213,-1.683 l 2.32,-0.312 c 1.125,-0.072 2.626,-0.153 3.753,-0.162 l 2.467,0.123 c 1.019,0.127 2.38,0.291 3.391,0.47 l 2.482,0.574 c 0.94,0.295 2.2,0.676 3.124,1.017 l 2.403,1.025 c 0.865,0.453 2.027,1.041 2.868,1.535 l 2.242,1.469 c 0.782,0.607 1.837,1.402 2.589,2.046 l 1.978,1.87 1.341,1.458 1.662,2.078 c 0.543,0.802 1.283,1.863 1.787,2.69 l 1.24,2.274 c 0.4,0.891 0.946,2.073 1.302,2.982 l 0.803,2.382 c 0.251,0.979 0.592,2.285 0.793,3.276 l 0.362,2.374 c 0.088,1.09 0.195,2.545 0.224,3.638 l -0.057,2.199 c -0.115,1.271 -0.32,2.962 -0.516,4.223 l -0.386,1.785 c -0.55,2.009 -0.882,3.222 -1.913,5.617 l -0.614,1.31 c -0.207,0.397 -0.476,0.93 -0.691,1.323 l -0.626,1.086 c -0.199,0.317 -0.458,0.744 -0.664,1.057 l -0.636,0.938 c -0.197,0.271 -0.457,0.636 -0.659,0.903 l -0.658,0.843 c -0.204,0.245 -0.471,0.574 -0.679,0.815 l -0.7,0.788 c -0.218,0.23 -0.505,0.54 -0.726,0.767 L 71.83,76.17 c -0.242,0.226 -0.562,0.53 -0.808,0.751 l -0.873,0.759 c -0.282,0.229 -0.655,0.538 -0.941,0.762 l -1.033,0.773 c -0.348,0.239 -0.808,0.565 -1.16,0.797 l -1.269,0.792 c -0.458,0.258 -1.066,0.61 -1.531,0.856 l -1.596,0.784 c -0.654,0.279 -1.525,0.657 -2.189,0.913 l -1.991,0.679 c -2.717,0.74 -2.823,0.769 -4.397,1.033 l -2.326,0.301 c -1.121,0.066 -2.618,0.14 -3.741,0.143 L 45.507,85.378 C 44.49,85.246 43.132,85.076 42.123,84.892 l -2.481,-0.586 c -0.938,-0.299 -2.194,-0.686 -3.117,-1.031 -0.708,-0.306 -1.652,-0.714 -2.36,-1.02 0.398,0.159 0.93,0.371 1.328,0.529 C 42.82,84.901 51.104,78.682 62.357,62.62 68.169,54.323 69.218,46.707 65.475,39.986 59.591,29.421 34.26,26.083 26.658,29.663 c 2.511,-4.464 6.05,-7.501 10.121,-9.033"
             style="fill:#e3e3e3"
             inkscape:connector-curvature="0" /></g><g
           id="g196"><path
             id="path198"
             d="m 20.55,33.634 c 0.23,-0.349 0.659,-0.999 1.295,-1.841 l 0.658,-0.843 c 0.204,-0.245 0.47,-0.575 0.679,-0.814 l 0.7,-0.788 0.726,-0.768 0.768,-0.762 c 0.243,-0.226 0.562,-0.53 0.808,-0.751 l 0.874,-0.759 c 0.282,-0.229 0.655,-0.538 0.941,-0.762 l 1.034,-0.773 c 0.348,-0.239 0.807,-0.565 1.16,-0.797 l 1.27,-0.793 c 0.458,-0.258 1.065,-0.609 1.53,-0.855 l 1.597,-0.785 c 0.655,-0.279 1.525,-0.657 2.189,-0.913 -3.775,1.421 -7.093,4.137 -9.558,8.084 h 0 c -0.042,0.012 -4.341,1.266 -6.999,5.433 0.098,-0.154 0.227,-0.36 0.328,-0.513"
             style="fill:#e2e2e2"
             inkscape:connector-curvature="0" /><path
             id="path200"
             d="m 36.779,20.63 c 1.543,-0.526 3.657,-1.247 6.213,-1.683 l 2.32,-0.312 c 1.125,-0.072 2.626,-0.153 3.753,-0.162 l 2.467,0.123 c 1.019,0.127 2.38,0.291 3.391,0.47 l 2.482,0.574 c 0.94,0.295 2.2,0.676 3.124,1.017 l 2.403,1.025 c 0.865,0.453 2.027,1.041 2.868,1.535 l 2.242,1.469 c 0.782,0.607 1.837,1.402 2.589,2.046 l 1.978,1.87 1.341,1.458 1.662,2.078 c 0.543,0.802 1.283,1.863 1.787,2.69 l 1.24,2.274 c 0.4,0.891 0.946,2.073 1.302,2.982 l 0.803,2.382 c 0.251,0.979 0.592,2.285 0.793,3.276 l 0.362,2.374 c 0.088,1.09 0.195,2.545 0.224,3.638 l -0.057,2.199 c -0.115,1.271 -0.32,2.962 -0.516,4.223 l -0.386,1.785 c -0.55,2.009 -0.882,3.222 -1.913,5.617 l -0.614,1.31 c -0.207,0.397 -0.476,0.93 -0.691,1.323 l -0.626,1.086 c -0.199,0.317 -0.458,0.744 -0.664,1.057 l -0.636,0.938 c -0.197,0.271 -0.457,0.636 -0.659,0.903 l -0.658,0.843 c -0.204,0.245 -0.471,0.574 -0.679,0.815 l -0.7,0.788 c -0.218,0.23 -0.505,0.54 -0.726,0.767 L 71.83,76.17 c -0.242,0.226 -0.562,0.53 -0.808,0.751 l -0.873,0.759 c -0.282,0.229 -0.655,0.538 -0.941,0.762 l -1.033,0.773 c -0.348,0.239 -0.808,0.565 -1.16,0.797 l -1.269,0.792 c -0.458,0.258 -1.066,0.61 -1.531,0.856 l -1.596,0.784 c -0.654,0.279 -1.525,0.657 -2.189,0.913 l -1.991,0.679 c -2.717,0.74 -2.823,0.769 -4.397,1.033 l -2.326,0.301 c -1.121,0.066 -2.618,0.14 -3.741,0.143 L 45.507,85.378 C 44.49,85.246 43.132,85.076 42.123,84.892 l -2.481,-0.586 c -0.938,-0.299 -2.194,-0.686 -3.117,-1.031 -0.239,-0.096 -0.557,-0.224 -0.796,-0.32 0.406,0.139 0.947,0.324 1.353,0.463 9.48,2.439 20.88,-11.49 28.773,-23.604 3.442,-5.283 5.051,-14.186 0.449,-21.246 -8.599,-13.193 -34.83,-11.952 -39.083,-9.852 2.463,-3.95 5.782,-6.666 9.558,-8.086"
             style="fill:#e2e2e2"
             inkscape:connector-curvature="0" /></g><g
           id="g203"><path
             id="path205"
             d="m 21.845,31.793 c 0.709,-0.939 1.312,-1.629 1.337,-1.658 l 0.7,-0.788 0.726,-0.768 0.768,-0.762 c 0.243,-0.226 0.562,-0.53 0.808,-0.751 l 0.874,-0.759 c 0.282,-0.229 0.655,-0.538 0.941,-0.762 l 1.034,-0.773 c 0.348,-0.239 0.807,-0.565 1.16,-0.797 l 1.27,-0.793 c 0.458,-0.258 1.065,-0.609 1.53,-0.855 l 1.597,-0.785 c 0.655,-0.279 1.525,-0.657 2.189,-0.913 -3.477,1.308 -6.565,3.715 -8.957,7.17 l 0,0 c -0.04,0.012 -4.065,1.272 -6.583,4.823 0.181,-0.247 0.42,-0.582 0.606,-0.829"
             style="fill:#e2e2e2"
             inkscape:connector-curvature="0" /><path
             id="path207"
             d="m 36.779,20.63 c 1.543,-0.526 3.657,-1.247 6.213,-1.683 l 2.32,-0.312 c 1.125,-0.072 2.626,-0.153 3.753,-0.162 l 2.467,0.123 c 1.019,0.127 2.38,0.291 3.391,0.47 l 2.482,0.574 c 0.94,0.295 2.2,0.676 3.124,1.017 l 2.403,1.025 c 0.865,0.453 2.027,1.041 2.868,1.535 l 2.242,1.469 c 0.782,0.607 1.837,1.402 2.589,2.046 l 1.978,1.87 1.341,1.458 1.662,2.078 c 0.543,0.802 1.283,1.863 1.787,2.69 l 1.24,2.274 c 0.4,0.891 0.946,2.073 1.302,2.982 l 0.803,2.382 c 0.251,0.979 0.592,2.285 0.793,3.276 l 0.362,2.374 c 0.088,1.09 0.195,2.545 0.224,3.638 l -0.057,2.199 c -0.115,1.271 -0.32,2.962 -0.516,4.223 l -0.386,1.785 c -0.55,2.009 -0.882,3.222 -1.913,5.617 l -0.614,1.31 c -0.207,0.397 -0.476,0.93 -0.691,1.323 l -0.626,1.086 c -0.199,0.317 -0.458,0.744 -0.664,1.057 l -0.636,0.938 c -0.197,0.271 -0.457,0.636 -0.659,0.903 l -0.658,0.843 c -0.204,0.245 -0.471,0.574 -0.679,0.815 l -0.7,0.788 c -0.218,0.23 -0.505,0.54 -0.726,0.767 L 71.83,76.17 c -0.242,0.226 -0.562,0.53 -0.808,0.751 l -0.873,0.759 c -0.282,0.229 -0.655,0.538 -0.941,0.762 l -1.033,0.773 c -0.348,0.239 -0.808,0.565 -1.16,0.797 l -1.269,0.792 c -0.458,0.258 -1.066,0.61 -1.531,0.856 l -1.596,0.784 c -0.654,0.279 -1.525,0.657 -2.189,0.913 l -1.991,0.679 c -2.717,0.74 -2.823,0.769 -4.397,1.033 l -2.326,0.301 c -1.121,0.066 -2.618,0.14 -3.741,0.143 L 45.507,85.378 C 44.49,85.246 43.132,85.076 42.123,84.892 l -2.481,-0.586 -2.218,-0.699 1.246,0.358 C 51.629,85.681 66.938,61.216 67.085,60.968 72.644,51.549 72.609,43.144 66.982,35.988 57.578,24.032 32.587,25.534 27.821,27.8 c 2.392,-3.455 5.481,-5.862 8.958,-7.17"
             style="fill:#e2e2e2"
             inkscape:connector-curvature="0" /></g><g
           id="g210"><path
             id="path212"
             d="m 23.182,30.136 c 0.42,-0.474 0.991,-1.096 1.426,-1.556 l 0.768,-0.762 c 0.243,-0.226 0.562,-0.53 0.808,-0.751 l 0.874,-0.759 c 0.282,-0.229 0.655,-0.538 0.941,-0.762 l 1.034,-0.773 c 0.348,-0.239 0.807,-0.565 1.16,-0.797 l 1.27,-0.793 c 0.458,-0.258 1.065,-0.609 1.53,-0.855 l 1.597,-0.785 c 0.655,-0.279 1.525,-0.657 2.189,-0.913 -3.157,1.188 -5.994,3.282 -8.28,6.244 l 0,0 c -1.006,0.304 -4.068,1.659 -6.125,4.238 l 0.675,-0.82 0.133,-0.156"
             style="fill:#e1e1e1"
             inkscape:connector-curvature="0" /><path
             id="path214"
             d="m 36.779,20.63 c 1.543,-0.526 3.657,-1.247 6.213,-1.683 l 2.32,-0.312 c 1.125,-0.072 2.626,-0.153 3.753,-0.162 l 2.467,0.123 c 1.019,0.127 2.38,0.291 3.391,0.47 l 2.482,0.574 c 0.94,0.295 2.2,0.676 3.124,1.017 l 2.403,1.025 c 0.865,0.453 2.027,1.041 2.868,1.535 l 2.242,1.469 c 0.782,0.607 1.837,1.402 2.589,2.046 l 1.978,1.87 1.341,1.458 1.662,2.078 c 0.543,0.802 1.283,1.863 1.787,2.69 l 1.24,2.274 c 0.4,0.891 0.946,2.073 1.302,2.982 l 0.803,2.382 c 0.251,0.979 0.592,2.285 0.793,3.276 l 0.362,2.374 c 0.088,1.09 0.195,2.545 0.224,3.638 l -0.057,2.199 c -0.115,1.271 -0.32,2.962 -0.516,4.223 l -0.386,1.785 c -0.55,2.009 -0.882,3.222 -1.913,5.617 l -0.614,1.31 c -0.207,0.397 -0.476,0.93 -0.691,1.323 l -0.626,1.086 c -0.199,0.317 -0.458,0.744 -0.664,1.057 l -0.636,0.938 c -0.197,0.271 -0.457,0.636 -0.659,0.903 l -0.658,0.843 c -0.204,0.245 -0.471,0.574 -0.679,0.815 l -0.7,0.788 c -0.218,0.23 -0.505,0.54 -0.726,0.767 L 71.83,76.17 c -0.242,0.226 -0.562,0.53 -0.808,0.751 l -0.873,0.759 c -0.282,0.229 -0.655,0.538 -0.941,0.762 l -1.033,0.773 c -0.348,0.239 -0.808,0.565 -1.16,0.797 l -1.269,0.792 c -0.458,0.258 -1.066,0.61 -1.531,0.856 l -1.596,0.784 c -0.654,0.279 -1.525,0.657 -2.189,0.913 l -1.991,0.679 c -2.717,0.74 -2.823,0.769 -4.397,1.033 l -2.326,0.301 c -1.121,0.066 -2.618,0.14 -3.741,0.143 L 45.507,85.378 C 44.49,85.246 43.132,85.076 42.123,84.892 L 39.642,84.306 39.2,84.18 39.982,84.377 C 53.147,86.07 70.681,59.022 70.836,58.746 71.113,58.255 77.524,46.578 68.193,34.439 58.334,21.613 32.696,24.892 28.5,26.876 c 2.284,-2.964 5.121,-5.058 8.279,-6.246"
             style="fill:#e1e1e1"
             inkscape:connector-curvature="0" /></g><g
           id="g217"><path
             id="path219"
             d="m 24.608,28.58 c 1.02,-1.012 1.02,-1.012 1.576,-1.513 l 0.874,-0.759 c 0.282,-0.229 0.655,-0.538 0.941,-0.762 l 1.034,-0.773 c 0.348,-0.239 0.807,-0.565 1.16,-0.797 l 1.27,-0.793 c 0.458,-0.258 1.065,-0.609 1.53,-0.855 l 1.597,-0.785 c 0.655,-0.279 1.525,-0.657 2.189,-0.913 -2.818,1.061 -5.382,2.843 -7.526,5.321 l 0,0 c -0.331,0.107 -3.298,1.122 -5.596,3.645 l 0.718,-0.774 0.233,-0.242"
             style="fill:#e0e0e0"
             inkscape:connector-curvature="0" /><path
             id="path221"
             d="m 36.779,20.63 c 1.543,-0.526 3.657,-1.247 6.213,-1.683 l 2.32,-0.312 c 1.125,-0.072 2.626,-0.153 3.753,-0.162 l 2.467,0.123 c 1.019,0.127 2.38,0.291 3.391,0.47 l 2.482,0.574 c 0.94,0.295 2.2,0.676 3.124,1.017 l 2.403,1.025 c 0.865,0.453 2.027,1.041 2.868,1.535 l 2.242,1.469 c 0.782,0.607 1.837,1.402 2.589,2.046 l 1.978,1.87 1.341,1.458 1.662,2.078 c 0.543,0.802 1.283,1.863 1.787,2.69 l 1.24,2.274 c 0.4,0.891 0.946,2.073 1.302,2.982 l 0.803,2.382 c 0.251,0.979 0.592,2.285 0.793,3.276 l 0.362,2.374 c 0.088,1.09 0.195,2.545 0.224,3.638 l -0.057,2.199 c -0.115,1.271 -0.32,2.962 -0.516,4.223 l -0.386,1.785 c -0.55,2.009 -0.882,3.222 -1.913,5.617 l -0.614,1.31 c -0.207,0.397 -0.476,0.93 -0.691,1.323 l -0.626,1.086 c -0.199,0.317 -0.458,0.744 -0.664,1.057 l -0.636,0.938 c -0.197,0.271 -0.457,0.636 -0.659,0.903 l -0.658,0.843 c -0.204,0.245 -0.471,0.574 -0.679,0.815 l -0.7,0.788 c -0.218,0.23 -0.505,0.54 -0.726,0.767 L 71.83,76.17 c -0.242,0.226 -0.562,0.53 -0.808,0.751 l -0.873,0.759 c -0.282,0.229 -0.655,0.538 -0.941,0.762 l -1.033,0.773 c -0.348,0.239 -0.808,0.565 -1.16,0.797 l -1.269,0.792 c -0.458,0.258 -1.066,0.61 -1.531,0.856 l -1.596,0.784 c -0.654,0.279 -1.525,0.657 -2.189,0.913 l -1.991,0.679 c -2.717,0.74 -2.823,0.769 -4.397,1.033 l -2.326,0.301 c -1.121,0.066 -2.618,0.14 -3.741,0.143 l -2.468,-0.135 c -1.017,-0.132 -2.375,-0.302 -3.384,-0.486 -0.3,-0.063 -0.701,-0.149 -1,-0.212 0.081,0.017 0.188,0.04 0.268,0.058 12.461,1.551 30.795,-24.028 30.945,-24.291 3.803,-6.642 4.653,-17.33 -2.02,-26.234 -12.755,-17.02 -40.804,-8.378 -41.063,-8.26 2.143,-2.48 4.707,-4.263 7.526,-5.323"
             style="fill:#e0e0e0"
             inkscape:connector-curvature="0" /></g><g
           id="g224"><path
             id="path226"
             d="m 26.184,27.067 c 1.157,-1.005 1.179,-1.024 1.815,-1.521 l 1.034,-0.773 c 0.348,-0.239 0.807,-0.565 1.16,-0.797 l 1.27,-0.793 c 0.458,-0.258 1.065,-0.609 1.53,-0.855 l 1.597,-0.785 c 0.655,-0.279 1.525,-0.657 2.189,-0.913 -2.447,0.921 -4.702,2.386 -6.657,4.378 0,0 0,0 0,0 -0.999,0.332 -2.976,1.168 -4.991,3.05 l 0.792,-0.752 0.261,-0.239"
             style="fill:#e0e0e0"
             inkscape:connector-curvature="0" /><path
             id="path228"
             d="m 36.779,20.63 c 1.543,-0.526 3.657,-1.247 6.213,-1.683 l 2.32,-0.312 c 1.125,-0.072 2.626,-0.153 3.753,-0.162 l 2.467,0.123 c 1.019,0.127 2.38,0.291 3.391,0.47 l 2.482,0.574 c 0.94,0.295 2.2,0.676 3.124,1.017 l 2.403,1.025 c 0.865,0.453 2.027,1.041 2.868,1.535 l 2.242,1.469 c 0.782,0.607 1.837,1.402 2.589,2.046 l 1.978,1.87 1.341,1.458 1.662,2.078 c 0.543,0.802 1.283,1.863 1.787,2.69 l 1.24,2.274 c 0.4,0.891 0.946,2.073 1.302,2.982 l 0.803,2.382 c 0.251,0.979 0.592,2.285 0.793,3.276 l 0.362,2.374 c 0.088,1.09 0.195,2.545 0.224,3.638 l -0.057,2.199 c -0.115,1.271 -0.32,2.962 -0.516,4.223 l -0.386,1.785 c -0.55,2.009 -0.882,3.222 -1.913,5.617 l -0.614,1.31 c -0.207,0.397 -0.476,0.93 -0.691,1.323 l -0.626,1.086 c -0.199,0.317 -0.458,0.744 -0.664,1.057 l -0.636,0.938 c -0.197,0.271 -0.457,0.636 -0.659,0.903 l -0.658,0.843 c -0.204,0.245 -0.471,0.574 -0.679,0.815 l -0.7,0.788 c -0.218,0.23 -0.505,0.54 -0.726,0.767 L 71.83,76.17 c -0.242,0.226 -0.562,0.53 -0.808,0.751 l -0.873,0.759 c -0.282,0.229 -0.655,0.538 -0.941,0.762 l -1.033,0.773 c -0.348,0.239 -0.808,0.565 -1.16,0.797 l -1.269,0.792 c -0.458,0.258 -1.066,0.61 -1.531,0.856 l -1.596,0.784 c -0.654,0.279 -1.525,0.657 -2.189,0.913 l -1.991,0.679 c -2.717,0.74 -2.823,0.769 -4.397,1.033 l -2.326,0.301 c -1.121,0.066 -2.618,0.14 -3.741,0.143 l -2.468,-0.135 -2.309,-0.293 1.16,0.106 C 51.548,85.166 70.668,69.116 74.892,59.559 76.093,56.843 81.438,42.654 68.725,30.063 55.001,16.472 30.353,24.905 30.123,25.01 c 1.953,-1.994 4.208,-3.459 6.656,-4.38"
             style="fill:#e0e0e0"
             inkscape:connector-curvature="0" /></g><g
           id="g231"><path
             id="path233"
             d="m 27.999,25.546 c 1.354,-1.014 1.407,-1.053 2.193,-1.57 l 1.27,-0.793 c 0.458,-0.258 1.065,-0.609 1.53,-0.855 l 1.597,-0.785 c 0.655,-0.279 1.525,-0.657 2.189,-0.913 -2.042,0.769 -3.95,1.916 -5.661,3.432 0,0 0,0 0,0 -1.585,0.563 -3.022,1.379 -4.271,2.426 l 0.91,-0.749 0.243,-0.193"
             style="fill:#dedede"
             inkscape:connector-curvature="0" /><path
             id="path235"
             d="m 36.779,20.63 c 1.543,-0.526 3.657,-1.247 6.213,-1.683 l 2.32,-0.312 c 1.125,-0.072 2.626,-0.153 3.753,-0.162 l 2.467,0.123 c 1.019,0.127 2.38,0.291 3.391,0.47 l 2.482,0.574 c 0.94,0.295 2.2,0.676 3.124,1.017 l 2.403,1.025 c 0.865,0.453 2.027,1.041 2.868,1.535 l 2.242,1.469 c 0.782,0.607 1.837,1.402 2.589,2.046 l 1.978,1.87 1.341,1.458 1.662,2.078 c 0.543,0.802 1.283,1.863 1.787,2.69 l 1.24,2.274 c 0.4,0.891 0.946,2.073 1.302,2.982 l 0.803,2.382 c 0.251,0.979 0.592,2.285 0.793,3.276 l 0.362,2.374 c 0.088,1.09 0.195,2.545 0.224,3.638 l -0.057,2.199 c -0.115,1.271 -0.32,2.962 -0.516,4.223 l -0.386,1.785 c -0.55,2.009 -0.882,3.222 -1.913,5.617 l -0.614,1.31 c -0.207,0.397 -0.476,0.93 -0.691,1.323 l -0.626,1.086 c -0.199,0.317 -0.458,0.744 -0.664,1.057 l -0.636,0.938 c -0.197,0.271 -0.457,0.636 -0.659,0.903 l -0.658,0.843 c -0.204,0.245 -0.471,0.574 -0.679,0.815 l -0.7,0.788 c -0.218,0.23 -0.505,0.54 -0.726,0.767 L 71.83,76.17 c -0.242,0.226 -0.562,0.53 -0.808,0.751 l -0.873,0.759 c -0.282,0.229 -0.655,0.538 -0.941,0.762 l -1.033,0.773 c -0.348,0.239 -0.808,0.565 -1.16,0.797 l -1.269,0.792 c -0.458,0.258 -1.066,0.61 -1.531,0.856 l -1.596,0.784 c -0.654,0.279 -1.525,0.657 -2.189,0.913 l -1.991,0.679 c -2.717,0.74 -2.823,0.769 -4.397,1.033 l -2.326,0.301 c -1.121,0.066 -2.618,0.14 -3.741,0.143 l -2.468,-0.135 -0.125,-0.012 0.229,0.018 C 51.444,85.461 71.141,72.385 76.574,60.298 80.318,51.969 79.451,38.85 70.552,29.891 55.026,14.26 31.353,23.961 31.118,24.063 c 1.71,-1.518 3.619,-2.665 5.661,-3.433"
             style="fill:#dedede"
             inkscape:connector-curvature="0" /></g><g
           id="g238"><path
             id="path240"
             d="m 30.192,23.976 c 1.652,-1.032 1.751,-1.094 2.8,-1.648 l 1.597,-0.785 c 0.655,-0.279 1.525,-0.657 2.189,-0.913 -1.542,0.58 -3.006,1.376 -4.369,2.384 l 0,0 c -0.777,0.286 -1.842,0.678 -3.458,1.818 l 1.093,-0.758 0.148,-0.098"
             style="fill:#dedede"
             inkscape:connector-curvature="0" /><path
             id="path242"
             d="m 36.779,20.63 c 1.543,-0.526 3.657,-1.247 6.213,-1.683 l 2.32,-0.312 c 1.125,-0.072 2.626,-0.153 3.753,-0.162 l 2.467,0.123 c 1.019,0.127 2.38,0.291 3.391,0.47 l 2.482,0.574 c 0.94,0.295 2.2,0.676 3.124,1.017 l 2.403,1.025 c 0.865,0.453 2.027,1.041 2.868,1.535 l 2.242,1.469 c 0.782,0.607 1.837,1.402 2.589,2.046 l 1.978,1.87 1.341,1.458 1.662,2.078 c 0.543,0.802 1.283,1.863 1.787,2.69 l 1.24,2.274 c 0.4,0.891 0.946,2.073 1.302,2.982 l 0.803,2.382 c 0.251,0.979 0.592,2.285 0.793,3.276 l 0.362,2.374 c 0.088,1.09 0.195,2.545 0.224,3.638 l -0.057,2.199 c -0.115,1.271 -0.32,2.962 -0.516,4.223 l -0.386,1.785 c -0.55,2.009 -0.882,3.222 -1.913,5.617 l -0.614,1.31 c -0.207,0.397 -0.476,0.93 -0.691,1.323 l -0.626,1.086 c -0.199,0.317 -0.458,0.744 -0.664,1.057 l -0.636,0.938 c -0.197,0.271 -0.457,0.636 -0.659,0.903 l -0.658,0.843 c -0.204,0.245 -0.471,0.574 -0.679,0.815 l -0.7,0.788 c -0.218,0.23 -0.505,0.54 -0.726,0.767 L 71.83,76.17 c -0.242,0.226 -0.562,0.53 -0.808,0.751 l -0.873,0.759 c -0.282,0.229 -0.655,0.538 -0.941,0.762 l -1.033,0.773 c -0.348,0.239 -0.808,0.565 -1.16,0.797 l -1.269,0.792 c -0.458,0.258 -1.066,0.61 -1.531,0.856 l -1.596,0.784 c -0.654,0.279 -1.525,0.657 -2.189,0.913 l -1.991,0.679 c -2.717,0.74 -2.823,0.769 -4.397,1.033 l -2.326,0.301 c -1.085,0.063 -2.533,0.14 -3.62,0.145 l 0.513,-0.007 C 48.832,85.483 72.507,78.096 78.873,58.715 81.205,51.613 81.561,36.763 68.102,26.153 53.182,14.391 33.252,22.657 32.411,23.015 c 1.36,-1.009 2.826,-1.805 4.368,-2.385"
             style="fill:#dedede"
             inkscape:connector-curvature="0" /></g><g
           id="g245"><path
             id="path247"
             d="m 32.992,22.328 c 1.354,-0.701 2.31,-1.129 3.786,-1.698 -0.898,0.338 -1.771,0.75 -2.613,1.234 l 0,0 c -1.014,0.394 -1.033,0.401 -2.014,0.92 0.252,-0.137 0.586,-0.325 0.841,-0.456"
             style="fill:#dddddd"
             inkscape:connector-curvature="0" /><path
             id="path249"
             d="m 36.779,20.63 c 1.543,-0.526 3.657,-1.247 6.213,-1.683 l 2.32,-0.312 c 1.125,-0.072 2.626,-0.153 3.753,-0.162 l 2.467,0.123 c 1.019,0.127 2.38,0.291 3.391,0.47 l 2.482,0.574 c 0.94,0.295 2.2,0.676 3.124,1.017 l 2.403,1.025 c 0.865,0.453 2.027,1.041 2.868,1.535 l 2.242,1.469 c 0.782,0.607 1.837,1.402 2.589,2.046 l 1.978,1.87 1.341,1.458 1.662,2.078 c 0.543,0.802 1.283,1.863 1.787,2.69 l 1.24,2.274 c 0.4,0.891 0.946,2.073 1.302,2.982 l 0.803,2.382 c 0.251,0.979 0.592,2.285 0.793,3.276 l 0.362,2.374 c 0.088,1.09 0.195,2.545 0.224,3.638 l -0.057,2.199 c -0.115,1.271 -0.32,2.962 -0.516,4.223 l -0.386,1.785 c -0.55,2.009 -0.882,3.222 -1.913,5.617 l -0.614,1.31 c -0.207,0.397 -0.476,0.93 -0.691,1.323 l -0.626,1.086 c -0.199,0.317 -0.458,0.744 -0.664,1.057 l -0.636,0.938 c -0.197,0.271 -0.457,0.636 -0.659,0.903 l -0.658,0.843 c -0.204,0.245 -0.471,0.574 -0.679,0.815 l -0.7,0.788 c -0.218,0.23 -0.505,0.54 -0.726,0.767 L 71.83,76.17 c -0.242,0.226 -0.562,0.53 -0.808,0.751 l -0.873,0.759 c -0.282,0.229 -0.655,0.538 -0.941,0.762 l -1.033,0.773 c -0.348,0.239 -0.808,0.565 -1.16,0.797 l -1.269,0.792 c -0.458,0.258 -1.066,0.61 -1.531,0.856 l -1.596,0.784 c -0.654,0.279 -1.525,0.657 -2.189,0.913 l -1.991,0.679 c -2.717,0.74 -2.823,0.769 -4.397,1.033 l -2.326,0.301 -0.111,0.01 1.002,-0.157 C 53.612,84.922 77.258,77.6 80.975,55.816 83.287,42.266 76.047,28.43 63.367,22.171 51.602,16.364 40.022,19.486 34.167,21.864 35.007,21.38 35.88,20.968 36.779,20.63"
             style="fill:#dddddd"
             inkscape:connector-curvature="0" /></g><path
           id="path252"
           d="m 59.718,38.006 c 8.083,8.066 4.331,16.559 2.988,18.97 -3.687,6.621 -16.207,19.298 -16.318,19.398 -5.167,4.663 -9.357,5.174 -10.919,5.178 -2.801,0.006 -4.639,-1.166 -5.98,-2.021 L 27.33,77.896 26.574,77.255 24.597,75.386 C 23.942,74.659 23.054,73.702 22.435,72.944 L 20.863,70.818 C 20.35,69.996 19.652,68.909 19.179,68.063 L 18.033,65.759 C 17.665,64.849 17.162,63.64 16.838,62.714 L 16.13,60.323 C 15.913,59.322 15.619,57.988 15.453,56.977 L 15.185,54.625 C 15.136,53.505 15.086,52.009 15.1,50.887 l 0.138,-2.132 c 0.35,-2.723 0.364,-2.83 0.727,-4.414 l 0.449,-1.709 c 0.176,-0.551 0.4,-1.29 0.592,-1.836 l 0.02,-0.057 c 2.575,-6.171 6.935,-8.901 15.049,-9.42 0.196,-0.011 21.78,0.837 27.643,6.687"
           style="fill:#e5e5e5"
           inkscape:connector-curvature="0" /><path
           id="path254"
           d="m 58.596,38.348 c 6.987,5.189 5.914,13.904 3.595,18.179 -0.046,0.084 -2.463,3.692 -2.51,3.748 L 45.495,75.804 c -1.457,1.33 -5.342,4.482 -9.938,5.031 -1.668,0.199 -4.271,0.163 -7.605,-2.439 -1.042,-0.862 -2.373,-2.08 -3.355,-3.009 -0.655,-0.727 -1.543,-1.684 -2.162,-2.442 L 20.863,70.819 C 20.35,69.997 19.652,68.91 19.179,68.064 L 18.033,65.76 C 17.665,64.85 17.162,63.641 16.838,62.715 L 16.13,60.324 C 15.913,59.323 15.619,57.989 15.453,56.978 L 15.185,54.626 C 15.136,53.506 15.086,52.01 15.1,50.888 l 0.138,-2.132 c 0.35,-2.723 0.364,-2.83 0.727,-4.414 l 0.449,-1.709 0.017,-0.057 0.274,-0.868 c 3.071,-7.372 9.039,-8.915 12.322,-9.178 6.712,-0.539 19.547,1.893 22.052,2.386 3.939,0.775 5.597,2.006 7.517,3.432"
           style="fill:#e6e6e6"
           inkscape:connector-curvature="0" /><path
           id="path256"
           d="m 59.103,39.267 c 5.146,4.494 5.039,13.026 2.704,16.927 -0.694,1.16 -1.626,2.724 -2.531,3.728 L 44.711,75.174 c -4.167,3.674 -7.789,4.74 -10.093,4.987 -3.742,0.402 -6.444,-1.519 -8.15,-2.999 L 24.5,75.286 C 23.876,74.588 23.026,73.672 22.436,72.945 L 20.864,70.819 C 20.351,69.997 19.653,68.91 19.18,68.064 L 18.034,65.76 C 17.666,64.85 17.163,63.641 16.839,62.715 L 16.131,60.324 C 15.914,59.323 15.62,57.989 15.454,56.978 l -0.268,-2.352 c -0.049,-1.12 -0.099,-2.616 -0.085,-3.738 l 0.138,-2.132 c 0.35,-2.723 0.364,-2.83 0.727,-4.414 l 0.49,-1.705 c 2.528,-6.037 6.549,-8.628 14.341,-9.244 2.071,-0.164 19.904,2.001 20.03,2.027 4.145,0.861 7.447,3.122 8.276,3.847"
           style="fill:#e7e7e7"
           inkscape:connector-curvature="0" /><path
           id="path258"
           d="m 58.888,39.688 c 2.862,2.648 6.127,10.744 1.117,18.331 -0.318,0.481 -0.693,1.17 -1.1,1.58 L 42.306,75.814 c -1.833,1.437 -5.942,3.829 -9.711,3.683 C 28.872,79.353 26.51,77.179 24.947,75.74 L 23.116,73.767 22.435,72.946 20.863,70.82 C 20.35,69.998 19.652,68.911 19.179,68.065 l -1.146,-2.304 c -0.368,-0.91 -0.871,-2.119 -1.195,-3.045 L 16.13,60.325 C 15.913,59.324 15.619,57.99 15.453,56.979 L 15.185,54.627 C 15.136,53.507 15.086,52.011 15.1,50.889 l 0.138,-2.132 c 0.087,-0.677 0.186,-1.581 0.296,-2.255 l 0.162,-0.881 c 0.638,-2.393 2.579,-9.676 11.968,-10.965 1.938,-0.267 3.052,-0.265 4.966,-0.159 2.755,0.153 5.413,0.972 8.159,1.191 3.254,0.259 6.527,-0.285 9.774,0.238 3.897,0.628 7.292,2.806 8.325,3.762"
           style="fill:#e7e7e7"
           inkscape:connector-curvature="0" /><path
           id="path260"
           d="m 58.668,40.11 c 1.839,1.803 7.264,8.513 -0.135,19.164 -1.781,2.564 -4.799,3.598 -6.991,5.653 -3.483,3.265 -6.068,7.402 -9.979,10.251 -0.522,0.38 -5.228,3.709 -9.716,3.538 -3.074,-0.117 -5.694,-1.56 -8.496,-4.679 -0.784,-0.936 -1.762,-2.238 -2.488,-3.219 -0.513,-0.822 -1.211,-1.909 -1.684,-2.755 L 18.033,65.759 C 17.665,64.849 17.162,63.64 16.838,62.714 L 16.13,60.323 C 15.913,59.322 15.619,57.988 15.453,56.977 L 15.185,54.625 C 15.136,53.505 15.086,52.009 15.1,50.887 l 0.138,-2.132 0.001,-0.009 0.285,-1.996 c 1.899,-9.527 10.155,-10.798 12.868,-11.215 0.721,-0.111 0.721,-0.111 10.978,0.992 3.646,0.392 7.277,-0.648 10.924,-0.097 5.31,0.804 8.076,3.388 8.374,3.68"
           style="fill:#e8e8e8"
           inkscape:connector-curvature="0" /><path
           id="path262"
           d="m 58.443,40.533 c 1.773,1.839 6.994,8.603 -0.284,18.417 -1.863,2.512 -4.925,3.456 -7.161,5.48 -3.543,3.208 -6.106,7.39 -10.102,10.148 -2.653,1.832 -6.819,3.561 -10.146,3.294 -1.35,-0.108 -4.935,-0.396 -9.052,-5.881 l -1.487,-2.17 -1.032,-1.758 -1.146,-2.304 C 17.665,64.849 17.162,63.64 16.838,62.714 L 16.13,60.323 C 15.913,59.322 15.619,57.988 15.453,56.977 L 15.185,54.625 C 15.14,53.6 15.083,52.231 15.09,51.205 l 0.083,-1.524 c 0.373,-2.67 1.508,-10.798 10.603,-12.721 2.55,-0.54 3.504,-0.741 8.059,-0.243 6.068,0.664 6.068,0.664 12.781,0.22 6.496,-0.428 10.017,1.719 11.827,3.596"
           style="fill:#e9e9e9"
           inkscape:connector-curvature="0" /><path
           id="path264"
           d="m 58.213,40.954 c 4.525,4.969 4.365,11.574 -0.429,17.67 -1.928,2.452 -4.979,3.389 -7.252,5.376 -3.6,3.147 -6.232,7.292 -10.292,9.963 -3.161,2.08 -7.426,3.327 -10.373,3.033 -5.446,-0.545 -8.509,-5.378 -9.981,-7.702 -0.596,-1.038 -1.32,-2.463 -1.853,-3.535 -0.368,-0.91 -0.871,-2.119 -1.195,-3.045 L 16.13,60.323 c -0.217,-1.001 -0.511,-2.335 -0.677,-3.346 -0.134,-1.159 -0.285,-2.708 -0.348,-3.873 0.074,-3.347 0.27,-12.237 9.944,-14.964 1.491,-0.42 3.604,-0.894 5.197,-0.758 2.918,0.248 5.788,0.936 8.732,0.945 3.609,0.011 7.106,-1.352 10.752,-0.886 1.636,0.209 5.979,0.764 8.483,3.513"
           style="fill:#eaeaea"
           inkscape:connector-curvature="0" /><path
           id="path266"
           d="m 57.978,41.376 c 1.645,1.843 6.464,8.511 -0.571,16.921 -0.629,0.752 -1.735,1.49 -2.484,2.123 -1.485,1.255 -3.37,1.893 -4.856,3.146 -3.654,3.082 -6.338,7.199 -10.465,9.775 -2.643,1.649 -7.094,3.198 -10.621,2.699 -6.684,-0.946 -10.367,-8.438 -11.968,-12.82 -0.3,-0.868 -0.3,-0.868 -1.01,-3.409 -2.668,-12.896 1.93,-17.231 7.296,-19.995 2.896,-1.491 6.333,-1.53 7.463,-1.542 2.57,-0.029 5.037,0.854 7.603,0.866 1.153,0.004 1.153,0.004 5.09,-0.811 0.075,-0.016 7.614,-1.478 12.087,1.124 0.805,0.468 1.817,1.228 2.436,1.923"
           style="fill:#eaeaea"
           inkscape:connector-curvature="0" /><path
           id="path268"
           d="m 57.74,41.798 c 1.578,1.789 6.198,8.245 -0.617,16.252 -0.499,0.585 -1.371,1.157 -1.966,1.645 -1.699,1.392 -3.853,2.046 -5.553,3.436 -3.697,3.022 -6.376,7.148 -10.512,9.695 -0.705,0.434 -4.489,2.587 -9.741,2.326 C 18.666,74.619 9.663,51.96 19.792,43.104 c 0.043,-0.038 4.448,-3.772 9.397,-3.943 2.889,-0.1 5.688,0.86 8.58,0.734 3.873,-0.168 7.518,-1.969 11.465,-1.604 1.611,0.149 5.89,0.544 8.506,3.507"
           style="fill:#ebebeb"
           inkscape:connector-curvature="0" /><path
           id="path270"
           d="m 57.448,42.177 c 0.684,0.741 6.476,7.472 -0.587,15.646 -3.022,3.498 -7.626,4.646 -11.097,7.479 -2.078,1.695 -2.944,4.479 -5.312,5.912 -1.623,0.983 -5.424,3.284 -10.712,3.031 -13.183,-0.631 -18.224,-22.342 -9.921,-29.944 2.782,-2.548 6.492,-4.184 9.923,-4.378 2.508,-0.142 4.903,0.882 7.414,0.719 4.015,-0.261 7.733,-2.303 11.846,-1.968 4.695,0.382 5.793,1.296 8.446,3.503"
           style="fill:#ececec"
           inkscape:connector-curvature="0" /><path
           id="path272"
           d="m 55.023,40.714 c 5.646,4.454 6.549,9.614 2.685,15.335 -0.32,0.474 -0.667,1.185 -1.107,1.549 -2.381,1.972 -5.452,2.79 -7.869,4.701 -1.001,0.792 -2.451,1.71 -3.369,2.596 -1.906,1.838 -3.151,4.284 -5.372,5.832 -3.078,2.144 -5.969,2.402 -6.918,2.487 -16.927,1.512 -20.449,-19.766 -13.731,-27.155 1.975,-2.171 6.026,-4.787 8.911,-5.219 3.056,-0.458 6.029,0.722 9.076,0.458 3.894,-0.338 7.484,-2.222 11.44,-2.241 3.385,-0.016 5.501,1.153 6.254,1.657"
           style="fill:#ececec"
           inkscape:connector-curvature="0" /><path
           id="path274"
           d="m 57.168,42.773 c 0.062,0.068 6.099,6.908 -0.83,14.598 -2.163,2.4 -5.538,2.671 -7.996,4.552 -0.583,0.446 -1.352,1.053 -1.932,1.504 -2.563,1.995 -3.998,5.129 -6.876,6.805 -1.742,1.013 -4.373,2.545 -9.105,2.221 C 17.208,71.547 11.553,53.96 21.66,45.18 c 4.005,-3.479 6.451,-3.645 9.04,-3.82 2.442,-0.166 4.805,0.723 7.248,0.549 0.473,-0.034 0.473,-0.034 5.89,-1.484 2.464,-0.659 9.015,-2.413 13.33,2.348"
           style="fill:#ededed"
           inkscape:connector-curvature="0" /><path
           id="path276"
           d="m 57,43.053 c 0.584,0.664 5.52,6.702 -0.924,14.092 -2.16,2.477 -5.63,2.537 -8.122,4.402 -0.586,0.438 -1.356,1.038 -1.937,1.483 -2.575,1.971 -4.039,5.064 -6.866,6.78 -2.52,1.529 -4.137,1.974 -7.21,1.981 -12.6,0.033 -20.5,-15.498 -9.675,-25.989 3.451,-3.345 6.094,-3.554 8.892,-3.775 2.688,-0.213 5.311,0.71 8.001,0.462 1.759,-0.162 3.231,-1.171 4.882,-1.651 2.4,-0.698 8.77,-2.55 12.959,2.215"
           style="fill:#eeeeee"
           inkscape:connector-curvature="0" /><path
           id="path278"
           d="m 56.831,43.331 c 1.553,1.821 4.398,7.811 -1.018,13.587 -2.245,2.394 -5.722,2.397 -8.245,4.251 -0.587,0.432 -1.359,1.022 -1.942,1.46 -2.589,1.946 -3.929,5.147 -6.825,6.785 -3.245,1.835 -6.113,1.894 -7.948,1.62 -12.596,-1.88 -16.666,-18.177 -6.5,-26.027 2.158,-1.667 4.8,-2.232 4.821,-2.233 3.148,-0.163 6.249,0.824 9.408,0.391 3.318,-0.455 5.971,-3.033 9.455,-2.963 2.481,0.049 6.232,0.125 8.794,3.129"
           style="fill:#eeeeee"
           inkscape:connector-curvature="0" /><path
           id="path280"
           d="m 56.66,43.609 c 0.051,0.062 5.071,6.279 -1.109,13.082 -2.247,2.474 -5.812,2.255 -8.368,4.098 -0.588,0.424 -1.361,1.006 -1.945,1.438 -2.601,1.923 -3.94,5.106 -6.782,6.789 -0.473,0.28 -2.995,1.667 -6.222,1.482 -12.032,-0.688 -15.676,-17.65 -7.793,-24.722 1.631,-1.463 4.174,-2.373 5.024,-2.43 2.868,-0.193 5.667,0.896 8.549,0.461 3.441,-0.519 6.148,-3.261 9.771,-3.226 3.007,0.029 6.415,0.062 8.875,3.028"
           style="fill:#e9e9e9"
           inkscape:connector-curvature="0" /><path
           id="path282"
           d="m 56.487,43.886 c 2.406,2.989 2.631,8.648 -1.2,12.577 -0.017,0.018 -2.002,1.864 -6.297,3.244 -0.648,0.208 -1.605,0.301 -2.162,0.694 -0.596,0.422 -1.37,1.012 -1.958,1.446 -2.592,1.916 -3.854,5.16 -6.758,6.765 -2.862,1.581 -4.603,1.368 -6.807,1.098 -9.289,-1.136 -14.688,-18.101 -5.237,-24.436 2.057,-1.378 2.057,-1.378 10.418,-0.859 4.282,0.266 7.39,-3.324 11.534,-3.513 1.447,-0.066 5.85,-0.267 8.467,2.984"
           style="fill:#eaeaea"
           inkscape:connector-curvature="0" /><path
           id="path284"
           d="m 56.312,44.164 c 1.874,2.397 3.088,7.575 -1.247,12.015 -0.31,0.317 -4.41,3.124 -7.652,3.665 -0.303,0.05 -0.757,-0.007 -1.01,0.168 -0.589,0.41 -1.329,1.019 -1.898,1.455 -2.542,1.949 -3.854,5.126 -6.732,6.739 -2.446,1.37 -4.577,1.099 -5.85,0.937 C 21.368,67.8 18.963,51.08 26.218,45.887 c 1.234,-0.883 1.682,-0.977 3.832,-1.43 2.407,-0.506 4.646,1.009 7.045,0.585 4,-0.706 7.26,-3.608 11.417,-3.846 1.298,-0.074 5.246,-0.3 7.8,2.968"
           style="fill:#eaeaea"
           inkscape:connector-curvature="0" /><path
           id="path286"
           d="m 56.135,44.442 c 0.992,1.285 3.827,5.917 -1.354,11.585 -0.383,0.419 -4.583,2.874 -6.787,3.25 -2.409,0.412 -2.91,0.497 -5.25,2.839 -1.833,1.834 -3.209,4.094 -5.308,5.68 -0.906,0.685 -2.497,1.001 -3.63,1.073 -9.473,0.597 -14.249,-13.665 -9.018,-20.796 1.12,-1.526 3.547,-2.901 5.526,-3.131 1.33,-0.154 3.714,0.238 4.86,0.426 1.282,0.21 3.668,0.603 7.764,-1.833 3.951,-2.349 9.778,-3.521 13.197,0.907"
           style="fill:#ebebeb"
           inkscape:connector-curvature="0" /><path
           id="path288"
           d="m 55.957,44.718 c 0.681,0.888 3.811,5.599 -1.418,11.1 -0.022,0.024 -2.718,2.446 -8.429,3.325 -0.147,0.022 -0.363,-10e-4 -0.491,0.076 -4.387,2.615 -6.006,8.901 -12.164,9.167 -7.963,0.344 -13.464,-12.289 -8.531,-19.589 0.199,-0.295 2.048,-2.892 5.661,-3.366 0.352,-0.046 1.479,-0.043 5.069,0.499 1.953,0.295 3.132,0.473 5.904,-1.119 2.485,-1.428 10.049,-5.77 14.399,-0.093"
           style="fill:#ebebeb"
           inkscape:connector-curvature="0" /><path
           id="path290"
           d="m 55.777,44.995 c 0.402,0.527 3.775,5.304 -1.48,10.615 -0.021,0.021 -2.405,2.153 -7.611,2.979 -0.437,0.069 -1.074,0.009 -1.457,0.231 -4.396,2.55 -5.926,8.926 -12.119,9.078 -7.486,0.184 -13.608,-14.075 -6.433,-20.323 0.492,-0.429 1.219,-0.987 1.854,-1.136 2.472,-0.581 2.472,-0.581 5.113,-0.251 l 5.036,0.472 c 1.327,-0.269 4.813,-2.505 4.961,-2.6 1.063,-0.684 2.518,-1.621 6.35,-1.96 0.033,-0.004 3.57,-0.01 5.786,2.895"
           style="fill:#ebebeb"
           inkscape:connector-curvature="0" /><path
           id="path292"
           d="m 55.594,45.271 c 0.039,0.051 3.797,5.137 -1.542,10.13 -0.02,0.019 -2.019,1.846 -6.796,2.625 -3.225,0.525 -3.286,0.536 -5.521,2.961 -1.74,1.889 -2.942,4.265 -5.168,5.715 -0.02,0.013 -3.396,0.926 -4.537,0.606 -10.297,-2.883 -9.543,-17.939 -3.31,-20.411 3.529,-1.399 6.958,1.009 10.469,0.277 0.175,-0.037 3.721,-2.143 4.803,-2.853 0.697,-0.458 2.548,-1.672 6.152,-1.89 1.55,-0.093 4.01,0.944 5.45,2.84"
           style="fill:#ebebeb"
           inkscape:connector-curvature="0" /><path
           id="path294"
           d="m 55.411,45.547 c 0.015,0.02 1.49,2.333 0.873,6.05 -0.214,1.292 -1.514,2.704 -2.474,3.595 -1.403,1.304 -7.127,2.86 -8.891,2.779 -1.202,-0.055 -3.507,2.591 -3.53,2.618 -0.869,1.043 -1.324,2.359 -2.229,3.378 -0.742,0.835 -1.961,1.724 -2.875,2.366 -0.015,0.011 -3.268,0.676 -3.859,0.559 -8.968,-1.781 -9.492,-14.361 -5.437,-18.288 1.433,-1.388 2.693,-1.523 4.437,-1.711 2.801,-0.301 5.427,1.27 8.247,0.767 1.043,-0.186 2.039,-1.398 2.924,-1.979 0.518,-0.339 1.232,-0.756 1.753,-1.09 0.713,-0.458 7.074,-4.313 11.061,0.956"
           style="fill:#ebebeb"
           inkscape:connector-curvature="0" /><path
           id="path296"
           d="m 53.891,44.625 c 3.701,3.353 3.581,12.118 -8.454,12.849 -0.47,0.029 -1.13,-0.239 -1.569,-0.068 -0.366,0.143 -1.733,0.906 -3.969,4.725 -1.909,3.26 -5.203,5.03 -7.833,4.208 -6.733,-2.104 -8.333,-10.08 -6.476,-14.646 0.987,-2.427 2.689,-3.665 3.53,-3.875 3.553,-0.887 7.019,0.654 10.549,0.376 0.728,-0.057 1.516,-0.798 2.084,-1.256 4.072,-3.286 4.144,-3.295 7.895,-3.779 0.094,-0.013 2.32,-0.277 4.243,1.466"
           style="fill:#ececec"
           inkscape:connector-curvature="0" /><path
           id="path298"
           d="m 54.969,46.199 c 0.013,0.023 1.116,3.418 0.813,4.998 -0.246,1.279 -1.504,2.691 -2.458,3.578 -1.52,1.413 -7.159,2.203 -7.373,2.194 -0.74,-0.029 -1.779,-0.373 -2.467,-0.098 -0.146,0.059 -1.502,0.692 -3.925,4.847 -2.038,3.494 -4.678,4.861 -7.848,4.063 -4.703,-1.184 -7.915,-8.429 -5.925,-13.366 1.387,-3.441 3.058,-4.042 3.537,-4.144 2.783,-0.593 2.892,-0.616 6.322,0.352 1.896,0.536 4.986,0.021 5.006,0.013 0.98,-0.418 1.815,-1.703 2.648,-2.368 0.599,-0.478 1.497,-0.978 2.115,-1.43 1.084,-0.792 1.533,-1.121 3.98,-1.318 3.504,-0.283 5.066,1.779 5.575,2.679"
           style="fill:#ececec"
           inkscape:connector-curvature="0" /><path
           id="path300"
           d="m 54.738,46.533 c 0.013,0.022 0.912,3.884 0.792,4.462 -0.263,1.272 -1.447,2.745 -2.45,3.57 -0.026,0.022 -3.565,2.155 -9.088,1.821 -0.344,-0.021 -0.833,-0.209 -1.147,-0.069 -0.011,0.004 -1.162,0.662 -3.594,5.006 -2.726,4.869 -5.708,4.306 -7.886,3.895 -3.135,-0.592 -7.155,-7.325 -5.37,-12.081 0.368,-0.979 1.486,-3.96 3.528,-4.429 3.21,-0.738 6.232,0.928 9.4,0.734 0.677,-0.041 1.669,0.067 2.242,-0.296 1.62,-1.026 2.687,-2.666 4.215,-3.793 0.946,-0.698 2.471,-1.346 3.643,-1.447 3.367,-0.291 4.966,1.268 5.715,2.627"
           style="fill:#ececec"
           inkscape:connector-curvature="0" /><path
           id="path302"
           d="m 54.504,46.867 c 2.301,4.269 -1.203,7.101 -1.609,7.41 -0.036,0.027 -4.516,2.477 -10.063,1.448 -0.229,-0.043 -0.54,-0.336 -0.745,-0.226 -0.353,0.189 -0.27,0.895 -0.385,1.278 l -3.68,5.763 c -0.692,0.848 -1.982,1.613 -2.863,2.263 -0.999,0.736 -2.905,0.024 -4.134,-0.152 -2.443,-0.35 -6.38,-6.642 -4.6,-11.392 0.377,-1.006 1.378,-3.676 3.302,-4.115 2.348,-0.534 2.397,-0.519 4.991,0.271 4.656,1.418 5.907,1.799 8.331,-1.333 5.083,-6.572 10.185,-3.573 11.455,-1.215"
           style="fill:#ececec"
           inkscape:connector-curvature="0" /><path
           id="path304"
           d="m 54.269,47.2 c 0.471,0.884 0.854,2.31 0.613,3.283 -0.312,1.256 -1.19,3.013 -2.327,3.633 -4.444,2.424 -9.312,0.888 -11.391,0.231 -0.054,-0.017 -0.129,-0.085 -0.179,-0.059 -0.607,0.317 -0.456,1.532 -0.651,2.188 -1.148,3.858 -2.585,5.685 -2.598,5.695 -2.795,2.42 -2.795,2.42 -6.379,2.075 -1.974,-0.19 -6.582,-5.15 -4.349,-11.304 1,-2.757 2.493,-3.269 2.927,-3.36 2.185,-0.46 2.602,-0.337 4.916,0.349 1.287,0.381 2.263,1.493 3.682,1.562 1.193,0.058 2.854,-0.464 3.796,-1.199 0.505,-0.394 0.826,-1.246 1.158,-1.792 1.862,-3.067 3.888,-3.664 3.908,-3.669 0.824,-0.214 5.027,-1.104 6.874,2.367"
           style="fill:#ececec"
           inkscape:connector-curvature="0" /><path
           id="path306"
           d="m 39.17,57.946 c -0.214,0.839 -0.611,2.4 -1.714,3.856 -0.653,0.862 -1.798,2.011 -2.865,2.188 -4.196,0.695 -5.925,-2.327 -6.958,-4.133 -1.751,-3.062 -0.249,-7.069 0.416,-8.232 0.393,-0.689 1.344,-1.366 2.1,-1.605 0.897,-0.284 2.207,-0.197 3.136,-0.052 4.481,0.703 6.714,3.904 6.79,4.179 0.309,1.13 -0.616,2.664 -0.905,3.799"
           style="fill:#ececec"
           inkscape:connector-curvature="0" /><path
           id="path308"
           d="m 39.294,54.856 c 0.016,0.079 -1.195,4.868 -1.27,5.024 -0.489,1.02 -1.591,2.146 -2.494,2.826 -1.215,0.916 -2.363,1.782 -5.895,-0.567 -1.124,-0.747 -2.585,-3.95 -2.46,-5.949 10e-4,-0.024 1,-3.945 1.068,-4.066 0.394,-0.708 1.372,-1.364 2.123,-1.666 0.294,-0.118 3.469,-0.069 4.474,0.426 0.834,0.411 2.003,0.91 2.697,1.529 0.673,0.6 1.58,1.558 1.757,2.443"
           style="fill:#ededed"
           inkscape:connector-curvature="0" /><path
           id="path310"
           d="m 38.51,55.546 c 0.003,0.023 -0.808,4.145 -1.611,5.513 -0.54,0.92 -1.988,1.5 -2.863,2.11 -0.598,0.417 -4.25,-1.499 -4.279,-1.523 -0.508,-0.432 -2.355,-2.667 -2.114,-5.702 0.08,-1.002 0.317,-2.382 0.83,-3.247 0.423,-0.713 1.344,-1.51 2.136,-1.757 0.021,-0.007 3.678,0.238 3.801,0.31 0.798,0.465 1.986,0.942 2.624,1.61 0.635,0.665 1.356,1.775 1.476,2.686"
           style="fill:#ededed"
           inkscape:connector-curvature="0" /><path
           id="path312"
           d="m 37.675,56.057 c 0.155,0.399 -1.071,4.489 -1.088,4.519 -0.544,0.92 -1.789,1.996 -2.848,2.144 -1.112,0.156 -2.591,-0.668 -3.497,-1.331 -0.74,-0.541 -1.318,-1.695 -1.748,-2.503 -0.33,-0.619 -0.653,-4.214 0.221,-5.603 0.452,-0.717 1.361,-1.553 2.168,-1.809 0.855,-0.271 2.129,-0.048 2.983,0.228 0.886,0.287 1.89,1.077 2.662,1.598 0.744,0.5 0.823,1.922 1.147,2.757"
           style="fill:#ededed"
           inkscape:connector-curvature="0" /><path
           id="path314"
           d="m 54.031,47.531 c 0.379,0.722 0.722,1.889 0.496,2.672 -0.357,1.239 -1.253,2.885 -2.311,3.622 -1.088,0.758 -2.958,1.012 -4.281,1.103 -0.345,0.024 -0.769,-0.253 -1.111,-0.304 -0.779,-0.116 -1.905,0.093 -2.615,-0.25 -0.821,-0.395 -2.056,-1.233 -2.155,-2.139 l 2.61,-4.821 c 0.718,-0.907 2.119,-1.675 3.064,-2.342 0.519,-0.365 4.058,0.276 4.084,0.289 0.844,0.396 1.786,1.346 2.219,2.17"
           style="fill:#ececec"
           inkscape:connector-curvature="0" /><path
           id="path316"
           d="m 36.134,54.006 c 0.304,0.813 0.941,1.867 0.95,2.735 0.01,1.038 -0.555,2.362 -0.892,3.344 -0.341,0.99 -1.806,1.894 -2.845,2.022 -0.833,0.102 -1.956,-0.471 -2.616,-0.989 -0.721,-0.565 -1.366,-1.66 -1.796,-2.469 -0.188,-0.354 -0.676,-3.658 0.033,-4.782 0.46,-0.731 1.378,-1.592 2.199,-1.86 0.602,-0.197 1.515,-0.06 2.102,0.176 0.024,0.011 2.611,1.144 2.865,1.823"
           style="fill:#ededed"
           inkscape:connector-curvature="0" /><path
           id="path318"
           d="m 53.791,47.862 c 0.292,0.558 0.582,1.467 0.38,2.063 -0.41,1.216 -1.222,2.907 -2.296,3.609 -0.907,0.593 -2.411,0.89 -3.494,0.913 -1.073,0.023 -2.622,-0.14 -3.494,-0.765 -0.832,-0.596 -1.498,-2.26 -1.134,-3.217 0.322,-0.851 0.668,-2.064 1.252,-2.762 0.746,-0.892 1.939,-2.06 3.055,-2.387 1.019,-0.3 2.551,-0.063 3.521,0.368 0.852,0.377 1.779,1.353 2.21,2.178"
           style="fill:#ededed"
           inkscape:connector-curvature="0" /><path
           id="path320"
           d="m 36.435,57.259 c 0.018,0.712 -0.17,1.741 -0.623,2.292 -0.656,0.8 -1.823,1.83 -2.852,1.941 -1.457,0.159 -2.982,-1.95 -3.586,-3.086 -0.012,-0.022 -0.577,-3.27 -0.151,-3.954 0.465,-0.748 1.393,-1.635 2.229,-1.911 0.347,-0.114 0.876,-0.029 1.213,0.111 0.881,0.368 2.085,0.897 2.779,1.554 0.701,0.662 0.967,2.09 0.991,3.053"
           style="fill:#ededed"
           inkscape:connector-curvature="0" /><path
           id="path322"
           d="m 53.549,48.192 c 0.205,0.394 0.432,1.043 0.268,1.455 -0.473,1.187 -1.185,2.938 -2.28,3.596 -0.721,0.434 -1.871,0.748 -2.712,0.718 -1.032,-0.037 -2.617,-0.17 -3.314,-0.932 -0.755,-0.825 -1.209,-2.617 -0.775,-3.648 0.177,-0.42 0.284,-1.075 0.614,-1.389 0.863,-0.821 2.089,-2.01 3.248,-2.286 0.808,-0.192 2.011,-0.075 2.753,0.298 0.831,0.417 1.768,1.362 2.198,2.188"
           style="fill:#ededed"
           inkscape:connector-curvature="0" /><path
           id="path324"
           d="m 35.786,57.762 c 0.004,0.39 -0.066,0.98 -0.346,1.252 -0.733,0.712 -1.839,1.757 -2.856,1.859 -1.081,0.107 -2.751,-2.692 -2.766,-2.721 -0.422,-0.794 -0.563,-2.137 -0.268,-2.986 0.06,-0.172 2.011,-2.029 2.197,-2.092 0.091,-0.031 0.233,-0.013 0.318,0.031 0.854,0.44 2.179,0.832 2.793,1.572 0.618,0.744 0.917,2.119 0.928,3.085"
           style="fill:#ededed"
           inkscape:connector-curvature="0" /><path
           id="path326"
           d="m 53.304,48.521 c 0.119,0.23 0.266,0.615 0.155,0.849 -0.546,1.148 -1.197,2.891 -2.263,3.583 -1.104,0.716 -3.125,0.17 -4.38,-0.224 -0.237,-0.074 -0.634,-0.059 -0.787,-0.255 -0.775,-0.995 -0.896,-3.062 -0.333,-4.191 0.545,-1.095 2.224,-2.216 3.447,-2.177 0.595,0.019 1.458,-0.082 1.974,0.218 0.804,0.467 1.761,1.37 2.187,2.197"
           style="fill:#ededed"
           inkscape:connector-curvature="0" /><path
           id="path328"
           d="m 53.058,48.849 c 0.246,0.478 -2.176,3.782 -2.202,3.813 -0.227,0.279 -0.797,0.324 -1.156,0.314 -0.999,-0.027 -2.549,-0.27 -3.158,-1.063 -0.575,-0.748 -0.667,-2.284 -0.259,-3.134 0.531,-1.106 2.177,-2.283 3.404,-2.271 0.36,0.004 0.897,-0.071 1.193,0.135 0.763,0.53 1.753,1.378 2.178,2.206"
           style="fill:#ededed"
           inkscape:connector-curvature="0" /><path
           id="path330"
           d="m 35.135,58.25 c 0,0.5 -2.893,2.006 -2.922,2.001 -0.906,-0.156 -1.516,-1.552 -1.952,-2.361 -0.222,-0.413 -0.308,-1.112 -0.154,-1.556 0.313,-0.9 1.233,-2.164 2.174,-2.316 0.676,-0.109 1.555,0.589 1.989,1.119 0.615,0.749 0.866,2.143 0.865,3.113"
           style="fill:#ededed"
           inkscape:connector-curvature="0" /><path
           id="path332"
           d="m 51.659,47.989 c 0.011,0.027 0.498,3.188 -1.143,4.383 -0.097,0.07 -0.271,0.14 -0.386,0.106 -0.944,-0.28 -2.488,-0.346 -3.082,-1.132 -0.375,-0.497 -0.444,-1.506 -0.177,-2.069 0.528,-1.113 2.169,-2.043 3.359,-2.363 0.519,-0.14 1.233,0.576 1.429,1.075"
           style="fill:#ededed"
           inkscape:connector-curvature="0" /><path
           id="path334"
           d="m 34.019,56.875 c -0.478,0.866 -2.226,1.243 -3.165,0.929 -0.099,-0.033 -0.195,-0.21 -0.161,-0.308 0.326,-0.917 1.312,-2.167 2.274,-2.313 0.243,-0.037 0.563,0.206 0.713,0.4 0.247,0.317 0.533,0.942 0.339,1.292"
           style="fill:#ededed"
           inkscape:connector-curvature="0" /><path
           id="path336"
           d="m 49.525,51.528 c -0.534,0.342 -1.592,-0.249 -1.974,-0.754 -0.181,-0.239 -0.214,-0.724 -0.088,-0.996 0.343,-0.74 1.561,-1.091 2.218,-1.575 -0.04,0.997 0.684,2.785 -0.156,3.325"
           style="fill:#ededed"
           inkscape:connector-curvature="0" /></g><path
         id="path339"
         d="m 72.908,43.348 c 1.245,3.055 1.87,4.588 2.852,8.788 2.472,1.342 2.948,1.693 4.249,3.126 -0.43,2.982 -0.626,4.344 -1.635,8.073 0.268,0.327 0.584,0.801 0.761,1.185 -0.434,1.828 -0.551,2.319 -1.425,4.106 -0.311,0.521 -0.729,1.214 -1.056,1.726 -0.846,1.247 -0.846,1.247 -1.295,1.841 -0.277,0.355 -0.647,0.83 -0.933,1.179 -0.178,0.107 -0.443,0.201 -0.644,0.254 -0.624,0.059 -1.212,0.115 -2.68,0.019 -0.818,-1.311 -1.626,-2.629 -2.439,-3.943 -0.798,-0.69 -1.682,-1.456 -2.647,-2.294 -2.532,-0.129 -3.133,-0.16 -5.298,-0.358 -1.614,1.699 -3.286,3.311 -4.987,4.804 -2.794,2.676 -3.667,3.46 -6.568,5.685 -3.047,-0.495 -3.867,-0.628 -7.167,-1.533 -0.162,-0.137 -0.324,-0.276 -0.485,-0.417 -2.421,-2.112 -4.64,-4.53 -6.62,-7.151 0.732,-3.112 1.561,-6.638 2.273,-11.058 -0.296,-0.553 -0.575,-1.075 2.306,-5.47 1.197,0.838 2.809,1.934 4.031,2.735 1.864,-1.793 3.095,-2.978 5.362,-5.566 -0.284,-1.307 -0.689,-3.044 -1.024,-4.339 2.367,-2.627 3.072,-3.459 5.167,-6.311 3.113,0.964 3.438,1.064 5.527,1.784 5.549,-0.358 5.881,-0.38 7.465,-0.453 0.895,-2.631 0.968,-2.846 1.261,-4.086 2.851,3.297 4.751,5.879 5.649,7.674"
         style="fill:#008837"
         clip-path="url(#XMLID_22_)"
         inkscape:connector-curvature="0" /><path
         id="path341"
         d="m 29.392,42.587 c -0.366,0.37 -0.854,0.863 -1.229,1.223 l -0.495,-0.527 c -0.242,-0.854 -0.566,-1.992 -0.789,-2.851 -0.232,-0.778 -0.547,-1.815 -0.744,-2.603 l -0.176,-1.511 0.308,0.116 c 0.215,0.564 0.484,1.324 0.729,1.876 0.34,0.652 0.788,1.525 1.165,2.157 l 0.785,0.662 0.446,1.458"
         style="fill:#008837"
         clip-path="url(#XMLID_22_)"
         inkscape:connector-curvature="0" /><path
         id="path343"
         d="m 26.459,43.056 c -0.231,0.158 -0.461,0.309 -0.691,0.454 l -0.506,-1.762 0.143,-1.682 0.531,0.039 0.486,1.287 0.037,1.664"
         style="fill:#008837"
         clip-path="url(#XMLID_22_)"
         inkscape:connector-curvature="0" /><path
         id="path345"
         d="m 30.794,24.719 c -0.75,0.792 -1.727,1.871 -2.417,2.716 0.316,-0.218 0.745,-0.499 1.073,-0.699 0.49,-0.573 1.144,-1.338 1.648,-1.898 1.361,-1.189 2.903,-2.538 5.072,-3.706 0.479,-0.145 1.115,-0.345 1.6,-0.471 -0.565,0.301 -1.332,0.68 -1.884,1.005 -0.625,0.482 -1.45,1.136 -2.055,1.643 0.334,-0.042 0.782,-0.089 1.119,-0.103 2.909,-1.587 2.909,-1.587 4.513,-2.224 -0.621,0.154 -1.453,0.349 -2.065,0.532 2.185,-1.424 3.363,-2.081 4.999,-2.46 l 0.596,-0.107 c 2.787,-0.375 3.367,-0.453 6.073,-0.475 l 0.593,0.013 c 1.078,0.074 2.514,0.21 3.584,0.363 0.83,0.119 1.939,0.27 2.759,0.442 1.371,0.365 3.187,0.904 4.528,1.366 l 0.331,0.128 c 0.088,0.07 0.221,0.155 0.278,0.252 0.236,0.156 0.458,0.328 0.664,0.518 3.964,1.834 5.064,2.45 8.771,5.389 0.495,0.582 1.165,1.35 1.622,1.962 -2.362,-1.686 -2.504,-1.787 -4.26,-2.673 -2.696,-1.282 -2.978,-1.416 -5.225,-2.129 -1.146,-0.063 -2.678,-0.098 -3.826,-0.087 -0.373,1.344 -0.42,1.517 -0.749,2.303 -1.187,1.41 -1.284,1.525 -2.117,2.423 -0.491,0.804 -1.165,1.864 -1.687,2.649 l 1.34,0.136 c 0.6,-0.388 1.401,-0.903 1.998,-1.295 0.801,0.022 1.87,0.042 2.67,0.08 -0.049,-0.73 -0.116,-1.705 -0.213,-2.43 0.722,0.348 1.695,0.789 2.405,1.162 0.637,0.803 1.485,1.876 2.074,2.715 0.171,0.897 0.397,2.095 0.518,3 0.043,1.082 0.083,2.525 0.066,3.608 -1.366,-0.455 -3.197,-1.031 -4.578,-1.436 -0.927,0.127 -2.163,0.296 -3.09,0.421 -1.112,0.16 -2.596,0.37 -3.709,0.52 l -0.398,-2.087 c -0.596,-0.559 -1.377,-1.319 -1.993,-1.855 -0.527,1.14 -1.123,2.286 -1.775,3.428 l -2.253,-0.344 c -1.023,-0.471 -2.044,-0.916 -3.057,-1.331 -0.47,0.533 -1.096,1.245 -1.578,1.767 0.838,0.743 1.947,1.744 2.753,2.521 -0.7,0.133 -1.631,0.322 -2.334,0.438 -1.027,-0.229 -2.396,-0.536 -3.418,-0.785 -0.507,0.455 -1.182,1.064 -1.699,1.508 2.711,1.28 2.874,1.356 4.935,2.245 1.006,0.363 2.347,0.846 3.358,1.196 L 44.18,44.91 c -0.192,1.137 -0.468,2.65 -0.7,3.779 -0.295,-0.821 -0.681,-1.919 -0.995,-2.733 -0.944,-0.427 -2.202,-0.997 -3.137,-1.445 -0.767,-0.575 -1.79,-1.342 -2.551,-1.925 -0.375,0.931 -0.896,2.165 -1.304,3.082 0.825,2.733 0.931,3.084 1.622,5.82 -1.368,1.934 -1.692,2.393 -3.263,4.352 -0.694,-0.442 -1.628,-1.018 -2.302,-1.491 -1.087,-1.993 -2.052,-4 -2.875,-5.986 1.175,-1.492 1.326,-1.684 2.188,-2.917 -0.214,-0.769 -0.497,-1.795 -0.719,-2.562 0.041,0.078 0.096,0.182 0.137,0.26 0.622,-0.26 1.184,-1.98 1.342,-2.502 C 31.369,40.06 31.04,39.28 30.771,38.704 l 0.208,-0.698 c 0.467,0.623 1.091,1.453 1.552,2.081 0.155,-0.401 0.368,-0.934 0.513,-1.339 l -0.035,-1.276 c -0.586,-0.518 -1.367,-1.209 -1.963,-1.716 -1.774,-0.44 -1.88,-0.467 -2.74,-0.867 0.569,0.415 1.329,0.966 1.917,1.352 l 1.052,1.199 c -0.496,-0.16 -1.162,-0.358 -1.646,-0.551 l 0.495,1.307 C 28.527,36.605 28.36,36.438 27.75,35.666 27.463,35.121 27.084,34.392 26.784,33.854 L 26.295,33.01 c 0.019,-0.392 0.02,-0.424 -0.026,-0.623 0.305,0.112 0.71,0.271 1.026,0.347 0.455,0.217 1.061,0.507 1.517,0.722 -0.071,0.22 -0.167,0.513 -0.247,0.729 1.373,0.224 1.62,0.264 3.139,0.236 -0.045,-1.089 -0.05,-1.204 -0.199,-1.853 -0.757,-0.075 -1.767,-0.174 -2.524,-0.254 -0.856,-0.524 -1.097,-0.622 -2.194,-0.687 -0.351,-0.037 -0.424,-0.044 -0.822,0.071 0.307,-0.156 0.717,-0.362 1.017,-0.53 0.629,-0.431 0.779,-0.533 1.499,-1.134 -0.652,0.351 -1.516,0.833 -2.133,1.242 -0.107,0.059 -0.254,0.131 -0.354,0.201 0.332,-0.354 0.571,-0.622 0.873,-1.109 0.295,-0.492 0.379,-0.653 0.521,-1.098 -0.244,0.188 -0.546,0.42 -0.869,0.754 1.037,-1.6 2.213,-3.412 4.275,-5.305"
         style="fill:#008837"
         clip-path="url(#XMLID_22_)"
         inkscape:connector-curvature="0" /></g></g><polygon
     id="polygon349"
     points="42.983,20.952 50.984,12.725 54.089,12.64 60.691,21.754 "
     style="fill:#008632;fill-opacity:1"
     transform="matrix(2.272325,2.6695311,-2.6695311,2.272325,175.24934,600.79091)" /><path
     id="path351"
     d="m 264.56453,774.32528 -7.27981,-8.09801 -29.65713,-1.96838 c -25.52177,-23.62263 -61.17377,-35.81403 -98.21129,-30.08686 -64.399818,9.95405 -108.540099,70.2323 -98.588722,134.63441 9.954049,64.39984 70.232302,108.54004 134.632112,98.58603 64.40209,-9.95139 108.54009,-70.23226 98.58872,-134.63437 -1.42844,-9.23924 -3.92344,-18.04937 -7.2894,-26.35757 l 7.80552,-32.07525 z"
     style="fill:none;stroke:#000000;stroke-width:2.50000008;stroke-miterlimit:4;stroke-dasharray:none"
     inkscape:connector-curvature="0" /><path
     style="fill:none;stroke:#000000;stroke-width:2.50000008;stroke-linecap:butt;stroke-linejoin:miter;stroke-opacity:1;stroke-miterlimit:4;stroke-dasharray:none"
     d="M 262.24557,768.0999 48.805008,681.55235"
     id="path3241"
     inkscape:connector-curvature="0"
     transform="translate(-1.6590909e-5,0)" /><path
     style="fill:none;stroke:#000000;stroke-width:2.50000007999999996;stroke-linecap:butt;stroke-linejoin:miter;stroke-opacity:1;stroke-miterlimit:4;stroke-dasharray:none;marker-start:url(#Arrow2Mstart);marker-end:url(#Arrow2Mend)"
     d="m 201.07663,716.04122 68.97775,26.02934"
     id="path4030"
     inkscape:connector-curvature="0"
     transform="translate(-1.6590909e-5,0)" /><text
     xml:space="preserve"
     style="font-size:32px;font-style:normal;font-weight:normal;line-height:125%;letter-spacing:0px;word-spacing:0px;fill:#000000;fill-opacity:1;stroke:none;font-family:Sans"
     x="402.91196"
     y="638.35986"
     id="text4662"
     sodipodi:linespacing="125%"
     transform="matrix(0.96793017,0.25121939,-0.25121939,0.96793017,0,0)"><tspan
       sodipodi:role="line"
       id="tspan4664"
       x="402.91196"
       y="638.35986">d</tspan></text>
<text
     xml:space="preserve"
     style="font-size:24px;font-style:normal;font-weight:normal;line-height:125%;letter-spacing:0px;word-spacing:0px;fill:#000000;fill-opacity:1;stroke:none;font-family:Sans"
     x="276.65387"
     y="596.70264"
     id="text4666"
     sodipodi:linespacing="125%"
     transform="matrix(0.95011253,0.31190733,-0.31190733,0.95011253,0,0)"><tspan
       sodipodi:role="line"
       id="tspan4668"
       x="276.65387"
       y="596.70264">line of</tspan><tspan
       sodipodi:role="line"
       x="276.65387"
       y="626.70264"
       id="tspan4670">sight</tspan></text>
<path
     style="fill:none;stroke:#000000;stroke-width:1px;stroke-linecap:butt;stroke-linejoin:miter;stroke-opacity:1"
     d="m 191.31563,737.51543 18.22054,-49.45574"
     id="path4672"
     inkscape:connector-curvature="0"
     transform="translate(-1.6590909e-5,0)"
     sodipodi:nodetypes="cc" /><path
     style="fill:none;stroke:#000000;stroke-width:1px;stroke-linecap:butt;stroke-linejoin:miter;stroke-opacity:1;overflow:visible"
     d="m 263.87239,766.47309 18.22054,-50.75721"
     id="path4672-5"
     inkscape:connector-curvature="0"
     sodipodi:nodetypes="cc" /></svg>