<?xml version="1.0" encoding="UTF-8" standalone="no"?>
<svg
   xmlns:dc="http://purl.org/dc/elements/1.1/"
   xmlns:cc="http://creativecommons.org/ns#"
   xmlns:rdf="http://www.w3.org/1999/02/22-rdf-syntax-ns#"
   xmlns:svg="http://www.w3.org/2000/svg"
   xmlns="http://www.w3.org/2000/svg"
   xmlns:sodipodi="http://sodipodi.sourceforge.net/DTD/sodipodi-0.dtd"
   xmlns:inkscape="http://www.inkscape.org/namespaces/inkscape"
   version="1.0"
   width="633.000000pt"
   height="576.000000pt"
   viewBox="0 0 633.000000 576.000000"
   preserveAspectRatio="xMidYMid meet"
   id="svg2"
   inkscape:version="0.48.4 r9939"
   sodipodi:docname="anchor.svg">
  <defs
     id="defs94" />
  <sodipodi:namedview
     pagecolor="#ffffff"
     bordercolor="#666666"
     borderopacity="1"
     objecttolerance="10"
     gridtolerance="10"
     guidetolerance="10"
     inkscape:pageopacity="0"
     inkscape:pageshadow="2"
     inkscape:window-width="1062"
     inkscape:window-height="808"
     id="namedview92"
     showgrid="false"
     inkscape:zoom="1.2369997"
     inkscape:cx="7.4241515"
     inkscape:cy="950.66259"
     inkscape:window-x="0"
     inkscape:window-y="0"
     inkscape:window-maximized="0"
     inkscape:current-layer="svg2" />
  <metadata
     id="metadata4">
Created by potrace 1.10, written by Peter Selinger 2001-2011
<rdf:RDF>
  <cc:Work
     rdf:about="">
    <dc:format>image/svg+xml</dc:format>
    <dc:type
       rdf:resource="http://purl.org/dc/dcmitype/StillImage" />
    <dc:title />
  </cc:Work>
</rdf:RDF>
</metadata>
  <g
     id="g3186"
     transform="translate(-1.7490037,3.2336304)">
    <rect
       y="-153.17972"
       x="13.000514"
       height="125.95584"
       width="147.40158"
       id="rect3909"
       style="fill:#dedede;fill-opacity:1;stroke:none" />
    <g
       style="fill:#000000;stroke:none"
       id="g6"
       transform="matrix(0.02323205,-2.9123437e-4,-2.9123437e-4,-0.02323205,13.906299,-18.515088)">
      <path
         inkscape:connector-curvature="0"
         id="path8"
         d="m 572,5445 c -13,-28 -16,-103 -6,-129 9,-23 50,-19 68,6 19,27 21,119 4,136 -21,21 -54,14 -66,-13 z" />
      <path
         inkscape:connector-curvature="0"
         id="path10"
         d="m 739,5341 c -24,-19 -24,-21 -21,-168 2,-81 7,-173 12,-203 4,-30 14,-100 20,-155 7,-55 27,-181 46,-280 18,-99 43,-245 54,-325 12,-79 25,-151 29,-160 5,-8 11,-41 15,-72 3,-32 10,-68 15,-80 5,-13 19,-66 31,-118 20,-87 88,-267 112,-297 6,-7 23,-39 39,-70 28,-59 77,-140 140,-234 58,-87 338,-346 448,-414 8,-5 43,-29 76,-51 107,-74 170,-98 434,-164 69,-17 140,-38 159,-46 19,-8 42,-14 52,-14 9,0 32,-8 51,-17 35,-18 37,-18 429,-26 l 115,-2 -5,-55 c -3,-30 -4,-157 -2,-282 2,-224 2,-227 -19,-233 -12,-4 -106,-6 -208,-4 -102,1 -240,0 -306,-3 -230,-11 -1207,9 -1380,27 -208,22 -288,25 -353,13 -65,-12 -73,-27 -78,-146 -4,-82 -4,-83 23,-93 14,-5 29,-6 33,-2 11,13 30,74 30,98 0,13 7,26 16,29 28,11 190,6 306,-8 62,-8 167,-17 233,-20 113,-6 1133,-20 1165,-17 8,1 131,3 273,5 214,3 259,1 264,-10 3,-8 0,-42 -5,-77 -24,-139 -25,-154 -3,-176 15,-15 31,-19 65,-17 25,1 49,5 53,9 3,4 7,69 7,145 l 1,137 231,1 c 126,0 235,4 242,8 6,3 93,6 194,5 236,-1 872,-9 1008,-12 107,-2 249,7 346,23 51,8 123,7 222,-6 l 42,-5 0,-58 c 0,-41 5,-62 16,-72 22,-18 48,0 51,37 2,16 8,59 14,95 20,114 21,113 -134,128 -100,10 -146,11 -184,3 -68,-15 -227,-27 -333,-25 -47,0 -260,3 -475,7 -570,8 -731,8 -815,-2 -63,-7 -242,-9 -392,-3 -35,1 -37,2 -33,34 3,26 15,402 15,494 0,21 3,22 58,18 159,-13 252,-19 297,-18 255,7 386,12 393,17 5,3 43,11 83,17 41,6 112,17 159,24 91,14 335,77 385,99 17,7 56,23 88,36 32,12 68,31 82,42 13,10 49,27 79,38 84,29 316,217 316,256 0,8 4,14 8,14 5,0 16,17 25,39 10,21 35,66 57,100 93,144 128,228 164,391 19,85 39,187 45,225 7,39 17,99 23,135 6,36 16,88 24,115 25,97 44,232 59,435 8,113 22,230 30,260 59,210 102,418 107,517 3,61 -34,85 -78,51 -6,-4 -14,-38 -18,-76 -3,-37 -17,-110 -29,-162 -13,-52 -24,-106 -25,-120 -1,-14 -9,-50 -18,-80 -41,-143 -43,-159 -70,-500 -3,-41 -17,-124 -31,-185 -13,-60 -33,-159 -43,-220 -28,-165 -30,-173 -50,-265 -11,-47 -26,-119 -35,-161 -16,-78 -95,-230 -195,-379 -10,-14 -20,-35 -24,-46 -8,-25 -138,-158 -198,-201 -24,-18 -71,-44 -104,-59 -32,-15 -75,-37 -94,-49 -50,-30 -252,-102 -340,-120 -41,-9 -85,-20 -97,-25 -12,-5 -68,-16 -125,-25 -57,-9 -135,-23 -173,-31 -39,-8 -122,-15 -185,-15 -63,0 -132,-5 -154,-11 -49,-12 -129,-1 -155,21 -15,13 -45,20 -113,24 -112,7 -128,12 -128,43 0,22 2,23 21,14 15,-9 30,-7 65,6 32,12 60,15 100,11 97,-10 120,12 92,89 -10,29 -9,36 14,66 15,19 33,51 42,72 9,21 29,55 46,76 32,41 37,59 18,78 -21,21 -46,13 -72,-21 -15,-19 -26,-37 -26,-40 0,-4 -14,-30 -32,-58 l -31,-51 -16,26 c -19,31 -63,35 -83,7 -7,-10 -22,-20 -32,-22 -22,-5 -29,-17 -47,-78 -13,-44 -43,-90 -52,-81 -5,5 7,297 17,430 3,36 8,121 11,190 3,69 10,161 15,205 26,213 42,692 41,1223 0,167 4,314 9,327 16,41 15,177 -1,210 -13,28 -19,30 -72,33 -31,2 -57,-1 -58,-5 -1,-4 -3,-208 -4,-453 -4,-455 -9,-618 -26,-820 -5,-63 -11,-140 -14,-170 -2,-30 -7,-89 -11,-130 -4,-41 -8,-203 -10,-360 -2,-157 -5,-307 -8,-335 -3,-27 -7,-141 -9,-253 -3,-112 -8,-206 -11,-209 -4,-4 -104,-6 -224,-6 -221,1 -272,8 -387,53 -16,6 -86,25 -155,41 -152,37 -262,69 -275,80 -5,5 -15,9 -22,9 -30,0 -226,130 -321,214 -57,50 -125,109 -150,131 -112,96 -214,230 -286,375 -21,41 -44,86 -52,100 -8,14 -22,41 -30,60 -8,19 -24,53 -34,76 -11,23 -20,48 -20,57 0,9 -7,34 -15,54 -14,35 -21,63 -61,243 -23,105 -44,229 -54,315 -5,44 -16,116 -24,160 -38,201 -85,594 -89,745 -2,94 -13,108 -58,71 z" />
      <path
         inkscape:connector-curvature="0"
         id="path12"
         d="m 5688,5288 c -15,-13 -50,-103 -63,-162 -22,-101 70,-133 95,-33 5,23 17,62 25,87 21,62 19,86 -7,104 -27,19 -30,19 -50,4 z" />
      <path
         inkscape:connector-curvature="0"
         id="path14"
         d="m 2729,5100 c -43,-48 -63,-50 -78,-10 -11,33 -40,40 -60,16 -27,-33 -7,-130 30,-141 20,-7 58,14 106,59 18,16 35,27 39,24 7,-8 23,-76 24,-101 0,-10 -11,-22 -25,-27 -13,-5 -38,-29 -55,-52 -17,-24 -37,-43 -43,-43 -7,0 -14,18 -17,40 -7,53 -32,58 -60,13 -34,-55 -8,-148 42,-148 10,0 43,26 73,58 45,47 56,54 65,42 9,-13 15,-65 11,-96 -1,-6 9,-22 22,-36 21,-23 22,-28 11,-49 -7,-13 -14,-33 -14,-44 0,-11 -4,-27 -10,-35 -7,-11 -11,-9 -19,12 -14,37 -97,98 -133,98 -21,0 -33,-8 -48,-32 -11,-19 -17,-41 -14,-53 12,-40 55,-95 95,-122 75,-49 139,-27 180,62 21,44 25,131 8,137 -9,3 -8,14 1,40 11,30 11,49 -2,115 -14,69 -14,81 0,107 12,25 13,40 2,99 -20,114 -67,138 -131,67 z" />
      <path
         inkscape:connector-curvature="0"
         id="path16"
         d="m 636,5075 c -14,-15 -27,-52 -46,-131 -13,-55 20,-83 53,-46 14,16 57,129 57,151 0,12 -28,41 -40,41 -5,0 -16,-7 -24,-15 z" />
      <path
         inkscape:connector-curvature="0"
         id="path18"
         d="m 5624,4819 c -32,-62 -17,-149 25,-149 35,0 52,24 58,83 5,47 3,61 -12,77 -26,29 -52,25 -71,-11 z" />
      <path
         inkscape:connector-curvature="0"
         id="path20"
         d="m 652,4648 c -6,-8 -16,-34 -21,-58 -23,-100 -5,-148 44,-116 29,19 47,79 43,139 -3,37 -6,42 -29,45 -14,2 -31,-3 -37,-10 z" />
      <path
         inkscape:connector-curvature="0"
         id="path22"
         d="m 5591,4487 c -6,-8 -16,-48 -23,-90 -14,-90 -3,-131 34,-125 32,4 56,53 64,129 5,54 3,68 -11,82 -20,20 -48,22 -64,4 z" />
      <path
         inkscape:connector-curvature="0"
         id="path24"
         d="m 2586,4458 c -22,-31 -20,-64 6,-101 15,-21 21,-42 19,-65 -3,-34 -2,-34 31,-28 19,3 62,8 97,11 35,3 70,10 78,17 23,19 35,47 28,68 -5,17 -15,20 -64,20 -63,0 -114,28 -139,75 -16,31 -36,32 -56,3 z" />
      <path
         inkscape:connector-curvature="0"
         id="path26"
         d="m 2577,4215 c -16,-33 -20,-35 -65,-35 -41,0 -51,-4 -61,-24 -25,-45 -12,-61 52,-64 55,-3 57,-4 57,-30 0,-16 5,-33 12,-40 7,-7 12,-43 12,-84 1,-85 25,-137 70,-153 27,-9 32,-6 81,49 48,54 53,58 62,40 6,-10 13,-55 16,-99 4,-44 6,-81 7,-82 0,-2 8,-3 18,-3 30,0 45,43 46,133 0,97 -22,150 -64,154 -33,4 -52,-13 -79,-65 -12,-23 -28,-42 -36,-42 -22,0 -52,38 -59,75 -4,18 -13,39 -21,45 -11,9 -12,16 -4,26 6,7 14,25 18,41 7,27 10,28 81,33 84,6 102,20 82,64 -11,25 -16,26 -86,26 l -75,0 -9,32 c -11,45 -34,46 -55,3 z" />
      <path
         inkscape:connector-curvature="0"
         id="path28"
         d="m 640,4215 c -18,-22 -28,-129 -16,-167 15,-46 45,-44 69,4 22,45 26,156 5,169 -20,13 -44,11 -58,-6 z" />
      <path
         inkscape:connector-curvature="0"
         id="path30"
         d="m 4063,4089 c -29,-10 -73,-77 -73,-110 0,-51 58,-72 88,-32 19,27 29,9 56,-107 11,-46 22,-55 53,-45 39,14 119,165 103,195 -16,29 -38,25 -74,-15 l -32,-35 -15,52 c -20,77 -61,114 -106,97 z" />
      <path
         inkscape:connector-curvature="0"
         id="path32"
         d="m 5553,4088 c -19,-24 -35,-141 -24,-171 23,-59 77,-21 90,63 12,76 -2,120 -39,120 -10,0 -22,-6 -27,-12 z" />
      <path
         inkscape:connector-curvature="0"
         id="path34"
         d="m 3852,3998 c -23,-23 -12,-48 48,-111 33,-35 72,-81 88,-103 46,-62 150,-154 175,-154 23,0 47,17 47,33 0,5 -30,40 -67,76 -70,70 -144,153 -201,228 -34,44 -66,55 -90,31 z" />
      <path
         inkscape:connector-curvature="0"
         id="path36"
         d="m 662,3813 c -22,-43 -45,-192 -33,-212 13,-20 55,-6 69,23 17,38 34,145 26,169 -12,39 -47,50 -62,20 z" />
      <path
         inkscape:connector-curvature="0"
         id="path38"
         d="m 3808,3763 c -20,-22 -12,-43 29,-77 23,-20 31,-34 31,-60 0,-42 23,-87 62,-120 18,-14 26,-27 18,-27 -56,-6 -79,-3 -125,12 -55,19 -58,18 -82,-29 -10,-19 -8,-30 19,-77 37,-64 61,-84 95,-77 27,5 65,45 65,68 0,7 14,21 31,29 24,13 30,22 27,44 -2,22 6,36 35,63 20,20 37,43 37,51 0,10 6,14 13,11 8,-3 20,2 27,11 21,25 -1,59 -48,73 -62,19 -149,72 -161,99 -13,28 -51,31 -73,6 z m 139,-175 c -3,-8 -6,-5 -6,6 -1,11 2,17 5,13 3,-3 4,-12 1,-19 z m -126,-178 c 10,-6 19,-20 19,-30 0,-35 -28,-20 -43,23 -7,20 -3,21 24,7 z" />
      <path
         inkscape:connector-curvature="0"
         id="path40"
         d="m 5510,3598 c -26,-42 -26,-108 -1,-139 18,-22 19,-22 45,-6 29,19 28,18 26,97 -1,38 -6,59 -17,68 -25,18 -31,15 -53,-20 z" />
      <path
         inkscape:connector-curvature="0"
         id="path42"
         d="m 642,3333 c -25,-67 -18,-193 11,-193 18,0 33,12 46,37 15,29 14,156 -1,171 -20,20 -45,13 -56,-15 z" />
      <path
         inkscape:connector-curvature="0"
         id="path44"
         d="m 3638,3323 c -25,-27 -32,-58 -29,-131 2,-38 44,-72 89,-72 62,0 122,61 122,123 0,36 -42,72 -85,75 -21,2 -44,9 -52,17 -18,19 -15,20 -45,-12 z m 96,-105 c -25,-27 -37,-22 -60,22 -21,38 -21,39 -3,45 10,4 19,11 19,17 0,6 14,-6 30,-27 29,-36 29,-39 14,-57 z" />
      <path
         inkscape:connector-curvature="0"
         id="path46"
         d="m 3434,3196 c -10,-41 -1,-60 32,-67 33,-6 82,-39 151,-101 45,-41 77,-48 87,-21 8,20 -26,58 -74,83 -19,10 -44,31 -55,46 -26,36 -93,84 -116,84 -11,0 -21,-10 -25,-24 z" />
      <path
         inkscape:connector-curvature="0"
         id="path48"
         d="m 5482,3132 c -17,-12 -32,-67 -33,-130 -1,-43 3,-58 20,-75 l 22,-22 19,25 c 23,30 44,122 36,155 -6,24 -31,55 -44,55 -4,0 -13,-4 -20,-8 z" />
      <path
         inkscape:connector-curvature="0"
         id="path50"
         d="m 612,2838 c -15,-15 -16,-120 -1,-135 27,-27 69,14 69,67 0,59 -38,98 -68,68 z" />
      <path
         inkscape:connector-curvature="0"
         id="path52"
         d="m 5456,2613 c -4,-5 -14,-23 -22,-42 -32,-77 -3,-136 49,-97 22,17 34,110 17,132 -14,15 -32,18 -44,7 z" />
      <path
         inkscape:connector-curvature="0"
         id="path54"
         d="m 614,2545 c -22,-22 -25,-32 -22,-88 3,-62 3,-62 36,-65 18,-2 32,1 32,7 0,6 3,10 8,10 26,-4 32,4 32,44 0,31 -3,38 -10,27 -7,-11 -10,-4 -10,27 0,32 -5,45 -20,53 -17,9 -25,6 -46,-15 z" />
      <path
         inkscape:connector-curvature="0"
         id="path56"
         d="m 640,2168 c 0,-7 -5,-20 -10,-28 -8,-13 -11,-13 -19,-1 -7,11 -10,9 -16,-8 -4,-13 -1,-27 9,-37 9,-8 16,-26 16,-38 0,-37 25,-52 55,-32 22,14 25,24 25,74 0,32 -5,63 -12,70 -16,16 -48,15 -48,0 z" />
      <path
         inkscape:connector-curvature="0"
         id="path58"
         d="m 5456,2173 c -33,-33 -47,-141 -21,-163 25,-20 62,-4 74,32 24,75 -14,169 -53,131 z" />
      <path
         inkscape:connector-curvature="0"
         id="path60"
         d="m 1015,1578 c -32,-38 -29,-81 11,-115 47,-42 108,-25 118,33 6,29 2,43 -18,75 -34,51 -72,53 -111,7 z" />
      <path
         inkscape:connector-curvature="0"
         id="path62"
         d="m 540,1573 c -58,-11 -79,-73 -41,-122 l 19,-24 -49,-63 c -50,-63 -58,-90 -40,-137 10,-26 43,-41 58,-26 5,5 25,4 47,-2 45,-12 103,-4 129,18 26,24 19,97 -12,123 -33,27 -33,40 -2,75 36,41 37,54 14,102 -15,32 -65,66 -90,62 -4,-1 -19,-4 -33,-6 z m 20,-103 c -8,-5 -17,-7 -19,-4 -3,3 1,9 9,14 8,5 17,7 19,4 3,-3 -1,-9 -9,-14 z m 40,-165 c 0,-13 -49,-27 -63,-18 -5,3 2,16 14,29 17,18 25,21 36,13 7,-6 13,-17 13,-24 z" />
      <path
         inkscape:connector-curvature="0"
         id="path64"
         d="m 5704,1571 c -41,-13 -74,-48 -74,-79 0,-37 34,-79 72,-88 37,-8 88,41 88,85 0,32 -18,81 -31,81 -4,0 -13,2 -21,4 -7,2 -22,1 -34,-3 z" />
      <path
         inkscape:connector-curvature="0"
         id="path66"
         d="m 352,1513 c 0,-32 -5,-71 -11,-86 -16,-41 -14,-142 3,-156 25,-21 44,-1 57,62 29,145 19,228 -28,235 -19,3 -21,-1 -21,-55 z" />
      <path
         inkscape:connector-curvature="0"
         id="path68"
         d="m 5229,1543 c -51,-8 -72,-60 -53,-136 5,-22 1,-34 -19,-55 -55,-59 -73,-134 -39,-164 12,-12 41,-16 109,-17 81,-1 95,1 113,19 25,25 21,41 -22,118 -17,29 -29,54 -27,56 2,1 21,12 41,25 20,12 38,30 40,39 14,67 -61,127 -143,115 z m 54,-80 c 4,-3 -2,-13 -14,-21 -24,-17 -37,-9 -19,13 14,16 23,19 33,8 z m -23,-183 c 12,-22 -2,-29 -45,-21 l -30,6 23,23 c 24,24 36,22 52,-8 z" />
      <path
         inkscape:connector-curvature="0"
         id="path70"
         d="m 5020,1521 c -5,-11 -10,-41 -10,-68 0,-46 -16,-171 -25,-203 -7,-24 21,-53 43,-45 25,7 38,42 53,147 6,46 16,89 22,96 7,9 4,24 -8,52 -20,45 -56,55 -75,21 z" />
      <path
         inkscape:connector-curvature="0"
         id="path72"
         d="m 739,1480 c -78,-74 -77,-205 2,-246 37,-19 108,-21 140,-4 81,44 115,128 89,221 -13,46 -63,69 -141,66 -45,-2 -58,-7 -90,-37 z m 176,-61 c 15,-45 -61,-109 -130,-109 -33,0 -34,37 -1,88 21,34 27,37 74,38 42,2 52,-1 57,-17 z" />
      <path
         inkscape:connector-curvature="0"
         id="path74"
         d="m 5447,1459 c -96,-72 -104,-236 -13,-274 59,-25 113,5 151,84 22,46 24,56 15,99 -17,76 -19,80 -52,97 -41,20 -67,19 -101,-6 z m 94,-76 c 0,-5 2,-18 5,-30 5,-29 -42,-82 -76,-85 -21,-3 -26,2 -28,26 -3,21 5,37 29,62 30,31 68,45 70,27 z" />
      <path
         inkscape:connector-curvature="0"
         id="path76"
         d="m 130,1445 c -10,-12 -9,-20 4,-40 14,-22 24,-25 75,-25 77,0 91,6 91,40 0,34 -14,40 -95,40 -43,0 -66,-5 -75,-15 z" />
      <path
         inkscape:connector-curvature="0"
         id="path78"
         d="m 2882,1297 c -12,-14 -28,-364 -18,-401 5,-19 13,-26 30,-26 22,0 25,5 31,53 9,80 11,329 2,354 -9,26 -32,36 -45,20 z" />
      <path
         inkscape:connector-curvature="0"
         id="path80"
         d="m 3688,1241 c -81,-51 -113,-118 -106,-219 6,-77 23,-111 74,-143 45,-27 129,-29 173,-3 35,21 81,106 81,150 0,15 6,43 12,62 11,30 11,35 -9,50 -11,9 -24,27 -27,39 -4,12 -25,38 -46,57 -50,45 -89,47 -152,7 z m 143,-72 c 6,-11 8,-26 6,-34 -7,-17 -88,-28 -121,-16 -22,9 -25,13 -15,29 6,10 27,27 48,39 40,23 62,18 82,-18 z m -137,-125 c 32,-11 64,-15 97,-11 27,3 49,4 49,1 0,-17 -36,-63 -60,-78 -66,-38 -140,-2 -140,69 0,19 1,35 3,35 2,0 25,-7 51,-16 z" />
      <path
         inkscape:connector-curvature="0"
         id="path82"
         d="m 2142,1221 c -47,-8 -121,-71 -143,-122 -20,-49 -4,-113 38,-150 31,-27 42,-30 75,-26 21,3 54,17 73,31 28,21 36,24 47,13 26,-26 52,-36 70,-26 26,14 22,35 -12,61 -34,25 -39,63 -16,119 18,42 9,60 -44,88 -22,11 -42,20 -43,20 -1,-1 -21,-5 -45,-8 z m 48,-138 c 0,-50 -79,-101 -119,-76 -39,24 -17,87 41,123 29,18 32,18 54,2 16,-12 23,-27 24,-49 z" />
      <path
         inkscape:connector-curvature="0"
         id="path84"
         d="m 3043,1168 c -46,-33 -93,-115 -93,-163 0,-77 83,-137 158,-116 18,5 32,7 32,4 0,-3 9,2 20,12 11,10 20,26 20,35 0,32 -25,42 -87,35 l -58,-7 45,24 c 25,12 55,38 67,57 63,94 -15,182 -104,119 z" />
      <path
         inkscape:connector-curvature="0"
         id="path86"
         d="m 2361,1163 c -5,-10 -9,-20 -9,-23 1,-3 -3,-45 -7,-93 -8,-96 0,-117 41,-117 18,0 25,7 29,28 3,15 10,41 14,57 l 9,30 1,-36 c 1,-52 56,-102 76,-69 3,5 1,49 -6,97 -12,98 -29,128 -66,118 -16,-4 -25,0 -29,10 -8,20 -41,19 -53,-2 z" />
      <path
         inkscape:connector-curvature="0"
         id="path88"
         d="m 2664,1135 c -107,-46 -127,-166 -28,-173 28,-2 45,2 54,13 20,24 27,18 33,-25 7,-53 -6,-107 -34,-136 -21,-22 -23,-22 -57,-8 -31,12 -38,13 -50,0 -21,-21 10,-61 63,-81 39,-16 45,-16 75,0 48,25 72,88 71,188 -2,145 -17,196 -65,219 -27,13 -37,14 -62,3 z" />
      <path
         inkscape:connector-curvature="0"
         id="path90"
         d="m 3260,945 c 0,-24 -7,-63 -16,-85 -18,-46 -13,-70 15,-70 44,0 94,80 83,135 -6,31 -38,65 -62,65 -17,0 -20,-7 -20,-45 z" />
    </g>
    <path
       transform="matrix(0.09908054,0,0,0.09908054,43.391822,-84.079328)"
       d="m -43.548137,299.81934 c 0,3.90015 -3.161702,7.06186 -7.06186,7.06186 -3.900157,0 -7.06186,-3.16171 -7.06186,-7.06186 0,-3.90016 3.161703,-7.06186 7.06186,-7.06186 3.900158,0 7.06186,3.1617 7.06186,7.06186 z"
       sodipodi:ry="7.0618601"
       sodipodi:rx="7.0618601"
       sodipodi:cy="299.81934"
       sodipodi:cx="-50.609997"
       id="path3071"
       style="fill:#dedede;fill-opacity:1;stroke:none"
       sodipodi:type="arc" />
    <path
       transform="matrix(0.09908054,0,0,0.09908054,151.46217,-84.516858)"
       d="m -43.548137,299.81934 c 0,3.90015 -3.161702,7.06186 -7.06186,7.06186 -3.900157,0 -7.06186,-3.16171 -7.06186,-7.06186 0,-3.90016 3.161703,-7.06186 7.06186,-7.06186 3.900158,0 7.06186,3.1617 7.06186,7.06186 z"
       sodipodi:ry="7.0618601"
       sodipodi:rx="7.0618601"
       sodipodi:cy="299.81934"
       sodipodi:cx="-50.609997"
       id="path3071-8"
       style="fill:#dedede;fill-opacity:1;stroke:none"
       sodipodi:type="arc" />
    <path
       transform="matrix(0.07411542,0,0,0.07411542,108.70868,-125.42796)"
       d="m -43.548137,299.81934 c 0,3.90015 -3.161702,7.06186 -7.06186,7.06186 -3.900157,0 -7.06186,-3.16171 -7.06186,-7.06186 0,-3.90016 3.161703,-7.06186 7.06186,-7.06186 3.900158,0 7.06186,3.1617 7.06186,7.06186 z"
       sodipodi:ry="7.0618601"
       sodipodi:rx="7.0618601"
       sodipodi:cy="299.81934"
       sodipodi:cx="-50.609997"
       id="path3071-0"
       style="fill:#dedede;fill-opacity:1;stroke:none"
       sodipodi:type="arc" />
    <path
       transform="matrix(0.07411542,0,0,0.07411542,78.672236,-147.9142)"
       d="m -43.548137,299.81934 c 0,3.90015 -3.161702,7.06186 -7.06186,7.06186 -3.900157,0 -7.06186,-3.16171 -7.06186,-7.06186 0,-3.90016 3.161703,-7.06186 7.06186,-7.06186 3.900158,0 7.06186,3.1617 7.06186,7.06186 z"
       sodipodi:ry="7.0618601"
       sodipodi:rx="7.0618601"
       sodipodi:cy="299.81934"
       sodipodi:cx="-50.609997"
       id="path3071-0-4"
       style="fill:#dedede;fill-opacity:1;stroke:none"
       sodipodi:type="arc" />
    <path
       transform="matrix(0.07411542,0,0,0.07411542,88.942018,-67.266208)"
       d="m -43.548137,299.81934 c 0,3.90015 -3.161702,7.06186 -7.06186,7.06186 -3.900157,0 -7.06186,-3.16171 -7.06186,-7.06186 0,-3.90016 3.161703,-7.06186 7.06186,-7.06186 3.900158,0 7.06186,3.1617 7.06186,7.06186 z"
       sodipodi:ry="7.0618601"
       sodipodi:rx="7.0618601"
       sodipodi:cy="299.81934"
       sodipodi:cx="-50.609997"
       id="path3071-0-5"
       style="fill:#dedede;fill-opacity:1;stroke:none"
       sodipodi:type="arc" />
  </g>
  <g
     id="g3275">
    <rect
       y="-357.22574"
       x="10.994344"
       height="198.54491"
       width="147.40158"
       id="rect3273"
       style="fill:#dedede;fill-opacity:1;stroke:none" />
    <g
       transform="translate(-8.6514033,44.808878)"
       id="g3237">
      <g
         id="g3868"
         transform="matrix(0.75103216,0,0,0.75103216,-358.70337,-866.90869)">
        <path
           inkscape:connector-curvature="0"
           id="path3050"
           d="m 621.13415,770.93122 c 1.86535,4.75646 2.88606,6.08327 -2.60854,10.22345 -5.4946,4.14018 -11.42123,8.20767 -16.86568,7.82481 -5.44446,-0.38288 -8.28902,-0.63932 -9.92143,-2.29118 -1.63243,-1.65186 -3.37952,-3.67841 -3.31042,-6.46565 0.0691,-2.78724 0.90343,-11.44328 3.62305,-23.64723 2.71962,-12.20396 3.52684,-17.26602 7.65625,-18.83703 4.1294,-1.571 4.76822,-4.83993 11.82565,0.47908 7.05743,5.31901 8.42214,7.76992 8.43341,9.81543 0.0113,2.04551 -0.35576,1.85049 -0.35576,1.85049"
           style="color:#000000;fill:none;stroke:#000000;stroke-width:0.625;stroke-linecap:butt;stroke-linejoin:miter;stroke-miterlimit:4;stroke-opacity:1;stroke-dasharray:none;stroke-dashoffset:0;marker:none;visibility:visible;display:inline;overflow:visible;enable-background:accumulate" />
        <path
           inkscape:connector-curvature="0"
           id="path3052"
           d="m 614.67209,776.59683 c -10.2014,6.50256 -15.81426,7.91284 -18.06607,6.24563 -2.2518,-1.66722 -2.77547,-3.04368 -2.0486,-7.36403 0.72687,-4.32034 1.3928,-11.18323 2.43704,-15.8056 1.04423,-4.62235 3.56881,-16.45928 4.88795,-17.17029 1.31914,-0.71103 3.81203,-1.26899 6.67554,0.72326 2.86352,1.99226 4.12891,3.44909 4.27788,4.94022 0.14896,1.49114 0.19862,1.98818 0.19862,1.98818 l 0.56205,-0.17199"
           style="color:#000000;fill:none;stroke:#000000;stroke-width:0.625;stroke-linecap:butt;stroke-linejoin:miter;stroke-miterlimit:4;stroke-opacity:1;stroke-dasharray:none;stroke-dashoffset:0;marker:none;visibility:visible;display:inline;overflow:visible;enable-background:accumulate" />
        <path
           inkscape:connector-curvature="0"
           id="path3054"
           d="m 622.01357,770.4572 c 0,0 -8.0177,0.91684 -8.62174,0.2821 -0.60403,-0.63475 -0.96239,-11.17966 -0.63735,-11.79136 0.32505,-0.61171 7.44798,-0.43514 7.44798,-0.43514 0,0 0.92499,2.68793 1.36063,5.11582 0.43562,2.42788 0.45048,6.82858 0.45048,6.82858 z"
           style="color:#000000;fill:none;stroke:#000000;stroke-width:0.625;stroke-linecap:butt;stroke-linejoin:miter;stroke-miterlimit:4;stroke-opacity:1;stroke-dasharray:none;stroke-dashoffset:0;marker:none;visibility:visible;display:inline;overflow:visible;enable-background:accumulate" />
        <path
           inkscape:connector-curvature="0"
           id="path3056"
           d="m 619.64809,758.37511 -0.9624,-11.17965 -4.34338,0.20221 -0.26101,10.52956"
           style="color:#000000;fill:none;stroke:#000000;stroke-width:0.625;stroke-linecap:butt;stroke-linejoin:miter;stroke-miterlimit:4;stroke-opacity:1;stroke-dasharray:none;stroke-dashoffset:0;marker:none;visibility:visible;display:inline;overflow:visible;enable-background:accumulate" />
        <path
           inkscape:connector-curvature="0"
           id="path3058"
           d="m 619.95271,771.08786 0.54621,5.46748 -2.31322,0.81033 -2.82154,-1.18552 -0.25954,-4.53072"
           style="color:#000000;fill:none;stroke:#000000;stroke-width:0.625;stroke-linecap:butt;stroke-linejoin:miter;stroke-miterlimit:4;stroke-opacity:1;stroke-dasharray:none;stroke-dashoffset:0;marker:none;visibility:visible;display:inline;overflow:visible;enable-background:accumulate" />
        <path
           transform="matrix(-0.18750837,-0.09963735,0.09963735,-0.18750837,647.95027,994.4533)"
           sodipodi:open="true"
           sodipodi:end="10.575948"
           sodipodi:start="4.2932211"
           d="m 611.51525,843.93063 c 2.42921,-1.08239 5.27593,0.009 6.35832,2.43862 1.08239,2.42921 -0.009,5.27593 -2.43862,6.35832 -2.42921,1.0824 -5.27593,-0.009 -6.35832,-2.43862 -1.08205,-2.42842 0.009,-5.27426 2.4366,-6.35742"
           sodipodi:ry="4.8153462"
           sodipodi:rx="4.8153462"
           sodipodi:cy="848.3291"
           sodipodi:cx="613.4751"
           id="path3060"
           style="color:#000000;fill:none;stroke:#000000;stroke-width:2.94343472;stroke-linecap:butt;stroke-linejoin:miter;stroke-miterlimit:4;stroke-opacity:1;stroke-dasharray:none;stroke-dashoffset:0;marker:none;visibility:visible;display:inline;overflow:visible;enable-background:accumulate"
           sodipodi:type="arc" />
        <path
           sodipodi:open="true"
           sodipodi:end="10.575948"
           sodipodi:start="4.2932211"
           d="m 611.51525,843.93063 c 2.42921,-1.08239 5.27593,0.009 6.35832,2.43862 1.08239,2.42921 -0.009,5.27593 -2.43862,6.35832 -2.42921,1.0824 -5.27593,-0.009 -6.35832,-2.43862 -1.08205,-2.42842 0.009,-5.27426 2.4366,-6.35742"
           sodipodi:ry="4.8153462"
           sodipodi:rx="4.8153462"
           sodipodi:cy="848.3291"
           sodipodi:cx="613.4751"
           id="path3060-4"
           style="color:#000000;fill:none;stroke:#000000;stroke-width:2.94343472;stroke-linecap:butt;stroke-linejoin:miter;stroke-miterlimit:4;stroke-opacity:1;stroke-dasharray:none;stroke-dashoffset:0;marker:none;visibility:visible;display:inline;overflow:visible;enable-background:accumulate"
           sodipodi:type="arc"
           transform="matrix(-0.18750837,-0.09963735,0.09963735,-0.18750837,646.82155,969.86917)" />
        <path
           inkscape:connector-curvature="0"
           id="path3080"
           d="m 621.43756,768.67357 -3.56613,-5.86479"
           style="color:#000000;fill:none;stroke:#000000;stroke-width:0.625;stroke-linecap:butt;stroke-linejoin:miter;stroke-miterlimit:4;stroke-opacity:1;stroke-dasharray:none;stroke-dashoffset:0;marker:none;visibility:visible;display:inline;overflow:visible;enable-background:accumulate" />
        <path
           inkscape:connector-curvature="0"
           id="path3082"
           d="m 619.32044,768.67337 -3.70322,-5.60681"
           style="color:#000000;fill:none;stroke:#000000;stroke-width:0.625;stroke-linecap:butt;stroke-linejoin:miter;stroke-miterlimit:4;stroke-opacity:1;stroke-dasharray:none;stroke-dashoffset:0;marker:none;visibility:visible;display:inline;overflow:visible;enable-background:accumulate" />
        <path
           inkscape:connector-curvature="0"
           id="path3084"
           d="m 616.49867,768.62955 c -1.85246,-2.24147 -3.2695,-5.17785 -3.2695,-5.17785"
           style="color:#000000;fill:none;stroke:#000000;stroke-width:0.625;stroke-linecap:butt;stroke-linejoin:miter;stroke-miterlimit:4;stroke-opacity:1;stroke-dasharray:none;stroke-dashoffset:0;marker:none;visibility:visible;display:inline;overflow:visible;enable-background:accumulate" />
        <path
           inkscape:connector-curvature="0"
           id="path3086"
           d="m 621.70719,765.17784 c -1.28817,-1.80928 -1.81859,-2.55428 -1.81859,-2.55428"
           style="color:#000000;fill:none;stroke:#000000;stroke-width:0.625;stroke-linecap:butt;stroke-linejoin:miter;stroke-miterlimit:4;stroke-opacity:1;stroke-dasharray:none;stroke-dashoffset:0;marker:none;visibility:visible;display:inline;overflow:visible;enable-background:accumulate" />
        <path
           inkscape:connector-curvature="0"
           id="path3088"
           d="m 612.92565,767.26024 c 1.05154,-2.35244 2.14496,-4.28565 2.14496,-4.28565"
           style="color:#000000;fill:none;stroke:#000000;stroke-width:0.625;stroke-linecap:butt;stroke-linejoin:miter;stroke-miterlimit:4;stroke-opacity:1;stroke-dasharray:none;stroke-dashoffset:0;marker:none;visibility:visible;display:inline;overflow:visible;enable-background:accumulate" />
        <path
           inkscape:connector-curvature="0"
           id="path3090"
           d="m 614.3509,768.81155 c 2.38523,-4.4888 3.41086,-5.79638 3.41086,-5.79638"
           style="color:#000000;fill:none;stroke:#000000;stroke-width:0.625;stroke-linecap:butt;stroke-linejoin:miter;stroke-miterlimit:4;stroke-opacity:1;stroke-dasharray:none;stroke-dashoffset:0;marker:none;visibility:visible;display:inline;overflow:visible;enable-background:accumulate" />
        <path
           inkscape:connector-curvature="0"
           id="path3092"
           d="m 617.83216,768.61033 c 1.86432,-3.50848 2.99811,-6.01571 2.99811,-6.01571"
           style="color:#000000;fill:none;stroke:#000000;stroke-width:0.625;stroke-linecap:butt;stroke-linejoin:miter;stroke-miterlimit:4;stroke-opacity:1;stroke-dasharray:none;stroke-dashoffset:0;marker:none;visibility:visible;display:inline;overflow:visible;enable-background:accumulate" />
        <path
           inkscape:connector-curvature="0"
           id="path3094"
           d="m 619.81545,768.73791 c 1.42566,-2.68296 1.77732,-4.21635 1.77732,-4.21635"
           style="color:#000000;fill:none;stroke:#000000;stroke-width:0.625;stroke-linecap:butt;stroke-linejoin:miter;stroke-miterlimit:4;stroke-opacity:1;stroke-dasharray:none;stroke-dashoffset:0;marker:none;visibility:visible;display:inline;overflow:visible;enable-background:accumulate" />
        <path
           inkscape:connector-curvature="0"
           id="path3096"
           d="m 616.23746,768.62307 c 1.69011,-2.80708 2.73042,-5.76096 2.73042,-5.76096"
           style="color:#000000;fill:none;stroke:#000000;stroke-width:0.625;stroke-linecap:butt;stroke-linejoin:miter;stroke-miterlimit:4;stroke-opacity:1;stroke-dasharray:none;stroke-dashoffset:0;marker:none;visibility:visible;display:inline;overflow:visible;enable-background:accumulate" />
        <path
           inkscape:connector-curvature="0"
           id="path3098"
           d="m 613.34316,768.34223 c 1.74171,-2.77968 2.89968,-5.20789 2.89968,-5.20789"
           style="color:#000000;fill:none;stroke:#000000;stroke-width:0.625;stroke-linecap:butt;stroke-linejoin:miter;stroke-miterlimit:4;stroke-opacity:1;stroke-dasharray:none;stroke-dashoffset:0;marker:none;visibility:visible;display:inline;overflow:visible;enable-background:accumulate" />
      </g>
      <path
         style="color:#000000;fill:none;stroke:#545454;stroke-width:3.75516081;stroke-linecap:butt;stroke-linejoin:miter;stroke-miterlimit:4;stroke-opacity:1;stroke-dasharray:none;stroke-dashoffset:0;marker:none;visibility:visible;display:inline;overflow:visible;enable-background:accumulate"
         d="m 21.780498,-381.47523 c 0,0 69.2361,73.43314 72.04937,74.23694 2.81325,0.80378 5.22462,-0.8038 5.22462,-0.8038"
         id="path3887"
         inkscape:connector-curvature="0"
         sodipodi:nodetypes="csc" />
      <path
         style="color:#000000;fill:none;stroke:#545454;stroke-width:3.75516081;stroke-linecap:butt;stroke-linejoin:miter;stroke-miterlimit:4;stroke-opacity:1;stroke-dasharray:none;stroke-dashoffset:0;marker:none;visibility:visible;display:inline;overflow:visible;enable-background:accumulate"
         d="m 103.47533,-310.85535 61.95158,-65.21245"
         id="path3891"
         inkscape:connector-curvature="0"
         sodipodi:nodetypes="cc" />
      <path
         style="color:#000000;fill:none;stroke:#545454;stroke-width:3.75516081;stroke-linecap:butt;stroke-linejoin:miter;stroke-miterlimit:4;stroke-opacity:1;stroke-dasharray:none;stroke-dashoffset:0;marker:none;visibility:visible;display:inline;overflow:visible;enable-background:accumulate"
         d="m 29.640288,-386.29797 71.021792,73.83504"
         id="path3893"
         inkscape:connector-curvature="0"
         sodipodi:nodetypes="cc" />
      <path
         style="color:#000000;fill:none;stroke:#545454;stroke-width:3.75516081;stroke-linecap:butt;stroke-linejoin:miter;stroke-miterlimit:4;stroke-opacity:1;stroke-dasharray:none;stroke-dashoffset:0;marker:none;visibility:visible;display:inline;overflow:visible;enable-background:accumulate"
         d="m 98.250698,-309.24777 c -3.61705,1.20568 -8.52086,-2.10908 -6.1095,-4.52045 2.41138,-2.41137 1.96895,-2.85379 1.96895,-2.85379"
         id="path3895"
         inkscape:connector-curvature="0"
         sodipodi:nodetypes="csc" />
      <path
         style="color:#000000;fill:none;stroke:#545454;stroke-width:3.75516081;stroke-linecap:butt;stroke-linejoin:miter;stroke-miterlimit:4;stroke-opacity:1;stroke-dasharray:none;stroke-dashoffset:0;marker:none;visibility:visible;display:inline;overflow:visible;enable-background:accumulate"
         d="M 98.250698,-319.29513 159.4899,-384.64469"
         id="path3897"
         inkscape:connector-curvature="0"
         sodipodi:nodetypes="cc" />
      <path
         style="color:#000000;fill:none;stroke:#545454;stroke-width:3.75516081;stroke-linecap:butt;stroke-linejoin:miter;stroke-miterlimit:4;stroke-opacity:1;stroke-dasharray:none;stroke-dashoffset:0;marker:none;visibility:visible;display:inline;overflow:visible;enable-background:accumulate"
         d="m 96.660098,-274.66705 0.23938,67.94828"
         id="path3893-9"
         inkscape:connector-curvature="0"
         sodipodi:nodetypes="cc" />
      <path
         style="color:#000000;fill:none;stroke:#545454;stroke-width:3.75516081;stroke-linecap:butt;stroke-linejoin:miter;stroke-miterlimit:4;stroke-opacity:1;stroke-dasharray:none;stroke-dashoffset:0;marker:none;visibility:visible;display:inline;overflow:visible;enable-background:accumulate"
         d="m 90.263008,-206.71877 -0.23937,-67.94828 c 1.8894,-8.27806 5.20764,-5.62347 5.20764,-5.62347"
         id="path3893-9-5"
         inkscape:connector-curvature="0"
         sodipodi:nodetypes="cc" />
      <text
         xml:space="preserve"
         style="font-size:8px;font-style:normal;font-variant:normal;font-weight:normal;font-stretch:normal;text-indent:0;text-align:start;text-decoration:none;line-height:125%;letter-spacing:0px;word-spacing:0px;text-transform:none;direction:ltr;block-progression:tb;writing-mode:lr-tb;text-anchor:start;color:#000000;fill:#000000;fill-opacity:1;fill-rule:nonzero;stroke:none;stroke-width:1px;marker:none;visibility:visible;display:inline;overflow:visible;enable-background:accumulate;font-family:FreeSans;-inkscape-font-specification:FreeSans"
         x="-269.35632"
         y="-293.74527"
         id="text3937"
         sodipodi:linespacing="125%"
         transform="matrix(0.68142257,0.73189021,-0.73189021,0.68142257,0,0)"><tspan
           sodipodi:role="line"
           id="tspan3939"
           x="-269.35632"
           y="-293.74527">to first anchor</tspan></text>
      <text
         xml:space="preserve"
         style="font-size:8px;font-style:normal;font-variant:normal;font-weight:normal;font-stretch:normal;text-indent:0;text-align:start;text-decoration:none;line-height:125%;letter-spacing:0px;word-spacing:0px;text-transform:none;direction:ltr;block-progression:tb;writing-mode:lr-tb;text-anchor:start;color:#000000;fill:#000000;fill-opacity:1;fill-rule:nonzero;stroke:none;stroke-width:1px;marker:none;visibility:visible;display:inline;overflow:visible;enable-background:accumulate;font-family:FreeSans;-inkscape-font-specification:FreeSans"
         x="347.94171"
         y="-152.58968"
         id="text3937-0"
         sodipodi:linespacing="125%"
         transform="matrix(0.67998343,-0.73322748,0.73322748,0.67998343,0,0)"><tspan
           sodipodi:role="line"
           id="tspan3939-4"
           x="347.94171"
           y="-152.58968">to 2nd anchor</tspan></text>
      <text
         xml:space="preserve"
         style="font-size:8px;font-style:normal;font-variant:normal;font-weight:normal;font-stretch:normal;text-indent:0;text-align:start;text-decoration:none;line-height:125%;letter-spacing:0px;word-spacing:0px;text-transform:none;direction:ltr;block-progression:tb;writing-mode:lr-tb;text-anchor:start;color:#000000;fill:#000000;fill-opacity:1;fill-rule:nonzero;stroke:none;stroke-width:1px;marker:none;visibility:visible;display:inline;overflow:visible;enable-background:accumulate;font-family:FreeSans;-inkscape-font-specification:FreeSans"
         x="100.93054"
         y="-211.47917"
         id="text3964"
         sodipodi:linespacing="125%"><tspan
           sodipodi:role="line"
           id="tspan3966"
           x="100.93054"
           y="-211.47917">to climber</tspan></text>
      <path
         transform="matrix(0.8,0,0,0.8,-383.38877,-910.07597)"
         sodipodi:type="arc"
         style="color:#000000;fill:none;stroke:#000000;stroke-width:1.25;stroke-linecap:butt;stroke-linejoin:miter;stroke-miterlimit:4;stroke-opacity:1;stroke-dasharray:2.5, 1.25;stroke-dashoffset:0;marker:none;visibility:visible;display:inline;overflow:visible;enable-background:accumulate"
         id="path3968"
         sodipodi:cx="601.77863"
         sodipodi:cy="739.78784"
         sodipodi:rx="37.24601"
         sodipodi:ry="37.24601"
         d="m 578.1419,711.00294 c 13.02841,-10.69828 31.61817,-11.31191 45.32373,-1.4961"
         sodipodi:start="4.0248841"
         sodipodi:end="5.3338995"
         sodipodi:open="true" />
      <text
         xml:space="preserve"
         style="font-size:8px;font-style:normal;font-variant:normal;font-weight:normal;font-stretch:normal;text-indent:0;text-align:start;text-decoration:none;line-height:125%;letter-spacing:0px;word-spacing:0px;text-transform:none;direction:ltr;block-progression:tb;writing-mode:lr-tb;text-anchor:start;color:#000000;fill:#000000;fill-opacity:1;fill-rule:nonzero;stroke:none;stroke-width:1px;marker:none;visibility:visible;display:inline;overflow:visible;enable-background:accumulate;font-family:FreeSans;-inkscape-font-specification:FreeSans"
         x="95.426453"
         y="-351.59198"
         id="text3979"
         sodipodi:linespacing="125%"><tspan
           sodipodi:role="line"
           id="tspan3981"
           x="95.426453"
           y="-351.59198">θ</tspan></text>
    </g>
  </g>
</svg>
