<?xml version="1.0" encoding="UTF-8" standalone="no"?>
<svg
   xmlns:dc="http://purl.org/dc/elements/1.1/"
   xmlns:cc="http://creativecommons.org/ns#"
   xmlns:rdf="http://www.w3.org/1999/02/22-rdf-syntax-ns#"
   xmlns:svg="http://www.w3.org/2000/svg"
   xmlns="http://www.w3.org/2000/svg"
   xmlns:xlink="http://www.w3.org/1999/xlink"
   xmlns:sodipodi="http://sodipodi.sourceforge.net/DTD/sodipodi-0.dtd"
   xmlns:inkscape="http://www.inkscape.org/namespaces/inkscape"
   width="600"
   height="480"
   viewBox="0 0 600 480"
   id="svg2"
   version="1.1"
   inkscape:version="0.48.4 r9939"
   sodipodi:docname="dying-vibration.svg">
  <metadata
     id="metadata192">
    <rdf:RDF>
      <cc:Work
         rdf:about="">
        <dc:format>image/svg+xml</dc:format>
        <dc:type
           rdf:resource="http://purl.org/dc/dcmitype/StillImage" />
        <dc:title>Gnuplot</dc:title>
      </cc:Work>
    </rdf:RDF>
  </metadata>
  <defs
     id="defs190">
    <defs
       id="defs11">
      <circle
         stroke-width="0.5"
         r="0.5"
         id="gpDot" />
      <path
         d="M-1,0 h2 M0,-1 v2"
         stroke="currentColor"
         stroke-width="0.222"
         id="gpPt0" />
      <path
         d="M-1,-1 L1,1 M1,-1 L-1,1"
         stroke="currentColor"
         stroke-width="0.222"
         id="gpPt1" />
      <path
         d="M-1,0 L1,0 M0,-1 L0,1 M-1,-1 L1,1 M-1,1 L1,-1"
         stroke="currentColor"
         stroke-width="0.222"
         id="gpPt2" />
      <rect
         height="2"
         width="2"
         y="-1"
         x="-1"
         stroke="currentColor"
         stroke-width="0.222"
         id="gpPt3" />
      <rect
         height="2"
         width="2"
         y="-1"
         x="-1"
         fill="currentColor"
         stroke="currentColor"
         stroke-width="0.222"
         id="gpPt4" />
      <circle
         r="1"
         cy="0"
         cx="0"
         stroke="currentColor"
         stroke-width="0.222"
         id="gpPt5" />
      <use
         stroke="none"
         fill="currentColor"
         id="gpPt6"
         xlink:href="#gpPt5" />
      <path
         d="M0,-1.33 L-1.33,0.67 L1.33,0.67 z"
         stroke="currentColor"
         stroke-width="0.222"
         id="gpPt7" />
      <use
         stroke="none"
         fill="currentColor"
         id="gpPt8"
         xlink:href="#gpPt7" />
      <use
         transform="rotate(180)"
         stroke="currentColor"
         id="gpPt9"
         xlink:href="#gpPt7" />
      <use
         stroke="none"
         fill="currentColor"
         id="gpPt10"
         xlink:href="#gpPt9" />
      <use
         transform="rotate(45)"
         stroke="currentColor"
         id="gpPt11"
         xlink:href="#gpPt3" />
      <use
         stroke="none"
         fill="currentColor"
         id="gpPt12"
         xlink:href="#gpPt11" />
    </defs>
  </defs>
  <sodipodi:namedview
     pagecolor="#ffffff"
     bordercolor="#666666"
     borderopacity="1"
     objecttolerance="10"
     gridtolerance="10"
     guidetolerance="10"
     inkscape:pageopacity="0"
     inkscape:pageshadow="2"
     inkscape:window-width="1280"
     inkscape:window-height="996"
     id="namedview188"
     showgrid="false"
     inkscape:zoom="0.70302287"
     inkscape:cx="146.05166"
     inkscape:cy="278.39621"
     inkscape:window-x="0"
     inkscape:window-y="0"
     inkscape:window-maximized="1"
     inkscape:current-layer="svg2" />
  <title
     id="title4">Gnuplot</title>
  <desc
     id="desc6">Produced by GNUPLOT 4.6 patchlevel 1 </desc>
  <rect
     style="fill:#dedede;fill-opacity:1;stroke:none"
     id="rect3008"
     width="300.00476"
     height="65.505852"
     x="136.23045"
     y="98.55706" />
  <g
     id="g27"
     style="color:#ffffff;fill:none;stroke:currentColor;stroke-width:1;stroke-linecap:butt;stroke-linejoin:miter" />
  <g
     id="g29"
     style="color:#ffffff;fill:none;stroke:currentColor;stroke-width:0.5;stroke-linecap:butt;stroke-linejoin:miter" />
  <path
     style="color:#000000;fill:none;stroke:currentColor;stroke-width:0.875;stroke-linecap:butt;stroke-linejoin:miter;stroke-miterlimit:4;stroke-dasharray:none"
     d="m 39.225174,128.5907 396.319916,0 m -396.319916,86.91785 0,-173.83572 0.03473,-18.652013"
     id="path153"
     inkscape:connector-curvature="0"
     sodipodi:nodetypes="ccccc" />
  <g
     style="color:#ffffff;fill:none;stroke:currentColor;stroke-width:1.5;stroke-linecap:butt;stroke-linejoin:miter"
     id="g178"
     transform="translate(-16.144353,-271.22514)" />
  <path
     style="color:#000000;fill:none;stroke:currentColor;stroke-width:1.875;stroke-linecap:butt;stroke-linejoin:miter;stroke-miterlimit:4;stroke-dasharray:none"
     inkscape:connector-curvature="0"
     id="path182"
     d="m 39.225174,41.67283 0.347344,0.457463 0.347344,0.609949 0.347344,1.067412 0.694689,1.219901 0.347344,1.372388 0.347344,1.829849 0.347345,1.982338 0.347344,2.134824 0.347344,2.4398 0.347345,2.744775 0.694689,2.897261 0.347344,3.04975 0.347345,3.354725 0.347344,3.354724 0.347344,3.659701 0.347344,3.812186 0.347345,3.812187 0.694688,4.117162 0.347345,4.117163 0.347344,4.269649 0.347344,4.26965 0.347344,4.422133 0.347346,4.42214 0.347344,4.42214 0.694689,4.57462 0.347344,4.57463 0.347344,4.42213 0.347344,4.57463 0.347345,4.42213 0.347344,4.42214 0.347344,4.42213 0.694689,4.26966 0.347344,4.26965 0.347345,4.11717 0.347345,3.96466 0.347344,3.81219 0.347344,3.81218 0.347344,3.50722 0.694689,3.50721 0.347344,3.20224 0.347344,3.04974 0.347345,2.89727 0.347344,2.74478 0.347344,2.4398 0.347345,2.28731 0.694689,2.13483 0.347344,1.82984 0.347345,1.67736 0.347344,1.37239 0.347344,1.2199 0.347344,0.91493 0.347345,0.76244 0.694688,0.45746 0.347345,0.15257 0.347344,0 0.347344,-0.15257 0.347344,-0.45746 0.347346,-0.76244 0.347344,-0.91493 0.694689,-1.06741 0.347344,-1.37239 0.347344,-1.52486 0.347344,-1.67738 0.347345,-1.98234 0.347344,-2.13481 0.347344,-2.43981 0.694689,-2.4398 0.347344,-2.59229 0.347345,-2.89725 0.347345,-2.89727 0.347344,-3.04975 0.347344,-3.20224 0.347344,-3.35471 0.694689,-3.35473 0.347344,-3.50722 0.347344,-3.6597 0.347345,-3.65969 0.347344,-3.6597 0.347344,-3.81218 0.347345,-3.65972 0.694689,-3.81218 0.347344,-3.81219 0.347345,-3.81218 0.347344,-3.6597 0.347344,-3.81219 0.347345,-3.6597 0.347344,-3.6597 0.694688,-3.50721 0.347345,-3.50721 0.347344,-3.35473 0.347344,-3.35472 0.347344,-3.202239 0.347346,-3.04975 0.347344,-2.897261 0.694689,-2.744775 0.347344,-2.744775 0.347344,-2.4398 0.347344,-2.439799 0.347345,-2.134825 0.347344,-1.982338 0.347344,-1.829849 0.347344,-1.677363 0.694689,-1.524875 0.347345,-1.2199 0.347345,-1.067412 0.347344,-0.914925 0.347344,-0.762437 0.347344,-0.457462 0.347345,-0.304976 0.694688,-0.152491 0.347344,0.152491 0.347345,0.304976 0.347344,0.457462 0.347344,0.60995 0.347345,0.914924 0.347344,1.067414 0.694689,1.2199 0.347345,1.372387 0.347344,1.524874 0.347344,1.677363 0.347345,1.82985 0.347344,1.982337 0.347344,2.134824 0.694689,2.287312 0.347344,2.4398 0.347344,2.592287 0.347344,2.592288 0.347346,2.744775 0.347344,2.744775 0.347344,2.897263 0.694689,3.04975 0.347344,3.04975 0.347344,3.04975 0.347345,3.04975 0.347344,3.20223 0.347344,3.04975 0.347344,3.20224 0.694689,3.20224 0.347345,3.20223 0.347345,3.04975 0.347344,3.20224 0.347344,3.04975 0.347344,2.89727 0.347345,3.04974 0.694688,2.89726 0.347344,2.74478 0.347345,2.74478 0.347344,2.59229 0.347344,2.43979 0.347345,2.4398 0.347344,2.28732 0.694689,2.13482 0.34734,2.13483 0.34735,1.82984 0.34735,1.82985 0.34734,1.52488 0.34734,1.52487 0.34734,1.2199 0.6947,1.2199 0.34734,0.91493 0.34734,0.91493 0.34734,0.60995 0.34736,0.60995 0.34734,0.30496 0.34734,0.15257 0.69468,0 0.34736,-0.15257 0.34734,-0.30496 0.34734,-0.45748 0.34734,-0.60995 0.34736,-0.76242 0.34734,-0.91493 0.69468,-1.06741 0.34735,-1.2199 0.34735,-1.37239 0.34734,-1.52488 0.34734,-1.67736 0.34734,-1.67737 0.34735,-1.82985 0.69469,-1.98233 0.34734,-2.13482 0.34735,-2.13483 0.34734,-2.13483 0.34735,-2.4398 0.34734,-2.2873 0.34734,-2.4398 0.69469,-2.59229 0.34735,-2.43979 0.34734,-2.59229 0.34735,-2.74478 0.34734,-2.59229 0.34735,-2.59229 0.34734,-2.74478 0.69469,-2.59228 0.34734,-2.59229 0.34735,-2.59228 0.34734,-2.59229 0.34735,-2.59229 0.34734,-2.4398 0.34734,-2.4398 0.6947,-2.4398 0.34734,-2.28731 0.34734,-2.28731 0.34734,-2.13483 0.34735,-1.98233 0.34735,-1.98234 0.34734,-1.829851 0.69468,-1.829851 0.34736,-1.677361 0.34734,-1.524875 0.34734,-1.372388 0.34734,-1.2199 0.34735,-1.219899 0.34735,-1.067413 0.69468,-0.914924 0.34734,-0.762438 0.34736,-0.60995 0.34734,-0.457463 0.34734,-0.457461 0.34734,-0.152492 0.34735,-0.152491 0.69469,0.152491 0.34734,0.152492 0.34734,0.304974 0.34735,0.457463 0.34735,0.609949 0.34734,0.762438 0.34734,0.762437 0.69469,0.914926 0.34735,1.067412 0.34734,1.2199 0.34735,1.372386 0.34734,1.372388 0.34734,1.524875 0.34735,1.524875 0.69469,1.677363 0.34734,1.829848 0.34735,1.82985 0.34734,1.82985 0.34735,1.98234 0.34734,2.13482 0.34734,1.98234 0.6947,2.13482 0.34734,2.13483 0.34734,2.13482 0.34734,2.28732 0.34735,2.13482 0.34735,2.28731 0.34734,2.13483 0.69468,2.28731 0.34736,2.13483 0.34734,2.13482 0.34734,2.13482 0.34734,2.13483 0.34734,2.13483 0.34736,1.98234 0.69468,1.98232 0.34734,1.82987 0.34735,1.82984 0.34735,1.82985 0.34734,1.67736 0.34734,1.67737 0.34735,1.52487 0.69469,1.37238 0.34734,1.37239 0.34734,1.2199 0.34735,1.06741 0.34735,1.06742 0.34734,0.91492 0.34734,0.76244 0.69469,0.76244 0.34735,0.60995 0.34734,0.45746 0.34734,0.30498 0.34735,0.30497 0.34734,0.15241 0.34735,0 0.69469,-0.15241 0.34734,-0.15257 0.34734,-0.30497 0.34735,-0.45746 0.34735,-0.60995 0.34734,-0.60996 0.34734,-0.76243 0.69469,-0.76244 0.34735,-1.0674 0.34734,-0.91493 0.34734,-1.2199 0.34735,-1.2199 0.34735,-1.2199 0.34734,-1.37239 0.69468,-1.52488 0.34735,-1.37239 0.34735,-1.67736 0.34734,-1.52488 0.34734,-1.67735 0.34734,-1.82985 0.34736,-1.67736 0.69468,-1.82986 0.34734,-1.82985 0.34735,-1.82985 0.34735,-1.82985 0.34734,-1.82984 0.34734,-1.82985 0.34734,-1.82985 0.34735,-1.82985 0.69469,-1.82985 0.34734,-1.82985 0.34735,-1.82985 0.34735,-1.67737 0.34734,-1.67736 0.34734,-1.67736 0.34734,-1.67736 0.6947,-1.52488 0.34734,-1.52487 0.34734,-1.37239 0.34735,-1.52487 0.34734,-1.2199 0.34735,-1.2199 0.34734,-1.2199 0.69469,-1.06742 0.34734,-0.91492 0.34735,-0.91493 0.34734,-0.91492 0.34735,-0.76244 0.34734,-0.60995 0.34734,-0.45746 0.6947,-0.457463 0.34734,-0.457463 0.34734,-0.152491 0.34734,-0.152491 0.34735,-0.152491 0.34735,0 0.34734,0.152491 0.69469,0.304974 0.34735,0.304975 0.34734,0.457463 0.34734,0.457466 0.34734,0.60995 0.34736,0.60995 0.34734,0.76243 0.69468,0.76244 0.34734,0.91493 0.34736,1.06741 0.34734,0.91492 0.34734,1.2199 0.34734,1.06741 0.34735,1.37239 0.69469,1.2199 0.34734,1.37239 0.34734,1.37239 0.34735,1.37238 0.34735,1.37239 0.34734,1.52488 0.34734,1.52487 0.6947,1.52488 0.34734,1.52487 0.34734,1.52488 0.34735,1.52487 0.34734,1.67736 0.34735,1.52488 0.34734,1.52487 0.69469,1.52488 0.34734,1.52486 0.34735,1.37239 0.34734,1.52488 0.34735,1.37239 0.34734,1.37239 0.34734,1.37237 0.69469,1.21992 0.34735,1.21989 0.34734,1.2199 0.34734,1.06741 0.34735,1.06741 0.34735,1.06742 0.34734,0.91492 0.69468,0.91493 0.34736,0.76244 0.34734,0.76242 0.34734,0.60995 0.34734,0.60997 0.34735,0.45746 0.34735,0.45745 0.69468,0.30499 0.34734,0.30496 0.34736,0.15242 0.34734,0.15241 0.34734,0 0.34734,-0.15241 0.34735,-0.15242 0.69469,-0.15241 0.34734,-0.30497 0.34734,-0.45746 0.34735,-0.30498 0.34735,-0.60995 0.34734,-0.60995 0.34734,-0.60995 0.69469,-0.76244 0.34735,-0.76244 0.34734,-0.91491 0.34734,-0.76244 0.34735,-1.06741 0.34735,-0.91493 0.34734,-1.06741 0.69469,-1.06742 0.34734,-1.2199 0.34735,-1.06741 0.34734,-1.2199 0.34735,-1.2199 0.34734,-1.21989 0.34734,-1.37239 0.69469,-1.2199 0.34735,-1.37239 0.34734,-1.21989 0.34734,-1.37239 0.34735,-1.2199 0.34735,-1.37239 0.34734,-1.2199 0.69468,-1.2199 0.34735,-1.2199 0.34735,-1.2199 0.34734,-1.2199 0.34734,-1.2199 0.34734,-1.06741 0.34736,-1.2199 0.69468,-1.06741 0.34734,-0.91493 0.34736,-1.06741 0.34734,-0.91493 0.34734,-0.76243 0.34734,-0.91493 0.34734,-0.76244 0.6947,-0.60995 0.34734,-0.60994 0.34734,-0.60996 0.34735,-0.45746 0.34735,-0.45746 0.34734,-0.45746 0.34734,-0.30498 0.69469,-0.30497 0.34735,-0.15249 0.34734,-0.1525 0.34734,0 0.34735,0 0.34734,0.1525 0.34735,0.15249 0.69469,0.15249 0.34734,0.30497 0.34735,0.30498 0.34734,0.45746 0.34734,0.45746 0.34735,0.45747 0.34734,0.60994 0.69469,0.60996 0.34735,0.76243 0.34734,0.60995 0.34734,0.91493 0.34735,0.76244 0.34734,0.91492 0.34735,0.76244 0.69468,1.06741 0.34735,0.91492 0.34735,0.91493 0.34734,1.06741 0.34734,1.06741 0.34734,1.06742 0.34736,1.06741 0.69468,1.06741 0.34734,1.06741 0.34734,1.06742 0.34736,1.06741 0.34734,1.06741 0.34734,1.06741 0.34734,1.06741 0.6947,1.06742 0.34734,1.06741 0.34734,0.91493 0.34734,1.06741 0.34736,0.91493 0.34734,0.91492 0.34734,0.91493 0.69469,0.91492 0.34735,0.76244 0.34734,0.91493 0.34734,0.76244 0.34735,0.60995 0.34734,0.60995 0.34735,0.60995 0.69468,0.60995 0.34735,0.60995 0.34734,0.45745 0.34735,0.30499 0.34734,0.30496 0.34735,0.30499 0.34734,0.30496 0.69469,0.15242 0.34734,0.15241 0.34735,0 0.34734,0.15242 0.34735,-0.15242 0.34734,0 0.34735,-0.15241 0.34734,-0.30499 0.69469,-0.15241 0.34735,-0.30498 0.34734,-0.45746 0.34734,-0.30498 0.34734,-0.45746 0.34735,-0.60995 0.34735,-0.45746 0.69468,-0.60995 0.34734,-0.60995 0.34736,-0.76244 0.34734,-0.60995 0.34734,-0.76244 0.34734,-0.76244 0.34734,-0.76244 0.6947,-0.91491 0.34734,-0.76244 0.34734,-0.91494 0.34736,-0.76242 0.34734,-0.91493 0.34734,-0.91493 0.34734,-0.91493 0.6947,-0.91492 0.34734,-0.91493 0.34734,-0.91492 0.34734,-0.91493 0.34735,-0.91492 0.34735,-0.91493 0.34734,-0.76243 0.69469,-0.91493 0.34734,-0.76244 0.34735,-0.91492 0.34734,-0.76244 0.34734,-0.76244 0.34735,-0.76243 0.34734,-0.76244 0.69469,-0.60995 0.34735,-0.60995 0.34734,-0.60995 0.34735,-0.60995 0.34734,-0.45746 0.34736,-0.60995 0.34734,-0.45747 0.69469,-0.30497 0.34734,-0.45746 0.34735,-0.30498 0.34734,-0.30497 0.34734,-0.15249 0.34735,-0.1525 0.34735,-0.15249 0.69468,-0.15249 0.34734,0 0.34736,0 0.34734,0.15249 0.34734,0 0.34734,0.15249 0.34734,0.30498 0.6947,0.15249 0.34734,0.30497 0.34734,0.30498 0.34735,0.30498 0.34735,0.45746 0.34734,0.45746 0.34734,0.45746 0.6947,0.45746 0.34734,0.60995 0.34734,0.60995 0.34734,0.60995 0.34735,0.60995 0.34735,0.60995 0.34734,0.60995 0.69469,0.76244 0.34734,0.76244 0.34735,0.60995 0.34734,0.76244 0.34734,0.76243 0.34735,0.76244 0.34734,0.76244 0.69469,0.76244 0.34735,0.76243 0.34734,0.76244 0.34734,0.76244 0.34735,0.76244 0.34735,0.60994 0.34734,0.76244 0.69469,0.76243 0.34734,0.60995 0.34735,0.76244 0.34734,0.60995 0.34734,0.60995 0.34735,0.60995 0.34735,0.60995 0.69468,0.60995 0.34734,0.45746 0.34735,0.45747 0.34735,0.45746 0.34734,0.45746 0.34734,0.45747 0.34734,0.30497 0.6947,0.30498 0.34734,0.30497 0.34734,0.30498 0.34735,0.15241 0.34735,0.15242 0.34734,0.15241 0.34734,0.15242 0.69469,0 0.34735,0 0.34734,0 0.34734,0 0.34735,-0.15242 0.34735,-0.15241 0.34734,-0.15242 0.69468,-0.30496 0.34735,-0.15242 0.34735,-0.30497 0.34734,-0.30498 0.34734,-0.45746 0.34735,-0.30498 0.34734,-0.45746 0.69469,-0.45746 0.34735,-0.45747 0.34734,-0.45746 0.34734,-0.45745 0.34735,-0.60995 0.34734,-0.45746 0.34735,-0.60995 0.69468,-0.60995 0.34735,-0.60997 0.34735,-0.60994 0.34734,-0.60995 0.34734,-0.60994 0.34735,-0.60995 0.34734,-0.60995 0.69469,-0.60995 0.34734,-0.76244 0.34735,-0.60995 0.34735,-0.60995 0.34734,-0.60995 0.34734,-0.60995 0.34734,-0.60995 0.6947,-0.60995 0.34734,-0.60995 0.34734,-0.45746 0.34734,-0.60995 0.34736,-0.45746 0.34734,-0.45747 0.34734,-0.60995 0.69469,-0.30497 0.34735,-0.45746 0.34734,-0.45747 0.34734,-0.30497 0.34734,-0.45746 0.34735,-0.30498 0.34735,-0.30497 0.69468,-0.15249 0.34735,-0.30498 0.34735,-0.15249 0.34734,-0.15249 0.34734,-0.15249 0.34735,-0.15249 0.34734,0 0.69469,0 0.34734,0 0.34735,0 0.34734,0.15249 0.34735,0 0.34734,0.15249 0.34735,0.15249 0.69468,0.30498 0.34735,0.15249 0.34734,0.30497 0.34735,0.30498 0.34734,0.30497 0.34734,0.30498 0.34735,0.30497 0.69469,0.30498 0.34734,0.45746 0.34734,0.45746 0.34736,0.45746 0.34734,0.45747 0.34734,0.45746 0.34734,0.45746 0.6947,0.45746 0.34734,0.45747 0.34734,0.60995 0.34734,0.45746 0.34736,0.60995 0.34734,0.45746 0.34734,0.60995 0.69468,0.45746 0.34736,0.60995 0.34734,0.45747 0.34734,0.60995 0.34734,0.45746 0.34735,0.45746 0.34735,0.60995 0.34734,0.45746 0.69469,0.45746 0.34734,0.45747 0.34735,0.45746 0.34734,0.45746 0.34734,0.30498 0.34735,0.45746 0.34735,0.30498 0.69468,0.30497 0.34735,0.45745 0.34734,0.30499 0.34735,0.15241 0.34734,0.30497 0.34735,0.30498 0.34734,0.15241 0.69469,0.15242 0.34734,0.15241 0.34735,0.15242 0.34734,0 0.34734,0.15241 0.34735,0 0.34735,0 0.69468,0 0.34734,0 0.34735,-0.15241 0.34735,0 0.34734,-0.15242 0.34734,-0.15241 0.34734,-0.15242 0.6947,-0.30496 0.34734,-0.15242 0.34734,-0.30496 0.34736,-0.15242 0.34734,-0.30498 0.34734,-0.30497 0.34734,-0.30498 0.6947,-0.45746 0.34734,-0.30497 0.34734,-0.30498 0.34734,-0.45746 0.34735,-0.45747 0.34735,-0.30497 0.34734,-0.45746 0.69468,-0.45746 0.34735,-0.45746 0.34735,-0.45746 0.34734,-0.30498 0.34734,-0.45746 0.34735,-0.45746 0.34734,-0.45747 0.69469,-0.45746 0.34735,-0.45746 0.34734,-0.45746 0.34735,-0.45747 0.34734,-0.30497 0.34734,-0.45746 0.34735,-0.45747 0.69469,-0.30497 0.34734,-0.45746 0.34735,-0.30498 0.34734,-0.30497 0.34734,-0.45747 0.34735,-0.30497 0.34734,-0.30498 0.69469,-0.30497 0.34734,-0.15249 0.34735,-0.30498 0.34735,-0.15249 0.34734,-0.30497 0.34734,-0.1525 0.34734,-0.15249 0.6947,-0.15249 0.34734,0 0.34734,-0.15249 0.34734,-0.15249 0.34736,0 0.34734,0 0.34734,0 0.6947,0 0.34734,0.15249 0.34734,0 0.34734,0.15249 0.34734,0 0.34736,0.15249 0.34734,0.15249 0.69468,0.1525 0.34735,0.30497 0.34735,0.15249 0.34734,0.30498 0.34734,0.15249 0.34735,0.30497 0.34734,0.30498 0.69469,0.30497 0.34734,0.30498 0.34735,0.30497 0.34734,0.30498 0.34735,0.30497 0.34734,0.30498 0.34735,0.45746 0.69469,0.30498 0.34734,0.30497 0.34734,0.45746 0.34735,0.30498 0.34734,0.45746 0.34735,0.30498 0.34734,0.45746 0.69469,0.30497 0.34734,0.30498 0.34735,0.45746 0.34735,0.30498 0.34734,0.30497 0.34734,0.45746 0.34734,0.30498 0.6947,0.30497 0.34734,0.30498 0.34734,0.30497 0.34734,0.30497 0.34736,0.30498 0.34734,0.15242 0.34734,0.30498 0.69468,0.15242 0.34736,0.30496 0.34734,0.15257 0.34734,0.15242 0.34734,0.15241 0.34736,0.15241 0.34734,0.15242 0.69468,0.15257 0.34735,0 0.34735,0.15241 0.34734,0 0.34734,0 0.34734,0 0.34735,0 0.69469,0 0.34734,0 0.34735,-0.15241 0.34734,0 0.34735,-0.15257 0.34734,-0.15242 0.34734,-0.15241 0.69469,-0.15241 0.34735,-0.15242 0.34734,-0.15257 0.34735,-0.15241 0.34734,-0.30497 0.34735,-0.15241 0.34734,-0.30497 0.69469,-0.15241 0.34734,-0.30499 0.34735,-0.30496 0.34734,-0.30498 0.34735,-0.30497 0.34734,-0.30498 0.34734,-0.15249 0.6947,-0.30497 0.34734,-0.30498 0.34734,-0.30497 0.34734,-0.45747 0.34735,-0.30497 0.34735,-0.30497 0.34734,-0.30498 0.69468,-0.30498 0.34736,-0.30497 0.34734,-0.30497 0.34734,-0.30498 0.34734,-0.15249 0.34735,-0.30497 0.34735,-0.30498 0.69468,-0.30498 0.34734,-0.30497 0.34736,-0.15249 0.34734,-0.30498 0.34734,-0.15249 0.34734,-0.30498 0.34735,-0.15249 0.69469,-0.15249 0.34734,-0.15249 0.34735,-0.15249 0.34734,-0.15249 0.34735,-0.15249 0.34734,-0.15249 0.34734,0 0.69469,-0.15249 0.34735,0 0.34734,-0.1525 0.34735,0 0.34734,0 0.34734,0 0.34735,0 0.69469,0 0.34734,0.1525 0.34735,0 0.34734,0.15249 0.34735,0 0.34734,0.15249 0.34734,0.15249 0.6947,0.15249 0.34734,0.15249 0.34734,0.15249 0.34734,0.15249 0.34735,0.15249 0.34735,0.1525 0.34734,0.30497 0.34734,0.15249 0.6947,0.30498 0.34734,0.15249 0.34734,0.30497 0.34734,0.15249 0.34734,0.30498 0.34736,0.15249 0.34734,0.30498 0.69468,0.30497 0.34735,0.30497 0.34735,0.1525 0.34734,0.30497 0.34734,0.30498 0.34735,0.15249 0.34735,0.30497 0.69468,0.30498 0.34734,0.15249 0.34735,0.30497 0.34735,0.15249 0.34734,0.30498 0.34734,0.15249 0.34735,0.30497 0.69469,0.1525 0.34734,0.30497 0.34734,0.15249 0.34735,0.15249 0.34734,0.15249 0.34735,0.15249 0.34734,0.1525 0.69469,0.15247 0.34734,0.15242 0.34735,0.15241 0.34735,0 0.34734,0.15241 0.34734,0 0.34735,0.15242 0.69469,0 0.34734,0 0.34734,0 0.34735,0 0.34735,0 0.34734,0 0.34734,0 0.69469,0 0.34735,-0.15242 0.34734,0 0.34734,-0.15241 0.34734,0 0.34736,-0.15241 0.34734,-0.15242 0.69468,-0.15247 0.34735,0 0.34735,-0.1525 0.34734,-0.30497 0.34734,-0.15249 0.34734,-0.15249 0.34735,-0.15249 0.69469,-0.15249 0.34734,-0.1525 0.34735,-0.30497 0.34735,-0.15249 0.34734,-0.15249 0.34734,-0.30498 0.34734,-0.15249 0.6947,-0.30497 0.34734,-0.15249 0.34734,-0.30498 0.34735,-0.15249 0.34734,-0.15249 0.34735,-0.30498 0.34734,-0.15249 0.69469,-0.30497 0.34734,-0.15249 0.34735,-0.15249 0.34734,-0.30498 0.34735,-0.15249 0.34734,-0.15249 0.34734,-0.15249 0.6947,-0.15249 0.34734,-0.15249 0.34734,-0.1525 0.34735,-0.15249 0.34734,-0.15249 0.34735,-0.15249 0.34734,-0.15249 0.69469,-0.15249 0.34735,0 0.34734,-0.15249 0.34734,0 0.34734,-0.15249 0.34736,0 0.34734,-0.15249 0.69468,0 0.34734,0 0.34736,0 0.34734,0 h 0.0348" />
  <g
     id="g184"
     style="color:#ffffff;fill:none;stroke:currentColor;stroke-width:0.5;stroke-linecap:butt;stroke-linejoin:miter" />
  <g
     id="g186"
     style="color:#000000;fill:none;stroke:currentColor;stroke-width:0.5;stroke-linecap:butt;stroke-linejoin:miter" />
  <path
     style="color:#000000;fill:none;stroke:#000000;stroke-width:1;stroke-linecap:butt;stroke-linejoin:miter;stroke-miterlimit:4;stroke-opacity:1;stroke-dasharray:none;stroke-dashoffset:0;marker:none;visibility:visible;display:inline;overflow:visible;enable-background:accumulate"
     d="m 135.74521,68.619483 0,115.020747"
     id="path4111"
     inkscape:connector-curvature="0" />
  <path
     style="color:#000000;fill:none;stroke:#000000;stroke-width:1.25;stroke-linecap:butt;stroke-linejoin:miter;stroke-miterlimit:4;stroke-opacity:1;stroke-dasharray:1.25, 1.25;stroke-dashoffset:0;marker:none;visibility:visible;display:inline;overflow:visible;enable-background:accumulate"
     d="m 39.539314,89.9733 393.745676,0"
     id="path3006"
     inkscape:connector-curvature="0" />
  <path
     style="color:#000000;fill:none;stroke:#000000;stroke-width:1.25;stroke-linecap:butt;stroke-linejoin:miter;stroke-miterlimit:4;stroke-opacity:1;stroke-dasharray:1.25, 1.25;stroke-dashoffset:0;marker:none;visibility:visible;display:inline;overflow:visible;enable-background:accumulate"
     d="m 39.460003,167.80417 393.745687,0"
     id="path3006-7"
     inkscape:connector-curvature="0" />
  <text
     xml:space="preserve"
     style="font-size:10px;font-style:italic;font-variant:normal;font-weight:normal;font-stretch:normal;text-indent:0;text-align:start;text-decoration:none;line-height:125%;letter-spacing:0px;word-spacing:0px;text-transform:none;direction:ltr;block-progression:tb;writing-mode:lr-tb;text-anchor:start;baseline-shift:baseline;color:#000000;fill:#000000;fill-opacity:1;fill-rule:nonzero;stroke:none;stroke-width:1.24999988px;marker:none;visibility:visible;display:inline;overflow:visible;enable-background:accumulate;font-family:Liberation Sans;-inkscape-font-specification:Liberation Sans Italic"
     x="131.86671"
     y="195.00703"
     id="text3778"
     sodipodi:linespacing="125%"><tspan
       sodipodi:role="line"
       id="tspan3780"
       x="131.86671"
       y="195.00703">A</tspan></text>
  <text
     xml:space="preserve"
     style="font-size:10px;font-style:normal;font-variant:normal;font-weight:normal;font-stretch:normal;text-indent:0;text-align:start;text-decoration:none;line-height:125%;letter-spacing:0px;word-spacing:0px;text-transform:none;direction:ltr;block-progression:tb;writing-mode:lr-tb;text-anchor:start;baseline-shift:baseline;color:#000000;fill:#000000;fill-opacity:1;fill-rule:nonzero;stroke:none;stroke-width:1.24999988px;marker:none;visibility:visible;display:inline;overflow:visible;enable-background:accumulate;font-family:Liberation Sans;-inkscape-font-specification:Liberation Sans"
     x="25.03269"
     y="92.066299"
     id="text3782"
     sodipodi:linespacing="125%"><tspan
       sodipodi:role="line"
       id="tspan3784"
       x="25.03269"
       y="92.066299">+ε</tspan></text>
  <text
     xml:space="preserve"
     style="font-size:10px;font-style:normal;font-variant:normal;font-weight:normal;font-stretch:normal;text-indent:0;text-align:start;text-decoration:none;line-height:125%;letter-spacing:0px;word-spacing:0px;text-transform:none;direction:ltr;block-progression:tb;writing-mode:lr-tb;text-anchor:start;baseline-shift:baseline;color:#000000;fill:#000000;fill-opacity:1;fill-rule:nonzero;stroke:none;stroke-width:1.24999988px;marker:none;visibility:visible;display:inline;overflow:visible;enable-background:accumulate;font-family:Liberation Sans;-inkscape-font-specification:Liberation Sans"
     x="24.61488"
     y="169.83946"
     id="text3782-6"
     sodipodi:linespacing="125%"><tspan
       sodipodi:role="line"
       id="tspan3784-8"
       x="24.61488"
       y="169.83946">−ε</tspan></text>
</svg>
