<?xml version="1.0" encoding="UTF-8" standalone="no"?>
<!-- Generator: Adobe Illustrator 11 Build 196, SVG Export Plug-In . SVG Version: 6.0.0 Build 78)  -->

<svg
   xmlns:dc="http://purl.org/dc/elements/1.1/"
   xmlns:cc="http://creativecommons.org/ns#"
   xmlns:rdf="http://www.w3.org/1999/02/22-rdf-syntax-ns#"
   xmlns:svg="http://www.w3.org/2000/svg"
   xmlns="http://www.w3.org/2000/svg"
   xmlns:sodipodi="http://sodipodi.sourceforge.net/DTD/sodipodi-0.dtd"
   xmlns:inkscape="http://www.inkscape.org/namespaces/inkscape"
   width="147.401"
   height="161.463"
   viewBox="0 0 147.401 161.463"
   style="overflow:visible;enable-background:new 0 0 147.401 161.463"
   xml:space="preserve"
   id="svg2"
   sodipodi:version="0.32"
   inkscape:version="0.48.4 r9939"
   sodipodi:docname="hw-rod-finger-string.svg"
   inkscape:output_extension="org.inkscape.output.svg.inkscape"
   version="1.1"><metadata
     id="metadata90"><rdf:RDF><cc:Work
         rdf:about=""><dc:format>image/svg+xml</dc:format><dc:type
           rdf:resource="http://purl.org/dc/dcmitype/StillImage" /></cc:Work></rdf:RDF></metadata><defs
     id="defs88" /><sodipodi:namedview
     inkscape:cy="86.513608"
     inkscape:cx="62.096632"
     inkscape:zoom="4.5501495"
     inkscape:window-height="996"
     inkscape:window-width="1278"
     inkscape:pageshadow="2"
     inkscape:pageopacity="0.0"
     guidetolerance="10.0"
     gridtolerance="10.0"
     objecttolerance="10.0"
     borderopacity="1.0"
     bordercolor="#666666"
     pagecolor="#ffffff"
     id="base"
     inkscape:window-x="0"
     inkscape:window-y="0"
     inkscape:current-layer="svg2"
     showgrid="false"
     inkscape:window-maximized="0" /><style
     type="text/css"
     id="style4" /><path
     style="color:#000000;fill:none;stroke:#000000;stroke-width:0.625;stroke-linecap:butt;stroke-linejoin:miter;stroke-miterlimit:4;stroke-opacity:1;stroke-dasharray:none;stroke-dashoffset:0;marker:none;visibility:visible;display:inline;overflow:visible;enable-background:accumulate"
     d="m 6.3734153,128.375 32.9659497,0"
     id="path3023"
     inkscape:connector-curvature="0" /><ellipse
     sodipodi:ry="5.7979999"
     sodipodi:rx="2.392"
     sodipodi:cy="73.417"
     sodipodi:cx="40.094002"
     id="ellipse11"
     ry="5.7979999"
     rx="2.392"
     cy="73.417"
     cx="40.094002"
     style="fill:#737373;fill-opacity:1" /><ellipse
     sodipodi:ry="3.1889999"
     sodipodi:rx="5.7979999"
     sodipodi:cy="84.625999"
     sodipodi:cx="34.724998"
     id="ellipse13"
     ry="3.1889999"
     rx="5.7979999"
     cy="84.625999"
     cx="34.724998"
     style="fill:#737373;fill-opacity:1"
     transform="matrix(-0.2249,-0.9744,0.9744,-0.2249,-39.9226,137.4961)" /><ellipse
     sodipodi:ry="3.1889999"
     sodipodi:rx="5.7979999"
     sodipodi:cy="87.304001"
     sodipodi:cx="29.125999"
     id="ellipse15"
     ry="3.1889999"
     rx="5.7979999"
     cy="87.304001"
     cx="29.125999"
     style="fill:#737373;fill-opacity:1"
     transform="matrix(-0.2249,-0.9744,0.9744,-0.2249,-49.3894,135.3219)" /><ellipse
     sodipodi:ry="3.1889999"
     sodipodi:rx="5.7979999"
     sodipodi:cy="90.549004"
     sodipodi:cx="24.184999"
     id="ellipse17"
     ry="3.1889999"
     rx="5.7979999"
     cy="90.549004"
     cx="24.184999"
     style="fill:#737373;fill-opacity:1"
     transform="matrix(-0.225,-0.9744,0.9744,-0.225,-58.6016,134.4852)" /><ellipse
     sodipodi:ry="8.408"
     sodipodi:rx="10.727"
     sodipodi:cy="97.146004"
     sodipodi:cx="32.060001"
     id="ellipse19"
     ry="8.408"
     rx="10.727"
     cy="97.146004"
     cx="32.060001"
     style="fill:#737373;fill-opacity:1" /><rect
     id="rect21"
     height="13.53"
     width="15.17"
     style="fill:#737373;fill-opacity:1"
     y="98.582001"
     x="25.705" /><ellipse
     sodipodi:ry="6.3779998"
     sodipodi:rx="4.059"
     sodipodi:cy="96.942001"
     sodipodi:cx="42.556999"
     id="ellipse23"
     ry="6.3779998"
     rx="4.059"
     cy="96.942001"
     cx="42.556999"
     style="fill:#737373;fill-opacity:1" /><rect
     id="rect25"
     height="24.927999"
     width="5.2579999"
     style="fill:#737373;fill-opacity:1"
     y="72.997002"
     x="37.425999" /><rect
     id="rect27"
     height="6.5600004"
     width="9.8400002"
     style="fill:#737373;fill-opacity:1"
     transform="matrix(-0.342,0.9397,-0.9397,-0.342,0,0)"
     y="-75.547073"
     x="78.9216" /><rect
     x="4"
     y="54.841999"
     style="fill:none;stroke:#000000;stroke-width:0.5"
     width="136.08"
     height="12.997"
     id="rect29" /><line
     style="fill:none;stroke:#b4b4b4;stroke-width:3"
     x1="138"
     y1="54"
     x2="138"
     y2="0"
     id="line39" /><line
     style="fill:none;stroke:#000000;stroke-width:0.5"
     x1="6.0560927"
     y1="122.375"
     x2="6.0560927"
     y2="134.375"
     id="line41" /><line
     style="fill:none;stroke:#000000;stroke-width:0.5"
     x1="39.882378"
     y1="122.375"
     x2="39.882378"
     y2="134.375"
     id="line43" /><line
     style="fill:none;stroke:#000000;stroke-width:0.5"
     x1="6"
     y1="145"
     x2="6"
     y2="157"
     id="line45" /><line
     style="fill:none;stroke:#000000;stroke-width:0.5"
     x1="139"
     y1="145"
     x2="139"
     y2="157"
     id="line47" /><g
     id="g49"
     transform="matrix(1.0673303,0,0,1,-6.5208491,0)"><line
       style="fill:none;stroke:#000000;stroke-width:0.5"
       x1="15"
       y1="152"
       x2="133"
       y2="152"
       id="line51" /><path
       d="m 136.018,152 c -1.42,0.527 -3.182,1.426 -4.273,2.377 l 0.86,-2.377 -0.86,-2.377 c 1.091,0.951 2.853,1.851 4.273,2.377 z"
       id="path53"
       inkscape:connector-curvature="0" /><path
       d="m 11.982,152 c 1.42,-0.527 3.182,-1.426 4.273,-2.377 l -0.859,2.377 0.86,2.377 C 15.164,153.426 13.402,152.526 11.982,152 z"
       id="path55"
       inkscape:connector-curvature="0" /></g><path
     inkscape:connector-curvature="0"
     id="path61"
     d="m 40.196971,128.375 c -1.42,0.527 -3.182,1.426 -4.273,2.377 l 0.86,-2.377 -0.86,-2.377 c 1.091,0.951 2.853,1.851 4.273,2.377 z" /><path
     inkscape:connector-curvature="0"
     id="path63"
     d="m 6.6426326,128.375 c 1.42,-0.527 3.182,-1.426 4.2730004,-2.377 l -0.859,2.377 0.86,2.377 c -1.0920004,-0.951 -2.8540004,-1.851 -4.2740004,-2.377 z" /><rect
     x="65"
     y="145"
     style="fill:#ffffff"
     width="13"
     height="14"
     id="rect65" /><rect
     x="17.749462"
     y="121.375"
     style="fill:#ffffff"
     width="13"
     height="14"
     id="rect67" /><g
     id="g69"
     transform="translate(-67.250539,-0.45617676)"><g
       id="g71"><text
         transform="translate(88,132)"
         id="text73"><tspan
           x="0"
           y="0"
           style="font-size:8.5px;font-family:Bitstream Vera Sans"
           id="tspan75">b</tspan></text>
</g></g><g
     id="g77"
     transform="translate(0,-1.098865)"><g
       id="g79"><text
         transform="translate(69,157)"
         id="text81"><tspan
           x="0"
           y="0"
           style="font-size:8.5px;font-family:Bitstream Vera Sans"
           id="tspan83">L</tspan></text>
</g></g><rect
     x="0"
     id="rect85"
     height="2.835"
     width="147.401"
     style="fill:none"
     y="77.188004" /></svg>