<?xml version="1.0" encoding="UTF-8" standalone="no"?>
<svg
   xmlns:dc="http://purl.org/dc/elements/1.1/"
   xmlns:cc="http://creativecommons.org/ns#"
   xmlns:rdf="http://www.w3.org/1999/02/22-rdf-syntax-ns#"
   xmlns:svg="http://www.w3.org/2000/svg"
   xmlns="http://www.w3.org/2000/svg"
   xmlns:sodipodi="http://sodipodi.sourceforge.net/DTD/sodipodi-0.dtd"
   xmlns:inkscape="http://www.inkscape.org/namespaces/inkscape"
   version="1.0"
   width="627.000000pt"
   height="609.000000pt"
   viewBox="0 0 627.000000 609.000000"
   preserveAspectRatio="xMidYMid meet"
   id="svg2"
   sodipodi:docname="aa.svg">
  <defs
     id="defs48" />
  <sodipodi:namedview
     pagecolor="#ffffff"
     bordercolor="#666666"
     borderopacity="1"
     objecttolerance="10"
     gridtolerance="10"
     guidetolerance="10"
     inkscape:pageopacity="0"
     inkscape:pageshadow="2"
     inkscape:window-width="640"
     inkscape:window-height="480"
     id="namedview46"
     showgrid="false"
     inkscape:zoom="0.31001642"
     inkscape:cx="391.875"
     inkscape:cy="380.625"
     inkscape:window-x="0"
     inkscape:window-y="0"
     inkscape:window-maximized="0"
     inkscape:current-layer="svg2" />
  <metadata
     id="metadata4">
Created by potrace 1.10, written by Peter Selinger 2001-2011
<rdf:RDF>
  <cc:Work
     rdf:about="">
    <dc:format>image/svg+xml</dc:format>
    <dc:type
       rdf:resource="http://purl.org/dc/dcmitype/StillImage" />
    <dc:title></dc:title>
  </cc:Work>
</rdf:RDF>
</metadata>
  <rect
     style="fill:#dedede;fill-opacity:1;stroke:#ffffff;stroke-width:0.80000001;stroke-miterlimit:4;stroke-opacity:1;stroke-dasharray:0.8, 0.8;stroke-dashoffset:0"
     id="rect3025"
     width="637.38562"
     height="611.58051"
     x="-5.1610045"
     y="-7.4354273e-07" />
  <g
     transform="matrix(0.09998233,-0.00187978,-0.00187978,-0.09998233,5.8617907,614.91)"
     id="g6"
     style="fill:#000000;stroke:none">
    <path
       d="m 1311,5488 c -1,-144 -6,-293 -11,-332 -13,-100 -13,-246 1,-246 7,0 9,-70 5,-237 -19,-780 -17,-719 -31,-873 -3,-36 -10,-211 -15,-390 -5,-179 -14,-431 -19,-560 -14,-347 -17,-655 -8,-923 5,-164 4,-250 -3,-278 -9,-33 -8,-45 5,-65 31,-48 70,-17 89,74 9,37 17,38 96,17 159,-43 518,-56 675,-25 80,16 531,1 872,-30 148,-13 384,-16 860,-12 199,2 366,2 370,-1 4,-2 150,-8 323,-11 173,-4 358,-9 410,-11 52,-2 181,-7 285,-10 105,-4 193,-9 196,-13 4,-4 9,-35 11,-70 5,-69 16,-87 46,-78 27,9 41,54 44,138 2,59 -1,70 -20,88 -12,12 -22,27 -22,34 0,7 -33,63 -74,124 -96,146 -193,386 -236,587 -6,28 -19,73 -30,100 -22,56 -108,360 -135,475 -9,41 -25,104 -35,140 -10,36 -23,90 -30,120 -11,51 -47,175 -90,315 -61,195 -174,598 -216,770 -14,61 -42,151 -61,200 -20,50 -50,134 -68,187 -100,295 -265,412 -602,424 -123,5 -151,3 -218,-15 -96,-27 -164,-61 -240,-121 -139,-111 -424,-435 -595,-677 -78,-111 -162,-225 -328,-441 -269,-351 -511,-721 -673,-1027 -29,-55 -62,-116 -75,-136 -12,-20 -41,-71 -64,-115 -23,-43 -66,-122 -95,-174 -113,-202 -138,-249 -190,-354 -30,-60 -55,-115 -55,-122 0,-8 -4,-14 -9,-14 -19,0 -23,213 -12,689 6,273 13,510 15,526 3,17 7,131 11,255 3,124 10,293 15,375 16,268 20,451 25,1035 3,316 10,604 15,640 6,42 6,91 -1,140 -15,111 -25,136 -63,154 -19,9 -36,16 -39,16 -2,0 -5,-118 -6,-262 z m 2753,-478 c 90,-14 188,-56 231,-98 48,-48 78,-106 143,-282 69,-186 65,-176 117,-375 24,-93 78,-289 120,-435 42,-146 87,-303 100,-350 13,-47 29,-98 35,-115 6,-16 22,-77 36,-135 13,-58 28,-123 34,-145 102,-399 136,-524 154,-566 8,-19 27,-82 41,-140 29,-113 103,-348 115,-364 4,-5 21,-41 37,-80 16,-38 53,-106 81,-149 29,-44 52,-86 52,-94 0,-12 -25,-13 -162,-8 -90,3 -271,8 -403,11 -132,3 -292,8 -355,11 -63,3 -414,7 -780,9 -366,1 -685,5 -710,9 -82,10 -153,16 -350,26 -408,20 -447,21 -540,10 -172,-20 -319,-23 -454,-10 -123,12 -242,32 -253,44 -3,3 15,38 39,78 24,40 52,91 62,113 39,84 190,362 221,406 18,25 36,55 39,67 4,12 12,22 17,22 5,0 8,3 7,8 -4,13 13,52 23,52 5,0 9,5 9,10 0,6 5,16 10,23 26,31 70,104 146,242 81,147 150,263 288,481 80,128 157,233 483,665 81,108 176,236 210,285 158,227 457,567 582,664 59,45 147,92 196,105 85,23 248,25 379,5 z"
       id="path8"
       inkscape:connector-curvature="0" />
    <path
       d="m 636,4969 c -39,-11 -76,-48 -76,-75 0,-61 56,-137 130,-175 131,-66 340,18 340,138 0,22 -7,37 -22,47 -33,23 -37,21 -60,-35 -16,-38 -30,-55 -59,-70 -21,-10 -47,-19 -58,-19 -17,0 -19,5 -14,33 14,90 -92,182 -181,156 z"
       id="path10"
       inkscape:connector-curvature="0" />
    <path
       d="m 602,4644 c -32,-22 -29,-62 6,-70 106,-25 138,-37 175,-66 52,-42 37,-46 -74,-19 -74,17 -87,18 -111,5 -31,-16 -50,-46 -43,-67 7,-17 156,-47 232,-47 60,0 96,13 136,49 34,31 34,57 1,92 l -26,27 31,18 c 62,37 28,77 -56,68 -29,-4 -80,0 -127,10 -97,20 -116,20 -144,0 z"
       id="path12"
       inkscape:connector-curvature="0" />
    <path
       d="m 651,4327 c -39,-24 -49,-72 -26,-116 19,-37 16,-44 -25,-61 -23,-10 -30,-19 -30,-41 0,-32 14,-37 150,-60 41,-6 93,-18 114,-25 37,-13 42,-13 83,12 34,19 43,31 41,47 -3,24 -37,44 -89,52 -34,5 -140,87 -128,99 3,3 21,1 39,-4 97,-28 190,-7 190,43 0,21 -8,24 -97,41 -187,34 -190,34 -222,13 z"
       id="path14"
       inkscape:connector-curvature="0" />
    <path
       d="m 890,3953 c -3,-192 -6,-203 -60,-203 -18,0 -26,6 -27,20 -3,33 -38,103 -69,137 -56,61 -118,62 -167,1 -40,-50 -32,-93 28,-153 110,-111 254,-124 343,-32 71,74 54,247 -25,247 -15,0 -23,-6 -23,-17 z"
       id="path16"
       inkscape:connector-curvature="0" />
    <path
       d="m 500,3670 c -11,-11 -17,-26 -14,-34 7,-19 48,-46 69,-46 9,0 50,-20 91,-44 l 75,-44 -43,-7 c -87,-13 -99,-17 -115,-42 -16,-24 -16,-26 3,-40 19,-14 62,-13 219,3 62,7 112,30 132,60 25,39 0,65 -83,87 -38,10 -85,28 -104,41 -41,26 -113,56 -136,56 -8,0 -22,7 -30,15 -21,20 -40,19 -64,-5 z"
       id="path18"
       inkscape:connector-curvature="0" />
    <path
       d="m 854,3248 c 1,-111 -15,-161 -57,-172 -17,-4 -18,-1 -13,30 14,71 -79,207 -152,220 -69,13 -119,-42 -107,-117 14,-81 116,-196 194,-220 104,-31 206,62 230,210 15,90 -13,151 -69,151 l -27,0 1,-102 z"
       id="path20"
       inkscape:connector-curvature="0" />
    <path
       d="m 457,3121 c -25,-30 -25,-31 -11,-91 17,-74 43,-126 83,-169 30,-32 30,-32 8,-40 -31,-12 -59,-45 -52,-63 5,-11 19,-14 62,-10 31,3 100,-1 154,-8 103,-13 119,-10 160,31 34,34 21,53 -43,60 -44,5 -71,16 -125,52 -82,54 -114,97 -146,193 -28,82 -50,93 -90,45 z"
       id="path22"
       inkscape:connector-curvature="0" />
    <path
       d="m 1175,1423 c -26,-6 -73,-51 -92,-87 -24,-46 -14,-144 20,-195 54,-82 154,-119 243,-91 60,19 121,85 137,149 9,34 -22,98 -70,149 -31,33 -47,42 -74,42 -19,0 -54,9 -78,20 -44,20 -51,21 -86,13 z m 103,-92 c 15,-10 49,-22 76,-25 81,-10 90,-55 23,-121 -57,-57 -114,-74 -169,-49 -50,22 -68,48 -68,98 0,33 7,45 40,78 46,43 60,46 98,19 z"
       id="path24"
       inkscape:connector-curvature="0" />
    <path
       d="m 5742,1341 c -17,-17 -38,-44 -47,-61 -8,-16 -19,-30 -23,-30 -5,0 -21,14 -37,30 -75,79 -218,-15 -160,-104 20,-30 67,-50 100,-42 14,4 25,5 25,3 0,-2 -16,-34 -35,-73 -38,-76 -44,-114 -19,-139 15,-15 18,-15 35,1 10,9 21,30 25,48 6,28 29,67 129,221 53,82 78,138 68,154 -16,25 -28,23 -61,-8 z m -187,-111 c -3,-5 -10,-10 -16,-10 -5,0 -9,5 -9,10 0,6 7,10 16,10 8,0 12,-4 9,-10 z"
       id="path26"
       inkscape:connector-curvature="0" />
    <path
       d="m 4731,1337 c -6,-7 -10,-27 -9,-43 2,-49 -13,-206 -24,-257 -12,-57 7,-97 47,-97 34,0 44,24 56,137 24,229 24,238 -2,257 -28,19 -53,21 -68,3 z"
       id="path28"
       inkscape:connector-curvature="0" />
    <path
       d="m 4948,1273 c -105,-110 -102,-232 6,-284 43,-22 44,-22 82,-3 26,13 47,34 64,64 l 24,45 11,-36 c 14,-50 39,-75 91,-93 82,-28 147,15 189,127 15,39 16,54 7,85 -15,50 -69,101 -115,109 -59,9 -82,-2 -122,-63 l -38,-57 -26,52 c -38,76 -55,91 -99,91 -31,0 -45,-7 -74,-37 z m 82,-153 c -41,-64 -70,-75 -70,-27 0,34 33,89 64,108 l 31,19 3,-26 c 2,-15 -8,-44 -28,-74 z m 302,73 c 24,-22 23,-53 -5,-94 -49,-73 -107,-78 -107,-9 0,89 63,147 112,103 z"
       id="path30"
       inkscape:connector-curvature="0" />
    <path
       d="m 5756,1105 c -45,-44 -68,-88 -59,-112 14,-41 45,-63 88,-63 108,0 150,51 109,133 -43,84 -84,97 -138,42 z m 74,-48 c 0,-14 -20,-37 -32,-37 -4,0 -2,11 4,25 12,27 28,34 28,12 z"
       id="path32"
       inkscape:connector-curvature="0" />
    <path
       d="m 2466,992 c -3,-5 -8,-43 -12,-85 l -7,-77 -64,0 c -107,0 -156,-33 -120,-81 19,-25 48,-30 115,-21 73,10 71,13 69,-125 -1,-97 5,-112 43,-113 30,0 40,24 41,99 1,42 4,90 8,106 6,27 10,30 42,27 70,-6 75,45 8,75 l -40,17 7,67 c 6,63 5,69 -19,93 -25,25 -61,34 -71,18 z"
       id="path34"
       inkscape:connector-curvature="0" />
    <path
       d="m 4271,891 c -8,-6 -14,-29 -15,-62 -1,-52 -2,-54 -31,-59 -51,-9 -44,-67 12,-99 13,-7 16,-23 14,-74 -3,-85 18,-130 57,-125 26,3 27,5 34,92 5,73 10,90 27,103 25,17 27,45 6,63 -10,8 -15,31 -15,70 0,51 -3,61 -26,79 -29,23 -42,25 -63,12 z"
       id="path36"
       inkscape:connector-curvature="0" />
    <path
       d="m 3154,842 c -5,-4 -25,-31 -43,-59 -18,-29 -37,-53 -41,-53 -4,0 -11,11 -14,25 -7,28 -61,66 -82,58 -24,-9 -16,-69 16,-123 l 30,-51 -25,-24 c -13,-14 -31,-25 -40,-25 -19,0 -42,50 -51,112 -9,62 -26,84 -77,97 -48,12 -73,5 -130,-33 -36,-24 -82,-92 -91,-132 -9,-40 15,-101 52,-131 53,-43 128,-21 158,47 20,44 30,50 39,21 5,-17 41,-39 127,-75 48,-21 83,-6 98,40 13,38 17,40 46,20 36,-25 68,22 37,56 -18,20 -16,28 42,126 14,23 25,48 25,56 0,25 -57,61 -76,48 z M 2755,647 c -9,-19 -25,-43 -36,-53 -18,-16 -19,-16 -19,4 0,21 58,97 67,88 3,-2 -3,-20 -12,-39 z"
       id="path38"
       inkscape:connector-curvature="0" />
    <path
       d="m 3784,776 c -34,-34 -35,-34 -63,-19 -39,23 -65,11 -57,-25 3,-15 10,-71 16,-124 10,-107 17,-127 54,-151 40,-26 68,-2 56,48 -21,88 46,213 113,213 35,-1 41,5 32,32 -7,21 -74,59 -103,60 -8,0 -29,-15 -48,-34 z"
       id="path40"
       inkscape:connector-curvature="0" />
    <path
       d="m 4535,774 c -83,-45 -116,-99 -114,-188 2,-83 19,-101 105,-109 73,-8 123,5 154,38 19,20 21,27 10,40 -7,8 -27,15 -45,15 l -33,0 29,53 c 36,66 39,120 6,142 -36,23 -79,27 -112,9 z"
       id="path42"
       inkscape:connector-curvature="0" />
    <path
       d="m 4040,737 c -34,-8 -59,-25 -99,-64 -52,-53 -53,-55 -48,-101 9,-81 82,-125 142,-86 24,15 25,15 34,-9 24,-63 99,-68 86,-6 -11,49 -8,170 4,182 17,17 13,42 -11,64 -31,28 -55,32 -108,20 z"
       id="path44"
       inkscape:connector-curvature="0" />
  </g>
</svg>
