<?xml version="1.0" encoding="UTF-8" standalone="no"?>
<svg
   xmlns:dc="http://purl.org/dc/elements/1.1/"
   xmlns:cc="http://creativecommons.org/ns#"
   xmlns:rdf="http://www.w3.org/1999/02/22-rdf-syntax-ns#"
   xmlns:svg="http://www.w3.org/2000/svg"
   xmlns="http://www.w3.org/2000/svg"
   xmlns:sodipodi="http://sodipodi.sourceforge.net/DTD/sodipodi-0.dtd"
   xmlns:inkscape="http://www.inkscape.org/namespaces/inkscape"
   version="1.0"
   width="603.000000pt"
   height="582.000000pt"
   viewBox="0 0 603.000000 582.000000"
   preserveAspectRatio="xMidYMid meet"
   id="svg2"
   sodipodi:docname="aa.svg">
  <defs
     id="defs58" />
  <sodipodi:namedview
     pagecolor="#ffffff"
     bordercolor="#666666"
     borderopacity="1"
     objecttolerance="10"
     gridtolerance="10"
     guidetolerance="10"
     inkscape:pageopacity="0"
     inkscape:pageshadow="2"
     inkscape:window-width="640"
     inkscape:window-height="480"
     id="namedview56"
     showgrid="false"
     inkscape:zoom="0.32439863"
     inkscape:cx="376.875"
     inkscape:cy="363.75"
     inkscape:window-x="0"
     inkscape:window-y="0"
     inkscape:window-maximized="0"
     inkscape:current-layer="svg2" />
  <metadata
     id="metadata4">
Created by potrace 1.10, written by Peter Selinger 2001-2011
<rdf:RDF>
  <cc:Work
     rdf:about="">
    <dc:format>image/svg+xml</dc:format>
    <dc:type
       rdf:resource="http://purl.org/dc/dcmitype/StillImage" />
    <dc:title></dc:title>
  </cc:Work>
</rdf:RDF>
</metadata>
  <rect
     style="fill:#dedede;fill-opacity:1;stroke:none"
     id="rect3035"
     width="586.93219"
     height="579.53387"
     x="2.4661016"
     y="2.4661016" />
  <g
     transform="translate(0.000000,582.000000) scale(0.100000,-0.100000)"
     fill="#000000"
     stroke="none"
     id="g6">
    <path
       d="M738 5383 c-4 -86 -7 -257 -6 -318 2 -111 2 -129 -6 -367 -6 -160 -5 -261 2 -315 35 -251 34 -226 34 -1048 -1 -176 0 -651 1 -1055 1 -508 -2 -780 -10 -880 -7 -80 -15 -195 -19 -257 l-6 -112 33 -21 c19 -11 43 -19 54 -18 18 3 21 13 26 113 24 415 32 628 33 862 1 558 -12 2149 -17 2163 -4 8 -14 71 -23 140 -16 128 -21 482 -8 622 l7 68 51 -5 c28 -3 80 -9 116 -14 36 -6 103 -14 150 -20 47 -6 99 -15 115 -20 17 -5 91 -24 165 -41 176 -40 208 -49 248 -66 18 -8 39 -14 47 -14 7 0 26 -6 42 -14 40 -21 122 -56 129 -56 3 0 21 -7 40 -15 19 -8 49 -22 68 -30 19 -8 37 -15 41 -15 11 0 195 -91 240 -119 22 -13 76 -48 120 -76 44 -29 92 -59 106 -66 69 -36 105 -59 249 -155 183 -123 220 -149 320 -229 124 -98 222 -185 270 -236 25 -27 51 -49 56 -49 13 0 79 -74 427 -480 45 -52 133 -147 197 -211 63 -64 146 -152 183 -195 38 -44 90 -103 115 -132 26 -29 67 -77 92 -105 25 -29 79 -86 122 -127 42 -41 111 -118 155 -170 43 -52 121 -140 173 -195 52 -56 147 -159 210 -230 63 -72 163 -178 223 -238 98 -97 110 -106 130 -96 30 17 53 48 68 92 12 37 12 38 -26 77 -44 46 -62 50 -74 17 -8 -21 -9 -21 -46 17 -36 38 -36 40 -16 48 30 11 26 39 -12 76 -35 34 -64 41 -73 17 -5 -11 -17 -2 -49 33 -40 44 -42 48 -24 60 28 20 23 37 -25 88 -46 48 -67 52 -76 17 -4 -18 -15 -11 -83 57 -43 43 -69 76 -59 73 10 -2 24 3 31 11 11 13 9 21 -9 51 -43 70 -123 101 -99 38 6 -15 18 -37 27 -48 9 -11 -68 63 -171 165 -103 101 -187 191 -187 199 0 22 -285 355 -402 467 -34 34 -79 77 -98 96 -19 18 -44 45 -55 58 -267 332 -582 663 -741 780 -34 25 -95 72 -136 105 -163 129 -425 310 -503 346 -22 10 -49 24 -59 31 -11 7 -55 37 -99 66 -194 130 -654 323 -910 383 -51 11 -121 29 -157 39 -36 10 -83 21 -105 25 -22 3 -58 10 -80 15 -38 9 -242 23 -332 23 -48 0 -50 6 -32 70 7 25 7 54 0 92 -8 42 -7 67 5 111 13 52 13 58 -2 75 -10 11 -31 19 -51 19 -32 0 -33 -1 -35 -47z"
       id="path8" />
    <path
       d="M2340 5315 c-11 -13 -10 -21 1 -42 15 -28 98 -113 111 -113 13 0 29 40 21 54 -13 23 -103 116 -112 116 -5 0 -14 -7 -21 -15z"
       id="path10" />
    <path
       d="M2583 5044 c-12 -33 62 -134 87 -119 20 12 4 75 -26 107 -31 32 -52 36 -61 12z"
       id="path12" />
    <path
       d="M2757 4843 c-15 -14 -5 -36 44 -98 52 -67 82 -91 99 -80 26 16 -1 74 -67 143 -38 40 -61 50 -76 35z"
       id="path14" />
    <path
       d="M3047 4503 c-4 -3 -7 -16 -7 -27 0 -27 113 -150 131 -144 28 9 20 45 -22 99 -58 74 -83 91 -102 72z"
       id="path16" />
    <path
       d="M3351 4161 c-8 -14 -4 -29 19 -64 31 -50 60 -70 84 -61 27 10 18 44 -25 95 -44 53 -63 60 -78 30z"
       id="path18" />
    <path
       d="M3596 3884 c-9 -8 -13 -21 -9 -27 60 -93 87 -129 109 -146 65 -51 64 12 -1 100 -60 81 -78 95 -99 73z"
       id="path20" />
    <path
       d="M371 3497 c-46 -23 -47 -40 -11 -97 23 -36 46 -58 74 -71 l40 -18 -152 -3 c-141 -3 -153 -5 -174 -25 l-22 -22 28 -11 c15 -5 66 -10 112 -10 81 0 85 -1 79 -20 -9 -28 40 -75 94 -91 38 -11 44 -10 68 8 37 27 54 71 40 103 -5 14 -9 33 -8 43 2 12 -6 21 -19 24 -19 5 -16 8 18 23 69 31 113 110 76 137 -20 15 -17 18 -76 -56 -25 -29 -48 -27 -48 5 0 38 -18 64 -55 80 -41 17 -35 17 -64 1z m67 -268 c32 -11 48 -34 31 -45 -12 -7 -60 25 -67 44 -5 15 -3 15 36 1z"
       id="path22" />
    <path
       d="M3923 3503 c-22 -8 -15 -33 24 -87 60 -84 104 -114 117 -80 12 32 -96 181 -126 173 -2 0 -9 -3 -15 -6z"
       id="path24" />
    <path
       d="M4187 3193 c-20 -20 -2 -59 60 -131 81 -93 86 -97 97 -73 11 25 -34 110 -90 168 -40 42 -54 50 -67 36z"
       id="path26" />
    <path
       d="M347 3065 c-24 -24 -21 -52 6 -59 28 -7 77 -43 77 -57 0 -5 -18 -9 -40 -7 -49 2 -81 -22 -61 -46 9 -11 10 -20 2 -35 -9 -16 -23 -21 -68 -23 -40 -2 -59 -8 -67 -20 -16 -26 5 -41 68 -46 52 -4 56 -6 68 -38 15 -43 41 -44 65 -3 16 27 22 30 58 26 53 -5 85 7 85 33 0 26 -31 37 -107 39 -28 1 -33 5 -33 26 0 22 4 25 33 25 36 0 71 20 88 52 9 16 7 26 -10 48 -18 24 -18 30 -6 40 19 15 19 36 2 43 -8 3 -43 8 -79 12 -53 6 -68 4 -81 -10z"
       id="path28" />
    <path
       d="M4454 2815 c-7 -16 26 -72 70 -118 21 -23 29 -26 46 -17 27 15 25 26 -12 81 -43 62 -92 87 -104 54z"
       id="path30" />
    <path
       d="M277 2664 c-20 -11 -27 -22 -25 -37 5 -33 55 -30 81 5 11 15 19 29 16 32 -14 13 -48 13 -72 0z"
       id="path32" />
    <path
       d="M418 2665 c-37 -20 -35 -40 3 -55 35 -15 75 -5 93 22 22 36 -49 59 -96 33z"
       id="path34" />
    <path
       d="M4661 2586 c-21 -25 71 -155 101 -144 32 13 27 46 -13 97 -40 51 -71 67 -88 47z"
       id="path36" />
    <path
       d="M335 2557 c-32 -32 -41 -36 -90 -35 -54 2 -85 -12 -85 -38 0 -7 23 -17 58 -24 81 -17 80 -16 84 -42 5 -35 51 -37 66 -3 10 23 17 25 70 25 64 0 99 17 89 44 -5 13 -21 16 -78 16 -69 0 -71 1 -64 23 22 69 0 84 -50 34z"
       id="path38" />
    <path
       d="M182 2334 c-30 -20 -29 -54 1 -54 12 0 86 -2 164 -4 118 -4 145 -2 158 10 31 31 21 37 -85 54 -99 15 -211 13 -238 -6z"
       id="path40" />
    <path
       d="M489 2224 c-10 -12 -25 -14 -75 -9 -83 9 -123 0 -135 -32 -21 -55 62 -165 136 -179 41 -7 91 10 105 37 13 23 13 75 0 100 -8 14 -7 25 5 41 8 13 15 30 15 40 0 22 -33 24 -51 2z m-43 -109 c30 -30 28 -59 -3 -63 -28 -4 -64 19 -86 58 l-18 30 41 0 c30 0 47 -6 66 -25z"
       id="path42" />
    <path
       d="M4595 972 c-22 -1 -96 -9 -165 -18 -78 -10 -185 -15 -285 -13 -403 6 -741 3 -1110 -11 -604 -23 -1835 -19 -2182 7 -71 5 -83 3 -89 -11 -5 -14 32 -84 46 -87 26 -4 1258 -23 1445 -22 180 1 608 13 1035 30 218 9 436 10 835 3 219 -3 292 -1 388 13 129 19 302 21 472 7 194 -17 341 -23 369 -16 34 8 34 35 0 70 -25 24 -34 26 -108 26 -44 0 -108 5 -141 10 -56 10 -422 19 -510 12z"
       id="path44" />
    <path
       d="M2649 559 c-6 -12 -13 -36 -16 -53 -7 -52 -11 -56 -51 -56 -42 0 -79 -21 -68 -38 4 -7 28 -12 53 -12 l45 0 -6 -36 c-4 -19 -9 -41 -11 -47 -3 -7 2 -21 10 -31 19 -25 30 -15 54 50 18 46 21 49 59 52 58 4 63 29 11 50 l-40 15 7 55 c5 41 3 56 -7 63 -21 13 -27 11 -40 -12z"
       id="path46" />
    <path
       d="M2790 511 c0 -10 8 -29 18 -41 31 -38 65 -6 46 44 -9 24 -64 21 -64 -3z"
       id="path48" />
    <path
       d="M2926 467 c-15 -52 -21 -137 -10 -151 16 -22 45 -20 51 4 6 24 19 26 27 4 9 -22 48 -14 62 14 18 36 27 39 21 8 -7 -41 8 -76 33 -76 21 0 26 13 33 94 6 64 -6 96 -35 96 -13 0 -30 -5 -38 -10 -10 -6 -20 -5 -30 4 -22 19 -110 29 -114 13z m67 -87 c-3 -12 -8 -19 -11 -16 -5 6 5 36 12 36 2 0 2 -9 -1 -20z"
       id="path50" />
    <path
       d="M3265 461 c-46 -21 -85 -81 -85 -129 0 -60 96 -137 163 -130 27 2 33 8 35 31 3 23 0 27 -22 27 -26 0 -96 29 -96 40 0 3 13 13 29 23 69 40 99 107 65 141 -20 21 -40 20 -89 -3z m19 -69 c-18 -16 -30 -20 -32 -13 -2 7 9 23 25 36 18 16 29 21 32 13 2 -6 -9 -23 -25 -36z"
       id="path52" />
    <path
       d="M2810 415 c-7 -9 -15 -37 -18 -63 -5 -55 16 -85 46 -65 23 14 38 108 22 128 -16 19 -34 19 -50 0z"
       id="path54" />
  </g>
</svg>
